<?xml version="1.0" encoding="iso-8859-1"?>
<!-- Generator: Adobe Illustrator 19.0.0, SVG Export Plug-In . SVG Version: 6.00 Build 0)  -->
<svg version="1.1" id="Layer_1" xmlns="http://www.w3.org/2000/svg" xmlns:xlink="http://www.w3.org/1999/xlink" x="0px" y="0px"
	 viewBox="0 0 512 512" style="enable-background:new 0 0 512 512;" xml:space="preserve">
<path style="fill:#80D3CF;" d="M305.078,43.262h-98.156c-77.927,0-141.101,63.174-141.101,141.1v26.073v26.072
	c0,77.927,63.174,141.1,141.101,141.1h98.156c77.927,0,141.101-63.173,141.101-141.1v-26.072v-26.073
	C446.179,106.435,383.005,43.262,305.078,43.262z"/>
<path style="fill:#FFFFFF;" d="M423.367,184.364h-15.208c0-56.84-46.242-103.081-103.081-103.081V66.074
	C370.303,66.074,423.367,119.139,423.367,184.364z"/>
<path style="fill:#34B6D0;" d="M65.821,210.436v26.072c0,77.927,63.174,141.1,141.101,141.1h98.156
	c77.927,0,141.101-63.173,141.101-141.1v-26.072H65.821z"/>
<g>
	<rect x="337.454" y="233.249" style="fill:#FFFFFF;" width="78.24" height="15.208"/>
	<rect x="268.511" y="233.249" style="fill:#FFFFFF;" width="48.663" height="15.208"/>
</g>
<circle style="fill:#FF6A5E;" cx="101.092" cy="457.251" r="47.145"/>
<rect x="207.335" y="7.604" style="fill:#34B6D0;" width="97.341" height="35.658"/>
<g>
	<path style="fill:#311363;" d="M101.096,432.919c-13.416,0-24.333,10.916-24.333,24.333c0,13.416,10.916,24.333,24.333,24.333
		s24.333-10.916,24.333-24.333C125.429,443.835,114.513,432.919,101.096,432.919z M101.096,466.376
		c-5.031,0-9.125-4.093-9.125-9.125s4.094-9.125,9.125-9.125s9.125,4.093,9.125,9.125S106.127,466.376,101.096,466.376z"/>
	<path style="fill:#311363;" d="M481.454,187.625v-15.208h-28.152c-5.916-74.067-66.337-133.006-141.03-136.581V15.208h25.178V0
		h-25.178H199.728h-25.178v15.208h25.178v20.627C125.034,39.411,64.613,98.35,58.698,172.417H30.546v15.208h27.67v15.208h-27.67
		v15.208h27.67v18.469c0,52.737,27.597,99.144,69.106,125.554l-13.411,41.97c-4.114-0.991-8.402-1.53-12.815-1.53
		c-30.189,0-54.749,24.561-54.749,54.749S70.906,512,101.095,512s54.749-24.561,54.749-54.749c0-3.84-0.401-7.587-1.158-11.206
		h240.843l19.378,60.664l14.487-4.627l-44.725-140.015c41.513-26.408,69.114-72.819,69.114-125.559v-18.467h27.67v-15.208h-27.67
		v-15.208H481.454z M297.064,15.208v20.451h-82.129V15.208H297.064z M101.096,496.792c-21.803,0-39.541-17.737-39.541-39.541
		s17.738-39.541,39.541-39.541s39.541,17.737,39.541,39.541S122.899,496.792,101.096,496.792z M380.956,400.422H268.509v15.208
		h117.305l4.858,15.208H149.032c-4.894-8.847-12.167-16.194-20.948-21.192l12.765-39.945c19.917,9.921,42.353,15.513,66.074,15.513
		h98.156c23.717,0,46.151-5.591,66.066-15.509L380.956,400.422z M438.575,236.509c0,73.61-59.887,133.497-133.497,133.497h-98.156
		c-73.61,0-133.497-59.886-133.497-133.497v-18.467h44.352v-15.208H73.425v-18.471c0-73.61,59.887-133.496,133.497-133.496h98.156
		c73.61,0,133.497,59.886,133.497,133.496v18.471H138.054v15.208h300.521L438.575,236.509L438.575,236.509z"/>
</g>
<g>
</g>
<g>
</g>
<g>
</g>
<g>
</g>
<g>
</g>
<g>
</g>
<g>
</g>
<g>
</g>
<g>
</g>
<g>
</g>
<g>
</g>
<g>
</g>
<g>
</g>
<g>
</g>
<g>
</g>
</svg>
