<?xml version="1.0" encoding="iso-8859-1"?>
<!-- Generator: Adobe Illustrator 19.0.0, SVG Export Plug-In . SVG Version: 6.00 Build 0)  -->
<svg version="1.1" id="Layer_1" xmlns="http://www.w3.org/2000/svg" xmlns:xlink="http://www.w3.org/1999/xlink" x="0px" y="0px"
	 viewBox="0 0 512 512" style="enable-background:new 0 0 512 512;" xml:space="preserve">
<rect x="141.595" y="7.604" style="fill:#F59D40;" width="353.077" height="496.792"/>
<path style="fill:#FF6A5E;" d="M141.593,371.555v-50.547H89.361c-11.846,0-21.483-9.637-21.483-21.483V161.924
	c0-11.846,9.637-21.483,21.483-21.483h52.232V89.892H89.361c-39.782,0-72.03,32.249-72.03,72.031v137.601
	c0,39.781,32.249,72.031,72.03,72.031H141.593z"/>
<g>
	<path style="fill:#F59D40;" d="M141.593,504.396v-90.274c0-24.375,19.76-44.135,44.134-44.135s44.134,19.76,44.134,44.135v90.274
		H141.593z"/>
	<path style="fill:#F59D40;" d="M318.131,504.396v-90.274c0-24.375,19.76-44.135,44.134-44.135c24.374,0,44.134,19.76,44.134,44.135
		v90.274H318.131z"/>
	<path style="fill:#F59D40;" d="M229.862,504.396v-90.274c0-24.375,19.76-44.135,44.134-44.135c24.373,0,44.134,19.76,44.134,44.135
		v90.274H229.862z"/>
	<path style="fill:#F59D40;" d="M406.4,504.396v-90.274c0-24.375,19.758-44.135,44.134-44.135c24.374,0,44.134,19.76,44.134,44.135
		v90.274H406.4z"/>
</g>
<g>
	<path style="fill:#FFFFFF;" d="M207.05,473.98h-15.208v-59.858c0-3.372-2.743-6.116-6.115-6.116v-15.208
		c11.758,0,21.323,9.566,21.323,21.324V473.98z"/>
	<path style="fill:#FFFFFF;" d="M383.588,473.98H368.38v-59.858c0-3.372-2.743-6.116-6.115-6.116v-15.208
		c11.758,0,21.323,9.566,21.323,21.324V473.98z"/>
	<path style="fill:#FFFFFF;" d="M295.319,473.98h-15.208v-59.858c0-3.372-2.744-6.116-6.115-6.116v-15.208
		c11.758,0,21.323,9.566,21.323,21.324V473.98z"/>
	<path style="fill:#FFFFFF;" d="M471.856,473.98h-15.208v-59.858c0-3.372-2.743-6.116-6.115-6.116v-15.208
		c11.757,0,21.323,9.566,21.323,21.324V473.98z"/>
</g>
<path style="fill:#311363;" d="M256.94,0v15.208h230.124v15.211H284.966v15.208h202.098v331.892
	c-9.365-9.348-22.285-15.136-36.53-15.136c-18.654,0-35.03,9.926-44.134,24.771c-9.104-14.845-25.48-24.771-44.134-24.771
	s-35.03,9.926-44.134,24.771c-9.104-14.845-25.48-24.771-44.134-24.771s-35.03,9.926-44.134,24.771
	c-9.104-14.845-25.48-24.771-44.134-24.771c-14.246,0-27.164,5.788-36.53,15.136v-64.116V148.045V82.288v-67.08h87.464V0H133.989
	v82.288H89.361c-43.91,0-79.634,35.723-79.634,79.635v137.601c0,43.911,35.723,79.635,79.634,79.635h44.628v34.963V512h88.269
	h15.208h73.061h15.208h73.061h15.208h88.269v-97.878V0H256.94z M133.989,313.403H89.361c-7.653,0-13.879-6.226-13.879-13.879
	V161.923c0-7.653,6.226-13.878,13.879-13.878h44.628V313.403z M89.361,363.951c-35.525,0-64.426-28.902-64.426-64.427V161.923
	c0-35.525,28.901-64.427,64.426-64.427h44.628v35.34H89.361c-16.038,0-29.087,13.048-29.087,29.086v137.601
	c0,16.038,13.048,29.087,29.087,29.087h44.628v35.339H89.361V363.951z M149.197,496.792v-82.67c0-20.143,16.388-36.531,36.53-36.531
	c20.143,0,36.53,16.388,36.53,36.531v82.67H149.197z M237.466,496.792v-82.67c0-20.143,16.387-36.531,36.53-36.531
	c20.143,0,36.53,16.388,36.53,36.531v82.67H237.466z M325.735,496.792v-82.67c0-20.143,16.388-36.531,36.53-36.531
	c20.143,0,36.53,16.388,36.53,36.531v82.67H325.735z M487.064,496.792h-73.061v-82.67c0-20.143,16.388-36.531,36.53-36.531
	s36.53,16.388,36.53,36.531L487.064,496.792L487.064,496.792z"/>
<g>
</g>
<g>
</g>
<g>
</g>
<g>
</g>
<g>
</g>
<g>
</g>
<g>
</g>
<g>
</g>
<g>
</g>
<g>
</g>
<g>
</g>
<g>
</g>
<g>
</g>
<g>
</g>
<g>
</g>
</svg>
