<?xml version="1.0" encoding="iso-8859-1"?>
<!-- Generator: Adobe Illustrator 19.0.0, SVG Export Plug-In . SVG Version: 6.00 Build 0)  -->
<svg version="1.1" id="Layer_1" xmlns="http://www.w3.org/2000/svg" xmlns:xlink="http://www.w3.org/1999/xlink" x="0px" y="0px"
	 viewBox="0 0 512.009 512.009" style="enable-background:new 0 0 512.009 512.009;" xml:space="preserve">
<path style="fill:#C9D6D6;" d="M488.083,102.733c21.763-21.762,21.763-57.045,0.001-78.807
	c-21.762-21.764-57.044-21.764-78.807,0.002l-174.514,174.51c-14.889,14.89-19.583,36.105-14.102,54.993l-70.593,70.596
	l-29.734-29.732c-16.096-16.098-42.197-16.098-58.296,0l-35.774,35.772c-24.879,24.879-24.879,65.214,0,90.092l65.582,65.585
	c24.88,24.883,65.217,24.879,90.094,0l35.774-35.772c16.099-16.1,16.098-42.201,0-58.299l-29.731-29.732l70.593-70.596
	c18.888,5.487,40.104,0.788,54.991-14.098L488.083,102.733z M461.824,50.185c7.261,7.258,7.261,19.027-0.001,26.287
	c-7.257,7.26-19.026,7.26-26.286,0.002c-7.259-7.26-7.259-19.031,0-26.289C442.796,42.923,454.565,42.928,461.824,50.185z
	 M88.305,320.56c1.589-1.587,4.175-1.588,5.764,0l29.73,29.73l-23.462,23.466l37.916,37.918l23.463-23.469l29.733,29.738
	c1.588,1.586,1.588,4.17,0,5.759l-35.773,35.774c-10.356,10.355-27.207,10.355-37.561,0l-65.583-65.583
	c-10.355-10.357-10.355-27.208,0-37.559L88.305,320.56z"/>
<path style="fill:#311363;" d="M136.894,512.009c-19.049,0.001-36.957-7.417-50.425-20.889l-65.582-65.584
	C7.418,412.068,0,394.161,0,375.113s7.418-36.954,20.887-50.423l35.774-35.772c9.223-9.222,21.483-14.3,34.525-14.3
	s25.303,5.08,34.525,14.301l24.355,24.355l62.171-62.173c-4.465-20.912,1.9-42.792,17.147-58.039l174.513-174.51
	C415.86,6.59,431.763,0.001,448.679,0c16.915,0,32.819,6.587,44.781,18.551c11.961,11.96,18.549,27.864,18.549,44.78
	s-6.588,32.82-18.55,44.781l-130.88,130.88l-10.754-10.755l130.88-130.881c9.089-9.089,14.095-21.173,14.095-34.026
	s-5.006-24.937-14.095-34.026c-9.089-9.091-21.173-14.096-34.026-14.096c-12.854,0.001-24.937,5.007-34.026,14.097L240.14,203.815
	c-12.41,12.411-17.076,30.61-12.175,47.496l1.253,4.318l-79.15,79.152l-35.111-35.109c-6.349-6.35-14.79-9.847-23.77-9.847
	c-8.979,0-17.421,3.497-23.771,9.847L31.64,335.444c-21.873,21.873-21.873,57.464,0,79.337l65.582,65.586
	c10.597,10.596,24.685,16.433,39.671,16.433c14.985,0,29.073-5.837,39.67-16.434l35.774-35.772
	c13.108-13.108,13.107-34.437,0-47.544l-35.108-35.11l79.151-79.153l4.318,1.254c16.88,4.903,35.079,0.24,47.493-12.173
	l29.293-29.293l10.754,10.755l-29.293,29.293c-15.25,15.248-37.133,21.612-58.038,17.143l-62.171,62.173l24.354,24.355
	c19.037,19.036,19.038,50.014,0,69.052l-35.774,35.773C173.849,504.591,155.941,512.008,136.894,512.009z M136.894,474.848
	c-9.133,0-17.713-3.549-24.157-9.993l-65.582-65.582c-6.444-6.446-9.994-15.025-9.994-24.159c0-9.134,3.55-17.713,9.995-24.156
	l35.776-35.78c4.556-4.547,11.963-4.543,16.513,0.005l35.107,35.107l-23.462,23.468l27.162,27.162l23.464-23.468l35.111,35.117
	c2.202,2.201,3.418,5.133,3.418,8.255c0,3.12-1.214,6.053-3.417,8.257l-35.774,35.774
	C154.607,471.299,146.027,474.848,136.894,474.848z M91.186,328.433l-33.277,33.28c-3.573,3.571-5.54,8.33-5.54,13.401
	c0,5.072,1.967,9.831,5.54,13.405l65.582,65.582c3.571,3.572,8.331,5.539,13.402,5.539c5.072,0,9.832-1.966,13.404-5.539
	l33.276-33.276l-21.859-21.863l-23.463,23.468l-48.669-48.672l23.462-23.466L91.186,328.433z M448.68,89.521
	c-6.995,0.001-13.573-2.723-18.521-7.669c-10.213-10.214-10.213-26.831-0.001-37.044c4.945-4.947,11.524-7.671,18.52-7.671
	c0.001,0,0.001,0,0.002,0c6.995,0.001,13.572,2.725,18.519,7.67l0,0c0.001,0.001,0.001,0.001,0.001,0.001
	c4.948,4.947,7.672,11.524,7.672,18.52c0,6.997-2.725,13.575-7.675,18.523C462.254,86.796,455.678,89.521,448.68,89.521z
	 M448.678,52.345c-2.934,0-5.691,1.143-7.765,3.217c-4.283,4.283-4.283,11.253,0,15.535c2.073,2.073,4.832,3.215,7.767,3.215
	c2.933,0,5.691-1.143,7.765-3.216c2.078-2.078,3.22-4.835,3.22-7.769c0-2.933-1.143-5.69-3.217-7.765h-0.001
	C454.372,53.488,451.613,52.345,448.678,52.345L448.678,52.345z"/>
<path style="fill:#FFFFFF;" d="M242.57,247.072c-3.355-11.559-0.165-24.014,8.323-32.503l112.1-112.097l10.754,10.755
	L261.648,225.324c-4.567,4.567-6.28,11.276-4.472,17.508L242.57,247.072z"/>
<g>
</g>
<g>
</g>
<g>
</g>
<g>
</g>
<g>
</g>
<g>
</g>
<g>
</g>
<g>
</g>
<g>
</g>
<g>
</g>
<g>
</g>
<g>
</g>
<g>
</g>
<g>
</g>
<g>
</g>
</svg>
