<?xml version="1.0" encoding="iso-8859-1"?>
<!-- Generator: Adobe Illustrator 19.0.0, SVG Export Plug-In . SVG Version: 6.00 Build 0)  -->
<svg version="1.1" id="Layer_1" xmlns="http://www.w3.org/2000/svg" xmlns:xlink="http://www.w3.org/1999/xlink" x="0px" y="0px"
	 viewBox="0 0 512 512" style="enable-background:new 0 0 512 512;" xml:space="preserve">
<path style="fill:#FF6A5E;" d="M7.604,75.146v47.291c0,137.182,111.212,248.392,248.396,248.392s248.396-111.211,248.396-248.392
	V75.146H7.604z"/>
<path style="fill:#34B6D0;" d="M114.498,406.441c-9.836,0-17.808-7.974-17.808-17.808l0,0c0-9.834,7.972-17.805,17.808-17.805
	h283.005c9.836,0,17.808,7.97,17.808,17.805l0,0c0,9.834-7.972,17.808-17.808,17.808H114.498z"/>
<g>
	<path style="fill:#FFFFFF;" d="M62.122,177.54c-13.554,0-24.581-11.027-24.581-24.581c0-13.555,11.027-24.582,24.581-24.582
		c13.555,0,24.582,11.027,24.582,24.582C86.703,166.513,75.676,177.54,62.122,177.54z M62.122,143.586
		c-5.169,0-9.372,4.205-9.372,9.373c0,5.169,4.204,9.372,9.372,9.372c5.169,0,9.373-4.204,9.373-9.372
		C71.495,147.791,67.29,143.586,62.122,143.586z"/>
	<path style="fill:#FFFFFF;" d="M139.673,177.54c-13.554,0-24.581-11.027-24.581-24.581c0-13.555,11.027-24.582,24.581-24.582
		c13.555,0,24.582,11.027,24.582,24.582C164.255,166.513,153.227,177.54,139.673,177.54z M139.673,143.586
		c-5.169,0-9.372,4.205-9.372,9.373c0,5.169,4.204,9.372,9.372,9.372c5.169,0,9.373-4.204,9.373-9.372
		C149.046,147.791,144.841,143.586,139.673,143.586z"/>
	<path style="fill:#FFFFFF;" d="M217.224,177.54c-13.554,0-24.581-11.027-24.581-24.581c0-13.555,11.027-24.582,24.581-24.582
		c13.555,0,24.582,11.027,24.582,24.582C241.806,166.513,230.779,177.54,217.224,177.54z M217.224,143.586
		c-5.169,0-9.372,4.205-9.372,9.373c0,5.169,4.204,9.372,9.372,9.372c5.169,0,9.373-4.204,9.373-9.372
		C226.597,147.791,222.393,143.586,217.224,143.586z"/>
	<path style="fill:#FFFFFF;" d="M294.776,177.54c-13.555,0-24.582-11.027-24.582-24.581c0-13.555,11.027-24.582,24.582-24.582
		c13.554,0,24.581,11.027,24.581,24.582C319.357,166.513,308.33,177.54,294.776,177.54z M294.776,143.586
		c-5.169,0-9.373,4.205-9.373,9.373c0,5.169,4.205,9.372,9.373,9.372c5.169,0,9.372-4.204,9.372-9.372
		C304.148,147.791,299.945,143.586,294.776,143.586z"/>
	<path style="fill:#FFFFFF;" d="M372.328,177.54c-13.555,0-24.582-11.027-24.582-24.581c0-13.555,11.027-24.582,24.582-24.582
		c13.554,0,24.581,11.027,24.581,24.582C396.909,166.513,385.882,177.54,372.328,177.54z M372.328,143.586
		c-5.169,0-9.373,4.205-9.373,9.373c0,5.169,4.205,9.372,9.373,9.372c5.169,0,9.372-4.204,9.372-9.372
		C381.701,147.791,377.496,143.586,372.328,143.586z"/>
	<path style="fill:#FFFFFF;" d="M449.879,177.54c-13.555,0-24.582-11.027-24.582-24.581c0-13.555,11.027-24.582,24.582-24.582
		c13.554,0,24.581,11.027,24.581,24.582C474.46,166.513,463.433,177.54,449.879,177.54z M449.879,143.586
		c-5.169,0-9.373,4.205-9.373,9.373c0,5.169,4.205,9.372,9.373,9.372c5.169,0,9.372-4.204,9.372-9.372
		C459.252,147.791,455.047,143.586,449.879,143.586z"/>
</g>
<g>
	<path style="fill:#311363;" d="M0,67.542v54.895c0,68.377,26.63,132.665,74.981,181.016c26.969,26.969,58.9,47.17,93.729,59.772
		h-54.211c-14.012,0-25.412,11.398-25.412,25.409c0,14.012,11.4,25.412,25.412,25.412h39.099v-15.208h-39.099
		c-5.627,0-10.204-4.578-10.204-10.204c0-5.625,4.578-10.201,10.204-10.201h283.005c5.627,0,10.204,4.576,10.204,10.201
		c0,5.627-4.578,10.204-10.204,10.204H173.875v15.208h223.627c14.012,0,25.412-11.4,25.412-25.412
		c0-14.01-11.4-25.409-25.412-25.409H343.29c34.829-12.602,66.759-32.803,93.729-59.772C485.37,255.101,512,190.814,512,122.436
		V67.542H0z M469.903,232.621c-6.665,2.788-11.593,6.925-15.94,10.575c-6.911,5.803-12.37,10.386-24.094,10.386
		c-11.724,0-17.183-4.584-24.096-10.386c-7.787-6.538-16.613-13.947-33.873-13.947c-17.259,0-26.085,7.409-33.871,13.947
		c-6.912,5.803-12.37,10.386-24.094,10.386c-11.723,0-17.18-4.584-24.093-10.386c-7.787-6.537-16.612-13.947-33.871-13.947
		s-26.085,7.411-33.87,13.947c-6.911,5.803-12.37,10.386-24.092,10.386c-11.722,0-17.179-4.584-24.09-10.386
		c-7.787-6.537-16.612-13.947-33.87-13.947c-17.259,0-26.085,7.411-33.871,13.947c-6.912,5.803-12.37,10.386-24.093,10.386
		c-11.724,0-17.183-4.584-24.096-10.386c-4.33-3.636-9.238-7.755-15.866-10.543l-0.145,0.346
		c-4.213-8.131-7.953-16.488-11.196-25.04h450.434c-3.238,8.538-6.97,16.879-11.174,24.997L469.903,232.621z M165.878,345.845
		h180.245c-28.262,11.396-58.73,17.379-90.122,17.379S194.14,357.242,165.878,345.845z M428.819,290.081h-30.574v15.208h14.436
		c-11.153,9.586-23.053,18.047-35.553,25.347H134.872c-12.5-7.3-24.4-15.761-35.553-25.347h14.436v-15.208H83.181
		c-7.982-8.222-15.311-16.913-21.958-26.012c5.407,2.773,12.026,4.721,20.863,4.721c17.259,0,26.085-7.41,33.871-13.947
		c6.912-5.803,12.37-10.386,24.093-10.386c11.722,0,17.179,4.584,24.09,10.386c7.787,6.537,16.611,13.947,33.87,13.947
		c17.259,0,26.085-7.41,33.87-13.947c6.911-5.803,12.37-10.386,24.092-10.386c11.723,0,17.18,4.584,24.093,10.386
		c7.787,6.537,16.612,13.947,33.871,13.947c17.26,0,26.086-7.41,33.872-13.947c6.912-5.803,12.37-10.386,24.093-10.386
		c11.724,0,17.182,4.584,24.095,10.386c7.788,6.537,16.614,13.947,33.874,13.947c8.877,0,15.513-1.966,20.935-4.759
		C444.15,273.144,436.812,281.849,428.819,290.081z M486.416,192.748H25.584c-6.835-22.498-10.376-46.134-10.376-70.312v-9.267
		h375.381V97.961H15.208V82.75h481.583v15.211h-85.923v15.208h85.923v9.267C496.792,146.614,493.25,170.25,486.416,192.748z"/>
	<rect x="133.012" y="290.084" style="fill:#311363;" width="33.783" height="15.208"/>
	<rect x="186.058" y="290.084" style="fill:#311363;" width="33.783" height="15.208"/>
	<rect x="239.105" y="290.084" style="fill:#311363;" width="33.783" height="15.208"/>
	<rect x="292.151" y="290.084" style="fill:#311363;" width="33.783" height="15.208"/>
	<rect x="345.198" y="290.084" style="fill:#311363;" width="33.783" height="15.208"/>
	<rect x="89.08" y="429.25" style="fill:#311363;" width="333.66" height="15.208"/>
</g>
<g>
</g>
<g>
</g>
<g>
</g>
<g>
</g>
<g>
</g>
<g>
</g>
<g>
</g>
<g>
</g>
<g>
</g>
<g>
</g>
<g>
</g>
<g>
</g>
<g>
</g>
<g>
</g>
<g>
</g>
</svg>
