<?xml version="1.0" encoding="iso-8859-1"?>
<!-- Generator: Adobe Illustrator 19.0.0, SVG Export Plug-In . SVG Version: 6.00 Build 0)  -->
<svg version="1.1" id="Layer_1" xmlns="http://www.w3.org/2000/svg" xmlns:xlink="http://www.w3.org/1999/xlink" x="0px" y="0px"
	 viewBox="0 0 511.999 511.999" style="enable-background:new 0 0 511.999 511.999;" xml:space="preserve">
<path style="fill:#34B6D0;" d="M16.101,454.842c-11.336,11.336-11.334,29.713,0,41.048c11.336,11.336,29.713,11.336,41.048,0
	l171.457-171.457l-41.047-41.047L16.101,454.842z"/>
<path style="fill:#FFF6DD;" d="M401.106,10.76L291.182,120.685c-25.09,25.09-25.089,65.766-0.001,90.856l9.269,9.27
	c25.089,25.091,65.767,25.091,90.854,0l109.927-109.926L401.106,10.76z"/>
<g>
	<path style="fill:#311363;" d="M136.612,323.572l10.76,10.761l40.187-40.187l30.287,30.287L51.768,490.51
		c-4.045,4.045-9.423,6.273-15.143,6.273c-5.721,0-11.099-2.227-15.144-6.273c-8.35-8.35-8.35-21.938,0-30.287l111.542-111.54
		l-10.76-10.761L10.721,449.461c-14.283,14.283-14.283,37.525,0,51.809c6.92,6.919,16.119,10.729,25.904,10.729
		s18.984-3.811,25.903-10.729l176.837-176.838l-51.807-51.807L136.612,323.572z"/>
	<path style="fill:#311363;" d="M401.106,0L285.801,115.304c-27.765,27.766-27.997,72.778-0.727,100.852l-55.47,55.469
		l-20.523-20.522l-10.76,10.76l51.808,51.809l10.76-10.76l-20.524-20.524l55.468-55.469c13.48,13.1,31.201,20.317,50.043,20.319
		c0.002,0,0.004,0,0.006,0c4.798,0,9.523-0.468,14.125-1.38c13.806-2.738,26.499-9.488,36.676-19.666L511.99,110.885L401.106,0z
		 M382.041,200.784l83.02-83.021l-10.76-10.761l-83.021,83.022l-9.264-9.264l99.164-99.164l29.289,29.289l-99.165,99.163
		L382.041,200.784z M410.37,30.785l-62.258,62.258l10.76,10.761l62.259-62.259l29.289,29.289l-99.164,99.164l-9.263-9.263
		l58.428-58.428l-10.76-10.761l-58.428,58.428l-9.264-9.264l22.557-22.556l-10.76-10.761l-22.557,22.557l-9.263-9.264l99.164-99.164
		L410.37,30.785z M345.877,232.019c-15.13-0.001-29.353-5.893-40.048-16.589l-9.268-9.27c-0.663-0.663-1.305-1.341-1.929-2.029
		c-0.204-0.225-0.396-0.458-0.596-0.686c-0.41-0.468-0.82-0.935-1.212-1.412c-0.229-0.279-0.446-0.565-0.67-0.847
		c-0.346-0.438-0.691-0.876-1.022-1.321c-0.226-0.304-0.442-0.614-0.663-0.922c-0.308-0.433-0.615-0.866-0.91-1.307
		c-0.215-0.321-0.423-0.646-0.631-0.97c-0.28-0.438-0.557-0.878-0.824-1.321c-0.2-0.331-0.394-0.664-0.585-0.998
		c-0.258-0.447-0.508-0.899-0.753-1.351c-0.181-0.336-0.359-0.673-0.533-1.01c-0.237-0.463-0.465-0.927-0.688-1.395
		c-0.161-0.337-0.323-0.674-0.477-1.012c-0.218-0.482-0.425-0.966-0.629-1.452c-0.139-0.331-0.281-0.659-0.414-0.993
		c-0.204-0.513-0.395-1.031-0.583-1.548c-0.114-0.311-0.232-0.62-0.34-0.932c-0.2-0.578-0.382-1.163-0.563-1.748
		c-0.079-0.255-0.165-0.507-0.24-0.763c-0.497-1.693-0.913-3.405-1.249-5.13c-0.044-0.227-0.077-0.454-0.119-0.682
		c-0.116-0.634-0.227-1.267-0.321-1.903c-0.045-0.306-0.079-0.614-0.119-0.92c-0.073-0.56-0.145-1.12-0.201-1.681
		c-0.033-0.337-0.058-0.675-0.086-1.012c-0.044-0.533-0.085-1.067-0.115-1.601c-0.019-0.352-0.03-0.704-0.044-1.056
		c-0.018-0.522-0.032-1.043-0.038-1.565c-0.003-0.359-0.001-0.718,0.003-1.077c0.005-0.517,0.017-1.034,0.037-1.55
		c0.013-0.359,0.029-0.719,0.05-1.078c0.029-0.519,0.068-1.037,0.112-1.555c0.029-0.354,0.06-0.708,0.095-1.062
		c0.055-0.528,0.12-1.054,0.189-1.581c0.045-0.341,0.086-0.683,0.138-1.024c0.082-0.545,0.178-1.089,0.275-1.632
		c0.057-0.319,0.109-0.638,0.171-0.956c0.118-0.594,0.252-1.186,0.388-1.776c0.061-0.263,0.114-0.527,0.178-0.788
		c0.197-0.8,0.412-1.599,0.644-2.392c0.014-0.049,0.026-0.099,0.041-0.148c0.252-0.85,0.523-1.694,0.816-2.534
		c0.075-0.216,0.161-0.429,0.239-0.644c0.221-0.613,0.446-1.227,0.69-1.833c0.118-0.294,0.248-0.584,0.37-0.877
		c0.22-0.524,0.441-1.047,0.679-1.564c0.146-0.32,0.302-0.636,0.454-0.954c0.232-0.484,0.467-0.967,0.714-1.447
		c0.169-0.329,0.348-0.655,0.525-0.982c0.249-0.46,0.502-0.918,0.765-1.374c0.191-0.331,0.388-0.658,0.586-0.986
		c0.269-0.444,0.544-0.886,0.826-1.324c0.209-0.325,0.422-0.649,0.638-0.97c0.292-0.434,0.593-0.864,0.9-1.291
		c0.224-0.314,0.449-0.628,0.682-0.938c0.11-0.148,0.226-0.29,0.338-0.437l88.625,88.626c-0.122,0.093-0.241,0.192-0.364,0.284
		c-0.241,0.182-0.486,0.357-0.729,0.534c-0.46,0.335-0.923,0.661-1.391,0.982c-0.259,0.177-0.517,0.351-0.778,0.523
		c-0.484,0.318-0.974,0.627-1.467,0.93c-0.24,0.148-0.479,0.298-0.72,0.443c-0.634,0.376-1.275,0.74-1.922,1.09
		c-0.101,0.056-0.201,0.115-0.303,0.169c-0.751,0.402-1.511,0.782-2.277,1.147c-0.225,0.108-0.453,0.207-0.681,0.311
		c-0.549,0.253-1.1,0.499-1.656,0.735c-0.283,0.12-0.568,0.233-0.853,0.348c-0.514,0.208-1.032,0.407-1.552,0.6
		c-0.294,0.108-0.589,0.216-0.886,0.319c-0.545,0.191-1.095,0.369-1.646,0.544c-0.265,0.083-0.529,0.17-0.794,0.251
		c-0.752,0.224-1.508,0.434-2.269,0.627c-0.065,0.016-0.129,0.036-0.193,0.052c-0.828,0.207-1.662,0.392-2.501,0.561
		c-0.256,0.052-0.513,0.094-0.77,0.142c-0.589,0.111-1.18,0.215-1.773,0.307c-0.308,0.048-0.619,0.09-0.928,0.133
		c-0.557,0.076-1.115,0.146-1.675,0.205c-0.314,0.034-0.629,0.067-0.945,0.096c-0.591,0.055-1.186,0.095-1.781,0.131
		c-0.276,0.017-0.551,0.038-0.827,0.051c-0.868,0.039-1.739,0.064-2.613,0.064C345.881,232.019,345.878,232.019,345.877,232.019z"/>
</g>
<g>
</g>
<g>
</g>
<g>
</g>
<g>
</g>
<g>
</g>
<g>
</g>
<g>
</g>
<g>
</g>
<g>
</g>
<g>
</g>
<g>
</g>
<g>
</g>
<g>
</g>
<g>
</g>
<g>
</g>
</svg>
