<?xml version="1.0" encoding="iso-8859-1"?>
<!-- Generator: Adobe Illustrator 19.0.0, SVG Export Plug-In . SVG Version: 6.00 Build 0)  -->
<svg version="1.1" id="Layer_1" xmlns="http://www.w3.org/2000/svg" xmlns:xlink="http://www.w3.org/1999/xlink" x="0px" y="0px"
	 viewBox="0 0 512.031 512.031" style="enable-background:new 0 0 512.031 512.031;" xml:space="preserve">
<polygon style="fill:#FF6A5E;" points="7.604,25.847 7.604,449.699 34.64,449.699 34.64,486.184 477.393,486.184 477.393,449.699 
	504.427,449.699 504.427,25.847 "/>
<rect x="256.012" y="25.849" style="fill:#F59D40;" width="248.411" height="423.85"/>
<g>
	<rect x="466.401" y="317.87" style="fill:#FFFFFF;" width="15.209" height="101.413"/>
	<polygon style="fill:#FFFFFF;" points="481.614,297.587 466.405,297.587 466.405,63.87 369.575,63.87 369.575,48.661 
		481.614,48.661 	"/>
</g>
<g>
	<circle style="fill:#34B6D0;" cx="208.357" cy="237.77" r="17.237"/>
	<circle style="fill:#34B6D0;" cx="303.676" cy="237.77" r="17.237"/>
</g>
<g>
	<path style="fill:#311363;" d="M263.62,18.243h-15.209H0v439.06h27.034v36.485h457.963v-36.485h27.034V18.243H263.62z
		 M469.788,478.58H42.244v-21.276h48.457v-15.209H42.244H15.21V33.452h233.202v408.643H110.98v15.209h137.432h15.209h206.168v21.276
		H469.788z M496.823,442.095h-27.034H263.62V33.452h233.202V442.095z"/>
	<path style="fill:#311363;" d="M208.359,262.614c13.697,0,24.841-11.143,24.841-24.841c0-13.698-11.144-24.841-24.841-24.841
		s-24.841,11.143-24.841,24.841C183.518,251.471,194.661,262.614,208.359,262.614z M208.359,228.14c5.311,0,9.632,4.321,9.632,9.632
		c0,5.311-4.321,9.632-9.632,9.632s-9.632-4.321-9.632-9.632C198.727,232.462,203.047,228.14,208.359,228.14z"/>
	<path style="fill:#311363;" d="M303.673,262.614c13.697,0,24.841-11.143,24.841-24.841c0-13.698-11.144-24.841-24.841-24.841
		c-13.697,0-24.841,11.143-24.841,24.841C278.832,251.471,289.976,262.614,303.673,262.614z M303.673,228.14
		c5.311,0,9.632,4.321,9.632,9.632c0,5.311-4.321,9.632-9.632,9.632s-9.632-4.321-9.632-9.632
		C294.041,232.462,298.362,228.14,303.673,228.14z"/>
</g>
<g>
</g>
<g>
</g>
<g>
</g>
<g>
</g>
<g>
</g>
<g>
</g>
<g>
</g>
<g>
</g>
<g>
</g>
<g>
</g>
<g>
</g>
<g>
</g>
<g>
</g>
<g>
</g>
<g>
</g>
</svg>
