<?xml version="1.0" encoding="iso-8859-1"?>
<!-- Generator: Adobe Illustrator 19.0.0, SVG Export Plug-In . SVG Version: 6.00 Build 0)  -->
<svg version="1.1" id="Layer_1" xmlns="http://www.w3.org/2000/svg" xmlns:xlink="http://www.w3.org/1999/xlink" x="0px" y="0px"
	 viewBox="0 0 512.031 512.031" style="enable-background:new 0 0 512.031 512.031;" xml:space="preserve">
<polygon style="fill:#FF6A5E;" points="7.604,25.847 7.604,449.698 34.64,449.698 34.64,486.185 477.393,486.185 477.393,449.698 
	504.427,449.698 504.427,25.847 "/>
<rect x="7.604" y="167.134" style="fill:#F59D40;" width="496.823" height="141.28"/>
<g>
	<circle style="fill:#34B6D0;" cx="256.012" cy="237.774" r="17.237"/>
	<circle style="fill:#34B6D0;" cx="256.012" cy="96.484" r="17.237"/>
	<circle style="fill:#34B6D0;" cx="256.012" cy="379.054" r="17.237"/>
</g>
<g>
	<path style="fill:#311363;" d="M0,18.243v141.284V316.02v141.284h27.034v36.485h457.963v-36.485h27.034V316.02V159.527V18.243H0z
		 M15.209,174.736h481.614v126.075H15.209C15.209,300.811,15.209,174.736,15.209,174.736z M496.823,442.094h-19.43h-7.604H111.025
		v15.209h358.765v21.276H42.244v-21.276h48.5v-15.209h-48.5H34.64H15.21V316.02h481.614L496.823,442.094L496.823,442.094z
		 M15.209,159.527V33.451h481.614v126.075H15.209z"/>
	<path style="fill:#311363;" d="M256.016,212.932c-13.697,0-24.841,11.143-24.841,24.841s11.144,24.841,24.841,24.841
		c13.697,0,24.841-11.143,24.841-24.841S269.714,212.932,256.016,212.932z M256.016,247.405c-5.311,0-9.632-4.321-9.632-9.632
		c0-5.311,4.321-9.632,9.632-9.632s9.632,4.321,9.632,9.632C265.648,243.084,261.328,247.405,256.016,247.405z"/>
	<path style="fill:#311363;" d="M256.016,71.648c-13.697,0-24.841,11.143-24.841,24.841c0,13.698,11.144,24.841,24.841,24.841
		c13.697,0,24.841-11.143,24.841-24.841S269.714,71.648,256.016,71.648z M256.016,106.121c-5.311,0-9.632-4.321-9.632-9.632
		c0-5.311,4.321-9.632,9.632-9.632s9.632,4.321,9.632,9.632C265.648,101.8,261.328,106.121,256.016,106.121z"/>
	<path style="fill:#311363;" d="M256.016,403.898c13.697,0,24.841-11.143,24.841-24.841s-11.144-24.841-24.841-24.841
		c-13.697,0-24.841,11.143-24.841,24.841S242.319,403.898,256.016,403.898z M256.016,369.425c5.311,0,9.632,4.321,9.632,9.632
		c0,5.311-4.321,9.632-9.632,9.632s-9.632-4.321-9.632-9.632C246.383,373.746,250.705,369.425,256.016,369.425z"/>
</g>
<g>
	<rect x="334.094" y="129.112" style="fill:#FFFFFF;" width="139.921" height="15.209"/>
	<rect x="334.094" y="270.392" style="fill:#FFFFFF;" width="139.921" height="15.209"/>
	<rect x="334.094" y="411.672" style="fill:#FFFFFF;" width="139.921" height="15.209"/>
</g>
<g>
</g>
<g>
</g>
<g>
</g>
<g>
</g>
<g>
</g>
<g>
</g>
<g>
</g>
<g>
</g>
<g>
</g>
<g>
</g>
<g>
</g>
<g>
</g>
<g>
</g>
<g>
</g>
<g>
</g>
</svg>
