<?xml version="1.0" encoding="iso-8859-1"?>
<!-- Generator: Adobe Illustrator 19.0.0, SVG Export Plug-In . SVG Version: 6.00 Build 0)  -->
<svg version="1.1" id="Layer_1" xmlns="http://www.w3.org/2000/svg" xmlns:xlink="http://www.w3.org/1999/xlink" x="0px" y="0px"
	 viewBox="0 0 512 512" style="enable-background:new 0 0 512 512;" xml:space="preserve">
<polygon style="fill:#F59D40;" points="7.604,25.845 7.604,449.671 34.637,449.671 34.637,486.155 477.363,486.155 477.363,449.671 
	504.396,449.671 504.396,25.845 "/>
<rect x="256" y="25.845" style="fill:#FF6A5E;" width="248.396" height="282.553"/>
<g>
	<circle style="fill:#34B6D0;" cx="208.349" cy="168.646" r="17.236"/>
	<circle style="fill:#34B6D0;" cx="303.651" cy="168.646" r="17.236"/>
	<circle style="fill:#34B6D0;" cx="256" cy="379.032" r="17.236"/>
</g>
<g>
	<rect x="334.067" y="411.648" style="fill:#FFFFFF;" width="139.913" height="15.208"/>
	<polygon style="fill:#FFFFFF;" points="481.584,277.981 466.376,277.981 466.376,63.865 369.552,63.865 369.552,48.657 
		481.584,48.657 	"/>
</g>
<g>
	<path style="fill:#311363;" d="M263.604,18.241h-15.208H0V316v141.275h27.033v36.483h457.935v-36.483H512V316V18.241H263.604z
		 M496.792,33.449v267.343H263.604V33.449H496.792z M15.208,33.449h233.188v267.343H15.208V33.449z M496.792,442.067h-19.429h-7.604
		H111.017v15.208H469.76v21.275H42.241v-21.275h48.497v-15.208H42.241h-7.604H15.208V316h233.188h15.208h233.188V442.067z"/>
	<path style="fill:#311363;" d="M208.345,143.81c-13.696,0-24.84,11.142-24.84,24.84c0,13.697,11.143,24.84,24.84,24.84
		s24.84-11.142,24.84-24.84C233.185,154.952,222.042,143.81,208.345,143.81z M208.345,178.281c-5.311,0-9.632-4.321-9.632-9.632
		c0-5.311,4.321-9.632,9.632-9.632s9.632,4.321,9.632,9.632C217.977,173.96,213.656,178.281,208.345,178.281z"/>
	<path style="fill:#311363;" d="M303.655,193.489c13.697,0,24.84-11.142,24.84-24.84c0-13.697-11.142-24.84-24.84-24.84
		c-13.697,0-24.84,11.142-24.84,24.84C278.815,182.347,289.957,193.489,303.655,193.489z M303.655,159.018
		c5.311,0,9.632,4.321,9.632,9.632c0,5.311-4.321,9.632-9.632,9.632c-5.311,0-9.632-4.321-9.632-9.632
		C294.023,163.339,298.344,159.018,303.655,159.018z"/>
	<path style="fill:#311363;" d="M231.16,379.034c0,13.697,11.143,24.84,24.84,24.84c13.697,0,24.84-11.142,24.84-24.84
		c0-13.697-11.142-24.84-24.84-24.84C242.304,354.195,231.16,365.337,231.16,379.034z M265.632,379.034
		c0,5.311-4.321,9.632-9.632,9.632s-9.632-4.321-9.632-9.632s4.321-9.632,9.632-9.632S265.632,373.723,265.632,379.034z"/>
</g>
<g>
</g>
<g>
</g>
<g>
</g>
<g>
</g>
<g>
</g>
<g>
</g>
<g>
</g>
<g>
</g>
<g>
</g>
<g>
</g>
<g>
</g>
<g>
</g>
<g>
</g>
<g>
</g>
<g>
</g>
</svg>
