<?xml version="1.0" encoding="iso-8859-1"?>
<!-- Generator: Adobe Illustrator 19.0.0, SVG Export Plug-In . SVG Version: 6.00 Build 0)  -->
<svg version="1.1" id="Layer_1" xmlns="http://www.w3.org/2000/svg" xmlns:xlink="http://www.w3.org/1999/xlink" x="0px" y="0px"
	 viewBox="0 0 512.001 512.001" style="enable-background:new 0 0 512.001 512.001;" xml:space="preserve">
<path style="fill:#FFF6DD;" d="M85.827,471.574h340.347V275.341c45.606-16.398,78.221-60.027,78.221-111.279
	c0-65.295-52.931-118.225-118.225-118.225c-13.796,0-27.036,2.37-39.347,6.714C325.136,26.553,292.503,10.006,256,10.006
	s-69.136,16.547-90.823,42.544c-12.311-4.344-25.55-6.714-39.347-6.714C60.538,45.835,7.606,98.767,7.606,164.061
	c0,51.252,32.616,94.881,78.221,111.279V471.574z"/>
<g>
	<path style="fill:#311363;" d="M386.17,38.23c-12.595,0-24.993,1.854-36.925,5.515C325.381,17.405,291.687,2.4,256.001,2.4
		s-69.38,15.006-93.244,41.345c-11.934-3.662-24.331-5.515-36.925-5.515C56.447,38.23,0,94.678,0,164.061
		c0,51.133,31.215,97.283,78.221,116.503v122.476h15.211V269.993l-5.033-1.809c-43.776-15.74-73.188-57.584-73.188-104.123
		c0-60.996,49.625-110.62,110.62-110.62c12.618,0,25.005,2.113,36.816,6.281l4.985,1.759l3.386-4.059
		c21.106-25.3,52.08-39.81,84.983-39.81s63.877,14.51,84.983,39.81l3.386,4.059l4.985-1.759c11.81-4.168,24.197-6.281,36.816-6.281
		c60.995,0,110.62,49.624,110.62,110.62c0,46.539-29.412,88.382-73.189,104.123l-5.033,1.809v193.975h-52.842V295.623h-15.211
		v168.345h-52.87V305.765h-15.211v158.203h-52.869V305.765h-15.211v158.203h-52.87v-98.446h-15.211v98.447H93.432v-40.646H78.221
		v55.857H433.78V280.564c47.006-19.221,78.221-65.37,78.221-116.503C512,94.678,455.553,38.23,386.17,38.23z"/>
	<path style="fill:#311363;" d="M466.367,164.061h15.211c0-52.609-42.8-95.409-95.409-95.409v15.211
		C430.391,83.863,466.367,119.84,466.367,164.061z"/>
	<rect x="146.28" y="295.622" style="fill:#311363;" width="15.211" height="49.614"/>
	<rect x="78.225" y="494.39" style="fill:#311363;" width="355.553" height="15.211"/>
</g>
<g>
</g>
<g>
</g>
<g>
</g>
<g>
</g>
<g>
</g>
<g>
</g>
<g>
</g>
<g>
</g>
<g>
</g>
<g>
</g>
<g>
</g>
<g>
</g>
<g>
</g>
<g>
</g>
<g>
</g>
</svg>
