<?xml version="1.0" encoding="iso-8859-1"?>
<!-- Generator: Adobe Illustrator 19.0.0, SVG Export Plug-In . SVG Version: 6.00 Build 0)  -->
<svg version="1.1" id="Layer_1" xmlns="http://www.w3.org/2000/svg" xmlns:xlink="http://www.w3.org/1999/xlink" x="0px" y="0px"
	 viewBox="0 0 511.999 511.999" style="enable-background:new 0 0 511.999 511.999;" xml:space="preserve">
<path style="fill:#C9D6D6;" d="M492.816,171.537L376.759,55.48L115.898,316.343l116.057,116.056
	c15.434,15.436,40.463,15.436,55.898,0l204.963-204.963C508.252,212.001,508.253,186.972,492.816,171.537z M388.257,135.729
	c-6.349,6.349-16.645,6.349-22.995,0c-6.35-6.349-6.348-16.646,0.001-22.995c6.35-6.348,16.646-6.348,22.994,0
	C394.607,119.084,394.607,129.379,388.257,135.729z"/>
<g>
	
		<rect x="411.435" y="158.704" transform="matrix(-0.7071 -0.7071 0.7071 -0.7071 574.5829 636.1411)" style="fill:#FFFFFF;" width="15.212" height="80.734"/>
	
		<rect x="295.193" y="212.851" transform="matrix(-0.7071 -0.7071 0.7071 -0.7071 293.95 752.3834)" style="fill:#FFFFFF;" width="15.212" height="204.923"/>
</g>
<path style="fill:#FF6A5E;" d="M14.862,417.378c-9.676,9.675-9.675,25.36,0,35.035c9.675,9.674,25.359,9.675,35.034,0
	l101.035-101.036l-35.034-35.033L14.862,417.378z"/>
<g>
	<path style="fill:#311363;" d="M376.76,100.367c-6.375,0-12.367,2.482-16.876,6.989c-4.508,4.508-6.99,10.5-6.991,16.875
		c0,6.376,2.482,12.369,6.99,16.877c4.509,4.507,10.501,6.988,16.876,6.988c6.375,0,12.367-2.482,16.875-6.989
		c9.306-9.306,9.306-24.446,0-33.752C389.127,102.848,383.134,100.367,376.76,100.367z M382.878,130.35
		c-1.634,1.635-3.807,2.534-6.119,2.534c-2.312,0-4.485-0.901-6.121-2.534c-1.634-1.634-2.534-3.806-2.534-6.118
		c0-2.312,0.901-4.485,2.535-6.12c1.635-1.634,3.808-2.534,6.12-2.534c2.311,0,4.484,0.9,6.119,2.533
		c1.635,1.635,2.535,3.808,2.535,6.119S384.513,128.716,382.878,130.35z"/>
	<path style="fill:#311363;" d="M498.194,166.158L376.759,44.723L110.576,310.909L9.485,411.999C3.368,418.115,0,426.246,0,434.895
		c0,8.648,3.368,16.78,9.484,22.896c6.115,6.115,14.246,9.483,22.896,9.484l0,0c8.648,0,16.779-3.368,22.894-9.483l95.657-95.658
		l75.645,75.644c8.901,8.903,20.737,13.805,33.327,13.805c0.001,0,0,0,0,0c12.589,0,24.425-4.903,33.327-13.804l204.963-204.963
		c8.902-8.902,13.805-20.738,13.805-33.328C512,186.897,507.097,175.06,498.194,166.158z M44.518,447.036
		c-3.242,3.242-7.553,5.028-12.138,5.028c-4.586,0-8.897-1.786-12.14-5.028c-3.242-3.243-5.028-7.554-5.028-12.14
		c0-4.585,1.786-8.896,5.028-12.139l22.038-22.037l12.139,12.139l10.756-10.756l-12.139-12.139l10.759-10.759l12.139,12.139
		l10.756-10.756l-12.139-12.139l10.759-10.759l12.139,12.139l10.756-10.756l-12.139-12.139l19.833-19.833l7.166,7.166l17.111,17.111
		L44.518,447.036z M487.438,222.059L282.475,427.022c-6.029,6.029-14.045,9.349-22.571,9.349s-16.542-3.32-22.57-9.349
		l-75.645-75.645l0,0l-35.034-35.033L376.759,66.236l110.679,110.679c6.029,6.028,9.35,14.045,9.35,22.571
		C496.787,208.013,493.467,216.029,487.438,222.059z"/>
</g>
<g>
</g>
<g>
</g>
<g>
</g>
<g>
</g>
<g>
</g>
<g>
</g>
<g>
</g>
<g>
</g>
<g>
</g>
<g>
</g>
<g>
</g>
<g>
</g>
<g>
</g>
<g>
</g>
<g>
</g>
</svg>
