<?xml version="1.0" encoding="iso-8859-1"?>
<!-- Generator: Adobe Illustrator 19.0.0, SVG Export Plug-In . SVG Version: 6.00 Build 0)  -->
<svg version="1.1" id="Layer_1" xmlns="http://www.w3.org/2000/svg" xmlns:xlink="http://www.w3.org/1999/xlink" x="0px" y="0px"
	 viewBox="0 0 512 512" style="enable-background:new 0 0 512 512;" xml:space="preserve">
<polygon style="fill:#80D3CF;" points="46.394,7.604 240.79,227.966 240.79,443.561 271.21,443.561 271.21,227.969 465.606,7.604 
	"/>
<path style="fill:#34B6D0;" d="M361.752,473.977c0.004-0.191,0.014-0.38,0.014-0.571c0-16.482-13.362-29.845-29.845-29.845H180.078
	c-16.482,0-29.845,13.362-29.845,29.845c0,0.192,0.011,0.38,0.014,0.571H361.752z"/>
<g>
	<rect x="103.931" y="496.792" style="fill:#311363;" width="304.138" height="15.208"/>
	<path style="fill:#311363;" d="M233.186,435.957h-53.108c-20.649,0-37.449,16.8-37.449,37.449c0,0.207,0.006,0.411,0.013,0.615
		l0.158,7.56h226.398l0.154-7.446l0.004-0.114c0.007-0.205,0.013-0.409,0.013-0.615c0-20.649-16.799-37.449-37.449-37.449h-53.108
		V230.844L482.453,0H165.768v15.208h282.99L263.606,225.094v210.863h-15.212V225.09L63.242,15.208h82.247V0H29.547l203.639,230.84
		V435.957z M278.814,451.165h53.108c9.813,0,18.161,6.387,21.107,15.208H158.978c2.949-8.828,11.294-15.208,21.102-15.208h53.108
		H278.814z"/>
</g>
<g>
	
		<rect x="203.059" y="90.539" transform="matrix(-0.7499 0.6616 -0.6616 -0.7499 466.43 119.3033)" style="fill:#FFFFFF;" width="15.207" height="114.57"/>
	
		<rect x="111.449" y="60.588" transform="matrix(0.6615 0.7499 -0.7499 0.6615 98.6634 -82.2152)" style="fill:#FFFFFF;" width="57.92" height="15.206"/>
</g>
<g>
</g>
<g>
</g>
<g>
</g>
<g>
</g>
<g>
</g>
<g>
</g>
<g>
</g>
<g>
</g>
<g>
</g>
<g>
</g>
<g>
</g>
<g>
</g>
<g>
</g>
<g>
</g>
<g>
</g>
</svg>
