<?xml version="1.0" encoding="iso-8859-1"?>
<!-- Generator: Adobe Illustrator 19.0.0, SVG Export Plug-In . SVG Version: 6.00 Build 0)  -->
<svg version="1.1" id="Layer_1" xmlns="http://www.w3.org/2000/svg" xmlns:xlink="http://www.w3.org/1999/xlink" x="0px" y="0px"
	 viewBox="0 0 512.001 512.001" style="enable-background:new 0 0 512.001 512.001;" xml:space="preserve">
<polygon style="fill:#587082;" points="346.831,68.442 364.23,7.604 147.77,7.604 165.17,68.442 "/>
<path style="fill:#80D3CF;" d="M377.892,504.396c39.301,0,71.161-31.858,71.161-71.161V171.228
	c0-56.768-46.02-102.786-102.788-102.786H165.735c-56.768,0-102.786,46.018-102.786,102.786v262.008
	c0,39.303,31.858,71.161,71.159,71.161L377.892,504.396L377.892,504.396z"/>
<g>
	<rect x="411.03" y="191.508" style="fill:#FFFFFF;" width="15.208" height="45.634"/>
	<path style="fill:#FFFFFF;" d="M426.24,171.228h-15.208c0-35.712-29.054-64.766-64.769-64.766V91.254
		C390.362,91.254,426.24,127.13,426.24,171.228z"/>
</g>
<path style="fill:#F59D40;" d="M256,230.107c-3.763-1.971-7.775-4.069-11.94-4.069c-21.54,0-39.003,28.455-39.003,63.557
	c0,35.103,17.463,63.558,39.003,63.558c4.165,0,8.177-2.097,11.94-4.069V230.107z"/>
<path style="fill:#FF6A5E;" d="M256,230.107c3.763-1.971,7.775-4.069,11.94-4.069c21.542,0,39.003,28.455,39.003,63.557
	c0,35.103-17.462,63.558-39.003,63.558c-4.165,0-8.177-2.097-11.94-4.069V230.107z"/>
<g>
	<path style="fill:#311363;" d="M356.771,61.341L374.313,0H137.686l17.544,61.341c-55.96,5.308-99.886,52.562-99.886,109.887
		v262.008c0,43.431,35.333,78.765,78.763,78.765h41.353v-15.208h-41.353c-35.044,0-63.555-28.512-63.555-63.557V171.228
		c0-52.484,42.699-95.182,95.182-95.182h180.529c52.486,0,95.184,42.699,95.184,95.182v262.008
		c0,35.045-28.511,63.557-63.557,63.557H195.738v15.208h182.153c43.431,0,78.765-35.334,78.765-78.765V171.228
		C456.655,113.902,412.731,66.649,356.771,61.341z M170.905,60.838l-13.05-45.63h196.293l-4.35,15.211H221.184v15.208h124.262
		l-4.35,15.211C341.095,60.838,170.905,60.838,170.905,60.838z"/>
	<path style="fill:#311363;" d="M256,357.609c3.481,1.662,7.487,3.148,11.941,3.148c26.134,0,46.607-31.258,46.607-71.161
		s-20.472-71.161-46.607-71.161c-4.453,0-8.46,1.486-11.94,3.148c-3.482-1.662-7.488-3.148-11.94-3.148
		c-26.134,0-46.607,31.258-46.607,71.161s20.472,71.161,46.607,71.161C248.512,360.757,252.518,359.271,256,357.609z
		 M299.34,289.596c0,33.47-16.236,55.953-31.399,55.953c-1.255,0-2.751-0.484-4.336-1.179V234.821
		c1.586-0.696,3.081-1.179,4.336-1.179C283.104,233.642,299.34,256.127,299.34,289.596z M212.66,289.596
		c0-33.47,16.236-55.953,31.399-55.953c1.255,0,2.75,0.484,4.336,1.179v109.55c-1.587,0.696-3.081,1.179-4.336,1.179
		C228.896,345.549,212.66,323.066,212.66,289.596z"/>
</g>
<g>
</g>
<g>
</g>
<g>
</g>
<g>
</g>
<g>
</g>
<g>
</g>
<g>
</g>
<g>
</g>
<g>
</g>
<g>
</g>
<g>
</g>
<g>
</g>
<g>
</g>
<g>
</g>
<g>
</g>
</svg>
