<?xml version="1.0" encoding="iso-8859-1"?>
<!-- Generator: Adobe Illustrator 19.0.0, SVG Export Plug-In . SVG Version: 6.00 Build 0)  -->
<svg version="1.1" id="Layer_1" xmlns="http://www.w3.org/2000/svg" xmlns:xlink="http://www.w3.org/1999/xlink" x="0px" y="0px"
	 viewBox="0 0 512 512" style="enable-background:new 0 0 512 512;" xml:space="preserve">
<rect x="85.671" y="132.339" style="fill:#34B6D0;" width="340.657" height="279.258"/>
<path style="fill:#C9D6D6;" d="M48.162,411.595v51.233c0,14.558,11.802,26.36,26.36,26.36h362.954
	c14.558,0,26.36-11.802,26.36-26.36v-51.233H48.162z"/>
<path style="fill:#F59D40;" d="M182.753,261.992v115.133c0,19.038,15.434,34.471,34.471,34.471h77.552
	c19.037,0,34.471-15.433,34.471-34.471V261.992H182.753z"/>
<path style="fill:#FFFFFF;" d="M254.222,388.783h-36.998c-6.429,0-11.659-5.23-11.659-11.659v-84.716h15.208v81.169h33.449V388.783z
	"/>
<path style="fill:#C9D6D6;" d="M463.838,132.339V33.964c0-14.558-11.802-26.36-26.36-26.36H74.523
	c-14.558,0-26.36,11.802-26.36,26.36v98.375H463.838z"/>
<path style="fill:#587082;" d="M162.473,132.339v50.201c0,6.719,5.447,12.166,12.166,12.166H337.36
	c6.719,0,12.166-5.447,12.166-12.166v-50.201H162.473z"/>
<path style="fill:#FF6A5E;" d="M256,69.972c-34.445,0-62.368,27.924-62.368,62.368h124.734
	C318.368,97.894,290.445,69.972,256,69.972z"/>
<g>
	<rect x="147.517" y="434.409" style="fill:#FFFFFF;" width="73.596" height="15.208"/>
	<rect x="241.39" y="434.409" style="fill:#FFFFFF;" width="192.025" height="15.208"/>
</g>
<path style="fill:#311363;" d="M471.441,139.943V33.964C471.441,15.236,456.205,0,437.477,0H74.523
	C55.795,0,40.559,15.236,40.559,33.964v105.979h37.509v180.06h15.208v-180.06h61.594v15.975h-46.955v15.208h46.955v11.414
	c0,10.901,8.869,19.77,19.77,19.77H337.36c10.901,0,19.77-8.869,19.77-19.77v-42.597h61.594v264.048h-91.596
	c6.067-7.294,9.723-16.661,9.723-26.867v-3.757h10.424c25.975,0,47.108-21.133,47.108-47.108c0-25.976-21.133-47.108-47.108-47.108
	h-10.424v-24.763H294.02v15.208h27.624v107.529c0,14.815-12.053,26.867-26.867,26.867h-77.552
	c-14.815,0-26.867-12.053-26.867-26.867V269.596h83.386v-15.208h-98.594v122.737c0,10.207,3.656,19.574,9.723,26.867H93.275v-63.71
	H78.067v63.71H40.559v58.837c0,18.728,15.236,33.964,33.964,33.964h12.675V512h15.208v-15.207h15.211V512h15.208v-15.207h246.35V512
	h15.208v-15.207h15.211V512h15.208v-15.207h12.675c18.728,0,33.964-15.236,33.964-33.964v-58.837h-37.509V139.943H471.441z
	 M347.275,294.358c17.59,0,31.9,14.311,31.9,31.9s-14.31,31.9-31.9,31.9h-10.424v-63.8L347.275,294.358L347.275,294.358z
	 M456.234,419.199v43.629c0,10.342-8.414,18.756-18.756,18.756h-12.675h-15.208h-15.211h-15.208h-246.35h-15.208h-15.211H87.198
	H74.523c-10.342,0-18.756-8.414-18.756-18.756v-43.629h22.301h139.157h77.552h139.157H456.234z M341.923,182.541
	c0,2.515-2.047,4.562-4.562,4.562H174.64c-2.515,0-4.562-2.047-4.562-4.562v-11.414H256v-15.208h-85.923v-15.975h15.951h139.942
	h15.951v42.597H341.923z M248.396,90.251v34.484h-46.634c3.713-26.611,26.621-47.16,54.238-47.16
	c27.616,0,50.524,20.55,54.238,47.16h-46.634V90.251H248.396z M357.131,124.735h-1.03C352.201,72.92,308.796,31.952,256,31.952
	V47.16c44.404,0,80.961,34.159,84.822,77.576h-15.271C321.748,89.718,292.012,62.368,256,62.368s-65.748,27.35-69.551,62.368h-31.58
	H78.067H55.766V33.964c0-10.342,8.414-18.756,18.756-18.756h362.954c10.342,0,18.756,8.414,18.756,18.756v90.771h-22.301H357.131z"
	/>
<g>
</g>
<g>
</g>
<g>
</g>
<g>
</g>
<g>
</g>
<g>
</g>
<g>
</g>
<g>
</g>
<g>
</g>
<g>
</g>
<g>
</g>
<g>
</g>
<g>
</g>
<g>
</g>
<g>
</g>
</svg>
