<?xml version="1.0" encoding="iso-8859-1"?>
<!-- Generator: Adobe Illustrator 19.0.0, SVG Export Plug-In . SVG Version: 6.00 Build 0)  -->
<svg version="1.1" id="Layer_1" xmlns="http://www.w3.org/2000/svg" xmlns:xlink="http://www.w3.org/1999/xlink" x="0px" y="0px"
	 viewBox="0 0 512 512" style="enable-background:new 0 0 512 512;" xml:space="preserve">
<polygon style="fill:#F59D40;" points="31.844,247.729 31.844,211.567 480.156,211.567 480.156,247.729 437.426,247.729 
	437.426,468.233 480.156,468.233 480.156,504.397 31.844,504.397 31.844,468.233 74.574,468.233 74.574,247.729 "/>
<path style="fill:#FF6A5E;" d="M113.421,48.831c8.519,0,15.424-6.907,15.424-15.424V23.027c0-8.518-6.906-15.424-15.424-15.424
	H49.019c-8.519,0-15.424,6.907-15.424,15.424v10.38c0,8.518,6.906,15.424,15.424,15.424h64.402V48.831z"/>
<path style="fill:#587082;" d="M309.309,357.983c0-29.442-23.867-53.311-53.309-53.311c-29.441,0-53.308,23.868-53.308,53.311
	c0,29.439,23.867,53.307,53.308,53.307C285.441,411.291,309.309,387.423,309.309,357.983z"/>
<path style="fill:#80D3CF;" d="M255.999,380.878c-12.625,0-22.896-10.27-22.896-22.895c0-12.626,10.271-22.899,22.896-22.899
	c12.625,0,22.897,10.272,22.897,22.899C278.896,370.608,268.625,380.878,255.999,380.878z"/>
<rect x="104.984" y="270.541" style="fill:#FFFFFF;" width="90.924" height="15.206"/>
<g>
	<rect x="31.844" y="468.233" style="fill:#FF6A5E;" width="448.313" height="36.164"/>
	<rect x="31.844" y="211.571" style="fill:#FF6A5E;" width="448.313" height="36.163"/>
</g>
<path style="fill:#C9D6D6;" d="M184.882,121.162h142.237c49.928,0,90.405,40.475,90.405,90.405H94.478
	C94.478,161.637,134.953,121.162,184.882,121.162z"/>
<path style="fill:#FFFFFF;" d="M135.467,194.154l-14.338-5.069c9.54-26.984,35.16-45.114,63.752-45.114v15.206
	C162.722,159.178,142.863,173.233,135.467,194.154z"/>
<g>
	<path style="fill:#311363;" d="M255.999,297.069c-33.587,0-60.911,27.326-60.911,60.915c0,33.586,27.325,60.91,60.911,60.91
		s60.912-27.325,60.912-60.91C316.912,324.395,289.586,297.069,255.999,297.069z M255.999,403.687
		c-25.202,0-45.705-20.503-45.705-45.704c0-25.203,20.503-45.708,45.705-45.708s45.706,20.505,45.706,45.708
		C301.706,383.184,281.201,403.687,255.999,403.687z"/>
	<path style="fill:#311363;" d="M255.999,327.481c-16.817,0-30.499,13.684-30.499,30.502c0,16.816,13.682,30.498,30.499,30.498
		s30.5-13.682,30.5-30.498C286.499,341.165,272.817,327.481,255.999,327.481z M255.999,373.275c-8.432,0-15.292-6.86-15.292-15.292
		c0-8.433,6.86-15.296,15.292-15.296s15.294,6.862,15.294,15.296C271.293,366.415,264.432,373.275,255.999,373.275z"/>
	<path style="fill:#311363;" d="M487.759,255.332v-51.369h-62.926c-3.893-50.502-46.231-90.405-97.715-90.405h-63.515V92.6h25.849
		V77.394H88.823v-20.96h24.598c12.697,0,23.027-10.33,23.027-23.027V23.027C136.448,10.33,126.118,0,113.421,0H49.019
		C36.322,0,25.992,10.33,25.992,23.027v10.38c0,12.697,10.33,23.027,23.027,23.027h24.598v20.959H47.768V92.6h200.629v20.958
		h-63.515c-51.484,0-93.821,39.902-97.715,90.405H24.241v51.369h42.73V460.63h-42.73V512h463.518v-51.37H445.03V255.332H487.759z
		 M41.198,33.407v-10.38c0-4.313,3.509-7.821,7.821-7.821h64.402c4.313,0,7.821,3.509,7.821,7.821v10.38
		c0,4.313-3.509,7.821-7.821,7.821H49.019C44.707,41.227,41.198,37.72,41.198,33.407z M184.882,128.765h142.237
		c43.093,0,78.604,33.093,82.455,75.198H102.427C106.279,161.858,141.789,128.765,184.882,128.765z M472.553,475.836v20.957H39.447
		v-20.957h42.73h347.647H472.553z M429.823,460.63H82.177V255.332h271.142v-15.206H82.177h-42.73V219.17h47.428h338.251h47.427
		v20.956h-42.729h-56.228v15.206h56.228L429.823,460.63L429.823,460.63z"/>
</g>
<g>
</g>
<g>
</g>
<g>
</g>
<g>
</g>
<g>
</g>
<g>
</g>
<g>
</g>
<g>
</g>
<g>
</g>
<g>
</g>
<g>
</g>
<g>
</g>
<g>
</g>
<g>
</g>
<g>
</g>
</svg>
