<?xml version="1.0" encoding="iso-8859-1"?>
<!-- Generator: Adobe Illustrator 19.0.0, SVG Export Plug-In . SVG Version: 6.00 Build 0)  -->
<svg version="1.1" id="Layer_1" xmlns="http://www.w3.org/2000/svg" xmlns:xlink="http://www.w3.org/1999/xlink" x="0px" y="0px"
	 viewBox="0 0 512 512" style="enable-background:new 0 0 512 512;" xml:space="preserve">
<rect x="35.648" y="427.971" style="fill:#FF6A5E;" width="423.906" height="46.009"/>
<rect x="55.925" y="127.584" style="fill:#FFF6DD;" width="126.783" height="300.387"/>
<rect x="35.648" y="7.604" style="fill:#C9D6D6;" width="423.906" height="119.98"/>
<path style="fill:#F59D40;" d="M254.919,127.582v47.344c0,9.909,8.034,17.943,17.943,17.943h96.534
	c9.909,0,17.943-8.033,17.943-17.943v-47.344C387.339,127.582,254.919,127.582,254.919,127.582z"/>
<polygon style="fill:#587082;" points="394.234,286.754 394.234,259.426 248.022,259.426 248.022,286.754 220.187,286.754 
	220.187,400.645 248.022,400.645 248.022,427.973 394.234,427.973 394.234,400.645 422.07,400.645 422.07,286.754 "/>
<polygon style="fill:#FF6A5E;" points="213.597,232.098 428.661,232.098 428.661,259.426 226.778,259.426 "/>
<g>
	<rect x="135.057" y="81.362" style="fill:#FFFFFF;" width="294.07" height="15.208"/>
	<rect x="66.064" y="81.362" style="fill:#FFFFFF;" width="48.716" height="15.208"/>
	<rect x="267.893" y="40.132" style="fill:#FFFFFF;" width="15.208" height="28.56"/>
	<rect x="298.319" y="40.132" style="fill:#FFFFFF;" width="15.208" height="28.56"/>
	<rect x="328.735" y="40.132" style="fill:#FFFFFF;" width="15.208" height="28.56"/>
	<rect x="359.151" y="40.132" style="fill:#FFFFFF;" width="15.208" height="28.56"/>
	<rect x="384.051" y="305.345" style="fill:#FFFFFF;" width="15.208" height="76.719"/>
</g>
<g>
	<path style="fill:#311363;" d="M446.594,224.494h-10.329h-7.604H201.486l20.517,42.537h18.415v12.121h-27.836V408.25h27.836v12.121
		h-50.105V135.186h57.001v39.74c0,14.087,11.461,25.547,25.547,25.547h96.534c14.088,0,25.547-11.461,25.547-25.547v-39.74h72.209V0
		H28.041v135.186H48.32v285.183H28.041v61.215h439.11v-61.215h-65.314v-12.121h27.836V279.151h-27.836V267.03h34.428v-27.329h10.329
		c12.218,0,22.157,9.94,22.157,22.145l-0.161,98.569l15.208,0.024l0.161-98.581C483.96,241.256,467.198,224.494,446.594,224.494z
		 M379.735,174.927c0,5.701-4.638,10.339-10.339,10.339h-96.534c-5.701,0-10.339-4.638-10.339-10.339v-39.74h117.213
		L379.735,174.927L379.735,174.927z M43.249,119.978V15.208h408.695v104.77h-57.001H247.314h-57.001H48.32H43.249z M63.528,135.186
		h111.577v285.183H63.528V135.186z M451.944,435.577v30.799H43.249v-30.799h5.071h141.993h50.105h161.42H451.944z M386.63,279.151
		h-29.537v15.208h29.537h7.604h20.232v98.682h-20.232v-0.015h-37.141v15.208h29.537v12.135H255.626v-12.135h81.19v-15.208h-88.794
		v0.015h-20.232v-98.682h20.232h7.604h81.19v-15.208h-81.19V267.03H386.63V279.151z M421.057,251.822h-19.219h-161.42h-8.866
		l-5.846-12.121h195.351V251.822z"/>
	<rect x="28.041" y="496.792" style="fill:#311363;" width="439.114" height="15.208"/>
</g>
<g>
</g>
<g>
</g>
<g>
</g>
<g>
</g>
<g>
</g>
<g>
</g>
<g>
</g>
<g>
</g>
<g>
</g>
<g>
</g>
<g>
</g>
<g>
</g>
<g>
</g>
<g>
</g>
<g>
</g>
</svg>
