<?xml version="1.0" encoding="iso-8859-1"?>
<!-- Generator: Adobe Illustrator 19.0.0, SVG Export Plug-In . SVG Version: 6.00 Build 0)  -->
<svg version="1.1" id="Layer_1" xmlns="http://www.w3.org/2000/svg" xmlns:xlink="http://www.w3.org/1999/xlink" x="0px" y="0px"
	 viewBox="0 0 512 512" style="enable-background:new 0 0 512 512;" xml:space="preserve">
<path style="fill:#F59D40;" d="M419.735,504.396c29.738,0,53.845-24.052,53.845-53.716V178.528
	c0-67.075-54.506-121.45-121.741-121.45H160.162c-67.235,0-121.741,54.375-121.741,121.45V450.68
	c0,29.666,24.108,53.716,53.845,53.716H419.735z"/>
<rect x="38.42" y="181.4" style="fill:#FFF6DD;" width="316.355" height="218.943"/>
<g>
	<rect x="435.565" y="198.808" style="fill:#FFFFFF;" width="15.208" height="71.386"/>
	<path style="fill:#FFFFFF;" d="M450.768,178.528H435.56c0-46.004-37.557-83.431-83.722-83.431V79.889
		C406.39,79.889,450.768,124.138,450.768,178.528z"/>
</g>
<path style="fill:#34B6D0;" d="M377.712,32.34c0,13.663-11.074,24.737-24.737,24.737H159.027c-13.662,0-24.737-11.074-24.737-24.737
	l0,0c0-13.662,11.075-24.736,24.737-24.736h193.949C366.637,7.604,377.712,18.679,377.712,32.34L377.712,32.34z"/>
<path style="fill:#FF6A5E;" d="M150.881,254.721c-7.001,0-13.566,1.855-19.246,5.086c-5.68-3.23-12.244-5.086-19.246-5.086
	c-21.537,0-38.995,17.46-38.995,38.995v11.655c0,32.165,26.077,58.24,58.242,58.24s58.241-26.077,58.241-58.24v-11.655
	C189.875,272.18,172.418,254.721,150.881,254.721z"/>
<g>
	<path style="fill:#311363;" d="M378.452,52.226c4.295-5.49,6.864-12.391,6.864-19.885C385.315,14.508,370.808,0,352.974,0H159.027
		c-17.833,0-32.341,14.508-32.341,32.34c0,7.494,2.569,14.395,6.864,19.885C76.448,64.189,33.089,113.841,30.912,173.798h-0.096
		v4.729v229.426v42.726c0,33.813,27.566,61.32,61.449,61.32h64.377v-15.208H92.266c-25.498,0-46.241-20.686-46.241-46.112v-42.726
		h316.351v-62.781h-15.208v47.573H46.025V189.007h301.143v135.886h15.208V173.799H46.13c2.495-60.59,52.684-109.118,114.032-109.118
		H351.84c62.935,0,114.137,51.071,114.137,113.846V450.68c0,25.427-20.744,46.112-46.241,46.112H176.919V512h242.816
		c33.883,0,61.449-27.508,61.449-61.32V178.528C481.184,116.467,437.049,64.502,378.452,52.226z M348.973,49.473V32.34h-15.208
		v17.132h-19.167V32.34H299.39v17.132h-19.166V32.34h-15.208v17.132H245.85V32.34h-15.208v17.132h-19.167V32.34h-15.208v17.132
		h-19.166V32.34h-15.208v17.132h-1.732h-1.136c-9.447,0-17.133-7.686-17.133-17.132s7.687-17.132,17.134-17.132h193.949
		c9.447,0,17.133,7.686,17.133,17.132s-7.686,17.132-17.133,17.132h-1.135h-2.867V49.473z"/>
	<path style="fill:#311363;" d="M106.625,308.694c0,13.791,11.219,25.01,25.009,25.01c13.79,0,25.009-11.219,25.009-25.01
		c0-13.791-11.219-25.009-25.009-25.009C117.845,283.686,106.625,294.904,106.625,308.694z M141.436,308.694
		c0,5.405-4.397,9.802-9.801,9.802c-5.404,0-9.801-4.397-9.801-9.802c0-5.404,4.397-9.801,9.801-9.801
		C137.039,298.893,141.436,303.291,141.436,308.694z"/>
	<path style="fill:#311363;" d="M159.87,225.744v-15.208c-19.762,0-35.839,16.077-35.839,35.839v2.236
		c-3.791-0.979-7.703-1.494-11.642-1.494c-25.695,0-46.599,20.904-46.599,46.599v11.655c0,36.307,29.539,65.844,65.846,65.844
		s65.845-29.538,65.845-65.844v-11.655c0-25.695-20.905-46.599-46.599-46.599c-3.94,0-7.851,0.515-11.642,1.493v-2.235
		C139.238,234.999,148.494,225.744,159.87,225.744z M182.271,293.716v11.655c0,27.921-22.716,50.636-50.637,50.636
		s-50.638-22.716-50.638-50.636v-11.655c0-17.309,14.083-31.391,31.391-31.391c5.426,0,10.781,1.415,15.488,4.091l3.758,2.137
		l3.759-2.137c4.707-2.677,10.063-4.091,15.488-4.091C168.19,262.324,182.271,276.407,182.271,293.716z"/>
	<rect x="220.951" y="237.649" style="fill:#311363;" width="98.851" height="15.208"/>
	<rect x="220.951" y="268.065" style="fill:#311363;" width="98.851" height="15.208"/>
	<rect x="220.951" y="298.481" style="fill:#311363;" width="98.851" height="15.208"/>
	<rect x="220.951" y="328.897" style="fill:#311363;" width="98.851" height="15.208"/>
</g>
<g>
</g>
<g>
</g>
<g>
</g>
<g>
</g>
<g>
</g>
<g>
</g>
<g>
</g>
<g>
</g>
<g>
</g>
<g>
</g>
<g>
</g>
<g>
</g>
<g>
</g>
<g>
</g>
<g>
</g>
</svg>
