<?xml version="1.0" encoding="iso-8859-1"?>
<!-- Generator: Adobe Illustrator 19.0.0, SVG Export Plug-In . SVG Version: 6.00 Build 0)  -->
<svg version="1.1" id="Layer_1" xmlns="http://www.w3.org/2000/svg" xmlns:xlink="http://www.w3.org/1999/xlink" x="0px" y="0px"
	 viewBox="0 0 512 512" style="enable-background:new 0 0 512 512;" xml:space="preserve">
<path style="fill:#587082;" d="M7.604,217.304v148.907c0,20.23,16.399,36.63,36.629,36.63h231.721c20.231,0,36.63-16.4,36.63-36.63
	V217.304H7.604z"/>
<path style="fill:#C9D6D6;" d="M196.981,147.01v-0.941c0-20.385-16.525-36.91-36.91-36.91s-36.91,16.525-36.91,36.91v0.941H196.981z
	"/>
<path style="fill:#587082;" d="M249.387,147.01H70.801c-34.903,0-63.197,28.294-63.197,63.197v7.097h304.98v-7.097
	C312.584,175.304,284.29,147.01,249.387,147.01z"/>
<g>
	<rect x="185.03" y="240.123" style="fill:#FFFFFF;" width="63.194" height="15.208"/>
	<rect x="38.02" y="240.123" style="fill:#FFFFFF;" width="126.733" height="15.208"/>
</g>
<path style="fill:#F59D40;" d="M486.147,217.304H312.584v36.499h173.563c10.079,0,18.25-8.171,18.25-18.25
	C504.396,225.475,496.225,217.304,486.147,217.304z"/>
<path style="fill:#311363;" d="M486.147,209.7H320.188h-0.013c-0.275-38.806-31.918-70.294-70.788-70.294h-45.302
	c-3.226-21.396-21.733-37.85-44.013-37.85c-22.281,0-40.788,16.455-44.014,37.85H70.801c-38.869,0-70.513,31.489-70.788,70.294H0
	v0.507v14.701v141.303c0,24.39,19.843,44.234,44.233,44.234h231.721c24.39,0,44.234-19.843,44.234-44.234V261.407h165.959
	c14.256,0,25.853-11.598,25.853-25.853S500.402,209.7,486.147,209.7z M160.071,116.763c13.868,0,25.517,9.682,28.541,22.643h-57.083
	C134.554,126.446,146.203,116.763,160.071,116.763z M70.801,154.614h44.757h89.027h44.802c30.486,0,55.319,24.663,55.591,55.086
	H15.21C15.483,179.277,40.315,154.614,70.801,154.614z M304.98,366.211c0,16.005-13.021,29.026-29.026,29.026H44.233
	c-16.004,0-29.025-13.021-29.025-29.026V224.908H304.98v36.499V366.211z M486.147,246.199H320.188v-21.291h165.959
	c5.87,0,10.646,4.775,10.646,10.646S492.017,246.199,486.147,246.199z"/>
<g>
</g>
<g>
</g>
<g>
</g>
<g>
</g>
<g>
</g>
<g>
</g>
<g>
</g>
<g>
</g>
<g>
</g>
<g>
</g>
<g>
</g>
<g>
</g>
<g>
</g>
<g>
</g>
<g>
</g>
</svg>
