<?xml version="1.0" encoding="iso-8859-1"?>
<!-- Generator: Adobe Illustrator 19.0.0, SVG Export Plug-In . SVG Version: 6.00 Build 0)  -->
<svg version="1.1" id="Layer_1" xmlns="http://www.w3.org/2000/svg" xmlns:xlink="http://www.w3.org/1999/xlink" x="0px" y="0px"
	 viewBox="0 0 512 512" style="enable-background:new 0 0 512 512;" xml:space="preserve">
<path style="fill:#FF6A5E;" d="M488.957,290.004c20.541,20.538,20.541,53.839,0,74.378l0,0c-20.538,20.54-53.838,20.54-74.378,0
	L147.617,97.42c-20.54-20.539-20.539-53.839,0-74.378l0,0c20.539-20.54,53.838-20.54,74.379,0L488.957,290.004z"/>
<rect x="203.17" y="217.539" transform="matrix(-0.7071 -0.7071 0.7071 -0.7071 238.792 625.1554)" style="fill:#C9D6D6;" width="91.401" height="91.167"/>
<g>
	<path style="fill:#311363;" d="M494.357,284.604L278.601,68.848L267.8,79.649l215.757,215.756
		c8.492,8.491,13.169,19.779,13.169,31.788c0,12.009-4.677,23.297-13.17,31.79c-8.491,8.492-19.779,13.168-31.788,13.168
		c-12.008,0-23.297-4.676-31.789-13.169L153.016,92.02c-8.49-8.49-13.168-19.78-13.168-31.789s4.677-23.297,13.169-31.789
		c8.49-8.492,19.78-13.167,31.788-13.167c12.009,0,23.298,4.676,31.79,13.168l36.804,36.804l10.801-10.8l-36.805-36.804
		C216.019,6.265,200.893,0,184.805,0s-31.213,6.265-42.589,17.642c-11.375,11.375-17.641,26.501-17.641,42.589
		c0,16.089,6.265,31.214,17.641,42.59l95.767,95.767l-64.468,64.467l32.314,32.314l-29.222,29.222l-42.719-10.184l16.587,69.59
		l-69.589-16.586l16.583,69.593L70.599,430.6L0.001,501.2L10.802,512l64.56-64.563l42.721,10.181L101.5,388.026l69.591,16.586
		l-16.587-69.588l26.867,6.405l35.259-35.259l32.314,32.314l64.468-64.468l95.766,95.766c11.377,11.376,26.502,17.642,42.59,17.642
		c16.089,0,31.214-6.266,42.588-17.642c11.377-11.376,17.643-26.502,17.643-42.59C511.999,311.105,505.733,295.979,494.357,284.604z
		 M195.115,263.054l10.8-10.8l53.829,53.829l-10.8,10.8L195.115,263.054z M270.546,295.283l-53.829-53.829l32.066-32.065
		l53.828,53.829L270.546,295.283z"/>
	
		<rect x="326.246" y="74.652" transform="matrix(0.7071 -0.7071 0.7071 0.7071 -28.1754 288.2687)" style="fill:#311363;" width="15.274" height="206.986"/>
</g>
<g>
</g>
<g>
</g>
<g>
</g>
<g>
</g>
<g>
</g>
<g>
</g>
<g>
</g>
<g>
</g>
<g>
</g>
<g>
</g>
<g>
</g>
<g>
</g>
<g>
</g>
<g>
</g>
<g>
</g>
</svg>
