<?xml version="1.0" encoding="iso-8859-1"?>
<!-- Generator: Adobe Illustrator 19.0.0, SVG Export Plug-In . SVG Version: 6.00 Build 0)  -->
<svg version="1.1" id="Layer_1" xmlns="http://www.w3.org/2000/svg" xmlns:xlink="http://www.w3.org/1999/xlink" x="0px" y="0px"
	 viewBox="0 0 512 512" style="enable-background:new 0 0 512 512;" xml:space="preserve">
<path style="fill:#80D3CF;" d="M43.749,7.604v55.573c0,19.462,2.634,38.307,7.539,56.212
	c23.352,85.235,98.499,149.049,189.503,155.494V443.56h30.42V274.883c91.004-6.445,166.151-70.259,189.503-155.494
	c4.905-17.905,7.539-36.749,7.539-56.212V7.604H43.749z"/>
<g>
	<path style="fill:#FFFFFF;" d="M242.402,252.129c-61.668-4.369-117.433-38.735-149.168-91.929l13.06-7.793
		c29.19,48.926,80.473,80.534,137.185,84.551L242.402,252.129z"/>
	<path style="fill:#FFFFFF;" d="M83.438,141.473c-4.105-9.054-7.52-18.512-10.15-28.111c-4.464-16.295-6.728-33.18-6.728-50.185
		h15.208c0,15.648,2.082,31.18,6.188,46.167c2.418,8.827,5.558,17.524,9.334,25.849L83.438,141.473z"/>
	<rect x="215.446" y="30.416" style="fill:#FFFFFF;" width="222.391" height="15.208"/>
</g>
<path style="fill:#587082;" d="M361.752,473.977c0.004-0.191,0.014-0.38,0.014-0.571c0-16.482-13.362-29.845-29.845-29.845H180.079
	c-16.482,0-29.845,13.362-29.845,29.845c0,0.192,0.011,0.38,0.014,0.571H361.752z"/>
<g>
	<path style="fill:#311363;" d="M165.769,0v15.208h294.88v47.969c0,18.361-2.445,36.597-7.268,54.202
		c-22.891,83.552-96.315,143.799-182.707,149.919l-7.067,0.501v168.159h-15.212V267.798l-7.067-0.501
		c-86.392-6.119-159.816-66.366-182.707-149.918c-4.822-17.606-7.268-35.842-7.268-54.203V15.208h94.137V0H36.145v63.177
		c0,19.718,2.628,39.306,7.809,58.221c23.969,87.482,99.493,151.184,189.233,160.456v154.105h-53.108
		c-20.649,0-37.449,16.8-37.449,37.449c0,0.207,0.006,0.411,0.013,0.615l0.158,7.56h226.398l0.154-7.446l0.004-0.114
		c0.007-0.205,0.013-0.409,0.013-0.615c0-20.649-16.799-37.449-37.449-37.449h-53.108V281.853
		c89.74-9.271,165.264-72.973,189.233-160.455c5.181-18.915,7.809-38.503,7.809-58.221V0H165.769z M331.923,451.165
		c9.813,0,18.161,6.387,21.107,15.208H158.978c2.949-8.828,11.294-15.208,21.102-15.208h53.108h45.628H331.923z"/>
	<rect x="103.931" y="496.792" style="fill:#311363;" width="304.138" height="15.208"/>
</g>
<g>
</g>
<g>
</g>
<g>
</g>
<g>
</g>
<g>
</g>
<g>
</g>
<g>
</g>
<g>
</g>
<g>
</g>
<g>
</g>
<g>
</g>
<g>
</g>
<g>
</g>
<g>
</g>
<g>
</g>
</svg>
