<?xml version="1.0" encoding="iso-8859-1"?>
<!-- Generator: Adobe Illustrator 19.0.0, SVG Export Plug-In . SVG Version: 6.00 Build 0)  -->
<svg version="1.1" id="Layer_1" xmlns="http://www.w3.org/2000/svg" xmlns:xlink="http://www.w3.org/1999/xlink" x="0px" y="0px"
	 viewBox="0 0 512 512" style="enable-background:new 0 0 512 512;" xml:space="preserve">
<g>
	<polygon style="fill:#34B6D0;" points="468.092,189.387 432.749,213.653 397.407,189.387 362.066,213.653 326.723,189.387 
		291.382,213.653 256.04,189.387 220.697,213.653 185.356,189.387 150.013,213.653 114.671,189.387 79.33,213.653 43.987,189.387 
		8.644,219.155 76.263,459.796 435.737,459.796 503.356,219.155 	"/>
	<polygon style="fill:#34B6D0;" points="43.987,189.387 79.33,213.653 114.671,189.387 150.013,213.653 185.356,189.387 
		220.697,213.653 256.04,189.387 291.382,213.653 326.723,189.387 362.066,213.653 397.407,189.387 432.749,213.653 
		468.092,189.387 487.999,206.19 503.356,151.535 468.092,121.768 432.749,146.034 397.407,121.768 362.066,146.034 
		326.723,121.768 291.382,146.034 256.04,121.768 220.697,146.034 185.356,121.768 150.013,146.034 114.671,121.768 79.33,146.034 
		43.987,121.768 8.644,151.535 24.01,206.213 	"/>
	<polygon style="fill:#34B6D0;" points="43.987,121.768 79.33,146.034 114.671,121.768 150.013,146.034 185.356,121.768 
		220.697,146.034 256.04,121.768 291.382,146.034 326.723,121.768 362.066,146.034 397.407,121.768 432.749,146.034 
		468.092,121.768 487.999,138.571 503.356,83.916 468.092,54.149 432.749,78.415 397.407,54.149 362.066,78.415 326.723,54.149 
		291.382,78.415 256.04,54.149 220.697,78.415 185.356,54.149 150.013,78.415 114.671,54.149 79.33,78.415 43.987,54.149 
		8.644,83.916 24.01,138.594 	"/>
</g>
<path style="fill:#311363;" d="M496.641,135.918l15.358-54.656L468.566,44.6l-35.818,24.591l-35.341-24.266l-35.341,24.266
	l-35.343-24.266l-35.341,24.266L256.04,44.926l-35.343,24.266l-35.341-24.266l-35.343,24.266l-35.342-24.266L79.33,69.192
	L43.518,44.603L0,81.257l15.365,54.678L0,148.876l15.365,54.677L0,216.496L70.503,467.4h370.994L512,216.501l-15.358-12.964
	L512,148.882L496.641,135.918z M339.243,342.234l-12.971,109.96h-36.686l9.244-234.431l27.894-19.153l27.254,18.712l-12.36,104.773
	l15.101,1.782l12.493-105.908l28.195-19.358l26.917,18.481l-46.196,235.102h-36.546l12.761-108.178L339.243,342.234z
	 M114.671,130.991l28.195,19.358l6.293,53.496l-34.488-23.679l-18.418,12.645l-8.501-43.337L114.671,130.991z M424.327,149.473
	l-8.501,43.337l-18.418-12.645l-34.507,23.692l6.312-53.508l28.195-19.358L424.327,149.473z M353.978,149.703l-5.366,45.49
	l-21.889-15.028l-29.869,20.508l1.976-50.531l27.893-19.152L353.978,149.703z M283.621,149.928l-1.872,47.889l-25.708-17.651
	l-25.709,17.651l-1.872-47.889l27.582-18.937L283.621,149.928z M213.249,150.143l1.976,50.531l-29.869-20.508l-21.903,15.038
	l-5.353-45.499l27.255-18.713L213.249,150.143z M114.671,198.61l28.195,19.358l27.554,234.225h-36.547L87.752,217.093
	L114.671,198.61z M158.1,217.323l27.255-18.713l27.893,19.152l9.168,234.431h-36.686L158.1,217.323z M228.458,217.547l27.582-18.937
	l27.58,18.936l-9.252,234.647h-36.733L228.458,217.547z M432.749,204.43l-3.268-2.244l10.131-51.642l28.006-19.228l27.096,22.873
	l-10.837,38.571l-15.308-12.921L432.749,204.43z M494.713,86.57l-10.837,38.571l-15.308-12.921l-35.818,24.591l-3.273-2.247
	l10.129-51.635l28.013-19.233L494.713,86.57z M424.322,81.85l-8.501,43.337l-18.413-12.642l-34.51,23.695l6.312-53.508
	l28.198-19.361L424.322,81.85z M353.975,82.081l-5.366,45.49l-21.886-15.026l-29.87,20.509l1.976-50.531l27.894-19.153
	L353.975,82.081z M283.62,82.307l-1.872,47.888l-25.707-17.65l-25.708,17.65l-1.872-47.888l27.581-18.937L283.62,82.307z
	 M213.25,82.523l1.976,50.531l-29.87-20.509l-21.9,15.036l-5.353-45.5l27.252-18.711L213.25,82.523z M142.87,82.732l6.293,53.496
	l-34.491-23.682l-18.413,12.642l-8.501-43.337l26.914-18.479L142.87,82.732z M17.289,86.575l27.167-22.881L72.474,82.93
	l10.129,51.634l-3.273,2.247l-35.812-24.588l-15.38,12.955L17.289,86.575z M17.289,154.194l2.593-2.185l0,0l24.573-20.697
	l28.012,19.232l10.131,51.641l-3.268,2.244l-35.812-24.588l-15.38,12.955L17.289,154.194z M17.289,221.814l2.593-2.185v0.001
	l24.573-20.697l28.012,19.232l45.911,234.028H82.024L17.289,221.814z M429.975,452.193h-36.35l45.985-234.028l28.005-19.229
	l27.096,22.873L429.975,452.193z"/>
<g>
</g>
<g>
</g>
<g>
</g>
<g>
</g>
<g>
</g>
<g>
</g>
<g>
</g>
<g>
</g>
<g>
</g>
<g>
</g>
<g>
</g>
<g>
</g>
<g>
</g>
<g>
</g>
<g>
</g>
</svg>
