<?xml version="1.0" encoding="iso-8859-1"?>
<!-- Generator: Adobe Illustrator 19.0.0, SVG Export Plug-In . SVG Version: 6.00 Build 0)  -->
<svg version="1.1" id="Layer_1" xmlns="http://www.w3.org/2000/svg" xmlns:xlink="http://www.w3.org/1999/xlink" x="0px" y="0px"
	 viewBox="0 0 512 512" style="enable-background:new 0 0 512 512;" xml:space="preserve">
<path style="fill:#F59D40;" d="M247.832,482.114c0,12.306,9.976,22.282,22.283,22.282c12.306,0,22.283-9.975,22.283-22.282V248.481
	h-44.564v233.633H247.832z"/>
<path style="fill:#C9D6D6;" d="M389.321,7.604v240.877c24.612,0,44.565-19.953,44.565-44.565V52.168
	C433.887,27.556,413.934,7.604,389.321,7.604z"/>
<g>
	<path style="fill:#F59D40;" d="M389.321,482.114c0,12.306,9.977,22.282,22.283,22.282c12.307,0,22.283-9.975,22.283-22.282V248.481
		h-44.565V482.114z"/>
	<path style="fill:#F59D40;" d="M106.342,482.114c0,12.306,9.976,22.282,22.284,22.282c12.305,0,22.283-9.975,22.283-22.282V248.481
		h-44.565v233.633H106.342z"/>
</g>
<path style="fill:#C9D6D6;" d="M78.112,58.117c0-27.897,22.615-50.513,50.513-50.513l0,0c27.897,0,50.512,22.615,50.512,50.513
	v55.196c0,27.897-22.615,50.512-50.512,50.512l0,0c-27.898,0-50.513-22.615-50.513-50.512
	C78.112,113.312,78.112,58.117,78.112,58.117z"/>
<g>
	<path style="fill:#311363;" d="M307.709,102.191c0,20.535-11.303,34.173-29.991,37.028V0h-15.208v139.219
		c-18.689-2.855-29.991-16.493-29.991-37.028V20.279h-15.208v81.912c0,28.973,17.865,49.212,45.199,52.361v86.324h-22.283v241.237
		c0,16.479,13.407,29.887,29.887,29.887s29.887-13.407,29.887-29.887V240.876h-22.283v-86.324
		c27.334-3.149,45.199-23.388,45.199-52.361V20.279h-15.208V102.191z M284.792,482.113c0,8.094-6.585,14.679-14.679,14.679
		s-14.679-6.585-14.679-14.679v-195.61h29.356v195.61H284.792z M284.792,256.084v15.211h-29.356v-15.211h7.075l0,0h15.208l0,0
		H284.792z"/>
	<path style="fill:#311363;" d="M441.491,52.168C441.491,23.403,418.088,0,389.321,0h-7.604v240.876v15.208v226.029
		c0,16.479,13.407,29.887,29.887,29.887c16.479,0,29.888-13.407,29.888-29.887V240.876H426.1c9.5-9.453,15.391-22.532,15.391-36.961
		V52.168H441.491z M426.283,482.113c0,8.094-6.585,14.679-14.68,14.679c-8.094,0-14.679-6.585-14.679-14.679v-195.61h29.357v195.61
		H426.283z M426.283,256.084v15.211h-29.357v-15.211H426.283z M426.283,203.915c0,17.775-12.612,32.659-29.357,36.176V15.995
		c16.745,3.516,29.357,18.4,29.357,36.174V203.915z"/>
	<path style="fill:#311363;" d="M128.625,0C96.58,0,70.508,26.07,70.508,58.117v55.196c0,29.467,22.049,53.864,50.513,57.603v69.963
		H98.738v157.727h15.208V286.503h29.357v195.61c0,8.094-6.585,14.679-14.679,14.679s-14.68-6.585-14.68-14.679v-63.23H98.737v63.23
		c0,16.479,13.407,29.887,29.888,29.887c16.479,0,29.887-13.407,29.887-29.887V240.876h-22.283v-69.963
		c28.463-3.738,50.512-28.136,50.512-57.603V58.117C186.741,26.07,160.67,0,128.625,0z M143.304,256.084v15.211h-29.357v-15.211
		H143.304z M171.533,113.312c0,23.659-19.248,42.908-42.908,42.908s-42.909-19.248-42.909-42.908V58.117
		c0-23.66,19.249-42.909,42.909-42.909s42.908,19.248,42.908,42.909L171.533,113.312L171.533,113.312z"/>
</g>
<path style="fill:#FFFFFF;" d="M128.625,141.012v-15.208c6.888,0,12.492-5.604,12.492-12.492V58.117h15.208v55.196
	C156.325,128.586,143.899,141.012,128.625,141.012z"/>
<g>
</g>
<g>
</g>
<g>
</g>
<g>
</g>
<g>
</g>
<g>
</g>
<g>
</g>
<g>
</g>
<g>
</g>
<g>
</g>
<g>
</g>
<g>
</g>
<g>
</g>
<g>
</g>
<g>
</g>
</svg>
