<?xml version="1.0" encoding="iso-8859-1"?>
<!-- Generator: Adobe Illustrator 19.0.0, SVG Export Plug-In . SVG Version: 6.00 Build 0)  -->
<svg version="1.1" id="Layer_1" xmlns="http://www.w3.org/2000/svg" xmlns:xlink="http://www.w3.org/1999/xlink" x="0px" y="0px"
	 viewBox="0 0 512 512" style="enable-background:new 0 0 512 512;" xml:space="preserve">
<rect x="48.047" y="7.604" style="fill:#FF6A5E;" width="415.896" height="128.73"/>
<polygon style="fill:#C9D6D6;" points="48.05,136.33 48.05,467.913 65.055,467.913 65.055,504.396 446.945,504.396 446.945,467.913 
	463.95,467.913 463.95,136.33 "/>
<rect x="65.059" y="467.917" style="fill:#34B6D0;" width="381.891" height="36.483"/>
<g>
	<rect x="101.417" y="58.074" style="fill:#FFFFFF;" width="15.208" height="27.784"/>
	<rect x="131.832" y="58.074" style="fill:#FFFFFF;" width="15.208" height="27.784"/>
	<rect x="162.248" y="58.074" style="fill:#FFFFFF;" width="15.208" height="27.784"/>
	<rect x="334.534" y="58.074" style="fill:#FFFFFF;" width="15.208" height="27.784"/>
	<rect x="364.96" y="58.074" style="fill:#FFFFFF;" width="15.208" height="27.784"/>
	<rect x="395.376" y="58.074" style="fill:#FFFFFF;" width="15.208" height="27.784"/>
</g>
<g>
	<circle style="fill:#587082;" cx="220.535" cy="71.966" r="20.259"/>
	<circle style="fill:#587082;" cx="291.465" cy="71.966" r="20.259"/>
</g>
<g>
	<path style="fill:#311363;" d="M151.191,0v15.208h305.155v113.518H55.654V15.208h75.259V0H40.446v128.726v15.208v331.583h17.006
		V512h397.097v-36.483h17.006V143.934v-15.208V0H151.191z M456.346,460.309h-1.798h-15.208H151.192v15.208h288.149v21.275H72.659
		v-21.275h58.253v-15.208H72.659H57.451h-1.798V143.934h400.692V460.309z"/>
	<path style="fill:#311363;" d="M248.396,71.966c0-15.364-12.5-27.863-27.863-27.863s-27.863,12.5-27.863,27.863
		s12.5,27.863,27.863,27.863S248.396,87.33,248.396,71.966z M207.877,71.966c0-6.978,5.678-12.655,12.655-12.655
		c6.977,0,12.656,5.678,12.656,12.655c0,6.977-5.678,12.655-12.655,12.655C213.556,84.621,207.877,78.944,207.877,71.966z"/>
	<path style="fill:#311363;" d="M319.331,71.966c0-15.364-12.5-27.863-27.863-27.863s-27.864,12.5-27.864,27.863
		s12.5,27.863,27.863,27.863C306.83,99.829,319.331,87.33,319.331,71.966z M278.812,71.966c0-6.978,5.678-12.655,12.655-12.655
		c6.977,0,12.655,5.678,12.655,12.655c0,6.977-5.678,12.655-12.655,12.655C284.49,84.621,278.812,78.944,278.812,71.966z"/>
	<polygon style="fill:#311363;" points="131.831,201.758 147.039,201.758 147.039,180.437 162.247,180.437 162.247,201.758 
		177.455,201.758 177.455,180.437 334.542,180.437 334.542,201.758 349.75,201.758 349.75,180.437 364.958,180.437 364.958,201.758 
		380.166,201.758 380.166,180.437 410.584,180.437 410.584,165.229 101.416,165.229 101.416,180.437 131.831,180.437 	"/>
</g>
<rect x="181.603" y="429.898" style="fill:#FFFFFF;" width="251.924" height="15.208"/>
<g>
</g>
<g>
</g>
<g>
</g>
<g>
</g>
<g>
</g>
<g>
</g>
<g>
</g>
<g>
</g>
<g>
</g>
<g>
</g>
<g>
</g>
<g>
</g>
<g>
</g>
<g>
</g>
<g>
</g>
</svg>
