<?xml version="1.0" encoding="iso-8859-1"?>
<!-- Generator: Adobe Illustrator 19.0.0, SVG Export Plug-In . SVG Version: 6.00 Build 0)  -->
<svg version="1.1" id="Layer_1" xmlns="http://www.w3.org/2000/svg" xmlns:xlink="http://www.w3.org/1999/xlink" x="0px" y="0px"
	 viewBox="0 0 512 512" style="enable-background:new 0 0 512 512;" xml:space="preserve">
<path style="fill:#FF6A5E;" d="M433.528,377.621c39.141,0,70.868-31.731,70.868-70.867h-21.372
	c13.18-12.869,21.372-30.823,21.372-50.699h-21.372c13.18-12.869,21.372-30.823,21.372-50.697h-21.372
	c13.18-12.869,21.372-30.823,21.372-50.699h-21.372c13.18-12.869,21.372-30.823,21.372-50.697H7.604
	c0,19.874,8.193,37.828,21.373,50.697H7.604c0,19.876,8.193,37.83,21.373,50.699H7.604c0,19.874,8.193,37.828,21.373,50.697H7.604
	c0,19.876,8.193,37.83,21.373,50.699H7.604c0,39.137,31.728,70.867,70.87,70.867H433.528z"/>
<rect x="191.113" y="329.565" style="fill:#FFFFFF;" width="276.024" height="15.208"/>
<g>
	<path style="fill:#311363;" d="M512,96.358H0v7.604c0,15.571,4.492,30.414,12.869,43.093H0v7.604
		c0,15.572,4.492,30.416,12.87,43.095H0v7.604c0,15.571,4.492,30.414,12.869,43.093H0v7.604c0,15.572,4.492,30.416,12.87,43.095H0
		v7.604c0,43.27,35.203,78.471,78.474,78.471h61.946v-15.208H78.474c-32.313,0-59.045-24.347-62.812-55.659h13.315h18.672h92.771
		V299.15H32.182c-9.227-9.885-14.945-22.204-16.525-35.491h13.321H47.65h92.771v-15.208H32.182
		c-9.227-9.885-14.945-22.203-16.525-35.489h13.321H47.65h92.771v-15.208H32.182c-9.227-9.885-14.945-22.204-16.525-35.491h13.321
		H47.65h92.771v-15.208H32.182c-9.227-9.885-14.945-22.203-16.525-35.489h480.687c-1.58,13.287-7.298,25.605-16.524,35.489H160.698
		v15.208h303.654h18.672h13.32c-1.58,13.288-7.298,25.607-16.524,35.491H160.698v15.208h303.654h18.672h13.32
		c-1.58,13.287-7.298,25.605-16.524,35.489H160.698v15.208h303.654h18.672h13.32c-1.58,13.288-7.298,25.607-16.524,35.491H160.698
		v15.208h303.654h18.672h13.314c-3.767,31.313-30.498,55.659-62.81,55.659H160.699v15.208h272.829
		c43.27,0,78.472-35.202,78.472-78.471v-7.604h-12.869C507.508,286.471,512,271.627,512,256.055v-7.604h-12.868
		C507.509,235.772,512,220.929,512,205.358v-7.604h-12.869C507.508,185.075,512,170.231,512,154.659v-7.604h-12.868
		C507.509,134.377,512,119.533,512,103.962V96.358z"/>
	<rect y="400.434" style="fill:#311363;" width="512" height="15.208"/>
</g>
<g>
</g>
<g>
</g>
<g>
</g>
<g>
</g>
<g>
</g>
<g>
</g>
<g>
</g>
<g>
</g>
<g>
</g>
<g>
</g>
<g>
</g>
<g>
</g>
<g>
</g>
<g>
</g>
<g>
</g>
</svg>
