<?xml version="1.0" encoding="iso-8859-1"?>
<!-- Generator: Adobe Illustrator 19.0.0, SVG Export Plug-In . SVG Version: 6.00 Build 0)  -->
<svg version="1.1" id="Layer_1" xmlns="http://www.w3.org/2000/svg" xmlns:xlink="http://www.w3.org/1999/xlink" x="0px" y="0px"
	 viewBox="0 0 512 512" style="enable-background:new 0 0 512 512;" xml:space="preserve">
<circle style="fill:#FF6A5E;" cx="256" cy="256" r="248.396"/>
<path style="fill:#F59D40;" d="M131.099,367.172C104.745,337.597,88.713,298.636,88.713,256
	c0-92.242,75.045-167.287,167.287-167.287S423.287,163.758,423.287,256S348.242,423.287,256,423.287
	c-42.444,0-81.249-15.889-110.775-42.032L131.099,367.172z"/>
<path style="fill:#311363;" d="M256,512c-68.38,0-132.668-26.629-181.019-74.981C26.629,388.668,0,324.38,0,256
	S26.629,123.332,74.981,74.981C123.332,26.629,187.62,0,256,0s132.668,26.629,181.019,74.981C485.371,123.332,512,187.62,512,256
	s-26.629,132.668-74.981,181.019C388.668,485.371,324.38,512,256,512z M256,15.208c-64.317,0-124.786,25.046-170.266,70.527
	C40.254,131.214,15.208,191.683,15.208,256s25.046,124.786,70.527,170.266c45.479,45.48,105.947,70.526,170.265,70.526
	s124.786-25.046,170.266-70.527c45.48-45.479,70.526-105.948,70.526-170.265s-25.046-124.786-70.527-170.266
	C380.786,40.254,320.317,15.208,256,15.208z"/>
<g>
	<path style="fill:#FFFFFF;" d="M481.584,256h-15.208c0-31.16-6.591-61.078-19.59-88.923l13.78-6.434
		C474.512,190.518,481.584,222.601,481.584,256z"/>
	<path style="fill:#FFFFFF;" d="M437.851,150.045c-9.08-15.524-20.214-29.925-33.093-42.805
		C365.024,67.507,312.193,45.624,256,45.624V30.416c60.256,0,116.904,23.465,159.513,66.071
		c13.797,13.799,25.73,29.235,35.465,45.879L437.851,150.045z"/>
</g>
<path style="fill:#311363;" d="M256,430.891c-42.681,0-83.811-15.606-115.814-43.943l10.081-11.386
	c29.221,25.872,66.771,40.121,105.734,40.121c88.05,0,159.683-71.633,159.683-159.683S344.05,96.317,256,96.317
	S96.317,167.95,96.317,256c0,39.148,14.368,76.833,40.459,106.114l-11.354,10.117C96.846,340.163,81.109,298.883,81.109,256
	c0-96.435,78.456-174.891,174.891-174.891S430.891,159.565,430.891,256S352.435,430.891,256,430.891z"/>
<path style="fill:#FFFFFF;" d="M256,400.475v-15.208c71.279,0,129.267-57.989,129.267-129.267S327.279,126.733,256,126.733v-15.208
	c79.664,0,144.475,64.811,144.475,144.475S335.664,400.475,256,400.475z"/>
<g>
</g>
<g>
</g>
<g>
</g>
<g>
</g>
<g>
</g>
<g>
</g>
<g>
</g>
<g>
</g>
<g>
</g>
<g>
</g>
<g>
</g>
<g>
</g>
<g>
</g>
<g>
</g>
<g>
</g>
</svg>
