<?xml version="1.0" encoding="iso-8859-1"?>
<!-- Generator: Adobe Illustrator 19.0.0, SVG Export Plug-In . SVG Version: 6.00 Build 0)  -->
<svg version="1.1" id="Layer_1" xmlns="http://www.w3.org/2000/svg" xmlns:xlink="http://www.w3.org/1999/xlink" x="0px" y="0px"
	 viewBox="0 0 512 512" style="enable-background:new 0 0 512 512;" xml:space="preserve">
<path style="fill:#FFF6DD;" d="M83.806,74.202c0-36.782,29.818-66.599,66.599-66.599h211.19c36.781,0,66.599,29.816,66.599,66.599
	v363.593c0,36.783-29.818,66.601-66.599,66.601H150.405c-36.781,0-66.599-29.817-66.599-66.601V74.202H83.806z"/>
<path style="fill:#311363;" d="M361.595,512H150.405c-40.915,0-74.202-33.288-74.202-74.203v-87.511h15.208v87.511
	c0,32.531,26.465,58.996,58.995,58.996h211.19c32.53,0,58.995-26.466,58.995-58.996V74.202c0-32.53-26.465-58.995-58.996-58.995
	H150.405c-32.531,0-58.996,26.465-58.996,58.995v255.803H76.202V74.202C76.202,33.287,109.489,0,150.405,0h211.19
	c40.915,0,74.202,33.287,74.202,74.202v363.594C435.798,478.712,402.511,512,361.595,512z"/>
<circle style="fill:#80D3CF;" cx="179.9" cy="103.698" r="56.117"/>
<path style="fill:#311363;" d="M179.897,167.415c-35.135,0-63.72-28.585-63.72-63.722c0-35.135,28.585-63.72,63.72-63.72
	c35.136,0,63.721,28.584,63.721,63.72C243.618,138.83,215.033,167.415,179.897,167.415z M179.897,55.181
	c-26.75,0-48.512,21.763-48.512,48.512c0,26.751,21.763,48.514,48.512,48.514c26.751,0,48.513-21.764,48.513-48.514
	C228.41,76.944,206.647,55.181,179.897,55.181z"/>
<circle style="fill:#80D3CF;" cx="179.9" cy="255.899" r="56.117"/>
<path style="fill:#311363;" d="M179.897,319.622c-35.135,0-63.72-28.584-63.72-63.72s28.585-63.722,63.72-63.722
	c35.136,0,63.721,28.585,63.721,63.722C243.618,291.038,215.033,319.622,179.897,319.622z M179.897,207.388
	c-26.75,0-48.512,21.764-48.512,48.514c0,26.75,21.763,48.512,48.512,48.512c26.751,0,48.513-21.763,48.513-48.512
	C228.41,229.152,206.647,207.388,179.897,207.388z"/>
<circle style="fill:#80D3CF;" cx="179.9" cy="408.11" r="56.117"/>
<path style="fill:#311363;" d="M179.897,471.827c-35.135,0-63.72-28.584-63.72-63.72s28.585-63.721,63.72-63.721
	c35.136,0,63.721,28.585,63.721,63.721S215.033,471.827,179.897,471.827z M179.897,359.594c-26.75,0-48.512,21.763-48.512,48.513
	c0,26.75,21.763,48.512,48.512,48.512c26.751,0,48.513-21.763,48.513-48.512C228.41,381.357,206.647,359.594,179.897,359.594z"/>
<circle style="fill:#80D3CF;" cx="332.1" cy="103.698" r="56.117"/>
<path style="fill:#311363;" d="M332.103,167.415c-35.135,0-63.72-28.585-63.72-63.722c0-35.135,28.585-63.72,63.72-63.72
	c35.136,0,63.721,28.584,63.721,63.72C395.825,138.83,367.24,167.415,332.103,167.415z M332.103,55.181
	c-26.75,0-48.512,21.763-48.512,48.512c0,26.751,21.763,48.514,48.512,48.514c26.751,0,48.513-21.764,48.513-48.514
	C380.617,76.944,358.854,55.181,332.103,55.181z"/>
<circle style="fill:#80D3CF;" cx="332.1" cy="255.899" r="56.117"/>
<path style="fill:#311363;" d="M332.103,319.622c-35.135,0-63.72-28.584-63.72-63.72s28.585-63.722,63.72-63.722
	c35.136,0,63.721,28.585,63.721,63.722C395.825,291.038,367.24,319.622,332.103,319.622z M332.103,207.388
	c-26.75,0-48.512,21.764-48.512,48.514c0,26.75,21.763,48.512,48.512,48.512c26.751,0,48.513-21.763,48.513-48.512
	C380.617,229.152,358.854,207.388,332.103,207.388z"/>
<circle style="fill:#80D3CF;" cx="332.1" cy="408.11" r="56.117"/>
<path style="fill:#311363;" d="M332.103,471.827c-35.135,0-63.72-28.584-63.72-63.72s28.585-63.721,63.72-63.721
	c35.136,0,63.721,28.585,63.721,63.721S367.24,471.827,332.103,471.827z M332.103,359.594c-26.75,0-48.512,21.763-48.512,48.513
	c0,26.75,21.763,48.512,48.512,48.512c26.751,0,48.513-21.763,48.513-48.512C380.617,381.357,358.854,359.594,332.103,359.594z"/>
<g>
	<path style="fill:#FFFFFF;" d="M213.202,103.693h-15.208c0-9.978-8.118-18.096-18.097-18.096V70.388
		C198.262,70.389,213.202,85.329,213.202,103.693z"/>
	<path style="fill:#FFFFFF;" d="M213.202,255.902h-15.208c0-9.979-8.118-18.098-18.097-18.098v-15.208
		C198.262,222.596,213.202,237.537,213.202,255.902z"/>
	<path style="fill:#FFFFFF;" d="M213.202,408.107h-15.208c0-9.979-8.118-18.097-18.097-18.097v-15.208
		C198.262,374.802,213.202,389.743,213.202,408.107z"/>
	<path style="fill:#FFFFFF;" d="M365.409,103.693h-15.208c0-9.978-8.118-18.096-18.097-18.096V70.388
		C350.469,70.389,365.409,85.329,365.409,103.693z"/>
	<path style="fill:#FFFFFF;" d="M365.409,255.902h-15.208c0-9.979-8.118-18.098-18.097-18.098v-15.208
		C350.469,222.596,365.409,237.537,365.409,255.902z"/>
	<path style="fill:#FFFFFF;" d="M365.409,408.107h-15.208c0-9.979-8.118-18.097-18.097-18.097v-15.208
		C350.469,374.802,365.409,389.743,365.409,408.107z"/>
</g>
<g>
</g>
<g>
</g>
<g>
</g>
<g>
</g>
<g>
</g>
<g>
</g>
<g>
</g>
<g>
</g>
<g>
</g>
<g>
</g>
<g>
</g>
<g>
</g>
<g>
</g>
<g>
</g>
<g>
</g>
</svg>
