<?xml version="1.0" encoding="iso-8859-1"?>
<!-- Generator: Adobe Illustrator 19.0.0, SVG Export Plug-In . SVG Version: 6.00 Build 0)  -->
<svg version="1.1" id="Layer_1" xmlns="http://www.w3.org/2000/svg" xmlns:xlink="http://www.w3.org/1999/xlink" x="0px" y="0px"
	 viewBox="0 0 512 512" style="enable-background:new 0 0 512 512;" xml:space="preserve">
<rect x="193.648" y="33.211" style="fill:#80D3CF;" width="124.705" height="139.913"/>
<polygon style="fill:#C9D6D6;" points="7.604,339.243 7.604,258.445 193.646,173.124 318.354,173.124 504.396,258.445 
	504.396,339.243 "/>
<g>
	<path style="fill:#311363;" d="M325.957,168.246V25.607H186.043v142.638L0,253.567v93.28h101.891v-15.208H15.208v-65.59h120.899
		v-15.208H42.425l152.881-70.113h121.388l152.882,70.113h-313.19v15.208h340.406v65.59H122.168v15.208H512v-93.28L325.957,168.246z
		 M310.75,40.815v94.289H201.25V40.815C201.25,40.815,310.75,40.815,310.75,40.815z M201.25,165.52v-15.208H310.75v15.208H201.25z"
		/>
	<path style="fill:#311363;" d="M151.062,359.522h-15.208c0,8.844-1.907,12.822-4.322,17.859
		c-2.726,5.687-5.817,12.132-5.817,24.433s3.09,18.747,5.817,24.433c2.415,5.037,4.322,9.014,4.322,17.859
		c0,8.843-1.907,12.82-4.322,17.855c-2.726,5.686-5.817,12.131-5.817,24.431h15.208c0-8.843,1.907-12.82,4.322-17.855
		c2.726-5.686,5.817-12.131,5.817-24.431c0-12.302-3.09-18.747-5.817-24.433c-2.415-5.037-4.322-9.014-4.322-17.859
		c0-8.845,1.907-12.822,4.322-17.859C147.972,378.27,151.062,371.824,151.062,359.522z"/>
	<path style="fill:#311363;" d="M229.47,359.522h-15.208c0,8.844-1.907,12.822-4.322,17.859c-2.726,5.687-5.817,12.132-5.817,24.433
		s3.09,18.747,5.817,24.433c2.415,5.037,4.322,9.014,4.322,17.859c0,8.843-1.907,12.82-4.322,17.855
		c-2.726,5.686-5.817,12.131-5.817,24.431h15.208c0-8.843,1.907-12.82,4.322-17.855c2.726-5.686,5.817-12.131,5.817-24.431
		c0-12.302-3.09-18.747-5.817-24.433c-2.415-5.037-4.322-9.014-4.322-17.859c0-8.845,1.907-12.822,4.322-17.859
		C226.38,378.27,229.47,371.824,229.47,359.522z"/>
	<path style="fill:#311363;" d="M307.876,359.522h-15.208c0,8.844-1.907,12.822-4.322,17.859
		c-2.726,5.687-5.816,12.132-5.816,24.433s3.09,18.747,5.816,24.433c2.415,5.037,4.322,9.014,4.322,17.859
		c0,8.843-1.907,12.82-4.322,17.855c-2.726,5.686-5.816,12.131-5.816,24.431h15.208c0-8.843,1.907-12.82,4.322-17.855
		c2.726-5.686,5.817-12.131,5.817-24.431c0-12.302-3.09-18.747-5.817-24.433c-2.415-5.037-4.322-9.014-4.322-17.859
		c0-8.845,1.907-12.822,4.322-17.859C304.786,378.27,307.876,371.824,307.876,359.522z"/>
	<path style="fill:#311363;" d="M386.284,359.522h-15.208c0,8.844-1.907,12.822-4.322,17.859
		c-2.726,5.687-5.817,12.132-5.817,24.433s3.09,18.747,5.817,24.433c2.415,5.037,4.322,9.014,4.322,17.859
		c0,8.843-1.907,12.82-4.322,17.855c-2.726,5.686-5.817,12.131-5.817,24.431h15.208c0-8.843,1.907-12.82,4.322-17.855
		c2.726-5.686,5.817-12.131,5.817-24.431c0-12.302-3.09-18.747-5.817-24.433c-2.415-5.037-4.322-9.014-4.322-17.859
		c0-8.845,1.907-12.822,4.322-17.859C383.194,378.27,386.284,371.824,386.284,359.522z"/>
	<rect x="146.25" y="292.529" style="fill:#311363;" width="40.048" height="15.208"/>
	<rect x="205.814" y="292.529" style="fill:#311363;" width="40.048" height="15.208"/>
	<rect x="266.139" y="292.529" style="fill:#311363;" width="40.048" height="15.208"/>
	<rect x="325.703" y="292.529" style="fill:#311363;" width="40.048" height="15.208"/>
</g>
<g>
</g>
<g>
</g>
<g>
</g>
<g>
</g>
<g>
</g>
<g>
</g>
<g>
</g>
<g>
</g>
<g>
</g>
<g>
</g>
<g>
</g>
<g>
</g>
<g>
</g>
<g>
</g>
<g>
</g>
</svg>
