<?xml version="1.0" encoding="iso-8859-1"?>
<!-- Generator: Adobe Illustrator 19.0.0, SVG Export Plug-In . SVG Version: 6.00 Build 0)  -->
<svg version="1.1" id="Layer_1" xmlns="http://www.w3.org/2000/svg" xmlns:xlink="http://www.w3.org/1999/xlink" x="0px" y="0px"
	 viewBox="0 0 512 512" style="enable-background:new 0 0 512 512;" xml:space="preserve">
<polygon style="fill:#34B6D0;" points="48.162,267.159 48.162,467.913 75.195,467.913 75.195,504.396 436.805,504.396 
	436.805,467.913 463.838,467.913 463.838,267.159 "/>
<polygon style="fill:#C9D6D6;" points="458.519,155.647 346.983,44.111 346.983,7.604 165.017,7.604 165.017,44.111 53.481,155.647 
	"/>
<g>
	<path style="fill:#311363;" d="M40.559,475.517h27.033V512h376.818v-36.483h27.033V259.555H40.559V475.517z M456.234,460.309
		h-19.429h-7.604H263.604V274.763h192.63V460.309z M55.766,274.763h192.63v185.547h-117.1v15.208h297.905v21.275H82.799v-21.275
		h28.218v-15.208H82.799h-7.604H55.766V274.763z"/>
	<polygon style="fill:#311363;" points="111.017,148.043 71.838,148.043 168.166,51.715 204.209,51.715 204.209,36.507 
		172.621,36.507 172.621,15.208 339.379,15.208 339.379,36.507 224.488,36.507 224.488,51.715 343.834,51.715 440.162,148.043 
		131.294,148.043 131.294,163.251 476.876,163.251 354.587,40.961 354.587,0 157.413,0 157.413,40.961 35.124,163.251 
		111.017,163.251 	"/>
	<rect x="165.766" y="299.089" style="fill:#311363;" width="59.818" height="15.208"/>
	<rect x="286.416" y="299.089" style="fill:#311363;" width="59.818" height="15.208"/>
	<rect x="20.277" y="178.46" style="fill:#311363;" width="471.446" height="15.208"/>
</g>
<rect x="315.818" y="429.898" style="fill:#FFFFFF;" width="117.598" height="15.208"/>
<g>
</g>
<g>
</g>
<g>
</g>
<g>
</g>
<g>
</g>
<g>
</g>
<g>
</g>
<g>
</g>
<g>
</g>
<g>
</g>
<g>
</g>
<g>
</g>
<g>
</g>
<g>
</g>
<g>
</g>
</svg>
