<?xml version="1.0" encoding="iso-8859-1"?>
<!-- Generator: Adobe Illustrator 19.0.0, SVG Export Plug-In . SVG Version: 6.00 Build 0)  -->
<svg version="1.1" id="Layer_1" xmlns="http://www.w3.org/2000/svg" xmlns:xlink="http://www.w3.org/1999/xlink" x="0px" y="0px"
	 viewBox="0 0 512 512" style="enable-background:new 0 0 512 512;" xml:space="preserve">
<path style="fill:#FF6A5E;" d="M16.091,454.877c-11.329,11.329-11.327,29.695,0,41.023c11.329,11.329,29.695,11.329,41.023,0
	l171.354-171.354l-41.022-41.022L16.091,454.877z"/>
<path style="fill:#80D3CF;" d="M478.427,75.227c-0.006,0.005-0.01,0.01-0.014,0.015L362.998,190.655
	c-9.325,9.323-24.498,9.323-33.819,0.001l-7.841-7.842c-4.517-4.515-7.006-10.521-7.006-16.91c0-6.388,2.489-12.393,7.006-16.91
	L436.764,33.566l0,0l0,0c5.94-5.939,5.94-15.568,0-21.509c-5.938-5.939-15.568-5.939-21.508,0v0.001l0,0L299.83,127.486
	c-21.219,21.219-21.219,55.618,0,76.836l7.839,7.839c21.217,21.219,55.618,21.219,76.834,0.001L499.934,96.735
	c5.938-5.939,5.938-15.568,0-21.508C493.995,69.289,484.365,69.289,478.427,75.227z"/>
<g>
	<path style="fill:#311363;" d="M136.529,323.686l10.754,10.754l40.161-40.163l30.269,30.269L51.737,490.524
		c-4.042,4.042-9.417,6.269-15.134,6.269s-11.091-2.226-15.134-6.269c-8.344-8.345-8.344-21.925,0-30.269l111.476-111.474
		l-10.754-10.754L10.714,449.499c-14.274,14.275-14.274,37.502,0,51.778C17.629,508.192,26.824,512,36.602,512
		c9.78,0,18.974-3.808,25.889-10.723l176.73-176.732l-51.776-51.776L136.529,323.686z"/>
	<path style="fill:#311363;" d="M505.311,69.85c-4.309-4.308-10.038-6.682-16.131-6.682c-5.975,0-11.597,2.281-15.876,6.431
		l-0.36,0.303l-0.212,0.267L357.622,185.278c-3.073,3.073-7.17,4.765-11.535,4.765c-4.364,0-8.459-1.691-11.53-4.763l-7.844-7.845
		c-3.08-3.079-4.777-7.174-4.777-11.531c0-4.355,1.697-8.451,4.78-11.532L442.14,38.944c4.31-4.309,6.684-10.038,6.684-16.131
		c0-6.095-2.374-11.823-6.683-16.132C437.832,2.373,432.103,0,426.009,0c-6.095,0-11.823,2.374-16.131,6.682L294.453,122.11
		c-23.659,23.66-24.123,61.847-1.422,86.096l-63.565,63.564l-20.51-20.51l-10.753,10.753l51.777,51.778l10.753-10.753
		l-20.512-20.512l63.564-63.563c11.513,10.79,26.448,16.719,42.302,16.72c0.001,0,0,0,0.001,0c16.542,0,32.096-6.443,43.793-18.141
		l115.43-115.429c4.308-4.309,6.681-10.038,6.681-16.131C511.992,79.888,509.619,74.16,505.311,69.85z M494.557,91.357
		l-115.43,115.43c-8.825,8.825-20.558,13.686-33.039,13.686c-12.482,0-24.216-4.862-33.041-13.688l-7.839-7.839
		c-8.826-8.826-13.687-20.56-13.687-33.041c0-12.481,4.861-24.215,13.687-33.041L420.633,17.435
		c1.436-1.437,3.346-2.227,5.377-2.227c2.032,0,3.941,0.79,5.378,2.227c1.437,1.437,2.228,3.346,2.228,5.378
		c0,2.031-0.791,3.94-2.229,5.377L315.96,143.617c-5.954,5.955-9.233,13.87-9.233,22.286c0,8.42,3.279,16.335,9.233,22.285
		l7.841,7.842c5.944,5.945,13.859,9.219,22.284,9.219s16.342-3.274,22.289-9.219L483.79,80.62l0.087-0.088
		c1.428-1.39,3.307-2.155,5.303-2.155c2.032,0,3.941,0.791,5.377,2.228C497.522,83.569,497.522,88.394,494.557,91.357z"/>
</g>
<g>
</g>
<g>
</g>
<g>
</g>
<g>
</g>
<g>
</g>
<g>
</g>
<g>
</g>
<g>
</g>
<g>
</g>
<g>
</g>
<g>
</g>
<g>
</g>
<g>
</g>
<g>
</g>
<g>
</g>
</svg>
