<?xml version="1.0" encoding="iso-8859-1"?>
<!-- Generator: Adobe Illustrator 19.0.0, SVG Export Plug-In . SVG Version: 6.00 Build 0)  -->
<svg version="1.1" id="Layer_1" xmlns="http://www.w3.org/2000/svg" xmlns:xlink="http://www.w3.org/1999/xlink" x="0px" y="0px"
	 viewBox="0 0 512 512" style="enable-background:new 0 0 512 512;" xml:space="preserve">
<path style="fill:#80D3CF;" d="M59.983,7.604c-13.999,0-25.347,11.348-25.347,25.347v434.963h27.033v36.483h388.662v-36.483h27.033
	V32.95c0-13.998-11.347-25.347-25.347-25.347H59.983z"/>
<g>
	<rect x="439.347" y="98.851" style="fill:#FFFFFF;" width="15.208" height="79.76"/>
	<rect x="439.347" y="198.889" style="fill:#FFFFFF;" width="15.208" height="184.594"/>
	<polygon style="fill:#FFFFFF;" points="335.32,213.283 335.32,198.075 274.357,198.075 294.819,177.614 322.535,177.615 
		322.535,162.407 299.273,162.406 299.273,139.143 284.065,139.143 284.065,166.86 263.604,187.32 263.604,126.36 248.396,126.36 
		248.396,187.322 227.935,166.862 227.934,139.143 212.726,139.143 212.727,162.407 189.466,162.404 189.464,177.612 
		217.182,177.616 237.643,198.075 176.681,198.075 176.681,213.283 237.64,213.283 217.181,233.742 189.465,233.743 
		189.465,248.951 212.726,248.95 212.727,272.213 227.935,272.213 227.935,244.496 248.396,224.035 248.397,284.999 
		263.605,284.999 263.604,224.037 284.066,244.496 284.066,272.213 299.274,272.213 299.274,248.951 322.533,248.95 
		322.533,233.742 294.819,233.743 274.358,213.283 	"/>
</g>
<rect x="34.634" y="403.75" style="fill:#34B6D0;" width="442.723" height="64.238"/>
<g>
	<path style="fill:#311363;" d="M452.017,0H161.035v15.208h290.982c9.783,0,17.743,7.96,17.743,17.743v363.198H42.241V32.95
		c0-9.783,7.96-17.743,17.743-17.743h80.774V0H59.983c-18.169,0-32.95,14.781-32.95,32.95v363.198v79.368v0.074h27.033V512h403.87
		v-36.409h27.033v-0.074v-79.368V32.95C484.967,14.781,470.186,0,452.017,0z M442.727,496.792H69.273v-21.201h39.451v-15.208H69.273
		v-0.074H42.241v-48.952H469.76v48.952h-27.033v0.074h-315.93v15.208h315.93V496.792z"/>
	<polygon style="fill:#311363;" points="105.299,130.788 105.299,115.58 67.591,115.58 67.591,295.828 105.35,295.573 
		105.248,280.365 82.799,280.517 82.799,130.788 	"/>
	<rect x="108.514" y="422.912" style="fill:#311363;" width="15.208" height="25.906"/>
	<rect x="138.94" y="422.912" style="fill:#311363;" width="15.208" height="25.906"/>
	<rect x="169.355" y="422.912" style="fill:#311363;" width="15.208" height="25.906"/>
	<rect x="327.437" y="422.912" style="fill:#311363;" width="15.208" height="25.906"/>
	<rect x="357.853" y="422.912" style="fill:#311363;" width="15.208" height="25.906"/>
	<rect x="388.268" y="422.912" style="fill:#311363;" width="15.208" height="25.906"/>
</g>
<g>
</g>
<g>
</g>
<g>
</g>
<g>
</g>
<g>
</g>
<g>
</g>
<g>
</g>
<g>
</g>
<g>
</g>
<g>
</g>
<g>
</g>
<g>
</g>
<g>
</g>
<g>
</g>
<g>
</g>
</svg>
