<?xml version="1.0" encoding="iso-8859-1"?>
<!-- Generator: Adobe Illustrator 19.0.0, SVG Export Plug-In . SVG Version: 6.00 Build 0)  -->
<svg version="1.1" id="Layer_1" xmlns="http://www.w3.org/2000/svg" xmlns:xlink="http://www.w3.org/1999/xlink" x="0px" y="0px"
	 viewBox="0 0 512 512" style="enable-background:new 0 0 512 512;" xml:space="preserve">
<path style="fill:#FFF6DD;" d="M411.628,478.036c0,14.558-11.802,26.36-26.36,26.36H126.733c-14.558,0-26.36-11.802-26.36-26.36
	V33.964c0-14.558,11.802-26.36,26.36-26.36h258.535c14.558,0,26.36,11.802,26.36,26.36V478.036z"/>
<g>
	<path style="fill:#311363;" d="M419.232,354.345V33.964C419.232,15.236,403.996,0,385.267,0H126.733
		c-18.728,0-33.964,15.236-33.964,33.964v444.071c0,18.728,15.236,33.964,33.964,33.964h258.535
		c18.728,0,33.964-15.236,33.964-33.964V374.624h-15.208v103.412c0,10.342-8.414,18.756-18.756,18.756H126.733
		c-10.342,0-18.756-8.414-18.756-18.756V198.72h296.048v155.625H419.232z M107.976,183.512V33.964
		c0-10.342,8.414-18.756,18.756-18.756h258.535c10.342,0,18.756,8.414,18.756,18.756v119.129H297.57v15.208h106.453v15.211H107.976z
		"/>
	<rect x="224.56" y="153.093" style="fill:#311363;" width="52.731" height="15.208"/>
	<polygon style="fill:#311363;" points="148.534,324.947 148.534,239.278 161.204,239.278 161.204,224.07 133.326,224.07 
		133.326,324.947 	"/>
	<polygon style="fill:#311363;" points="133.326,160.697 148.534,160.697 148.534,105.448 161.204,105.448 161.204,90.24 
		133.326,90.24 	"/>
</g>
<g>
</g>
<g>
</g>
<g>
</g>
<g>
</g>
<g>
</g>
<g>
</g>
<g>
</g>
<g>
</g>
<g>
</g>
<g>
</g>
<g>
</g>
<g>
</g>
<g>
</g>
<g>
</g>
<g>
</g>
</svg>
