<?xml version="1.0" encoding="iso-8859-1"?>
<!-- Generator: Adobe Illustrator 19.0.0, SVG Export Plug-In . SVG Version: 6.00 Build 0)  -->
<svg version="1.1" id="Layer_1" xmlns="http://www.w3.org/2000/svg" xmlns:xlink="http://www.w3.org/1999/xlink" x="0px" y="0px"
	 viewBox="0 0 512 512" style="enable-background:new 0 0 512 512;" xml:space="preserve">
<path style="fill:#C9D6D6;" d="M493.517,18.433c-14.437-14.438-37.847-14.437-52.285,0L325.049,134.616
	c-78.961-54.383-187.898-46.471-258.126,23.757c-79.158,79.157-79.157,207.497,0,286.654c79.159,79.158,207.497,79.158,286.655,0
	c70.228-70.228,78.141-179.165,23.757-258.127L493.517,70.718C507.956,56.279,507.954,32.871,493.517,18.433z M476.066,53.836
	c-4.957,4.957-12.995,4.957-17.954,0.001c-4.957-4.961-4.957-12.998,0-17.955c4.956-4.957,12.997-4.957,17.954,0.001
	C481.024,40.84,481.023,48.881,476.066,53.836z"/>
<path style="fill:#587082;" d="M324.387,430.81c-30.383,26.86-70.317,43.163-114.058,43.163
	c-95.143,0-172.271-77.129-172.271-172.271S115.185,129.43,210.329,129.43c95.142,0,172.271,77.129,172.271,172.271
	c0,44.1-16.57,84.329-43.826,114.802L324.387,430.81z"/>
<g>
	<path style="fill:#311363;" d="M210.251,512c-56.173,0-108.984-21.875-148.705-61.596c-81.995-81.996-81.995-215.415,0-297.41
		c39.717-39.717,92.523-61.59,148.693-61.59c40.707,0,79.927,11.536,113.842,33.424L435.854,13.056
		C444.273,4.636,455.467,0,467.375,0c11.908,0,23.101,4.636,31.52,13.056c8.42,8.419,13.056,19.613,13.056,31.519
		c0.001,11.907-4.636,23.101-13.056,31.52L387.121,187.869c53.486,82.858,42.078,192.291-28.165,262.535
		C319.236,490.125,266.424,512,210.251,512z M210.238,106.615c-52.106,0-101.093,20.291-137.936,57.134
		c-76.066,76.065-76.066,199.833,0,275.899c36.848,36.847,85.838,57.141,137.949,57.141s101.102-20.293,137.949-57.141
		c66.557-66.558,76.176-171.039,22.872-248.436l-3.592-5.214L488.138,65.341c5.548-5.547,8.602-12.922,8.601-20.766
		c0-7.844-3.054-15.218-8.6-20.764s-12.92-8.6-20.765-8.6c-7.844,0-15.219,3.054-20.764,8.6L325.95,144.47l-5.214-3.592
		C288.19,118.463,249.98,106.615,210.238,106.615z M467.089,65.159c-5.422,0-10.519-2.11-14.353-5.942
		c-7.915-7.922-7.915-20.799-0.002-28.712c3.833-3.833,8.931-5.944,14.354-5.944c5.423,0,10.523,2.112,14.356,5.946
		c3.833,3.832,5.944,8.931,5.944,14.354c0,5.422-2.111,10.521-5.944,14.354C477.609,63.048,472.512,65.159,467.089,65.159z
		 M467.088,39.772c-1.36,0-2.638,0.528-3.598,1.489c-1.984,1.984-1.983,5.215,0.002,7.202c0.957,0.957,2.237,1.487,3.597,1.487
		c1.361,0,2.639-0.529,3.599-1.49c0.961-0.961,1.491-2.239,1.491-3.599s-0.528-2.638-1.49-3.598
		C469.727,40.301,468.449,39.772,467.088,39.772z"/>
	<path style="fill:#311363;" d="M210.329,481.579c-99.184,0-179.877-80.692-179.877-179.877s80.692-179.877,179.877-179.877
		s179.877,80.692,179.877,179.877c0,44.306-16.252,86.878-45.763,119.872l-11.337-10.14c27.012-30.201,41.889-69.171,41.889-109.731
		c0-90.797-73.869-164.666-164.666-164.666S45.664,210.905,45.664,301.702s73.869,164.666,164.666,164.666
		c40.21,0,78.928-14.652,109.02-41.256l10.076,11.396C296.548,465.572,254.253,481.579,210.329,481.579z"/>
</g>
<path style="fill:#FFFFFF;" d="M359.784,301.702h-15.211c0-74.023-60.222-134.245-134.245-134.245v-15.211
	C292.739,152.247,359.784,219.292,359.784,301.702z"/>
<g>
</g>
<g>
</g>
<g>
</g>
<g>
</g>
<g>
</g>
<g>
</g>
<g>
</g>
<g>
</g>
<g>
</g>
<g>
</g>
<g>
</g>
<g>
</g>
<g>
</g>
<g>
</g>
<g>
</g>
</svg>
