<?xml version="1.0" encoding="iso-8859-1"?>
<!-- Generator: Adobe Illustrator 19.0.0, SVG Export Plug-In . SVG Version: 6.00 Build 0)  -->
<svg version="1.1" id="Layer_1" xmlns="http://www.w3.org/2000/svg" xmlns:xlink="http://www.w3.org/1999/xlink" x="0px" y="0px"
	 viewBox="0 0 512 512" style="enable-background:new 0 0 512 512;" xml:space="preserve">
<path style="fill:#80D3CF;" d="M333.448,255.367c0-93.656-20.279-247.763-20.279-247.763H198.821c0,0-20.279,154.107-20.279,247.763
	c0,37.57,26.752,68.883,62.243,75.951v142.659h30.42V331.319C306.696,324.25,333.448,292.937,333.448,255.367z"/>
<g>
	<path style="fill:#FFFFFF;" d="M266.749,308.947l-2.971-14.915c18.339-3.653,31.649-19.913,31.649-38.665h15.208
		C310.636,281.349,292.179,303.883,266.749,308.947z"/>
	<path style="fill:#FFFFFF;" d="M310.636,235.09h-15.208c0-24.6-1.455-40.927-3.655-65.639c-0.576-6.47-1.2-13.472-1.855-21.292
		l15.154-1.271c0.654,7.793,1.275,14.767,1.849,21.214C309.077,192.317,310.636,209.814,310.636,235.09z"/>
</g>
<g>
	<rect x="167.698" y="496.792" style="fill:#311363;" width="176.605" height="15.208"/>
	<path style="fill:#311363;" d="M233.181,337.32v129.054h-34.019v15.208h34.019h45.628h34.017v-15.208h-34.017V337.32
		c36.42-10.113,62.243-43.623,62.243-81.952c0-93.079-20.14-247.209-20.344-248.755L319.838,0H192.153l-0.87,6.611
		c-0.204,1.546-20.344,155.677-20.344,248.755C170.938,293.696,196.761,327.207,233.181,337.32z M205.516,15.208h100.957
		c0.465,3.704,1.106,8.868,1.87,15.211h-67.558v15.208h69.352c5.958,51.455,15.707,145.472,15.707,209.741
		c0,33.212-23.604,62.017-56.123,68.494l-6.119,1.219v141.294H248.39V325.08l-6.119-1.219
		c-32.521-6.478-56.123-35.282-56.123-68.494C186.146,174.232,201.685,45.668,205.516,15.208z"/>
</g>
<g>
</g>
<g>
</g>
<g>
</g>
<g>
</g>
<g>
</g>
<g>
</g>
<g>
</g>
<g>
</g>
<g>
</g>
<g>
</g>
<g>
</g>
<g>
</g>
<g>
</g>
<g>
</g>
<g>
</g>
</svg>
