<?xml version="1.0" encoding="iso-8859-1"?>
<!-- Generator: Adobe Illustrator 19.0.0, SVG Export Plug-In . SVG Version: 6.00 Build 0)  -->
<svg version="1.1" id="Layer_1" xmlns="http://www.w3.org/2000/svg" xmlns:xlink="http://www.w3.org/1999/xlink" x="0px" y="0px"
	 viewBox="0 0 512 512" style="enable-background:new 0 0 512 512;" xml:space="preserve">
<rect x="139.223" y="134.519" style="fill:#C9D6D6;" width="233.553" height="369.877"/>
<g>
	<path style="fill:#311363;" d="M256,0c-68.584,0-124.38,55.796-124.38,124.38v2.536v15.208v276.784h15.208V142.123h218.343v354.669
		H146.828v-57.606H131.62V512H380.38V142.123v-15.208v-2.536C380.379,55.796,324.584,0,256,0z M146.828,126.915v-2.536
		c0-60.197,48.974-109.172,109.172-109.172S365.172,64.182,365.172,124.38v2.536H146.828z"/>
	<rect x="159.501" y="160.535" style="fill:#311363;" width="18.086" height="15.208"/>
	<rect x="194.479" y="160.535" style="fill:#311363;" width="18.086" height="15.208"/>
	<rect x="229.467" y="160.535" style="fill:#311363;" width="18.085" height="15.208"/>
</g>
<g>
	<rect x="264.445" y="160.535" style="fill:#FFFFFF;" width="18.085" height="15.208"/>
	<rect x="299.424" y="160.535" style="fill:#FFFFFF;" width="18.086" height="15.208"/>
	<rect x="334.412" y="160.535" style="fill:#FFFFFF;" width="18.086" height="15.208"/>
</g>
<g>
	<rect x="159.501" y="194.165" style="fill:#311363;" width="18.086" height="15.208"/>
	<rect x="194.479" y="194.165" style="fill:#311363;" width="18.086" height="15.208"/>
	<rect x="229.467" y="194.165" style="fill:#311363;" width="18.085" height="15.208"/>
</g>
<g>
	<rect x="264.445" y="194.165" style="fill:#FFFFFF;" width="18.085" height="15.208"/>
	<rect x="299.424" y="194.165" style="fill:#FFFFFF;" width="18.086" height="15.208"/>
	<rect x="334.412" y="194.165" style="fill:#FFFFFF;" width="18.086" height="15.208"/>
</g>
<g>
	<rect x="159.501" y="227.794" style="fill:#311363;" width="18.086" height="15.208"/>
	<rect x="194.479" y="227.794" style="fill:#311363;" width="18.086" height="15.208"/>
	<rect x="229.467" y="227.794" style="fill:#311363;" width="18.085" height="15.208"/>
</g>
<g>
	<rect x="264.445" y="227.794" style="fill:#FFFFFF;" width="18.085" height="15.208"/>
	<rect x="299.424" y="227.794" style="fill:#FFFFFF;" width="18.086" height="15.208"/>
	<rect x="334.412" y="227.794" style="fill:#FFFFFF;" width="18.086" height="15.208"/>
</g>
<g>
	<rect x="159.501" y="261.414" style="fill:#311363;" width="18.086" height="15.208"/>
	<rect x="194.479" y="261.414" style="fill:#311363;" width="18.086" height="15.208"/>
	<rect x="229.467" y="261.414" style="fill:#311363;" width="18.085" height="15.208"/>
</g>
<g>
	<rect x="264.445" y="261.414" style="fill:#FFFFFF;" width="18.085" height="15.208"/>
	<rect x="299.424" y="261.414" style="fill:#FFFFFF;" width="18.086" height="15.208"/>
	<rect x="334.412" y="261.414" style="fill:#FFFFFF;" width="18.086" height="15.208"/>
</g>
<g>
	<rect x="159.501" y="295.044" style="fill:#311363;" width="18.086" height="15.208"/>
	<rect x="194.479" y="295.044" style="fill:#311363;" width="18.086" height="15.208"/>
	<rect x="229.467" y="295.044" style="fill:#311363;" width="18.085" height="15.208"/>
</g>
<g>
	<rect x="264.445" y="295.044" style="fill:#FFFFFF;" width="18.085" height="15.208"/>
	<rect x="299.424" y="295.044" style="fill:#FFFFFF;" width="18.086" height="15.208"/>
	<rect x="334.412" y="295.044" style="fill:#FFFFFF;" width="18.086" height="15.208"/>
</g>
<g>
	<rect x="159.501" y="328.674" style="fill:#311363;" width="18.086" height="15.208"/>
	<rect x="194.479" y="328.674" style="fill:#311363;" width="18.086" height="15.208"/>
	<rect x="229.467" y="328.674" style="fill:#311363;" width="18.085" height="15.208"/>
</g>
<g>
	<rect x="264.445" y="328.674" style="fill:#FFFFFF;" width="18.085" height="15.208"/>
	<rect x="299.424" y="328.674" style="fill:#FFFFFF;" width="18.086" height="15.208"/>
	<rect x="334.412" y="328.674" style="fill:#FFFFFF;" width="18.086" height="15.208"/>
</g>
<g>
	<rect x="159.501" y="362.293" style="fill:#311363;" width="18.086" height="15.208"/>
	<rect x="194.479" y="362.293" style="fill:#311363;" width="18.086" height="15.208"/>
	<rect x="229.467" y="362.293" style="fill:#311363;" width="18.085" height="15.208"/>
</g>
<g>
	<rect x="264.445" y="362.293" style="fill:#FFFFFF;" width="18.085" height="15.208"/>
	<rect x="299.424" y="362.293" style="fill:#FFFFFF;" width="18.086" height="15.208"/>
	<rect x="334.412" y="362.293" style="fill:#FFFFFF;" width="18.086" height="15.208"/>
</g>
<g>
	<rect x="159.501" y="395.923" style="fill:#311363;" width="18.086" height="15.208"/>
	<rect x="194.479" y="395.923" style="fill:#311363;" width="18.086" height="15.208"/>
	<rect x="229.467" y="395.923" style="fill:#311363;" width="18.085" height="15.208"/>
</g>
<g>
	<rect x="264.445" y="395.923" style="fill:#FFFFFF;" width="18.085" height="15.208"/>
	<rect x="299.424" y="395.923" style="fill:#FFFFFF;" width="18.086" height="15.208"/>
	<rect x="334.412" y="395.923" style="fill:#FFFFFF;" width="18.086" height="15.208"/>
</g>
<g>
	<rect x="159.501" y="429.543" style="fill:#311363;" width="18.086" height="15.208"/>
	<rect x="194.479" y="429.543" style="fill:#311363;" width="18.086" height="15.208"/>
	<rect x="229.467" y="429.543" style="fill:#311363;" width="18.085" height="15.208"/>
</g>
<g>
	<rect x="264.445" y="429.543" style="fill:#FFFFFF;" width="18.085" height="15.208"/>
	<rect x="299.424" y="429.543" style="fill:#FFFFFF;" width="18.086" height="15.208"/>
	<rect x="334.412" y="429.543" style="fill:#FFFFFF;" width="18.086" height="15.208"/>
</g>
<g>
	<rect x="159.501" y="463.172" style="fill:#311363;" width="18.086" height="15.208"/>
	<rect x="194.479" y="463.172" style="fill:#311363;" width="18.086" height="15.208"/>
	<rect x="229.467" y="463.172" style="fill:#311363;" width="18.085" height="15.208"/>
</g>
<g>
	<rect x="264.445" y="463.172" style="fill:#FFFFFF;" width="18.085" height="15.208"/>
	<rect x="299.424" y="463.172" style="fill:#FFFFFF;" width="18.086" height="15.208"/>
	<rect x="334.412" y="463.172" style="fill:#FFFFFF;" width="18.086" height="15.208"/>
</g>
<g>
</g>
<g>
</g>
<g>
</g>
<g>
</g>
<g>
</g>
<g>
</g>
<g>
</g>
<g>
</g>
<g>
</g>
<g>
</g>
<g>
</g>
<g>
</g>
<g>
</g>
<g>
</g>
<g>
</g>
</svg>
