<?xml version="1.0" encoding="iso-8859-1"?>
<!-- Generator: Adobe Illustrator 19.0.0, SVG Export Plug-In . SVG Version: 6.00 Build 0)  -->
<svg version="1.1" id="Layer_1" xmlns="http://www.w3.org/2000/svg" xmlns:xlink="http://www.w3.org/1999/xlink" x="0px" y="0px"
	 viewBox="0 0 512 512" style="enable-background:new 0 0 512 512;" xml:space="preserve">
<rect x="7.604" y="122.799" style="fill:#80D3CF;" width="496.792" height="266.392"/>
<polygon style="fill:#311363;" points="512,396.802 93.343,396.802 93.343,381.594 496.792,381.594 496.792,130.406 15.208,130.406 
	15.208,381.594 73.064,381.594 73.064,396.802 0,396.802 0,115.198 512,115.198 "/>
<rect x="43.606" y="274.006" style="fill:#FF6A5E;" width="79.193" height="79.193"/>
<path style="fill:#311363;" d="M130.406,360.8H36.003v-94.402h94.403V360.8z M51.211,345.592h63.987v-63.986H51.211V345.592z"/>
<rect x="43.606" y="158.801" style="fill:#FF6A5E;" width="79.193" height="79.193"/>
<path style="fill:#311363;" d="M130.406,245.602H36.003V151.2h94.403V245.602z M51.211,230.394h63.987v-63.986H51.211V230.394z"/>
<rect x="158.801" y="274.006" style="fill:#FF6A5E;" width="79.193" height="79.193"/>
<path style="fill:#311363;" d="M245.603,360.8H151.2v-94.402h94.403V360.8z M166.408,345.592h63.987v-63.986h-63.987V345.592z"/>
<rect x="158.801" y="158.801" style="fill:#FF6A5E;" width="79.193" height="79.193"/>
<polygon style="fill:#311363;" points="245.603,245.602 151.2,245.602 151.2,151.2 188.262,151.2 188.262,166.408 166.408,166.408 
	166.408,230.394 230.395,230.394 230.395,166.408 208.539,166.408 208.539,151.2 245.603,151.2 "/>
<rect x="274.006" y="274.006" style="fill:#FF6A5E;" width="79.193" height="79.193"/>
<path style="fill:#311363;" d="M360.8,360.8h-94.402v-94.402H360.8V360.8z M281.606,345.592h63.986v-63.986h-63.986V345.592z"/>
<rect x="274.006" y="158.801" style="fill:#FF6A5E;" width="79.193" height="79.193"/>
<path style="fill:#311363;" d="M360.8,245.602h-94.402V151.2H360.8V245.602z M281.606,230.394h63.986v-63.986h-63.986V230.394z"/>
<rect x="389.201" y="274.006" style="fill:#FF6A5E;" width="79.193" height="79.193"/>
<path style="fill:#311363;" d="M475.997,360.8h-94.402v-94.402h94.402V360.8z M396.803,345.592h63.986v-63.986h-63.986V345.592z"/>
<rect x="389.201" y="158.801" style="fill:#FF6A5E;" width="79.193" height="79.193"/>
<path style="fill:#311363;" d="M475.997,245.602h-94.402V151.2h94.402V245.602z M396.803,230.394h63.986v-63.986h-63.986V230.394z"
	/>
<g>
	<rect x="84.779" y="180.366" style="fill:#FFFFFF;" width="15.208" height="36.063"/>
	<rect x="199.984" y="180.366" style="fill:#FFFFFF;" width="15.208" height="36.063"/>
	<rect x="315.179" y="180.366" style="fill:#FFFFFF;" width="15.208" height="36.063"/>
	<rect x="430.374" y="180.366" style="fill:#FFFFFF;" width="15.208" height="36.063"/>
	<rect x="84.779" y="295.571" style="fill:#FFFFFF;" width="15.208" height="36.063"/>
	<rect x="199.984" y="295.571" style="fill:#FFFFFF;" width="15.208" height="36.063"/>
	<rect x="315.179" y="295.571" style="fill:#FFFFFF;" width="15.208" height="36.063"/>
	<rect x="430.374" y="295.571" style="fill:#FFFFFF;" width="15.208" height="36.063"/>
</g>
<g>
</g>
<g>
</g>
<g>
</g>
<g>
</g>
<g>
</g>
<g>
</g>
<g>
</g>
<g>
</g>
<g>
</g>
<g>
</g>
<g>
</g>
<g>
</g>
<g>
</g>
<g>
</g>
<g>
</g>
</svg>
