<?xml version="1.0" encoding="iso-8859-1"?>
<!-- Generator: Adobe Illustrator 19.0.0, SVG Export Plug-In . SVG Version: 6.00 Build 0)  -->
<svg version="1.1" id="Layer_1" xmlns="http://www.w3.org/2000/svg" xmlns:xlink="http://www.w3.org/1999/xlink" x="0px" y="0px"
	 viewBox="0 0 512 512" style="enable-background:new 0 0 512 512;" xml:space="preserve">
<path style="fill:#FF6A5E;" d="M410.421,466.182c0,21.105-17.11,38.214-38.214,38.214H139.793c-21.105,0-38.214-17.11-38.214-38.214
	V92.561c0-21.106,17.11-38.214,38.214-38.214h232.414c21.105,0,38.214,17.109,38.214,38.214V466.182z"/>
<path style="fill:#FFFFFF;" d="M387.61,143.176h-15.208V92.561c0-0.1-0.095-0.195-0.195-0.195H239.399V77.159h132.808
	c8.493,0,15.403,6.909,15.403,15.403v50.615H387.61z"/>
<rect x="139.791" y="7.604" style="fill:#80D3CF;" width="232.418" height="46.739"/>
<rect x="101.579" y="122.9" style="fill:#FFF6DD;" width="232.418" height="312.949"/>
<path style="fill:#FF6A5E;" d="M204.377,194.824c-32.911,0-59.59,26.679-59.59,59.59s26.679,59.59,59.59,59.59h26.816
	c32.911,0,59.59-26.679,59.59-59.59s-26.679-59.59-59.59-59.59H204.377z"/>
<g>
	<path style="fill:#311363;" d="M379.811,47.385V0H132.189v47.385c-21.656,3.634-38.214,22.503-38.214,45.177v22.734v328.152v22.734
		c0,25.264,20.554,45.818,45.818,45.818h232.414c25.264,0,45.818-20.554,45.818-45.818V92.561
		C418.026,69.889,401.468,51.02,379.811,47.385z M364.603,46.743h-17.994V15.208h17.994L364.603,46.743L364.603,46.743z
		 M180.599,46.743V15.208h17.994v31.535H180.599z M213.801,15.208h17.994v31.535h-17.994V15.208z M247.003,15.208h17.994v31.535
		h-17.994L247.003,15.208L247.003,15.208z M280.205,15.208h17.994v31.535h-17.994V15.208z M313.407,15.208h17.994v31.535h-17.994
		V15.208z M147.397,15.208h17.994v31.535h-17.994V15.208z M402.818,466.182c0,16.879-13.732,30.61-30.611,30.61H139.793
		c-16.879,0-30.611-13.732-30.611-30.61v-22.734h232.414V377.72h-15.208v50.52H109.182V130.503h217.206v226.938h15.208V115.295
		H109.182V92.561c0-16.879,13.732-30.611,30.61-30.611h232.414c16.879,0,30.61,13.732,30.61,30.611v373.62H402.818z"/>
	<path style="fill:#311363;" d="M231.193,187.22h-5.75c0.562-8.907,7.966-15.987,17.012-15.987v-15.208
		c-17.433,0-31.673,13.897-32.247,31.194h-5.832c-37.051,0-67.194,30.143-67.194,67.194s30.143,67.194,67.194,67.194h26.816
		c37.051,0,67.194-30.143,67.194-67.194S268.243,187.22,231.193,187.22z M231.193,306.4h-26.816
		c-28.665,0-51.986-23.321-51.986-51.986s23.321-51.986,51.986-51.986h5.804v12.675h15.208v-12.676h5.804
		c28.665,0,51.986,23.321,51.986,51.986S259.859,306.4,231.193,306.4z"/>
	<path style="fill:#311363;" d="M231.193,275.984v15.208c20.279,0,36.778-16.499,36.778-36.778h-15.208
		C252.764,266.308,243.087,275.984,231.193,275.984z"/>
	<rect x="143.644" y="336.815" style="fill:#311363;" width="148.287" height="15.208"/>
	<rect x="249.917" y="367.231" style="fill:#311363;" width="42.014" height="15.208"/>
	<rect x="143.644" y="367.231" style="fill:#311363;" width="85.996" height="15.208"/>
</g>
<g>
</g>
<g>
</g>
<g>
</g>
<g>
</g>
<g>
</g>
<g>
</g>
<g>
</g>
<g>
</g>
<g>
</g>
<g>
</g>
<g>
</g>
<g>
</g>
<g>
</g>
<g>
</g>
<g>
</g>
</svg>
