<?xml version="1.0" encoding="iso-8859-1"?>
<!-- Generator: Adobe Illustrator 19.0.0, SVG Export Plug-In . SVG Version: 6.00 Build 0)  -->
<svg version="1.1" id="Layer_1" xmlns="http://www.w3.org/2000/svg" xmlns:xlink="http://www.w3.org/1999/xlink" x="0px" y="0px"
	 viewBox="0 0 511.999 511.999" style="enable-background:new 0 0 511.999 511.999;" xml:space="preserve">
<path style="fill:#34B6D0;" d="M375.234,495.246V302.211c0-65.711-53.27-118.982-118.984-118.982H126.588
	C60.874,183.23,7.604,236.5,7.604,302.211v193.036H375.234z"/>
<g>
	<rect x="337.217" y="388.095" style="fill:#FFFFFF;" width="15.209" height="41.197"/>
	<path style="fill:#FFFFFF;" d="M352.421,367.815h-15.209v-65.603c0-44.641-36.319-80.96-80.962-80.96v-15.209
		c53.029,0,96.171,43.141,96.171,96.169V367.815z"/>
</g>
<g>
	<rect x="119.743" y="16.753" style="fill:#80D3CF;" width="151.904" height="30.417"/>
	<path style="fill:#80D3CF;" d="M375.234,419.151c36.687,0,66.427-29.74,66.427-66.427v-66.427v0.002
		c0-23.443,19.006-42.45,42.45-42.45h20.282V204.73h-20.282c-44.976,0-81.567,36.591-81.567,81.566v14.265l-0.01,0.021
		c0,10.078-8.17,18.249-18.248,18.249h-9.051v100.319H375.234z"/>
	<rect x="130.886" y="152.867" style="fill:#80D3CF;" width="121.071" height="30.417"/>
</g>
<path style="fill:#34B6D0;" d="M294.331,152.868v-10.142c0-11.2-9.079-20.278-20.278-20.278H108.786
	c-11.2,0-20.278,9.079-20.278,20.278v10.142H294.331z"/>
<circle style="fill:#80D3CF;" cx="191.416" cy="104.2" r="18.247"/>
<path style="fill:#311363;" d="M484.112,197.127c-49.17,0-89.171,40.002-89.171,89.17l-0.01,14.286
	c0,5.87-4.775,10.645-10.645,10.645h-1.447v-9.018c0-42.213-20.775-79.66-52.632-102.672c8.671-10.604,13.511-23.958,13.511-37.836
	V84.118c0-32.952-26.809-59.76-59.761-59.76h-4.707V9.149H112.137v15.21H98.882c-32.952,0-59.761,26.808-59.761,59.76v77.585
	c0,13.878,4.84,27.233,13.511,37.836C20.775,222.551,0,259.998,0,302.211v200.64h382.839v-76.484
	c37.262-3.819,66.427-35.389,66.427-73.642v-66.425c0-19.214,15.631-34.846,34.846-34.846h27.887v-54.326h-27.887V197.127z
	 M127.345,24.357h136.698v15.212H127.345V24.357z M54.329,161.703V84.118c0-24.566,19.986-44.551,44.552-44.551h13.254v15.211
	h167.115V39.567h4.707c24.566,0,44.552,19.986,44.552,44.551v77.585c0,10.968-4.065,21.494-11.281,29.607
	c-17.191-9.489-36.808-15.103-57.667-15.642v-15.197h42.374v-17.747c0-15.374-12.508-27.883-27.883-27.883H214.97
	c1.474-3.249,2.302-6.85,2.302-10.643c0-14.256-11.597-25.852-25.852-25.852c-14.255,0-25.852,11.597-25.852,25.852
	c0,3.793,0.828,7.394,2.302,10.643h-59.084c-15.375,0-27.883,12.509-27.883,27.883v17.747h42.374v15.197
	c-20.859,0.537-40.475,6.151-57.666,15.642C58.395,183.198,54.329,172.672,54.329,161.703z M180.776,104.201
	c0-5.869,4.775-10.643,10.643-10.643s10.643,4.775,10.643,10.643s-4.775,10.643-10.643,10.643S180.776,110.069,180.776,104.201z
	 M274.053,130.052c6.989,0,12.674,5.685,12.674,12.674v2.538h-27.166H123.277H96.112v-2.538c0-6.989,5.685-12.674,12.674-12.674
	H274.053z M244.353,160.473v15.153H138.486v-15.153H244.353z M367.63,487.642H15.209V302.211
	c0-60.305,48.18-109.566,108.069-111.323v0.005h136.284v-0.005c59.89,1.756,108.069,51.017,108.069,111.323v9.018v115.527V487.642z
	 M496.791,236.244h-12.679c-27.601,0-50.055,22.454-50.055,50.053v66.427c0,29.859-22.362,54.594-51.219,58.333v-84.621h1.447
	c13.633,0,24.836-10.608,25.788-24.003l0.075-0.158v-15.978c0-40.784,33.18-73.962,73.963-73.962h12.678v23.909H496.791z"/>
<g>
</g>
<g>
</g>
<g>
</g>
<g>
</g>
<g>
</g>
<g>
</g>
<g>
</g>
<g>
</g>
<g>
</g>
<g>
</g>
<g>
</g>
<g>
</g>
<g>
</g>
<g>
</g>
<g>
</g>
</svg>
