<?xml version="1.0" encoding="iso-8859-1"?>
<!-- Generator: Adobe Illustrator 19.0.0, SVG Export Plug-In . SVG Version: 6.00 Build 0)  -->
<svg version="1.1" id="Layer_1" xmlns="http://www.w3.org/2000/svg" xmlns:xlink="http://www.w3.org/1999/xlink" x="0px" y="0px"
	 viewBox="0 0 512 512" style="enable-background:new 0 0 512 512;" xml:space="preserve">
<g>
	<polyline style="fill:#C9D6D6;" points="204.987,504.396 416.078,504.396 387.673,357.17 179.03,357.17 150.625,504.396 
		184.709,504.396 	"/>
	<polygon style="fill:#C9D6D6;" points="265.652,59.591 301.054,59.591 416.078,116.194 387.673,296.332 179.03,296.332 
		150.625,116.194 	"/>
</g>
<g>
	<polygon style="fill:#587082;" points="265.646,59.591 258.202,7.604 308.503,7.604 301.056,59.591 	"/>
	<polygon style="fill:#587082;" points="416.078,116.194 459.999,116.194 459.999,140.185 404.576,189.138 	"/>
	<rect x="197.318" y="296.331" style="fill:#587082;" width="172.073" height="60.842"/>
	<path style="fill:#587082;" d="M82.417,268.675V162.459c0-8.739,7.11-15.849,15.85-15.849h57.106l-4.747-30.416H98.266
		c-25.552,0-46.266,20.713-46.266,46.265v106.216H82.417z"/>
</g>
<path style="fill:#311363;" d="M394.172,303.936l17.489-110.911l55.942-49.412V108.59h-49.755L309.365,55.207L317.275,0h-67.843
	l7.905,55.208l-108.48,53.382H98.266c-29.704,0-53.869,24.165-53.869,53.868v113.82h45.624V162.459c0-4.546,3.699-8.245,8.246-8.245
	h50.656l23.609,149.723h17.178v45.63h-16.957L141.414,512h43.294v-15.208h-24.872l25.47-132.018h4.402h50.761l-8.491,132.018
	h-26.992V512h220.302l-31.337-162.434h-16.957v-45.63L394.172,303.936L394.172,303.936z M376.994,288.728h-50.853l8.668-164.931
	h72.372l-7.093,44.988l-18.913,119.943H376.994z M255.792,288.728l-8.67-164.931h72.458l-8.668,164.931H255.792z M183.3,108.59
	l84.121-41.395h31.864l84.119,41.395C383.404,108.59,183.3,108.59,183.3,108.59z M452.395,136.756l-37.017,32.696l2.84-18.011
	l4.359-27.642h29.819V136.756z M299.732,15.208l-5.268,36.779h-22.225l-5.267-36.779H299.732z M98.266,139.005
	c-12.933,0-23.454,10.521-23.454,23.453v98.612H59.605v-98.612c0-21.317,17.343-38.661,38.662-38.661h45.851l2.373,15.208H98.266z
	 M185.529,288.728l-26.007-164.931h72.372l8.67,164.931h-50.855H185.529z M255.709,364.774h55.288l8.489,132.018h-72.268
	L255.709,364.774z M381.396,364.774l25.47,132.018h-72.142l-8.489-132.018h50.759H381.396z M361.786,319.147H259.218v15.208h102.568
	v15.211h-156.87v-15.211h34.022v-15.208h-34.022v-15.211h156.87V319.147z"/>
<g>
</g>
<g>
</g>
<g>
</g>
<g>
</g>
<g>
</g>
<g>
</g>
<g>
</g>
<g>
</g>
<g>
</g>
<g>
</g>
<g>
</g>
<g>
</g>
<g>
</g>
<g>
</g>
<g>
</g>
</svg>
