<?xml version="1.0" encoding="iso-8859-1"?>
<!-- Generator: Adobe Illustrator 19.0.0, SVG Export Plug-In . SVG Version: 6.00 Build 0)  -->
<svg version="1.1" id="Layer_1" xmlns="http://www.w3.org/2000/svg" xmlns:xlink="http://www.w3.org/1999/xlink" x="0px" y="0px"
	 viewBox="0 0 512 512" style="enable-background:new 0 0 512 512;" xml:space="preserve">
<path style="fill:#C9D6D6;" d="M478.036,421.766c14.558,0,26.36-11.802,26.36-26.36V116.594c0-14.558-11.802-26.36-26.36-26.36
	H33.964c-14.558,0-26.36,11.802-26.36,26.36v278.812c0,14.558,11.802,26.36,26.36,26.36H478.036z M78.578,305.172
	c0,8.399-6.809,15.208-15.208,15.208s-15.208-6.809-15.208-15.208v-98.345c0-8.399,6.809-15.208,15.208-15.208
	s15.208,6.809,15.208,15.208V305.172z"/>
<g>
	<path style="fill:#311363;" d="M478.036,429.37H169.822v-15.208h308.214c10.342,0,18.756-8.414,18.756-18.756V116.594
		c0-10.342-8.414-18.756-18.756-18.756H33.964c-10.342,0-18.756,8.414-18.756,18.756v278.812c0,10.342,8.414,18.756,18.756,18.756
		h115.578v15.208H33.964C15.236,429.37,0,414.134,0,395.406V116.594C0,97.866,15.236,82.63,33.964,82.63h444.071
		c18.728,0,33.964,15.236,33.964,33.964v278.812C512,414.134,496.764,429.37,478.036,429.37z M63.37,327.984
		c-12.579,0-22.812-10.234-22.812-22.812v-98.345c0-12.578,10.233-22.812,22.812-22.812s22.812,10.234,22.812,22.812v98.345
		C86.182,317.75,75.949,327.984,63.37,327.984z M63.37,199.224c-4.192,0-7.604,3.412-7.604,7.604v98.345
		c0,4.192,3.412,7.604,7.604,7.604c4.193,0,7.604-3.412,7.604-7.604v-98.345C70.974,202.635,67.564,199.224,63.37,199.224z"/>
	<path style="fill:#311363;" d="M116.598,305.172H101.39v-98.345c0-20.964-17.055-38.02-38.02-38.02V153.6
		c29.35,0,53.228,23.878,53.228,53.228V305.172z"/>
</g>
<rect x="200.238" y="383.747" style="fill:#FFFFFF;" width="196.679" height="15.208"/>
<g>
</g>
<g>
</g>
<g>
</g>
<g>
</g>
<g>
</g>
<g>
</g>
<g>
</g>
<g>
</g>
<g>
</g>
<g>
</g>
<g>
</g>
<g>
</g>
<g>
</g>
<g>
</g>
<g>
</g>
</svg>
