<?xml version="1.0" encoding="iso-8859-1"?>
<!-- Generator: Adobe Illustrator 19.0.0, SVG Export Plug-In . SVG Version: 6.00 Build 0)  -->
<svg version="1.1" id="Layer_1" xmlns="http://www.w3.org/2000/svg" xmlns:xlink="http://www.w3.org/1999/xlink" x="0px" y="0px"
	 viewBox="0 0 512 512" style="enable-background:new 0 0 512 512;" xml:space="preserve">
<path style="fill:#C9D6D6;" d="M458.692,14.522c56.036,56.035,69.028,165.212-9.608,243.849l-216.141,216.14l-117.121-117.12
	L458.692,14.522z"/>
<g>
	
		<rect x="444.108" y="119.257" transform="matrix(-0.7071 -0.7071 0.7071 -0.7071 656.7263 595.5683)" style="fill:#FFFFFF;" width="15.202" height="85.029"/>
	
		<rect x="299.812" y="164.74" transform="matrix(-0.7071 -0.7071 0.7071 -0.7071 308.3518 739.8954)" style="fill:#FFFFFF;" width="15.202" height="282.693"/>
</g>
<path style="fill:#FF6A5E;" d="M14.852,458.361c-9.669,9.668-9.668,25.344,0.001,35.013c9.667,9.666,25.343,9.668,35.01,0
	l100.97-100.971l-35.011-35.01L14.852,458.361z"/>
<path style="fill:#311363;" d="M464.067,9.148l-5.375-5.374l-353.62,353.618l0.001,0.001L9.478,452.986
	C3.366,459.098,0,467.224,0,475.867c0,8.643,3.367,16.769,9.479,22.882c6.111,6.11,14.237,9.476,22.881,9.477c0,0,0,0,0.001,0
	c8.642,0,16.767-3.366,22.878-9.477l95.595-95.596l82.11,82.108L454.46,263.746c37.579-37.58,58.011-85.825,57.532-135.848
	C511.556,82.451,494.088,39.168,464.067,9.148z M44.489,488c-3.24,3.24-7.547,5.025-12.129,5.025c-4.583,0-8.891-1.785-12.132-5.025
	c-3.241-3.241-5.026-7.55-5.026-12.132c0-4.582,1.785-8.89,5.025-12.131l22.024-22.023l12.131,12.131l10.749-10.749l-12.131-12.131
	l10.752-10.751l12.131,12.131l10.749-10.749L74.5,409.465l10.753-10.752l12.131,12.131l10.749-10.749l-12.131-12.131l19.82-19.819
	l24.261,24.26L44.489,488z M443.709,252.997L232.944,463.762l-71.361-71.359l0,0l-35.012-35.011L458.54,25.423
	c24.025,26.896,37.878,63.848,38.25,102.62C497.23,173.951,478.378,218.326,443.709,252.997z"/>
<g>
</g>
<g>
</g>
<g>
</g>
<g>
</g>
<g>
</g>
<g>
</g>
<g>
</g>
<g>
</g>
<g>
</g>
<g>
</g>
<g>
</g>
<g>
</g>
<g>
</g>
<g>
</g>
<g>
</g>
</svg>
