<?xml version="1.0" encoding="iso-8859-1"?>
<!-- Generator: Adobe Illustrator 19.0.0, SVG Export Plug-In . SVG Version: 6.00 Build 0)  -->
<svg version="1.1" id="Layer_1" xmlns="http://www.w3.org/2000/svg" xmlns:xlink="http://www.w3.org/1999/xlink" x="0px" y="0px"
	 viewBox="0 0 512 512" style="enable-background:new 0 0 512 512;" xml:space="preserve">
<path style="fill:#C9D6D6;" d="M474.577,10.759c34.334,34.334,37.453,88.7-66.388,192.54l-220.81,220.808L124.3,361.032
	L474.577,10.759z"/>
<path style="fill:#FF6A5E;" d="M23.242,462.091c-9.678,9.677-9.676,25.366,0,35.044c9.677,9.675,25.365,9.675,35.041-0.001
	l101.059-101.06l-35.04-35.041L23.242,462.091z"/>
<path style="fill:#311363;" d="M479.956,5.379L474.577,0L113.542,361.032l0.001,0.001l-95.68,95.679
	c-12.628,12.626-12.628,33.174,0.001,45.804c6.117,6.116,14.249,9.483,22.899,9.484c0.001,0,0.001,0,0.002,0
	c8.649,0,16.783-3.369,22.899-9.486l95.681-95.681l28.035,28.033L413.569,208.68c49.54-49.539,77.998-90.698,87-125.827
	C508.264,52.819,501.33,26.753,479.956,5.379z M148.584,396.074l-95.68,95.68c-3.243,3.243-7.554,5.029-12.14,5.029h-0.001
	c-4.587,0-8.899-1.786-12.141-5.027c-6.696-6.697-6.696-17.591-0.001-24.286l22.043-22.042l12.142,12.143l10.758-10.758
	L61.423,434.67l10.761-10.761l12.142,12.142l10.758-10.758L82.942,413.15l10.762-10.761l12.142,12.143l10.758-10.758l-12.142-12.143
	l19.838-19.837l3.073,3.073L148.584,396.074z M485.828,79.077c-12.343,48.168-12.343,48.168-83.021,118.845L187.379,413.348
	l-52.32-52.316L474.336,21.757C487.958,38.14,491.603,56.541,485.828,79.077z"/>
<g>
	
		<rect x="324.187" y="190.308" transform="matrix(-0.7071 -0.7071 0.7071 -0.7071 408.293 616.3383)" style="fill:#FFFFFF;" width="15.215" height="66.602"/>
	
		<rect x="229.783" y="238.093" transform="matrix(-0.7071 -0.7071 0.7071 -0.7071 180.3698 710.7706)" style="fill:#FFFFFF;" width="15.215" height="159.872"/>
</g>
<g>
</g>
<g>
</g>
<g>
</g>
<g>
</g>
<g>
</g>
<g>
</g>
<g>
</g>
<g>
</g>
<g>
</g>
<g>
</g>
<g>
</g>
<g>
</g>
<g>
</g>
<g>
</g>
<g>
</g>
</svg>
