<?xml version="1.0" encoding="iso-8859-1"?>
<!-- Generator: Adobe Illustrator 19.0.0, SVG Export Plug-In . SVG Version: 6.00 Build 0)  -->
<svg version="1.1" id="Layer_1" xmlns="http://www.w3.org/2000/svg" xmlns:xlink="http://www.w3.org/1999/xlink" x="0px" y="0px"
	 viewBox="0 0 511.999 511.999" style="enable-background:new 0 0 511.999 511.999;" xml:space="preserve">
<path style="fill:#FF6A5E;" d="M495.917,57.134c11.33-11.328,11.326-29.691,0-41.018c-11.327-11.329-29.69-11.328-41.018-0.001
	L283.565,187.452l41.016,41.018L495.917,57.134z"/>
<path style="fill:#C9D6D6;" d="M189.557,322.477c-34.938-34.937-91.587-34.937-126.525,0.001
	C13.104,372.404-10.719,452.874,24.22,487.813c34.938,34.937,115.408,11.115,165.336-38.812
	C224.493,414.064,224.495,357.415,189.557,322.477z"/>
<g>
	<path style="fill:#311363;" d="M501.295,10.741c-6.914-6.915-16.107-10.724-25.885-10.724s-18.971,3.809-25.886,10.723
		L272.811,187.452l51.768,51.77l50.913-50.912l-10.753-10.753l-40.158,40.159l-30.264-30.266L460.276,21.492
		c4.042-4.042,9.416-6.269,15.133-6.269c5.716,0,11.089,2.226,15.132,6.269c8.344,8.345,8.345,21.922,0,30.266L379.076,163.221
		l10.753,10.753L501.294,62.511C515.567,48.239,515.568,25.015,501.295,10.741z"/>
	<path style="fill:#311363;" d="M251.301,208.958l20.51,20.511l-82.463,82.462c-17.563-15.051-39.676-23.262-63.053-23.262
		c-25.929,0-50.306,10.097-68.638,28.431c-25.444,25.443-44.842,58.897-53.223,91.787c-9.152,35.918-4.034,65.856,14.411,84.302
		c12.293,12.292,30.135,18.791,51.597,18.793c0.002,0,0.004,0,0.007,0c40.628,0,89.49-22.612,124.485-57.605
		c18.333-18.333,28.43-42.71,28.431-68.638c0-23.378-8.211-45.491-23.262-63.054l82.463-82.462l20.508,20.509l10.752-10.752
		l-51.771-51.773L251.301,208.958z M184.178,443.624c-31.793,31.794-77.501,53.154-113.737,53.152
		c-17.341-0.001-31.465-4.961-40.845-14.34c-14.288-14.288-18.089-39.728-10.428-69.794c7.726-30.319,25.672-61.223,49.24-84.79
		c15.461-15.461,36.018-23.976,57.886-23.976s42.424,8.515,57.886,23.976s23.976,36.018,23.976,57.886
		C208.156,407.605,199.64,428.163,184.178,443.624z"/>
</g>
<path style="fill:#FFFFFF;" d="M173.427,432.871l-10.753-10.751c9.7-9.7,15.042-22.621,15.042-36.381
	c0.001-13.76-5.342-26.68-15.04-36.379l10.751-10.753c12.572,12.571,19.495,29.31,19.494,47.132
	C192.921,403.56,185.998,420.3,173.427,432.871z"/>
<g>
</g>
<g>
</g>
<g>
</g>
<g>
</g>
<g>
</g>
<g>
</g>
<g>
</g>
<g>
</g>
<g>
</g>
<g>
</g>
<g>
</g>
<g>
</g>
<g>
</g>
<g>
</g>
<g>
</g>
</svg>
