<?xml version="1.0" encoding="iso-8859-1"?>
<!-- Generator: Adobe Illustrator 19.0.0, SVG Export Plug-In . SVG Version: 6.00 Build 0)  -->
<svg version="1.1" id="Layer_1" xmlns="http://www.w3.org/2000/svg" xmlns:xlink="http://www.w3.org/1999/xlink" x="0px" y="0px"
	 viewBox="0 0 512.001 512.001" style="enable-background:new 0 0 512.001 512.001;" xml:space="preserve">
<path style="fill:#FFF6DD;" d="M499.033,56.952l-32.306,58.33v284.066c0,30.764-24.939,55.703-55.701,55.703h-255.02
	c-30.763,0-55.702-24.939-55.702-55.703V56.952H499.033z"/>
<path style="fill:#80D3CF;" d="M100.304,209.134v190.213c0,30.764,24.939,55.703,55.702,55.703h255.02
	c30.761,0,55.701-24.939,55.701-55.703V209.134H100.304z"/>
<path style="fill:#FF6A5E;" d="M38.207,281.511V103.444c0-8.783,7.145-15.927,15.928-15.927h46.169V56.952H54.135
	c-25.678,0-46.494,20.815-46.494,46.493v178.067H38.207z"/>
<g>
	<path style="fill:#311363;" d="M354.174,49.31v15.283h131.891l-26.979,48.713v95.827v190.213c0,26.502-21.559,48.062-48.06,48.062
		h-255.02c-26.501,0-48.061-21.56-48.061-48.062V209.134V95.159V64.593h225.602V49.31H107.945H92.662H54.135
		C24.284,49.31,0,73.595,0,103.444v185.708h45.849V103.444c0-4.569,3.717-8.285,8.286-8.285h38.527v113.975v190.213
		c0,34.929,28.416,63.344,63.343,63.344h255.02c34.926,0,63.342-28.416,63.342-63.344V209.134v-91.878l37.633-67.946L354.174,49.31
		L354.174,49.31z M54.135,79.876c-12.997,0-23.569,10.573-23.569,23.568V273.87H15.283V103.444
		c0-21.423,17.429-38.851,38.852-38.851h38.527v15.283H54.135z"/>
	<rect x="428.522" y="145.85" style="fill:#311363;" width="15.283" height="76.526"/>
	<path style="fill:#311363;" d="M443.803,399.346v-156.59H428.52v156.59c0,9.648-7.847,17.496-17.494,17.496h-67.161v15.283h67.161
		C429.099,432.125,443.803,417.421,443.803,399.346z"/>
	<rect x="135.447" y="111.189" style="fill:#311363;" width="109.588" height="15.283"/>
	<rect x="135.447" y="147.287" style="fill:#311363;" width="79.98" height="15.283"/>
	<rect x="135.447" y="183.385" style="fill:#311363;" width="109.588" height="15.283"/>
	<rect x="135.447" y="219.483" style="fill:#311363;" width="79.98" height="15.283"/>
	<rect x="135.447" y="291.679" style="fill:#311363;" width="79.98" height="15.283"/>
	<rect x="135.447" y="255.581" style="fill:#311363;" width="109.588" height="15.283"/>
	<rect x="135.447" y="327.778" style="fill:#311363;" width="109.588" height="15.283"/>
</g>
<g>
</g>
<g>
</g>
<g>
</g>
<g>
</g>
<g>
</g>
<g>
</g>
<g>
</g>
<g>
</g>
<g>
</g>
<g>
</g>
<g>
</g>
<g>
</g>
<g>
</g>
<g>
</g>
<g>
</g>
</svg>
