<?xml version="1.0" encoding="iso-8859-1"?>
<!-- Generator: Adobe Illustrator 19.0.0, SVG Export Plug-In . SVG Version: 6.00 Build 0)  -->
<svg version="1.1" id="Layer_1" xmlns="http://www.w3.org/2000/svg" xmlns:xlink="http://www.w3.org/1999/xlink" x="0px" y="0px"
	 viewBox="0 0 512 512" style="enable-background:new 0 0 512 512;" xml:space="preserve">
<path style="fill:#FFF6DD;" d="M33.964,421.591c-14.558,0-26.36-11.802-26.36-26.36V82.974c0-14.558,11.802-26.36,26.36-26.36
	h444.071c14.558,0,26.36,11.802,26.36,26.36V395.23c0,14.558-11.802,26.36-26.36,26.36H33.964V421.591z"/>
<rect x="58.297" y="107.308" style="fill:#80D3CF;" width="313.283" height="263.594"/>
<circle style="fill:#FF6A5E;" cx="437.988" cy="127.585" r="20.276"/>
<circle style="fill:#80D3CF;" cx="437.988" cy="198.555" r="20.276"/>
<g>
	
		<rect x="179.367" y="91.499" transform="matrix(-0.7072 -0.707 0.707 -0.7072 159.7643 517.1724)" style="fill:#FFFFFF;" width="15.208" height="268.012"/>
	
		<rect x="232.287" y="194.045" transform="matrix(-0.7072 -0.707 0.707 -0.7072 249.3649 556.3882)" style="fill:#FFFFFF;" width="15.208" height="65.028"/>
	
		<rect x="154.738" y="242.846" transform="matrix(-0.7072 -0.707 0.707 -0.7072 62.1337 633.9779)" style="fill:#FFFFFF;" width="15.208" height="122.554"/>
	
		<rect x="268.573" y="199.09" transform="matrix(-0.7072 -0.707 0.707 -0.7072 269.2933 683.5067)" style="fill:#FFFFFF;" width="15.208" height="173.805"/>
	
		<rect x="126.506" y="123.382" transform="matrix(-0.7072 -0.707 0.707 -0.7072 99.8319 406.6064)" style="fill:#FFFFFF;" width="15.208" height="118.499"/>
</g>
<g>
	<rect x="58.297" y="421.595" style="fill:#F59D40;" width="54.069" height="33.792"/>
	<rect x="399.634" y="421.595" style="fill:#F59D40;" width="54.069" height="33.792"/>
</g>
<g>
	<path style="fill:#311363;" d="M478.036,49.01H33.964C15.236,49.01,0,64.246,0,82.974V395.23c0,18.728,15.236,33.964,33.964,33.964
		h16.729v33.796h69.281v-33.796h34.283v-15.208h-34.283H50.693H33.964c-10.342,0-18.756-8.414-18.756-18.756V82.974
		c0-10.342,8.414-18.756,18.756-18.756h444.071c10.342,0,18.756,8.414,18.756,18.756V395.23c0,10.342-8.414,18.756-18.756,18.756
		h-16.729h-69.281H174.534v15.208h217.492v33.796h69.281v-33.796h16.729c18.728,0,33.964-15.236,33.964-33.964V82.974
		C512,64.246,496.764,49.01,478.036,49.01z M104.766,429.195v18.588H65.901v-18.588L104.766,429.195L104.766,429.195z
		 M446.099,447.784h-38.865v-18.588h38.865V447.784z"/>
	<polygon style="fill:#311363;" points="379.184,154.952 379.184,99.703 50.693,99.703 50.693,378.502 379.184,378.502 
		379.184,175.229 363.976,175.229 363.976,363.294 65.901,363.294 65.901,114.911 363.976,114.911 363.976,154.952 	"/>
	<path style="fill:#311363;" d="M437.988,155.463c15.373,0,27.88-12.507,27.88-27.88s-12.507-27.88-27.88-27.88
		s-27.88,12.507-27.88,27.88S422.615,155.463,437.988,155.463z M437.988,114.911c6.988,0,12.672,5.685,12.672,12.672
		s-5.685,12.672-12.672,12.672c-6.988,0-12.672-5.685-12.672-12.672C425.316,120.595,431.001,114.911,437.988,114.911z"/>
	<path style="fill:#311363;" d="M437.988,226.433c15.373,0,27.88-12.507,27.88-27.88s-12.507-27.88-27.88-27.88
		s-27.88,12.507-27.88,27.88S422.615,226.433,437.988,226.433z M437.988,185.882c6.988,0,12.672,5.685,12.672,12.672
		c0,6.988-5.685,12.672-12.672,12.672c-6.988,0-12.672-5.685-12.672-12.672S431.001,185.882,437.988,185.882z"/>
	<rect x="397.768" y="247.717" style="fill:#311363;" width="18.247" height="15.208"/>
	<rect x="428.863" y="247.717" style="fill:#311363;" width="18.247" height="15.208"/>
	<rect x="459.959" y="247.717" style="fill:#311363;" width="18.247" height="15.208"/>
	<rect x="397.768" y="275.092" style="fill:#311363;" width="18.247" height="15.208"/>
	<rect x="428.863" y="275.092" style="fill:#311363;" width="18.247" height="15.208"/>
	<rect x="459.959" y="275.092" style="fill:#311363;" width="18.247" height="15.208"/>
	<rect x="397.768" y="302.466" style="fill:#311363;" width="18.247" height="15.208"/>
	<rect x="428.863" y="302.466" style="fill:#311363;" width="18.247" height="15.208"/>
	<rect x="459.959" y="302.466" style="fill:#311363;" width="18.247" height="15.208"/>
	<rect x="397.768" y="332.882" style="fill:#311363;" width="80.43" height="15.208"/>
	<rect x="397.768" y="363.297" style="fill:#311363;" width="80.43" height="15.208"/>
</g>
<g>
</g>
<g>
</g>
<g>
</g>
<g>
</g>
<g>
</g>
<g>
</g>
<g>
</g>
<g>
</g>
<g>
</g>
<g>
</g>
<g>
</g>
<g>
</g>
<g>
</g>
<g>
</g>
<g>
</g>
</svg>
