<?xml version="1.0" encoding="iso-8859-1"?>
<!-- Generator: Adobe Illustrator 19.0.0, SVG Export Plug-In . SVG Version: 6.00 Build 0)  -->
<svg version="1.1" id="Layer_1" xmlns="http://www.w3.org/2000/svg" xmlns:xlink="http://www.w3.org/1999/xlink" x="0px" y="0px"
	 viewBox="0 0 512 512" style="enable-background:new 0 0 512 512;" xml:space="preserve">
<polygon style="fill:#FFF6DD;" points="161.618,63.31 350.382,63.31 430.473,180.746 430.473,504.396 241.707,504.396 
	81.527,504.396 81.527,180.746 "/>
<path style="fill:#34B6D0;" d="M161.618,63.31V22.812c0-8.399,6.809-15.208,15.208-15.208h158.349
	c8.399,0,15.208,6.809,15.208,15.208V63.31H161.618z"/>
<rect x="274.483" y="250.545" style="fill:#FF6A5E;" width="123.215" height="123.215"/>
<g>
	<path style="fill:#311363;" d="M357.986,60.965V22.812C357.986,10.233,347.752,0,335.174,0H176.826
		c-12.578,0-22.812,10.233-22.812,22.812v38.153L73.923,178.4V512h364.155V178.4L357.986,60.965z M169.222,22.812
		c0-4.193,3.411-7.604,7.604-7.604h12.704v22.705h15.208V15.208h14.225v22.705h15.208V15.208h14.225v22.705h15.208V15.208h14.224
		v22.705h15.208V15.208h14.225v22.705h15.208V15.208h12.704c4.193,0,7.604,3.411,7.604,7.604v32.894H169.222V22.812z
		 M89.131,183.092l72.487-106.287l72.485,106.287v313.7H89.131V183.092z M249.311,496.792V188.35h101.653v-15.208H245.726
		L176.007,70.914h170.357l69.719,102.229h-44.841v15.208h51.627v308.442H249.311z"/>
	<path style="fill:#311363;" d="M266.88,381.362h138.419V242.942H266.88V381.362z M282.088,258.15h108.004v108.004H282.088V258.15z"
		/>
	<rect x="266.879" y="396.572" style="fill:#311363;" width="138.423" height="15.208"/>
	<rect x="266.879" y="426.988" style="fill:#311363;" width="138.423" height="15.208"/>
</g>
<g>
</g>
<g>
</g>
<g>
</g>
<g>
</g>
<g>
</g>
<g>
</g>
<g>
</g>
<g>
</g>
<g>
</g>
<g>
</g>
<g>
</g>
<g>
</g>
<g>
</g>
<g>
</g>
<g>
</g>
</svg>
