<?xml version="1.0" encoding="iso-8859-1"?>
<!-- Generator: Adobe Illustrator 19.0.0, SVG Export Plug-In . SVG Version: 6.00 Build 0)  -->
<svg version="1.1" id="Layer_1" xmlns="http://www.w3.org/2000/svg" xmlns:xlink="http://www.w3.org/1999/xlink" x="0px" y="0px"
	 viewBox="0 0 512.001 512.001" style="enable-background:new 0 0 512.001 512.001;" xml:space="preserve">
<path style="fill:#F59D40;" d="M436.595,443.677h-2.926V157.579c0-82.828-67.146-149.975-149.975-149.975
	S133.718,74.751,133.718,157.579v62.529l-10.284-10.284c-15.785-15.786-41.379-15.786-57.165,0
	c-15.786,15.785-15.786,41.379,0,57.163l67.447,67.447v109.243h-2.926c-11.584,0-20.976,9.391-20.976,20.976v18.769
	c0,11.584,9.391,20.976,20.976,20.976h305.804c11.584,0,20.976-9.391,20.976-20.976v-18.769
	C457.57,453.068,448.179,443.677,436.595,443.677z"/>
<g>
	<rect x="392.943" y="177.862" style="fill:#FFFFFF;" width="15.208" height="55.567"/>
	<path style="fill:#FFFFFF;" d="M408.154,157.579h-15.208c0-60.242-49.01-109.252-109.253-109.252V33.12
		C352.32,33.12,408.154,88.952,408.154,157.579z"/>
</g>
<path style="fill:#FF6A5E;" d="M436.595,443.677c11.584,0,20.976,9.391,20.976,20.976v18.769c0,11.584-9.391,20.976-20.976,20.976
	H130.792c-11.584,0-20.976-9.391-20.976-20.976v-18.769c0-11.584,9.391-20.976,20.976-20.976H436.595z"/>
<path style="fill:#311363;" d="M465.139,463.254c-0.007-0.154-0.021-0.306-0.031-0.459c-0.02-0.309-0.041-0.617-0.071-0.924
	c-0.017-0.18-0.041-0.359-0.062-0.537c-0.032-0.277-0.066-0.554-0.105-0.828c-0.027-0.188-0.059-0.373-0.09-0.56
	c-0.044-0.264-0.09-0.527-0.141-0.789c-0.036-0.188-0.076-0.374-0.117-0.561c-0.056-0.258-0.115-0.513-0.177-0.767
	c-0.046-0.186-0.092-0.37-0.141-0.554c-0.069-0.256-0.142-0.509-0.217-0.762c-0.053-0.176-0.104-0.353-0.16-0.528
	c-0.083-0.261-0.172-0.519-0.264-0.777c-0.057-0.163-0.112-0.326-0.172-0.488c-0.105-0.283-0.218-0.562-0.332-0.839
	c-0.054-0.132-0.103-0.265-0.159-0.395c-0.173-0.407-0.354-0.808-0.545-1.204c-0.017-0.036-0.036-0.071-0.055-0.106
	c-0.175-0.359-0.357-0.715-0.546-1.066c-0.073-0.135-0.151-0.266-0.226-0.399c-0.14-0.249-0.281-0.499-0.428-0.743
	c-0.09-0.15-0.185-0.297-0.278-0.445c-0.14-0.223-0.281-0.446-0.427-0.665c-0.102-0.153-0.207-0.304-0.312-0.455
	c-0.145-0.209-0.292-0.417-0.442-0.622c-0.111-0.151-0.223-0.3-0.337-0.448c-0.154-0.201-0.31-0.399-0.469-0.596
	c-0.117-0.145-0.233-0.288-0.353-0.43c-0.164-0.196-0.333-0.388-0.502-0.58c-0.121-0.137-0.241-0.274-0.364-0.408
	c-0.179-0.195-0.364-0.385-0.548-0.576c-0.12-0.123-0.237-0.247-0.359-0.368c-0.211-0.21-0.428-0.413-0.646-0.615
	c-0.101-0.094-0.2-0.192-0.302-0.285c-0.321-0.292-0.65-0.576-0.984-0.853c-0.058-0.048-0.119-0.092-0.176-0.14
	c-0.28-0.227-0.563-0.452-0.851-0.669c-0.126-0.095-0.257-0.186-0.384-0.278c-0.225-0.164-0.451-0.327-0.681-0.486
	c-0.147-0.1-0.297-0.197-0.446-0.295c-0.217-0.143-0.435-0.284-0.656-0.421c-0.158-0.097-0.318-0.192-0.478-0.287
	c-0.219-0.13-0.439-0.257-0.661-0.38c-0.165-0.092-0.332-0.181-0.5-0.271c-0.223-0.119-0.448-0.233-0.675-0.347
	c-0.169-0.084-0.339-0.167-0.51-0.248c-0.233-0.111-0.468-0.215-0.705-0.319c-0.169-0.074-0.338-0.15-0.509-0.221
	c-0.25-0.104-0.504-0.202-0.757-0.299c-0.16-0.062-0.319-0.126-0.482-0.185c-0.295-0.107-0.594-0.206-0.894-0.303
	c-0.124-0.041-0.245-0.084-0.37-0.124c-0.426-0.132-0.855-0.254-1.289-0.367c-0.088-0.022-0.177-0.041-0.266-0.063
	c-0.348-0.086-0.698-0.169-1.05-0.243c-0.158-0.033-0.318-0.06-0.478-0.09c-0.228-0.044-0.455-0.091-0.684-0.129V157.579
	C441.273,70.689,370.582,0,283.693,0S126.114,70.689,126.114,157.579v44.366c-8.7-7.482-19.667-11.564-31.261-11.564
	c-12.828,0-24.888,4.995-33.959,14.067c-9.071,9.07-14.066,21.131-14.066,33.959c0,12.828,4.995,24.887,14.066,33.957l65.221,65.221
	v98.872c-0.229,0.038-0.455,0.085-0.682,0.129c-0.16,0.03-0.321,0.058-0.481,0.09c-0.351,0.073-0.698,0.155-1.043,0.241
	c-0.09,0.022-0.182,0.042-0.273,0.064c-0.433,0.113-0.863,0.234-1.288,0.367c-0.127,0.04-0.251,0.084-0.377,0.126
	c-0.297,0.096-0.594,0.195-0.887,0.301c-0.163,0.059-0.323,0.124-0.486,0.186c-0.252,0.096-0.504,0.194-0.753,0.297
	c-0.172,0.072-0.342,0.147-0.512,0.222c-0.235,0.103-0.469,0.208-0.702,0.317c-0.172,0.081-0.343,0.165-0.513,0.25
	c-0.225,0.112-0.449,0.226-0.671,0.345c-0.169,0.089-0.337,0.18-0.504,0.273c-0.221,0.123-0.439,0.249-0.657,0.378
	c-0.161,0.095-0.322,0.191-0.482,0.289c-0.221,0.137-0.438,0.278-0.654,0.42c-0.15,0.098-0.3,0.195-0.448,0.296
	c-0.23,0.157-0.455,0.32-0.679,0.484c-0.129,0.093-0.26,0.185-0.386,0.28c-0.285,0.215-0.565,0.436-0.842,0.661
	c-0.062,0.05-0.126,0.097-0.187,0.148c-0.335,0.277-0.662,0.561-0.983,0.853c-0.103,0.093-0.202,0.191-0.303,0.286
	c-0.217,0.202-0.433,0.405-0.644,0.613c-0.123,0.122-0.241,0.246-0.361,0.37c-0.184,0.19-0.367,0.378-0.546,0.573
	c-0.125,0.135-0.245,0.273-0.367,0.411c-0.168,0.191-0.336,0.381-0.499,0.576c-0.12,0.143-0.238,0.288-0.355,0.433
	c-0.158,0.196-0.314,0.394-0.467,0.595c-0.114,0.148-0.226,0.298-0.337,0.449c-0.15,0.205-0.297,0.413-0.442,0.622
	c-0.104,0.151-0.21,0.302-0.312,0.455c-0.146,0.219-0.286,0.441-0.426,0.664c-0.093,0.148-0.189,0.296-0.279,0.446
	c-0.148,0.246-0.29,0.497-0.43,0.747c-0.074,0.132-0.151,0.262-0.223,0.394c-0.191,0.352-0.372,0.708-0.547,1.068
	c-0.017,0.035-0.036,0.07-0.054,0.105c-0.192,0.396-0.372,0.799-0.545,1.205c-0.055,0.128-0.103,0.258-0.156,0.386
	c-0.116,0.282-0.229,0.564-0.336,0.849c-0.06,0.16-0.114,0.322-0.17,0.484c-0.091,0.259-0.18,0.518-0.265,0.781
	c-0.056,0.175-0.107,0.352-0.16,0.528c-0.075,0.253-0.149,0.507-0.217,0.762c-0.049,0.184-0.095,0.368-0.141,0.554
	c-0.063,0.254-0.122,0.51-0.177,0.767c-0.041,0.187-0.08,0.373-0.117,0.561c-0.052,0.262-0.097,0.525-0.141,0.789
	c-0.031,0.187-0.063,0.372-0.09,0.56c-0.041,0.275-0.073,0.552-0.105,0.828c-0.021,0.179-0.044,0.358-0.062,0.537
	c-0.029,0.306-0.051,0.614-0.071,0.924c-0.01,0.153-0.024,0.305-0.031,0.459c-0.022,0.464-0.035,0.93-0.035,1.399v18.769
	c0,15.758,12.821,28.579,28.58,28.579h305.804c15.758,0,28.579-12.821,28.579-28.579v-18.77
	C465.174,464.183,465.161,463.717,465.139,463.254z M449.966,483.421c0,7.373-5.999,13.371-13.371,13.371H130.792
	c-7.373,0-13.372-5.999-13.372-13.371v-18.769c0-7.373,5.999-13.371,13.372-13.371h10.53h61.881v-15.208h-61.881V331.285
	L71.646,261.61c-6.198-6.197-9.611-14.437-9.611-23.203c0-8.766,3.414-17.007,9.612-23.205c6.198-6.199,14.439-9.612,23.205-9.612
	s17.007,3.414,23.205,9.612l23.264,23.264v-80.886c0-78.504,63.867-142.372,142.371-142.372s142.371,63.867,142.371,142.371v248.079
	H253.898v15.208h172.167v15.208H223.482v15.208h202.583h10.53c7.373,0,13.371,5.999,13.371,13.371v18.769H449.966z"/>
<g>
</g>
<g>
</g>
<g>
</g>
<g>
</g>
<g>
</g>
<g>
</g>
<g>
</g>
<g>
</g>
<g>
</g>
<g>
</g>
<g>
</g>
<g>
</g>
<g>
</g>
<g>
</g>
<g>
</g>
</svg>
