<?xml version="1.0" encoding="iso-8859-1"?>
<!-- Generator: Adobe Illustrator 19.0.0, SVG Export Plug-In . SVG Version: 6.00 Build 0)  -->
<svg version="1.1" id="Layer_1" xmlns="http://www.w3.org/2000/svg" xmlns:xlink="http://www.w3.org/1999/xlink" x="0px" y="0px"
	 viewBox="0 0 512 512" style="enable-background:new 0 0 512 512;" xml:space="preserve">
<path style="fill:#C9D6D6;" d="M149.373,362.642c-31.699-31.698-83.089-31.696-114.786,0L16.706,380.53l26.026,2.668l2.669,26.026
	l26.025,2.67l2.67,26.024l26.024,2.67l2.67,26.024l26.024,2.67l2.672,26.026l17.884-17.881
	C181.07,445.73,181.07,394.34,149.373,362.642z"/>
<path style="fill:#FFFFFF;" d="M145.763,442.659l-14.029-5.883c6.817-16.258,3.187-34.8-9.253-47.239l10.757-10.758
	C150.063,395.605,154.98,420.679,145.763,442.659z"/>
<path style="fill:#34B6D0;" d="M367.556,241.287c-26.736,26.737-70.086,26.737-96.824,0l0,0c-26.736-26.737-26.736-70.089,0-96.825
	L387.535,27.66c26.736-26.737,70.086-26.739,96.824,0l0,0c26.737,26.737,26.737,70.086,0,96.825L367.556,241.287z"/>
<path style="fill:#FFFFFF;" d="M414.427,54.554l-10.757-10.758c8.621-8.622,20.084-13.37,32.277-13.37
	c12.191,0,23.652,4.748,32.274,13.369l-10.757,10.758c-5.749-5.749-13.391-8.914-21.517-8.914
	C427.819,45.639,420.176,48.804,414.427,54.554z"/>
<g>
	<circle style="fill:#FF6A5E;" cx="398.673" cy="113.347" r="14.421"/>
	<circle style="fill:#FF6A5E;" cx="356.421" cy="155.599" r="14.422"/>
</g>
<path style="fill:#C9D6D6;" d="M137.397,352.768c4.221,2.856,8.238,6.136,11.977,9.874c3.737,3.737,7.017,7.755,9.875,11.978
	l100.893-100.896l-21.852-21.852L137.397,352.768z"/>
<g>
	<path style="fill:#311363;" d="M489.737,22.283C475.37,7.914,456.267,0,435.947,0c-20.321,0-39.423,7.914-53.791,22.282
		L265.354,139.084c-14.368,14.367-22.28,33.471-22.28,53.79s7.913,39.423,22.28,53.791c14.368,14.369,33.471,22.282,53.79,22.282
		s39.423-7.913,53.79-22.281l116.802-116.802C519.397,100.204,519.397,51.942,489.737,22.283z M478.979,119.106L362.178,235.909
		c-11.494,11.494-26.777,17.825-43.034,17.825s-31.539-6.331-43.034-17.825c-11.494-11.495-17.825-26.778-17.825-43.036
		c0-16.256,6.33-31.539,17.825-43.033L392.913,33.039c11.495-11.495,26.778-17.826,43.034-17.826s31.538,6.331,43.033,17.827
		C502.709,56.769,502.709,95.378,478.979,119.106z"/>
	<path style="fill:#311363;" d="M398.671,91.319c-5.884,0-11.416,2.292-15.576,6.451c-8.588,8.588-8.588,22.563,0,31.153
		c4.16,4.16,9.692,6.451,15.576,6.451s11.416-2.292,15.575-6.451c4.161-4.161,6.452-9.693,6.452-15.576
		c0-5.884-2.292-11.416-6.452-15.576C410.086,93.611,404.555,91.319,398.671,91.319z M403.489,118.166
		c-1.287,1.288-2.999,1.997-4.818,1.997s-3.531-0.709-4.818-1.996c-2.657-2.657-2.657-6.982,0-9.638
		c1.287-1.288,2.999-1.997,4.818-1.997s3.531,0.709,4.818,1.997c1.287,1.287,1.996,2.998,1.996,4.818
		C405.485,115.168,404.777,116.879,403.489,118.166z"/>
	<path style="fill:#311363;" d="M356.421,133.568c-5.884,0-11.416,2.292-15.576,6.451c-8.588,8.588-8.588,22.563,0,31.155
		c4.16,4.16,9.692,6.451,15.576,6.451c5.884,0,11.416-2.292,15.577-6.452c8.587-8.591,8.587-22.566,0-31.153
		C367.838,135.861,362.306,133.568,356.421,133.568z M361.239,160.417c-1.287,1.288-2.999,1.997-4.818,1.997
		s-3.531-0.709-4.817-1.996c-2.658-2.658-2.658-6.984-0.001-9.64c1.287-1.288,2.999-1.997,4.82-1.997s3.531,0.709,4.818,1.997
		C363.897,153.435,363.897,157.76,361.239,160.417z"/>
	<path style="fill:#311363;" d="M270.899,273.725l-9.919-9.919l-35.845-35.845l-10.757,10.758l13.155,13.155l-48.225,48.224
		l10.757,10.758l48.225-48.225l11.094,11.094l-89.332,89.335c-0.335-0.401-0.688-0.783-1.029-1.176
		c-0.462-0.532-0.916-1.07-1.393-1.593c-0.883-0.972-1.786-1.921-2.707-2.848c-0.058-0.06-0.112-0.121-0.17-0.18
		c-0.084-0.084-0.172-0.161-0.257-0.244c-0.88-0.872-1.778-1.731-2.699-2.57c-0.685-0.625-1.387-1.223-2.088-1.826
		c-0.254-0.216-0.497-0.444-0.753-0.657l26.765-26.765l-10.757-10.758l-28.66,28.66c-13.334-7.711-28.507-11.84-44.323-11.84
		c-23.711,0-46.004,9.233-62.773,26.001L0.018,386.466l35.78,3.667l2.669,26.026l26.025,2.67l2.67,26.024l26.024,2.67l2.67,26.024
		l26.025,2.67l3.673,35.78l29.197-29.192c28.971-28.974,33.675-73.149,14.144-107.078l91.245-91.248L273.3,297.64l10.757-10.758
		L270.899,273.725L270.899,273.725z M143.996,472.051l-6.573,6.571l-1.67-16.273l-26.024-2.67l-2.67-26.024l-26.024-2.67
		l-2.67-26.024l-26.025-2.67l-2.669-26.026l-16.273-1.669l6.571-6.572c13.895-13.894,32.367-21.545,52.015-21.545
		c14.472,0,28.297,4.163,40.134,11.902l1.018,0.69c2.934,1.985,5.722,4.175,8.323,6.535c0.861,0.784,1.71,1.588,2.539,2.418
		c0.007,0.008,0.014,0.016,0.022,0.023c0.841,0.842,1.654,1.702,2.445,2.573c0.576,0.636,1.133,1.293,1.688,1.951
		c0.202,0.238,0.412,0.472,0.611,0.711c0.635,0.773,1.251,1.564,1.856,2.363c0.106,0.141,0.219,0.278,0.326,0.42
		c0.576,0.773,1.131,1.563,1.678,2.358c0.191,0.277,0.391,0.55,0.577,0.829l0.277,0.41
		C172.215,408.189,169.057,446.987,143.996,472.051z"/>
</g>
<g>
</g>
<g>
</g>
<g>
</g>
<g>
</g>
<g>
</g>
<g>
</g>
<g>
</g>
<g>
</g>
<g>
</g>
<g>
</g>
<g>
</g>
<g>
</g>
<g>
</g>
<g>
</g>
<g>
</g>
</svg>
