<?xml version="1.0" encoding="iso-8859-1"?>
<!-- Generator: Adobe Illustrator 19.0.0, SVG Export Plug-In . SVG Version: 6.00 Build 0)  -->
<svg version="1.1" id="Layer_1" xmlns="http://www.w3.org/2000/svg" xmlns:xlink="http://www.w3.org/1999/xlink" x="0px" y="0px"
	 viewBox="0 0 511.999 511.999" style="enable-background:new 0 0 511.999 511.999;" xml:space="preserve">
<path style="fill:#FF6A5E;" d="M16.094,454.865c-11.331,11.331-11.329,29.7,0,41.03c11.331,11.332,29.7,11.331,41.03,0
	l171.382-171.383l-41.028-41.029L16.094,454.865z"/>
<g>
	<path style="fill:#311363;" d="M479.7,32.29C458.877,11.467,431.191,0,401.742,0c-29.45,0-57.136,11.468-77.959,32.291
		c-14.733,14.732-41.41,57.787-72.093,134.439c-11.182,27.935-20.358,54.542-25.839,74.917c-2.371,8.814-3.906,15.883-4.811,21.614
		l-12.049-12.049l-10.755,10.755l51.787,51.786l10.755-10.755l-12.051-12.05c27.695-4.372,75.18-21.577,111.099-36.611
		c21.683-9.076,94.408-40.665,119.872-66.13c20.824-20.824,32.292-48.51,32.292-77.96C511.992,80.8,500.523,53.113,479.7,32.29z
		 M470.115,85.816c-12.034,34.649-53.309,76.225-119.362,120.233c-29.6,19.722-59.735,36.921-83.575,49.52l204.569-204.57
		C475.035,61.731,474.492,73.21,470.115,85.816z M460.992,40.242l-204.57,204.57c12.598-23.84,29.798-53.975,49.519-83.575
		c44.009-66.053,85.585-107.327,120.234-119.362C438.781,37.497,450.26,36.956,460.992,40.242z M267.73,167.624
		c24.021-59.115,50.244-108.015,66.808-124.578c17.95-17.949,41.817-27.835,67.203-27.835c13.439,0,26.453,2.772,38.388,8.044
		c-6.169,0.595-12.488,2.01-18.945,4.252c-38.351,13.32-81.383,55.476-127.902,125.298c-20.248,30.39-37.913,61.41-50.797,85.856
		C248.292,218.626,257.221,193.488,267.73,167.624z M468.942,177.453c-15.621,15.621-59.682,39.705-114.99,62.853
		c-29.765,12.458-58.381,22.729-80.566,29.168c24.437-12.882,55.432-30.536,85.798-50.767
		c69.822-46.519,111.978-89.552,125.297-127.902c2.243-6.458,3.657-12.778,4.253-18.947c5.271,11.936,8.044,24.949,8.044,38.39
		C496.78,135.635,486.893,159.502,468.942,177.453z"/>
	<path style="fill:#311363;" d="M136.552,323.653l10.755,10.755l40.169-40.169l30.273,30.274L51.747,490.517
		c-4.044,4.044-9.42,6.271-15.137,6.271c-5.718,0-11.094-2.227-15.137-6.271c-8.346-8.348-8.346-21.929,0-30.275L132.967,348.75
		l-10.755-10.755L10.716,449.487c-14.277,14.277-14.277,37.507-0.001,51.786c6.917,6.917,16.113,10.727,25.894,10.727
		c9.781,0,18.976-3.81,25.893-10.727l176.759-176.76l-51.785-51.785L136.552,323.653z"/>
</g>
<g>
</g>
<g>
</g>
<g>
</g>
<g>
</g>
<g>
</g>
<g>
</g>
<g>
</g>
<g>
</g>
<g>
</g>
<g>
</g>
<g>
</g>
<g>
</g>
<g>
</g>
<g>
</g>
<g>
</g>
</svg>
