<?xml version="1.0" encoding="iso-8859-1"?>
<!-- Generator: Adobe Illustrator 19.0.0, SVG Export Plug-In . SVG Version: 6.00 Build 0)  -->
<svg version="1.1" id="Layer_1" xmlns="http://www.w3.org/2000/svg" xmlns:xlink="http://www.w3.org/1999/xlink" x="0px" y="0px"
	 viewBox="0 0 512.001 512.001" style="enable-background:new 0 0 512.001 512.001;" xml:space="preserve">
<rect x="137.48" y="241.846" style="fill:#34B6D0;" width="95.252" height="34.866"/>
<path style="fill:#F59D40;" d="M374.517,241.851c33.892,0,61.366-27.475,61.366-61.366v-55.757H76.118v55.757
	c0,33.892,27.475,61.366,61.366,61.366H374.517z"/>
<path style="fill:#FFF6DD;" d="M403.34,7.604H108.661c-17.973,0-32.543,14.57-32.543,32.543v84.58h359.765v-84.58
	C435.883,22.174,421.313,7.604,403.34,7.604z M377.691,86.613h-95.835c-11.497,0-20.82-9.32-20.82-20.819s9.322-20.821,20.82-20.821
	h95.835c11.499,0,20.821,9.322,20.821,20.821S389.19,86.613,377.691,86.613z"/>
<g>
	<path style="fill:#311363;" d="M403.34,0H108.661C86.524,0,68.514,18.01,68.514,40.147v76.976v15.208v48.153
		c0,35.46,26.902,64.743,61.366,68.542v35.294h47.631v23.888c-6.15,5.296-16.019,19.424-32.162,57.114
		c-11.937,27.872-24.693,64.108-24.693,82.222c0,35.542,28.916,64.457,64.458,64.457c35.539-0.001,64.451-28.916,64.451-64.457
		c0-18.114-12.753-54.349-24.69-82.222c-16.141-37.69-26.009-51.817-32.159-57.114V284.32h47.625v-34.866h43.147v-15.208h-43.147
		H137.484c-29.644,0-53.762-24.118-53.762-53.762v-48.153h344.557v48.153c0,29.644-24.118,53.762-53.762,53.762h-70.745v15.208
		h70.745c38.031,0,68.97-30.94,68.97-68.97v-48.153v-15.208V40.147C443.487,18.01,425.477,0,403.34,0z M177.512,362.391v129.203
		c-2.567-2.396-4.744-5.441-6.557-9.184C157.807,455.264,167.157,401.996,177.512,362.391z M199.27,482.416
		c-1.811,3.737-3.985,6.781-6.55,9.174V362.42C203.07,402.031,212.412,455.29,199.27,482.416z M135.866,447.543
		c0-12.234,8.476-40.424,21.595-71.815c0.813-1.946,1.618-3.84,2.416-5.691c-1.379,5.765-2.697,11.694-3.899,17.695
		c-9.08,45.33-8.848,78.94,0.67,99.961C144.085,478.76,135.866,464.097,135.866,447.543z M234.36,447.543
		c0,16.554-8.218,31.217-20.78,40.15c9.517-21.019,9.749-54.629,0.671-99.956c-1.202-6.005-2.522-11.939-3.902-17.709
		c0.799,1.853,1.605,3.75,2.42,5.7C225.885,407.119,234.36,435.307,234.36,447.543z M225.138,249.455v19.658h-80.048v-19.658
		H225.138z M83.722,117.123V40.147c0-13.751,11.187-24.939,24.939-24.939H403.34c13.751,0,24.939,11.188,24.939,24.939v76.976
		H83.722z"/>
	<path style="fill:#311363;" d="M377.691,37.369h-95.835c-15.673,0-28.424,12.751-28.424,28.425
		c0,15.672,12.75,28.423,28.424,28.423h95.835c15.673,0,28.425-12.75,28.425-28.423C406.116,50.121,393.365,37.369,377.691,37.369z
		 M377.691,79.009h-95.835c-7.288,0-13.216-5.928-13.216-13.215c0-7.288,5.929-13.217,13.216-13.217h95.835
		c7.288,0,13.217,5.929,13.217,13.217C390.908,73.081,384.98,79.009,377.691,79.009z"/>
</g>
<g>
	<rect x="147.092" y="155.871" style="fill:#FFFFFF;" width="15.208" height="54.83"/>
	<rect x="177.507" y="155.871" style="fill:#FFFFFF;" width="15.208" height="54.83"/>
	<rect x="207.923" y="155.871" style="fill:#FFFFFF;" width="15.208" height="54.83"/>
</g>
<g>
</g>
<g>
</g>
<g>
</g>
<g>
</g>
<g>
</g>
<g>
</g>
<g>
</g>
<g>
</g>
<g>
</g>
<g>
</g>
<g>
</g>
<g>
</g>
<g>
</g>
<g>
</g>
<g>
</g>
</svg>
