<?xml version="1.0" encoding="iso-8859-1"?>
<!-- Generator: Adobe Illustrator 19.0.0, SVG Export Plug-In . SVG Version: 6.00 Build 0)  -->
<svg version="1.1" id="Layer_1" xmlns="http://www.w3.org/2000/svg" xmlns:xlink="http://www.w3.org/1999/xlink" x="0px" y="0px"
	 viewBox="0 0 511.999 511.999" style="enable-background:new 0 0 511.999 511.999;" xml:space="preserve">
<path style="fill:#FF6A5E;" d="M106.595,38.719c6.896,16.653-1.009,35.736-17.658,42.635L52.718,96.356
	c-16.646,6.895-35.735-1.01-42.631-17.659l0,0c-6.896-16.649,1.011-35.736,17.658-42.631l36.218-15.002
	C80.613,14.168,99.699,22.073,106.595,38.719L106.595,38.719z"/>
<path style="fill:#34B6D0;" d="M18.414,185.148c0,134.197,108.793,242.988,242.991,242.988c134.198,0,242.99-108.792,242.99-242.988
	H18.414z"/>
<g>
	<path style="fill:#FFFFFF;" d="M420.256,337.47l-10.974-10.529c25.53-26.612,43.424-59.518,51.746-95.161l14.809,3.457
		C466.894,273.538,447.675,308.889,420.256,337.47z"/>
	<path style="fill:#FFFFFF;" d="M348.204,387.492l-6.014-13.968c19.302-8.308,37.191-19.532,53.168-33.355l9.95,11.501
		C388.152,366.514,368.939,378.567,348.204,387.492z"/>
</g>
<path style="fill:#FF6A5E;" d="M164.146,185.148L102.837,70.402c-3.417,4.709-8.132,8.562-13.901,10.952L52.718,96.356
	c-5.768,2.388-11.826,2.996-17.57,2.087l26.316,86.704H164.146z"/>
<path style="fill:#80D3CF;" d="M418.961,493.428c0,0,0-0.002,0-0.006c0-19.259-15.615-34.871-34.882-34.871H138.732
	c-19.266,0-34.883,15.611-34.883,34.871c0,0.004,0,0.004,0,0.004L418.961,493.428z"/>
<g>
	<path style="fill:#311363;" d="M402.865,177.544v15.208h93.807c-1.891,60.023-26.162,116.176-68.824,158.838
		c-44.46,44.459-103.57,68.943-166.443,68.943S139.422,396.048,94.963,351.59C52.3,308.927,28.029,252.775,26.139,192.752h29.688
		H176.83h205.756v-15.208H168.704L111.615,70.695c5.725-10.358,6.874-23.128,2.004-34.885c-6.251-15.091-20.846-24.842-37.18-24.842
		c-5.289,0-10.466,1.034-15.386,3.072L24.835,29.042C4.341,37.53-5.426,61.111,3.063,81.607
		c4.789,11.562,14.482,19.97,26.095,23.281l22.052,72.657H10.81v7.604c0,66.935,26.067,129.863,73.398,177.194
		c26.176,26.176,57.13,45.834,90.887,58.19h-40.832v15.208h254.283v-15.208h-40.832c33.758-12.357,64.71-32.013,90.887-58.19
		c47.332-47.332,73.398-110.26,73.398-177.194v-7.604H402.865z M17.112,75.787c-5.28-12.748,0.795-27.416,13.542-32.696
		l36.218-15.002c3.066-1.269,6.285-1.914,9.567-1.914c10.162,0,19.242,6.066,23.13,15.453c3.561,8.598,1.95,18.068-3.383,24.944
		c-0.12,0.153-0.236,0.309-0.359,0.459c-0.174,0.215-0.355,0.424-0.537,0.633c-0.153,0.175-0.308,0.348-0.465,0.518
		c-0.168,0.184-0.337,0.367-0.511,0.545c-0.312,0.319-0.633,0.632-0.962,0.934c-0.13,0.119-0.267,0.232-0.399,0.35
		c-0.26,0.228-0.522,0.451-0.79,0.668c-0.136,0.109-0.274,0.219-0.412,0.326c-0.341,0.264-0.688,0.519-1.043,0.764
		c-0.06,0.042-0.118,0.086-0.178,0.128c-0.423,0.287-0.858,0.561-1.299,0.822c-0.114,0.067-0.229,0.132-0.345,0.197
		c-0.347,0.198-0.698,0.388-1.054,0.571c-0.129,0.065-0.255,0.132-0.385,0.195c-0.466,0.228-0.939,0.446-1.42,0.647L49.81,89.33
		c-0.496,0.205-0.997,0.39-1.501,0.562c-0.09,0.03-0.179,0.061-0.27,0.09c-0.495,0.162-0.993,0.314-1.493,0.444
		c-0.002,0.001-0.004,0.002-0.007,0.002c-1.102,0.288-2.219,0.499-3.346,0.634c-0.01,0.001-0.02,0.003-0.031,0.004
		c-1.075,0.127-2.157,0.179-3.242,0.166c-0.226-0.003-0.45-0.017-0.675-0.025c-0.379-0.015-0.759-0.027-1.139-0.061
		c-0.127-0.011-0.251-0.029-0.378-0.043c-0.464-0.047-0.928-0.098-1.391-0.171l-0.114-0.018
		C27.74,89.547,20.479,83.917,17.112,75.787z M45.424,106.115c0.078-0.01,0.154-0.027,0.232-0.038
		c1.59-0.217,3.164-0.528,4.719-0.936c0.204-0.054,0.406-0.113,0.608-0.169c0.587-0.163,1.172-0.342,1.753-0.531
		c0.213-0.07,0.426-0.139,0.638-0.212c0.756-0.263,1.509-0.539,2.254-0.849l36.219-15.002c0.753-0.312,1.487-0.651,2.211-1.003
		c0.205-0.099,0.407-0.205,0.609-0.309c0.54-0.274,1.072-0.558,1.595-0.854c0.2-0.113,0.398-0.225,0.595-0.341
		c0.609-0.359,1.206-0.729,1.79-1.116c0.083-0.055,0.168-0.105,0.251-0.16c0.667-0.448,1.315-0.917,1.949-1.4
		c0.048-0.036,0.099-0.069,0.147-0.105l50.466,94.453H134.09l-36.102-67.812l-13.423,7.147l32.298,60.665H67.104L45.424,106.115z"/>
	<path style="fill:#311363;" d="M384.078,450.948H138.732c-23.427,0-42.486,19.054-42.486,42.478v7.604h83.035v-15.208h-66.75
		c3.3-11.348,13.796-19.666,26.201-19.666h245.346c12.402,0,22.9,8.318,26.201,19.668l-210.72-0.002v15.208l219.402,0.002
		l7.604-0.006v-7.604C426.564,470.002,407.506,450.948,384.078,450.948z"/>
</g>
<rect x="50.712" y="207.958" style="fill:#FFFFFF;" width="301.454" height="15.208"/>
<g>
</g>
<g>
</g>
<g>
</g>
<g>
</g>
<g>
</g>
<g>
</g>
<g>
</g>
<g>
</g>
<g>
</g>
<g>
</g>
<g>
</g>
<g>
</g>
<g>
</g>
<g>
</g>
<g>
</g>
</svg>
