<?xml version="1.0" encoding="iso-8859-1"?>
<!-- Generator: Adobe Illustrator 19.0.0, SVG Export Plug-In . SVG Version: 6.00 Build 0)  -->
<svg version="1.1" id="Layer_1" xmlns="http://www.w3.org/2000/svg" xmlns:xlink="http://www.w3.org/1999/xlink" x="0px" y="0px"
	 viewBox="0 0 512 512" style="enable-background:new 0 0 512 512;" xml:space="preserve">
<polygon style="fill:#80D3CF;" points="461.828,326.641 50.172,326.641 9.611,154.946 502.39,154.946 "/>
<g>
	<rect x="31.242" y="349.449" style="fill:#311363;" width="449.513" height="15.209"/>
	<path style="fill:#311363;" d="M467.845,334.245L512,147.341H0l44.155,186.904H467.845z M325.907,231.161l4.421-68.611h29.203
		l-16.804,156.486h-22.481l4.358-67.635l-15.178-0.978l-4.421,68.614h-22.524l3.361-156.486h29.245l-4.358,67.632L325.907,231.161z
		 M380.434,319.036h-22.412l16.804-156.486h29.134L380.434,319.036z M419.339,162.551h29.036l-30.247,156.486h-22.315
		L419.339,162.551z M267.269,319.036h-22.537l-3.361-156.486h29.258L267.269,319.036z M229.519,319.036h-22.524l-10.083-156.486
		h29.245L229.519,319.036z M191.755,319.036h-22.481l-16.804-156.486h29.203L191.755,319.036z M153.977,319.036h-22.411
		L108.04,162.551h29.133L153.977,319.036z M116.186,319.036H93.871L63.624,162.551h29.036L116.186,319.036z M455.81,319.036h-22.19
		l30.247-156.486h28.912L455.81,319.036z M48.133,162.551L78.38,319.036H56.19L19.221,162.551H48.133z"/>
</g>
<g>
</g>
<g>
</g>
<g>
</g>
<g>
</g>
<g>
</g>
<g>
</g>
<g>
</g>
<g>
</g>
<g>
</g>
<g>
</g>
<g>
</g>
<g>
</g>
<g>
</g>
<g>
</g>
<g>
</g>
</svg>
