<?xml version="1.0" encoding="iso-8859-1"?>
<!-- Generator: Adobe Illustrator 19.0.0, SVG Export Plug-In . SVG Version: 6.00 Build 0)  -->
<svg version="1.1" id="Layer_1" xmlns="http://www.w3.org/2000/svg" xmlns:xlink="http://www.w3.org/1999/xlink" x="0px" y="0px"
	 viewBox="0 0 512 512" style="enable-background:new 0 0 512 512;" xml:space="preserve">
<path style="fill:#80D3CF;" d="M34.978,444.071c-15.119,0-27.374-12.256-27.374-27.374V95.303c0-15.119,12.256-27.374,27.374-27.374
	h442.044c15.118,0,27.374,12.256,27.374,27.374v321.394c0,15.119-12.257,27.374-27.374,27.374H34.978z"/>
<path style="fill:#311363;" d="M477.022,451.675H141.435v-15.208h335.587c10.901,0,19.77-8.869,19.77-19.77V95.303
	c0-10.901-8.869-19.77-19.77-19.77H34.978c-10.901,0-19.77,8.869-19.77,19.77v321.394c0,10.901,8.869,19.77,19.77,19.77h86.177
	v15.208H34.978C15.692,451.675,0,435.984,0,416.697V95.303c0-19.287,15.692-34.978,34.978-34.978h442.044
	c19.287,0,34.978,15.692,34.978,34.978v321.394C512,435.984,496.309,451.675,477.022,451.675z"/>
<circle style="fill:#34B6D0;" cx="198.484" cy="144.921" r="35.259"/>
<path style="fill:#311363;" d="M198.485,187.786c-23.635,0-42.863-19.228-42.863-42.862s19.228-42.863,42.863-42.863
	s42.862,19.229,42.862,42.863S222.12,187.786,198.485,187.786z M198.485,117.268c-15.249,0-27.655,12.406-27.655,27.655
	c0,15.248,12.406,27.654,27.655,27.654c15.248,0,27.654-12.406,27.654-27.654C226.139,129.674,213.733,117.268,198.485,117.268z"/>
<circle style="fill:#34B6D0;" cx="428.539" cy="144.921" r="35.259"/>
<path style="fill:#311363;" d="M428.542,187.786c-23.635,0-42.863-19.228-42.863-42.862s19.229-42.863,42.863-42.863
	s42.862,19.229,42.862,42.863S452.176,187.786,428.542,187.786z M428.542,117.268c-15.249,0-27.655,12.406-27.655,27.655
	c0,15.248,12.406,27.654,27.655,27.654c15.249,0,27.654-12.406,27.654-27.654C456.196,129.674,443.79,117.268,428.542,117.268z"/>
<circle style="fill:#34B6D0;" cx="313.516" cy="256" r="35.259"/>
<path style="fill:#311363;" d="M313.513,298.863c-23.635,0-42.863-19.229-42.863-42.863s19.229-42.863,42.863-42.863
	s42.862,19.229,42.862,42.863S337.147,298.863,313.513,298.863z M313.513,228.345c-15.25,0-27.655,12.406-27.655,27.655
	c0,15.249,12.406,27.655,27.655,27.655c15.249,0,27.654-12.406,27.654-27.655C341.167,240.751,328.762,228.345,313.513,228.345z"/>
<circle style="fill:#34B6D0;" cx="83.461" cy="256" r="35.259"/>
<path style="fill:#311363;" d="M83.457,298.863c-23.635,0-42.863-19.229-42.863-42.863s19.228-42.863,42.863-42.863
	s42.862,19.229,42.862,42.863S107.092,298.863,83.457,298.863z M83.457,228.345c-15.249,0-27.655,12.406-27.655,27.655
	c0,15.249,12.407,27.655,27.655,27.655S111.111,271.25,111.111,256C111.111,240.751,98.705,228.345,83.457,228.345z"/>
<path style="fill:#FF6A5E;" d="M313.518,402.336l32.72-32.719c8.646-8.647,8.646-22.666,0-31.313
	c-8.647-8.646-22.665-8.646-31.313,0l-1.414,1.413l-1.412-1.413c-8.645-8.646-22.666-8.646-31.312,0
	c-8.647,8.647-8.647,22.666,0,31.313L313.518,402.336z"/>
<path style="fill:#311363;" d="M313.519,413.088l-38.108-38.096c-5.619-5.618-8.714-13.088-8.714-21.034
	c0-7.945,3.095-15.415,8.713-21.034c5.619-5.618,13.088-8.712,21.034-8.712c6.197,0,12.103,1.882,17.068,5.375
	c4.966-3.493,10.874-5.375,17.069-5.375c7.945,0,15.415,3.094,21.033,8.712c11.598,11.599,11.598,30.471,0.001,42.067
	L313.519,413.088z M296.445,339.421c-3.883,0-7.534,1.512-10.28,4.258c-2.747,2.746-4.259,6.397-4.259,10.28
	c0,3.883,1.513,7.534,4.258,10.28l27.353,27.346l27.344-27.346c5.669-5.667,5.669-14.891,0-20.559
	c-2.746-2.745-6.396-4.257-10.28-4.257s-7.534,1.513-10.281,4.258l-6.794,6.794l-6.788-6.798
	C303.978,340.932,300.328,339.421,296.445,339.421z"/>
<circle style="fill:#34B6D0;" cx="198.484" cy="367.079" r="35.259"/>
<path style="fill:#311363;" d="M198.485,409.94c-23.635,0-42.863-19.229-42.863-42.863s19.228-42.862,42.863-42.862
	s42.862,19.228,42.862,42.862S222.12,409.94,198.485,409.94z M198.485,339.422c-15.249,0-27.655,12.406-27.655,27.654
	c0,15.25,12.406,27.655,27.655,27.655c15.248,0,27.654-12.406,27.654-27.655C226.139,351.828,213.733,339.422,198.485,339.422z"/>
<circle style="fill:#34B6D0;" cx="428.539" cy="367.079" r="35.259"/>
<path style="fill:#311363;" d="M428.542,409.94c-23.635,0-42.863-19.229-42.863-42.863s19.229-42.862,42.863-42.862
	s42.862,19.228,42.862,42.862S452.176,409.94,428.542,409.94z M428.542,339.422c-15.249,0-27.655,12.406-27.655,27.654
	c0,15.25,12.406,27.655,27.655,27.655c15.249,0,27.654-12.406,27.654-27.655C456.196,351.828,443.79,339.422,428.542,339.422z"/>
<path style="fill:#FF6A5E;" d="M83.463,402.336l32.719-32.719c8.646-8.647,8.646-22.666,0-31.313
	c-8.647-8.646-22.665-8.646-31.313,0l-1.414,1.413l-1.412-1.413c-8.645-8.646-22.666-8.646-31.312,0
	c-8.647,8.647-8.647,22.666,0,31.313L83.463,402.336z"/>
<path style="fill:#311363;" d="M83.464,413.088l-38.108-38.096c-5.619-5.618-8.713-13.088-8.713-21.034
	c0-7.945,3.094-15.415,8.713-21.034c5.618-5.618,13.088-8.712,21.034-8.712c6.197,0,12.103,1.882,17.068,5.375
	c4.965-3.493,10.873-5.375,17.068-5.375c7.945,0,15.415,3.094,21.034,8.712c11.598,11.599,11.597,30.471,0,42.067L83.464,413.088z
	 M66.389,339.421c-3.883,0-7.534,1.512-10.28,4.258c-2.746,2.746-4.258,6.397-4.258,10.28c0,3.883,1.513,7.534,4.258,10.28
	l27.353,27.346l27.344-27.346c5.667-5.667,5.667-14.891,0-20.559c-2.746-2.745-6.396-4.257-10.28-4.257
	c-3.883,0-7.534,1.513-10.28,4.258l-6.795,6.794l-6.789-6.798C73.922,340.932,70.272,339.421,66.389,339.421z"/>
<path style="fill:#FF6A5E;" d="M198.49,291.259l32.72-32.719c8.646-8.647,8.646-22.666,0-31.313c-8.647-8.646-22.665-8.646-31.313,0
	l-1.413,1.413l-1.412-1.413c-8.645-8.646-22.666-8.646-31.312,0c-8.647,8.647-8.647,22.666,0,31.313L198.49,291.259z"/>
<path style="fill:#311363;" d="M198.491,302.012l-38.107-38.095c-11.599-11.598-11.599-30.471-0.001-42.068
	c5.618-5.618,13.088-8.712,21.034-8.712c6.197,0,12.103,1.882,17.068,5.376c4.965-3.493,10.873-5.376,17.068-5.376
	c7.945,0,15.415,3.094,21.034,8.712c11.597,11.599,11.597,30.47,0,42.067L198.491,302.012z M181.416,228.345
	c-3.883,0-7.534,1.512-10.28,4.258c-5.669,5.669-5.669,14.892,0,20.559l27.353,27.345l27.344-27.345
	c5.667-5.669,5.667-14.892,0-20.56c-2.746-2.745-6.396-4.257-10.28-4.257s-7.534,1.513-10.28,4.258l-6.795,6.794l-6.789-6.798
	C188.949,229.857,185.298,228.345,181.416,228.345z"/>
<path style="fill:#FF6A5E;" d="M428.548,291.259l32.72-32.719c8.646-8.647,8.646-22.666,0-31.313
	c-8.647-8.646-22.665-8.646-31.313,0l-1.414,1.413l-1.412-1.413c-8.645-8.646-22.666-8.646-31.312,0
	c-8.647,8.647-8.647,22.666,0,31.313L428.548,291.259z"/>
<path style="fill:#311363;" d="M428.549,302.012l-38.108-38.095c-11.599-11.598-11.599-30.471-0.001-42.068
	c5.619-5.618,13.088-8.712,21.034-8.712c6.197,0,12.103,1.882,17.068,5.376c4.966-3.493,10.874-5.376,17.069-5.376
	c7.945,0,15.415,3.094,21.033,8.712c11.597,11.599,11.597,30.47,0.001,42.067L428.549,302.012z M411.475,228.345
	c-3.883,0-7.534,1.512-10.28,4.258c-5.67,5.669-5.67,14.892,0,20.559l27.353,27.345l27.344-27.345c5.669-5.669,5.669-14.892,0-20.56
	c-2.746-2.745-6.396-4.257-10.28-4.257c-3.883,0-7.534,1.513-10.281,4.258l-6.794,6.794l-6.788-6.798
	C419.008,229.857,415.358,228.345,411.475,228.345z"/>
<path style="fill:#FF6A5E;" d="M313.518,180.182l32.72-32.72c8.646-8.647,8.646-22.666,0-31.313c-8.647-8.646-22.665-8.646-31.313,0
	l-1.414,1.413l-1.412-1.413c-8.645-8.646-22.666-8.646-31.312,0c-8.647,8.647-8.647,22.666,0,31.313L313.518,180.182z"/>
<path style="fill:#311363;" d="M313.519,190.935l-38.108-38.096c-5.619-5.618-8.714-13.088-8.714-21.034
	c0-7.945,3.095-15.415,8.713-21.034c5.619-5.618,13.088-8.712,21.034-8.712c6.197,0,12.103,1.882,17.068,5.375
	c4.966-3.493,10.874-5.375,17.069-5.375c7.945,0,15.415,3.094,21.033,8.712c11.598,11.599,11.598,30.471,0.001,42.067
	L313.519,190.935z M296.445,117.268c-3.883,0-7.534,1.512-10.28,4.258c-2.747,2.746-4.259,6.397-4.259,10.28
	c0,3.883,1.513,7.534,4.258,10.28l27.353,27.346l27.344-27.346c5.669-5.667,5.669-14.891,0-20.559
	c-2.746-2.745-6.396-4.257-10.28-4.257s-7.534,1.513-10.281,4.258l-6.794,6.794l-6.788-6.798
	C303.978,118.78,300.328,117.268,296.445,117.268z"/>
<path style="fill:#FF6A5E;" d="M83.463,180.182l32.719-32.72c8.646-8.647,8.646-22.666,0-31.313c-8.647-8.646-22.665-8.646-31.313,0
	l-1.414,1.413l-1.412-1.413c-8.645-8.646-22.666-8.646-31.312,0c-8.647,8.647-8.647,22.666,0,31.313L83.463,180.182z"/>
<path style="fill:#311363;" d="M83.464,190.935L45.356,152.84c-5.619-5.618-8.713-13.088-8.713-21.034
	c0-7.945,3.094-15.415,8.713-21.034c5.618-5.618,13.088-8.712,21.034-8.712c6.197,0,12.103,1.882,17.068,5.375
	c4.965-3.493,10.873-5.375,17.068-5.375c7.945,0,15.415,3.094,21.034,8.712c11.598,11.599,11.597,30.471,0,42.067L83.464,190.935z
	 M66.389,117.268c-3.883,0-7.534,1.512-10.28,4.258c-2.746,2.746-4.258,6.397-4.258,10.28c0,3.883,1.513,7.534,4.258,10.28
	l27.353,27.346l27.344-27.346c5.667-5.667,5.667-14.891,0-20.559c-2.746-2.745-6.396-4.257-10.28-4.257
	c-3.883,0-7.534,1.513-10.28,4.258l-6.795,6.794l-6.789-6.798C73.922,118.78,70.272,117.268,66.389,117.268z"/>
<g>
</g>
<g>
</g>
<g>
</g>
<g>
</g>
<g>
</g>
<g>
</g>
<g>
</g>
<g>
</g>
<g>
</g>
<g>
</g>
<g>
</g>
<g>
</g>
<g>
</g>
<g>
</g>
<g>
</g>
</svg>
