<?xml version="1.0" encoding="iso-8859-1"?>
<!-- Generator: Adobe Illustrator 19.0.0, SVG Export Plug-In . SVG Version: 6.00 Build 0)  -->
<svg version="1.1" id="Layer_1" xmlns="http://www.w3.org/2000/svg" xmlns:xlink="http://www.w3.org/1999/xlink" x="0px" y="0px"
	 viewBox="0 0 512 512" style="enable-background:new 0 0 512 512;" xml:space="preserve">
<path style="fill:#FF6A5E;" d="M101.652,486.743c0,9.749,7.902,17.651,17.651,17.651c4.257,0,8.161-1.508,11.21-4.016l0.047-0.04
	l273.788-231.102c3.672-3.234,6.001-7.959,6.001-13.236c0-5.323-2.369-10.08-6.094-13.317
	c-0.104-0.088-273.694-231.022-273.694-231.022l-0.047-0.04c-3.049-2.509-6.952-4.016-11.21-4.016
	c-9.749,0-17.651,7.902-17.651,17.651C101.652,25.256,101.652,486.743,101.652,486.743z"/>
<path style="fill:#FFF6DD;" d="M394.113,201.07c-0.064-0.055-224.387-189.409-224.387-189.409l-0.047-0.04
	c-3.049-2.509-6.953-4.016-11.21-4.016c-0.023,0-0.067,0-0.067,0h-39.099c4.257,0,8.161,1.508,11.21,4.016l0.047,0.04
	c0,0,8.008,6.759,21.279,17.962h0.001c67.967,57.37,201.626,170.191,238.469,201.289l3.898-3.289
	c3.672-3.234,6.001-7.959,6.001-13.236C400.207,209.065,397.838,204.307,394.113,201.07z"/>
<g>
	<path style="fill:#311363;" d="M409.203,236.91c-0.013-0.012-2.488-2.101-7.381-6.231c3.837-4.534,5.99-10.297,5.99-16.292
		c0-7.301-3.175-14.247-8.743-19.085c-0.032-0.028-0.088-0.076-224.461-189.472l-0.097-0.081C170.004,2.042,164.307,0,158.402,0
		h-39.099c-13.926,0-25.256,11.331-25.256,25.256v324.032h15.21V25.256c0-5.54,4.506-10.046,10.046-10.046
		c2.356,0,4.561,0.79,6.351,2.262l264.655,223.392l0,0c5.653,4.771,8.865,7.483,8.958,7.56c2.21,1.921,3.477,4.682,3.477,7.577
		c0,2.846-1.228,5.57-3.372,7.483L125.653,494.528c-1.811,1.479-4.005,2.261-6.35,2.261c-5.54,0-10.046-4.506-10.046-10.046V369.57
		h-15.21v117.174c0,13.925,11.329,25.256,25.256,25.256c5.839,0,11.535-2.042,16.041-5.748l273.909-231.204l0.121-0.105
		c5.452-4.801,8.579-11.707,8.579-18.943C417.953,248.7,414.778,241.754,409.203,236.91z M158.469,15.21
		c2.356,0,4.561,0.79,6.351,2.262c2.236,1.887,223.608,188.75,224.305,189.338c2.21,1.921,3.477,4.682,3.477,7.577
		c0,2.382-0.861,4.678-2.397,6.486l-30.03-25.348c-43.076-36.359-114.438-96.596-213.62-180.315H158.469z"/>
	
		<rect x="148.106" y="431.444" transform="matrix(0.7642 -0.645 0.645 0.7642 -246.3996 204.1417)" style="fill:#311363;" width="15.759" height="15.21"/>
	
		<rect x="172.227" y="411.09" transform="matrix(0.7642 -0.645 0.645 0.7642 -227.5837 214.8998)" style="fill:#311363;" width="15.759" height="15.21"/>
	
		<rect x="196.352" y="390.728" transform="matrix(0.7642 -0.645 0.645 0.7642 -208.7618 225.6585)" style="fill:#311363;" width="15.759" height="15.21"/>
	
		<rect x="220.471" y="370.397" transform="matrix(0.7641 -0.6451 0.6451 0.7641 -189.9809 236.4799)" style="fill:#311363;" width="15.76" height="15.21"/>
	
		<rect x="244.59" y="350.016" transform="matrix(0.7642 -0.645 0.645 0.7642 -171.1274 247.1714)" style="fill:#311363;" width="15.76" height="15.21"/>
	
		<rect x="268.715" y="329.674" transform="matrix(0.7642 -0.645 0.645 0.7642 -152.3183 257.935)" style="fill:#311363;" width="15.759" height="15.21"/>
	
		<rect x="292.84" y="309.272" transform="matrix(0.7642 -0.645 0.645 0.7642 -133.4703 268.6841)" style="fill:#311363;" width="15.759" height="15.21"/>
	
		<rect x="316.964" y="288.941" transform="matrix(0.7642 -0.645 0.645 0.7642 -114.6681 279.4499)" style="fill:#311363;" width="15.759" height="15.21"/>
	
		<rect x="341.095" y="268.546" transform="matrix(0.7642 -0.645 0.645 0.7642 -95.8236 290.205)" style="fill:#311363;" width="15.759" height="15.21"/>
	
		<rect x="148.087" y="65.303" transform="matrix(0.7641 0.6451 -0.6451 0.7641 83.8254 -83.4148)" style="fill:#311363;" width="15.759" height="15.209"/>
	
		<rect x="172.192" y="85.671" transform="matrix(0.7643 0.6449 -0.6449 0.7643 102.5986 -94.138)" style="fill:#311363;" width="15.759" height="15.209"/>
	
		<rect x="196.333" y="106.035" transform="matrix(0.7642 0.645 -0.645 0.7642 121.4518 -104.9183)" style="fill:#311363;" width="15.759" height="15.209"/>
	
		<rect x="220.456" y="126.396" transform="matrix(0.7642 0.645 -0.645 0.7642 140.2731 -115.6766)" style="fill:#311363;" width="15.761" height="15.209"/>
	
		<rect x="244.561" y="146.767" transform="matrix(0.7641 0.6451 -0.6451 0.7641 159.1363 -126.4332)" style="fill:#311363;" width="15.761" height="15.21"/>
	
		<rect x="268.723" y="167.119" transform="matrix(0.7641 0.6451 -0.6451 0.7641 177.9648 -137.218)" style="fill:#311363;" width="15.758" height="15.21"/>
	
		<rect x="292.846" y="187.483" transform="matrix(0.7642 0.645 -0.645 0.7642 196.744 -147.9626)" style="fill:#311363;" width="15.761" height="15.209"/>
	
		<rect x="316.977" y="207.843" transform="matrix(0.7641 0.6451 -0.6451 0.7641 215.6196 -158.7398)" style="fill:#311363;" width="15.758" height="15.21"/>
	
		<rect x="341.059" y="228.207" transform="matrix(0.7643 0.6449 -0.6449 0.7643 234.3229 -169.4392)" style="fill:#311363;" width="15.759" height="15.209"/>
	
		<rect x="365.461" y="248.298" transform="matrix(-0.6449 0.7642 -0.7642 -0.6449 809.4474 136.2831)" style="fill:#311363;" width="15.208" height="15.758"/>
</g>
<rect x="124.469" y="149.282" style="fill:#FFFFFF;" width="15.21" height="169.582"/>
<g>
</g>
<g>
</g>
<g>
</g>
<g>
</g>
<g>
</g>
<g>
</g>
<g>
</g>
<g>
</g>
<g>
</g>
<g>
</g>
<g>
</g>
<g>
</g>
<g>
</g>
<g>
</g>
<g>
</g>
</svg>
