<?xml version="1.0" encoding="iso-8859-1"?>
<!-- Generator: Adobe Illustrator 19.0.0, SVG Export Plug-In . SVG Version: 6.00 Build 0)  -->
<svg version="1.1" id="Layer_1" xmlns="http://www.w3.org/2000/svg" xmlns:xlink="http://www.w3.org/1999/xlink" x="0px" y="0px"
	 viewBox="0 0 512 512" style="enable-background:new 0 0 512 512;" xml:space="preserve">
<path style="fill:#F59D40;" d="M365.807,473.98c36.206-30.989,59.158-77.015,59.158-128.41c0-82.08-58.533-150.479-136.133-165.761
	V107.5h4.156c6.882,0,12.459-5.579,12.459-12.461V68.197c0-6.882-5.578-12.461-12.459-12.461h-73.966
	c-6.882,0-12.459,5.579-12.459,12.461v26.84c0,6.882,5.578,12.461,12.459,12.461h4.156v72.311
	C145.578,195.092,87.045,263.49,87.045,345.571c0,51.394,22.953,97.42,59.158,128.41H365.807z"/>
<g>
	<path style="fill:#FFFFFF;" d="M359.305,448.944l-10.751-10.758c20.747-20.731,34.061-48.165,37.49-77.244l15.102,1.78
		C397.32,395.183,382.461,425.804,359.305,448.944z"/>
	<path style="fill:#FFFFFF;" d="M386.892,341.788c-0.848-29.432-11.827-58.097-30.915-80.712
		c-19.122-22.656-45.576-38.268-74.49-43.962l2.938-14.921c32.293,6.359,61.829,23.787,83.172,49.073
		c21.299,25.235,33.55,57.227,34.496,90.086L386.892,341.788z"/>
</g>
<polygon style="fill:#FFF6DD;" points="285.599,7.604 226.411,7.604 232.829,55.736 279.181,55.736 "/>
<g>
	<path style="fill:#311363;" d="M141.258,479.757l2.134,1.827h58.878v-15.208H149.05c-34.608-30.662-54.401-74.531-54.401-120.805
		c0-76.891,54.672-143.466,129.998-158.301l6.135-1.208V145.52h50.448v40.543l6.135,1.208
		c75.326,14.835,129.998,81.41,129.998,158.301c0,46.275-19.793,90.142-54.401,120.805H222.548v15.208h146.069l2.134-1.827
		c39.286-33.626,61.818-82.534,61.818-134.187c0-82.037-56.879-153.342-136.132-171.9v-58.866
		c9.426-1.639,16.615-9.88,16.615-19.768V68.198c0-11.064-9-20.065-20.063-20.065h-5.122L294.284,0h-76.559l6.419,48.133h-5.122
		c-11.063,0-20.063,9.001-20.063,20.065v26.84c0,9.888,7.189,18.129,16.615,19.768v58.866
		c-79.256,18.557-136.133,89.863-136.133,171.899C79.441,397.223,101.972,446.131,141.258,479.757z M235.096,15.208h41.818
		l-4.391,32.925h-33.036L235.096,15.208z M214.166,95.037V68.198c0-2.679,2.178-4.857,4.855-4.857h7.151h59.666h7.151
		c2.678,0,4.855,2.179,4.855,4.857v26.84c0,2.679-2.178,4.857-4.855,4.857h-4.156h-7.604h-25.224v15.208h25.224v15.208h-50.448
		V99.896h-11.76C216.345,99.895,214.166,97.716,214.166,95.037z"/>
	<rect x="75.609" y="496.792" style="fill:#311363;" width="360.783" height="15.208"/>
</g>
<g>
</g>
<g>
</g>
<g>
</g>
<g>
</g>
<g>
</g>
<g>
</g>
<g>
</g>
<g>
</g>
<g>
</g>
<g>
</g>
<g>
</g>
<g>
</g>
<g>
</g>
<g>
</g>
<g>
</g>
</svg>
