<?xml version="1.0" encoding="iso-8859-1"?>
<!-- Generator: Adobe Illustrator 19.0.0, SVG Export Plug-In . SVG Version: 6.00 Build 0)  -->
<svg version="1.1" id="Layer_1" xmlns="http://www.w3.org/2000/svg" xmlns:xlink="http://www.w3.org/1999/xlink" x="0px" y="0px"
	 viewBox="0 0 512 512" style="enable-background:new 0 0 512 512;" xml:space="preserve">
<path style="fill:#FFF6DD;" d="M447.486,7.604H64.514c-15.275,0-27.658,12.383-27.658,27.659V136.33v368.066h112.689h20.277h305.322
	V136.33V35.263C475.144,19.987,462.761,7.604,447.486,7.604z"/>
<rect x="100.686" y="233.127" style="fill:#587082;" width="310.637" height="207.436"/>
<path style="fill:#34B6D0;" d="M475.144,136.33V35.263c0-15.276-12.383-27.659-27.658-27.659H64.514
	c-15.275,0-27.658,12.383-27.658,27.659V136.33H475.144z"/>
<g>
	<circle style="fill:#587082;" cx="126.742" cy="71.967" r="21.807"/>
	<circle style="fill:#587082;" cx="212.91" cy="71.967" r="21.807"/>
	<circle style="fill:#587082;" cx="299.089" cy="71.967" r="21.807"/>
	<circle style="fill:#587082;" cx="385.257" cy="71.967" r="21.807"/>
</g>
<g>
	<path style="fill:#311363;" d="M93.079,448.172h325.842V225.523H93.079V448.172z M108.287,432.964v-26.28h295.426v26.28H108.287z
		 M108.287,349.988v-26.28h295.426v26.28h-70.055v15.208h70.055v26.28H108.287v-26.28H312.38v-15.208H108.287z M403.712,308.5
		H108.287v-26.28h295.426v26.28H403.712z M403.712,240.731v26.28H108.287v-26.28H403.712z"/>
	<path style="fill:#311363;" d="M447.486,0H64.514C45.07,0,29.251,15.819,29.251,35.263v108.671V512h453.497V143.934V35.263
		C482.748,15.819,466.929,0,447.486,0z M467.54,496.792H44.459V143.934h120.293v-15.208H44.459V35.263
		c0-11.058,8.996-20.055,20.054-20.055h382.972c11.058,0,20.054,8.997,20.054,20.055v93.463h-282.51v15.208h282.511v352.858H467.54z
		"/>
	<path style="fill:#311363;" d="M126.744,42.556c-16.217,0-29.41,13.193-29.41,29.411s13.193,29.411,29.41,29.411
		c16.218,0,29.411-13.193,29.411-29.411S142.961,42.556,126.744,42.556z M126.744,86.17c-7.831,0-14.202-6.371-14.202-14.203
		s6.371-14.203,14.202-14.203c7.832,0,14.203,6.371,14.203,14.203S134.575,86.17,126.744,86.17z"/>
	<path style="fill:#311363;" d="M212.914,101.378c16.217,0,29.41-13.193,29.41-29.411s-13.193-29.411-29.41-29.411
		c-16.218,0-29.411,13.193-29.411,29.411S196.697,101.378,212.914,101.378z M212.914,57.764c7.831,0,14.202,6.371,14.202,14.203
		s-6.371,14.203-14.202,14.203c-7.832,0-14.203-6.371-14.203-14.203S205.082,57.764,212.914,57.764z"/>
	<path style="fill:#311363;" d="M299.084,101.378c16.218,0,29.411-13.193,29.411-29.411s-13.193-29.411-29.411-29.411
		c-16.217,0-29.41,13.193-29.41,29.411S282.867,101.378,299.084,101.378z M299.084,57.764c7.832,0,14.203,6.371,14.203,14.203
		s-6.371,14.203-14.203,14.203c-7.831,0-14.202-6.371-14.202-14.203S291.252,57.764,299.084,57.764z"/>
	<path style="fill:#311363;" d="M385.254,101.378c16.218,0,29.411-13.193,29.411-29.411s-13.193-29.411-29.411-29.411
		c-16.217,0-29.41,13.193-29.41,29.411S369.037,101.378,385.254,101.378z M385.254,57.764c7.832,0,14.203,6.371,14.203,14.203
		s-6.371,14.203-14.203,14.203c-7.831,0-14.202-6.371-14.202-14.203S377.423,57.764,385.254,57.764z"/>
	<polygon style="fill:#311363;" points="93.079,206.01 108.287,206.01 108.287,192.333 403.712,192.333 403.712,206.01 
		418.92,206.01 418.92,177.125 93.079,177.125 	"/>
</g>
<g>
</g>
<g>
</g>
<g>
</g>
<g>
</g>
<g>
</g>
<g>
</g>
<g>
</g>
<g>
</g>
<g>
</g>
<g>
</g>
<g>
</g>
<g>
</g>
<g>
</g>
<g>
</g>
<g>
</g>
</svg>
