<?xml version="1.0" encoding="iso-8859-1"?>
<!-- Generator: Adobe Illustrator 19.0.0, SVG Export Plug-In . SVG Version: 6.00 Build 0)  -->
<svg version="1.1" id="Layer_1" xmlns="http://www.w3.org/2000/svg" xmlns:xlink="http://www.w3.org/1999/xlink" x="0px" y="0px"
	 viewBox="0 0 512 512" style="enable-background:new 0 0 512 512;" xml:space="preserve">
<path style="fill:#FF6A5E;" d="M498.668,52.201c7.652-7.653,7.654-20.061-0.001-27.715c-7.653-7.654-20.057-7.654-27.71,0.001
	L194.229,301.215l-24.209-24.209c-7.68-7.681-20.135-7.681-27.816,0L13.367,405.843c-7.682,7.681-7.682,20.136,0,27.817
	l38.066,38.066c28.703,28.704,75.243,28.704,103.947,0l90.771-90.771c7.681-7.681,7.681-20.135,0.002-27.817l-24.209-24.209
	L498.668,52.201z"/>
<path style="fill:#311363;" d="M103.406,500.858c-21.665,0-42.032-8.435-57.352-23.755L7.989,439.039
	C2.837,433.887,0,427.039,0,419.752s2.837-14.135,7.989-19.287l128.837-128.838c5.151-5.15,12.001-7.987,19.286-7.987
	s14.134,2.837,19.286,7.987l18.831,18.832L465.579,19.11c5.137-5.137,11.968-7.967,19.233-7.968c7.265,0,14.096,2.83,19.234,7.968
	c10.605,10.603,10.606,27.862,0.001,38.469L297.827,263.8l-10.756-10.756l206.22-206.221c4.675-4.676,4.675-12.284,0-16.959
	c-2.265-2.265-5.276-3.514-8.477-3.514c-3.202,0-6.213,1.247-8.477,3.514L194.23,311.97l-29.588-29.587
	c-4.704-4.704-12.357-4.704-17.06,0L18.744,411.221c-2.279,2.278-3.534,5.307-3.534,8.531c0,3.223,1.254,6.252,3.533,8.531
	l38.067,38.065c12.445,12.446,28.993,19.301,46.595,19.301c17.601,0,34.151-6.855,46.595-19.301l90.771-90.772
	c4.705-4.704,4.705-12.358,0.002-17.062l-29.587-29.587l61.241-61.242l10.756,10.756l-50.486,50.486l18.832,18.831
	c10.632,10.636,10.631,27.939-0.002,38.573l-90.771,90.772C145.438,492.423,125.07,500.858,103.406,500.858z"/>
<rect x="92.146" y="282.64" transform="matrix(-0.7071 -0.7071 0.7071 -0.7071 -86.6653 690.8712)" style="fill:#FFFFFF;" width="15.21" height="161.488"/>
<g>
</g>
<g>
</g>
<g>
</g>
<g>
</g>
<g>
</g>
<g>
</g>
<g>
</g>
<g>
</g>
<g>
</g>
<g>
</g>
<g>
</g>
<g>
</g>
<g>
</g>
<g>
</g>
<g>
</g>
</svg>
