<?xml version="1.0" encoding="iso-8859-1"?>
<!-- Generator: Adobe Illustrator 19.0.0, SVG Export Plug-In . SVG Version: 6.00 Build 0)  -->
<svg version="1.1" id="Layer_1" xmlns="http://www.w3.org/2000/svg" xmlns:xlink="http://www.w3.org/1999/xlink" x="0px" y="0px"
	 viewBox="0 0 511.999 511.999" style="enable-background:new 0 0 511.999 511.999;" xml:space="preserve">
<path style="fill:#34B6D0;" d="M493.947,68.543c13.946-13.946,13.943-36.554,0.001-50.502C480,4.095,457.394,4.097,443.448,18.045
	l-202.091,202.09l50.497,50.499L493.947,68.543z"/>
<path style="fill:#80D3CF;" d="M18.055,443.434c-13.947,13.948-13.944,36.558-0.002,50.5c13.948,13.95,36.554,13.946,50.501,0
	l128.374-128.376c13.947-13.946,13.943-36.553,0.001-50.499c-13.947-13.946-36.554-13.946-50.5,0L18.055,443.434z"/>
<g>
	<path style="fill:#311363;" d="M499.324,12.663c-16.889-16.887-44.368-16.884-61.255,0.004L230.601,220.135l61.252,61.254
		l61.437-61.436l-10.756-10.756l-50.68,50.681l-39.74-39.742L448.826,23.424c5.308-5.309,12.365-8.233,19.871-8.233
		c7.505-0.001,14.563,2.923,19.871,8.228c10.956,10.961,10.956,28.792,0,39.746l-131.692,131.69l10.756,10.756l131.692-131.69
		C516.21,57.036,516.211,29.556,499.324,12.663z"/>
	<path style="fill:#311363;" d="M204.121,246.615l25.25,25.248l-32.916,32.917c-7.215-5.053-15.782-7.786-24.774-7.786
		c-11.569,0-22.446,4.505-30.628,12.686L12.678,438.056c-16.889,16.889-16.89,44.368-0.002,61.254
		c8.181,8.182,19.058,12.689,30.628,12.689c0,0,0.001,0,0.002,0c11.568,0,22.446-4.506,30.629-12.688l128.374-128.376
		c15.051-15.05,16.676-38.51,4.897-55.394l32.922-32.924l25.251,25.25l10.755-10.755l-61.256-61.253L204.121,246.615z
		 M191.55,360.179L63.176,488.555c-5.31,5.31-12.368,8.233-19.874,8.233c-7.505,0-14.562-2.925-19.871-8.233
		c-10.957-10.956-10.956-28.785,0.002-39.742l128.375-128.375c5.309-5.309,12.366-8.231,19.872-8.231
		c7.506,0,14.563,2.923,19.871,8.23C202.507,331.395,202.507,349.224,191.55,360.179z"/>
	
		<rect x="99.873" y="302.969" transform="matrix(0.7071 0.7071 -0.7071 0.7071 317.4965 42.4735)" style="fill:#311363;" width="15.211" height="203.039"/>
</g>
<g>
</g>
<g>
</g>
<g>
</g>
<g>
</g>
<g>
</g>
<g>
</g>
<g>
</g>
<g>
</g>
<g>
</g>
<g>
</g>
<g>
</g>
<g>
</g>
<g>
</g>
<g>
</g>
<g>
</g>
</svg>
