<?xml version="1.0" encoding="iso-8859-1"?>
<!-- Generator: Adobe Illustrator 19.0.0, SVG Export Plug-In . SVG Version: 6.00 Build 0)  -->
<svg version="1.1" id="Layer_1" xmlns="http://www.w3.org/2000/svg" xmlns:xlink="http://www.w3.org/1999/xlink" x="0px" y="0px"
	 viewBox="0 0 512 512" style="enable-background:new 0 0 512 512;" xml:space="preserve">
<path style="fill:#34B6D0;" d="M383.471,504.396c19.154,0,34.68-15.526,34.68-34.681c0-1.194-40.039-338.235-40.039-338.235h0.056
	V42.075c0-19.037-15.434-34.471-34.471-34.471H168.361c-19.037,0-34.471,15.434-34.471,34.471v89.404
	c0,0-40.039,337.042-40.039,338.235c0,19.155,15.526,34.681,34.68,34.681H383.471z"/>
<path style="fill:#C9D6D6;" d="M378.166,131.48V42.075c0-19.037-15.434-34.471-34.471-34.471H168.361
	c-19.037,0-34.471,15.434-34.471,34.471v89.404H378.166z"/>
<g>
	<path style="fill:#FF6A5E;" d="M182.609,449.924c-0.422,8.056-7.296,14.246-15.352,13.823l0,0
		c-8.056-0.422-14.246-7.296-13.823-15.352l12.692-242.167c0.422-8.056,7.296-14.246,15.352-13.823l0,0
		c8.056,0.422,14.246,7.296,13.823,15.352L182.609,449.924z"/>
	<path style="fill:#FF6A5E;" d="M270.608,449.326c0,8.067-6.54,14.608-14.608,14.608l0,0c-8.067,0-14.608-6.54-14.608-14.608
		V206.827c0-8.067,6.54-14.608,14.608-14.608l0,0c8.067,0,14.608,6.54,14.608,14.608V449.326z"/>
	<path style="fill:#FF6A5E;" d="M358.567,448.395c0.422,8.056-5.767,14.93-13.823,15.352l0,0
		c-8.056,0.422-14.93-5.767-15.352-13.823l-12.692-242.167c-0.422-8.056,5.767-14.93,13.823-15.352l0,0
		c8.056-0.422,14.93,5.767,15.352,13.823L358.567,448.395z"/>
</g>
<g>
	<path style="fill:#311363;" d="M385.77,131.496V42.075C385.77,18.875,366.895,0,343.695,0H168.361
		c-23.2,0-42.075,18.875-42.075,42.075v88.954c-40.042,337.057-40.04,338.071-40.04,338.685c0,23.317,18.968,42.285,42.284,42.285
		h47.376v-15.208h-47.376c-14.812,0-26.886-11.955-27.074-26.723c1.077-9.927,25.544-216.132,39.188-330.985h35.262v-15.208h-34.411
		v-81.8c0-14.815,12.053-26.867,26.867-26.867h175.335c14.815,0,26.867,12.053,26.867,26.867v81.8h-1.012H196.182v15.208h175.175
		c0.583,4.911,1.186,9.986,1.806,15.208h-94.308v15.208h96.114c13.942,117.408,34.588,291.469,35.575,300.569
		c-0.189,14.768-12.262,26.723-27.073,26.723H196.182V512h187.289c23.316,0,42.284-18.968,42.284-42.285
		C425.755,469.101,425.754,468.06,385.77,131.496z"/>
	<rect x="202.772" y="39.814" style="fill:#311363;" width="15.208" height="20.036"/>
	<rect x="248.426" y="39.814" style="fill:#311363;" width="15.208" height="20.036"/>
	<rect x="294.081" y="39.814" style="fill:#311363;" width="15.208" height="20.036"/>
	<rect x="225.594" y="79.233" style="fill:#311363;" width="15.208" height="20.036"/>
	<rect x="271.249" y="79.233" style="fill:#311363;" width="15.208" height="20.036"/>
	<rect x="316.903" y="79.233" style="fill:#311363;" width="15.208" height="20.036"/>
	<rect x="179.94" y="79.233" style="fill:#311363;" width="15.208" height="20.036"/>
	<path style="fill:#311363;" d="M181.875,184.812c-12.327-0.644-22.704,8.826-23.342,21.018l-12.694,242.168
		c-0.64,12.23,8.789,22.702,21.019,23.343c0.394,0.021,0.785,0.03,1.175,0.03c11.813,0,21.55-9.246,22.167-21.05l12.694-242.168
		C203.534,195.925,194.105,185.452,181.875,184.812z M187.707,207.359l-12.694,242.168c-0.201,3.848-3.472,6.837-7.36,6.628
		c-3.857-0.202-6.829-3.504-6.629-7.361l12.694-242.168c0.194-3.722,3.261-6.637,6.98-6.637c0.126,0,0.252,0.003,0.379,0.01
		C184.934,200.2,187.908,203.502,187.707,207.359z"/>
	<path style="fill:#311363;" d="M278.212,449.326V206.827c0-12.247-9.964-22.212-22.212-22.212
		c-12.247,0-22.212,9.964-22.212,22.212v242.5c0,12.247,9.964,22.212,22.212,22.212
		C268.247,471.539,278.212,461.574,278.212,449.326z M248.996,449.326V206.827c0-3.862,3.142-7.004,7.004-7.004
		c3.862,0,7.004,3.142,7.004,7.004v242.5c0,3.862-3.142,7.004-7.004,7.004C252.138,456.331,248.996,453.188,248.996,449.326z"/>
	<path style="fill:#311363;" d="M343.967,471.372c0.389,0,0.782-0.01,1.175-0.03c12.23-0.641,21.659-11.113,21.019-23.343
		l-12.694-242.167c-0.638-12.193-10.994-21.672-23.342-21.019c-12.23,0.641-21.659,11.113-21.019,23.343L321.8,450.322
		C322.417,462.126,332.153,471.372,343.967,471.372z M330.921,199.998c0.127-0.007,0.253-0.01,0.379-0.01
		c3.72,0,6.786,2.915,6.98,6.638l12.694,242.167c0.201,3.857-2.772,7.159-6.629,7.361c-3.868,0.213-7.16-2.78-7.36-6.628
		l-12.694-242.167C324.092,203.502,327.066,200.2,330.921,199.998z"/>
</g>
<g>
</g>
<g>
</g>
<g>
</g>
<g>
</g>
<g>
</g>
<g>
</g>
<g>
</g>
<g>
</g>
<g>
</g>
<g>
</g>
<g>
</g>
<g>
</g>
<g>
</g>
<g>
</g>
<g>
</g>
</svg>
