<?xml version="1.0" encoding="iso-8859-1"?>
<!-- Generator: Adobe Illustrator 19.0.0, SVG Export Plug-In . SVG Version: 6.00 Build 0)  -->
<svg version="1.1" id="Layer_1" xmlns="http://www.w3.org/2000/svg" xmlns:xlink="http://www.w3.org/1999/xlink" x="0px" y="0px"
	 viewBox="0 0 512 512" style="enable-background:new 0 0 512 512;" xml:space="preserve">
<path style="fill:#FF6A5E;" d="M495.893,57.18c11.339-11.34,11.338-29.723,0-41.063c-11.339-11.341-29.723-11.34-41.063,0
	L255.982,214.965l41.061,41.063L495.893,57.18z"/>
<path style="fill:#C9D6D6;" d="M140.5,251.179c-66.457,0-120.332,53.874-120.331,120.331
	C20.169,437.966,74.043,491.84,140.5,491.839c66.455,0.002,120.33-53.873,120.33-120.33S206.957,251.178,140.5,251.179z
	 M140.5,398.612c-14.968,0-27.103-12.135-27.103-27.103c0-14.968,12.135-27.102,27.103-27.102
	c14.968-0.001,27.103,12.134,27.103,27.103C167.603,386.477,155.467,398.612,140.5,398.612z"/>
<g>
	<path style="fill:#FFFFFF;" d="M129.504,468.395c-22.094-2.468-42.131-12.132-57.945-27.945
		c-18.415-18.415-28.556-42.897-28.555-68.94h15.223c0,21.976,8.557,42.637,24.097,58.174c13.347,13.346,30.246,21.502,48.871,23.58
		L129.504,468.395z"/>
	<path style="fill:#FFFFFF;" d="M151.494,468.395l-1.689-15.13c18.623-2.078,35.521-10.233,48.87-23.579l10.764,10.765
		C193.623,456.266,173.586,465.929,151.494,468.395z"/>
</g>
<g>
	<path style="fill:#311363;" d="M501.276,10.735C494.354,3.813,485.151,0,475.361,0c-9.788,0-18.991,3.813-25.914,10.734
		l-204.23,204.231l51.825,51.826l21.529-21.529l10.764-10.764l40.2-40.2l-10.764-10.765l-40.201,40.201l-30.298-30.298
		L460.212,21.498c4.048-4.046,9.428-6.275,15.15-6.275c5.723,0,11.102,2.229,15.149,6.276c8.352,8.353,8.352,21.945,0,30.298
		L373.127,169.18l10.764,10.765L501.276,62.561C515.562,48.272,515.562,25.024,501.276,10.735z M307.808,234.498l-10.765,10.765
		l-30.297-30.298l10.765-10.764L307.808,234.498z"/>
	<path style="fill:#311363;" d="M254.982,267.792l20.531,20.531l10.764-10.764l-51.827-51.827l-10.764,10.764l20.532,20.532
		l-18.794,18.794c-8.833-7.86-18.581-14.377-28.995-19.446l4.867-11.75l-14.064-5.825l-4.867,11.75
		c-10.947-3.779-22.448-6.065-34.253-6.752v-12.779h-15.223v12.779c-11.805,0.688-23.304,2.974-34.253,6.752l-4.867-11.751
		l-14.064,5.825l4.867,11.751c-10.414,5.069-20.161,11.585-28.995,19.445l-9.036-9.036l-10.764,10.765l9.036,9.036
		c-7.86,8.834-14.377,18.582-19.446,28.995l-11.75-4.866l-5.825,14.063l11.75,4.866c-3.779,10.948-6.065,22.449-6.753,34.253H0.009
		v15.223h12.779c0.688,11.805,2.974,23.305,6.752,34.253l-11.749,4.866l5.825,14.063l11.749-4.866
		c5.069,10.414,11.585,20.161,19.446,28.995l-9.035,9.035l10.764,10.765l9.036-9.036c8.833,7.861,18.581,14.377,28.995,19.446
		l-4.867,11.75l14.064,5.825l4.867-11.75c10.948,3.779,22.448,6.064,34.253,6.752V512h15.223v-12.779
		c11.804-0.688,23.305-2.974,34.253-6.752l4.867,11.75l14.064-5.825l-4.867-11.75c10.414-5.069,20.161-11.586,28.995-19.446
		l9.036,9.036l10.764-10.765l-9.036-9.036c7.86-8.833,14.377-18.581,19.446-28.995l11.75,4.866l5.825-14.063l-11.75-4.866
		c3.779-10.948,6.065-22.449,6.753-34.253h12.779V363.9H268.21c-0.688-11.805-2.974-23.305-6.753-34.253l11.75-4.867l-5.825-14.063
		l-11.75,4.866c-5.069-10.414-11.585-20.161-19.446-28.996L254.982,267.792z M253.219,371.509c0,30.108-11.725,58.416-33.015,79.705
		c-21.29,21.291-49.596,33.015-79.704,33.014c-30.109,0-58.416-11.725-79.706-33.014c-21.29-21.29-33.015-49.595-33.014-79.704
		c0-30.108,11.724-58.415,33.015-79.705c21.289-21.29,49.596-33.015,79.704-33.015c27.557,0,53.599,9.827,74.139,27.814
		l-55.586,55.585c-5.371-3.411-11.731-5.395-18.55-5.395H140.5c-19.141,0-34.715,15.573-34.715,34.714
		c0,19.14,15.573,34.714,34.715,34.714s34.715-15.573,34.715-34.714c0-6.821-1.985-13.182-5.396-18.554l55.586-55.585
		C243.391,317.91,253.219,343.953,253.219,371.509z M159.992,371.509c0,10.747-8.744,19.49-19.492,19.49
		c-10.747,0-19.492-8.743-19.492-19.49c0-10.747,8.744-19.491,19.493-19.491l0.002-7.611v7.611c2.58,0,5.038,0.516,7.293,1.43
		l-12.679,12.679l10.764,10.765l12.68-12.68C159.476,366.469,159.992,368.928,159.992,371.509z"/>
</g>
<g>
</g>
<g>
</g>
<g>
</g>
<g>
</g>
<g>
</g>
<g>
</g>
<g>
</g>
<g>
</g>
<g>
</g>
<g>
</g>
<g>
</g>
<g>
</g>
<g>
</g>
<g>
</g>
<g>
</g>
</svg>
