<?xml version="1.0" encoding="iso-8859-1"?>
<!-- Generator: Adobe Illustrator 19.0.0, SVG Export Plug-In . SVG Version: 6.00 Build 0)  -->
<svg version="1.1" id="Layer_1" xmlns="http://www.w3.org/2000/svg" xmlns:xlink="http://www.w3.org/1999/xlink" x="0px" y="0px"
	 viewBox="0 0 512 512" style="enable-background:new 0 0 512 512;" xml:space="preserve">
<path style="fill:#80D3CF;" d="M478.08,125.592v250.016H297.76c-23.063,0-41.76,18.697-41.76,41.76
	c0-23.063-18.697-41.76-41.76-41.76H33.92V125.592H7.604v282.414H214.24c5.162,0,9.36,4.2,9.36,9.362l0,0h64.799l0,0
	c0-5.163,4.199-9.362,9.361-9.362h206.636V125.592H478.08z"/>
<path style="fill:#FFF6DD;" d="M256,417.368c0-23.063,18.697-41.76,41.76-41.76h180.32V94.632H297.76
	c-23.063,0-41.76,18.695-41.76,41.76l0,0c-0.001-23.065-18.697-41.76-41.76-41.76H33.92v280.977h180.32
	C237.303,375.608,256,394.305,256,417.368"/>
<path style="fill:#FF6A5E;" d="M131.628,248.74c-22.362,0-40.488,18.127-40.488,40.489s18.127,40.489,40.488,40.489h18.22
	c22.362,0,40.489-18.127,40.489-40.489s-18.127-40.489-40.489-40.489L131.628,248.74L131.628,248.74z"/>
<g>
	<path style="fill:#311363;" d="M485.684,117.988v-30.96H297.76c-17.56,0-33.007,9.216-41.76,23.065
		c-8.753-13.849-24.2-23.065-41.76-23.065H26.316v30.96H0V415.61h214.24c0.968,0,1.756,0.789,1.756,1.758v7.604h80.007v-7.604
		c0-0.969,0.788-1.758,1.756-1.758H512V117.988H485.684z M41.524,102.236H214.24c18.833,0,34.155,15.322,34.156,34.156v170.576
		h15.208V136.392c0-18.833,15.322-34.156,34.156-34.156h172.716v15.752v250.016H297.76c-13.244,0-25.282,5.246-34.156,13.764v-54.52
		h-15.208v54.52c-8.874-8.518-20.912-13.764-34.156-13.764H41.524V117.988V102.236z M214.24,400.402H15.208V133.196h11.108v250.016
		H214.24c0.552,0,1.1,0.016,1.645,0.042c0.176,0.009,0.351,0.023,0.527,0.034c0.368,0.023,0.735,0.05,1.1,0.084
		c0.207,0.02,0.412,0.045,0.616,0.067c0.335,0.039,0.667,0.08,0.999,0.128c0.21,0.029,0.42,0.063,0.629,0.097
		c0.327,0.054,0.654,0.112,0.978,0.175c0.203,0.039,0.405,0.077,0.606,0.12c0.342,0.072,0.681,0.153,1.02,0.235
		c0.176,0.044,0.354,0.083,0.529,0.13c0.435,0.114,0.866,0.237,1.295,0.368c0.074,0.022,0.149,0.042,0.222,0.064
		c0.5,0.156,0.995,0.324,1.485,0.503c0.148,0.055,0.294,0.114,0.441,0.17c0.341,0.13,0.68,0.262,1.015,0.401
		c0.181,0.075,0.36,0.155,0.54,0.234c0.299,0.131,0.596,0.265,0.89,0.403c0.187,0.088,0.371,0.178,0.555,0.27
		c0.286,0.142,0.57,0.287,0.852,0.437c0.179,0.095,0.358,0.191,0.535,0.288c0.291,0.161,0.578,0.327,0.864,0.497
		c0.159,0.095,0.319,0.188,0.478,0.283c0.34,0.209,0.673,0.426,1.006,0.646c0.096,0.064,0.196,0.125,0.292,0.191
		c0.425,0.288,0.842,0.585,1.253,0.892c0.109,0.081,0.216,0.168,0.324,0.25c0.299,0.229,0.596,0.459,0.887,0.698
		c0.147,0.12,0.291,0.244,0.436,0.367c0.248,0.21,0.494,0.422,0.736,0.638c0.151,0.136,0.3,0.274,0.449,0.412
		c0.231,0.214,0.46,0.433,0.685,0.654c0.145,0.142,0.289,0.283,0.431,0.428c0.228,0.232,0.452,0.468,0.673,0.707
		c0.129,0.139,0.26,0.275,0.386,0.416c0.248,0.276,0.491,0.56,0.731,0.844c0.091,0.107,0.186,0.213,0.275,0.321
		c0.325,0.396,0.642,0.798,0.95,1.208c0.064,0.085,0.124,0.173,0.187,0.259c0.241,0.328,0.479,0.659,0.709,0.996
		c0.101,0.149,0.199,0.302,0.299,0.453c0.185,0.279,0.367,0.561,0.542,0.846c0.105,0.17,0.207,0.343,0.309,0.515
		c0.164,0.275,0.324,0.554,0.481,0.834c0.098,0.176,0.196,0.354,0.291,0.532c0.154,0.288,0.302,0.579,0.447,0.872
		c0.086,0.173,0.174,0.347,0.258,0.522c0.155,0.326,0.303,0.657,0.448,0.991c0.063,0.145,0.13,0.287,0.192,0.433
		c0.202,0.48,0.394,0.963,0.574,1.454c0.02,0.056,0.038,0.112,0.058,0.167c0.157,0.436,0.307,0.876,0.447,1.32
		c0.053,0.165,0.099,0.334,0.149,0.501c0.1,0.338,0.199,0.676,0.29,1.018c0.052,0.194,0.098,0.389,0.147,0.584
		c0.045,0.184,0.086,0.369,0.128,0.554h-18.129C226.611,404.216,220.863,400.402,214.24,400.402z M496.792,400.402H297.76
		c-6.623,0-12.371,3.815-15.163,9.362h-18.129c0.043-0.185,0.083-0.37,0.128-0.554c0.048-0.195,0.095-0.39,0.147-0.584
		c0.09-0.342,0.189-0.68,0.29-1.018c0.05-0.167,0.096-0.336,0.149-0.501c0.14-0.444,0.29-0.884,0.447-1.32
		c0.02-0.056,0.038-0.112,0.058-0.167c0.18-0.49,0.373-0.974,0.574-1.454c0.061-0.146,0.128-0.288,0.192-0.433
		c0.145-0.333,0.293-0.663,0.448-0.991c0.083-0.175,0.171-0.349,0.258-0.522c0.146-0.293,0.294-0.584,0.447-0.872
		c0.095-0.179,0.193-0.357,0.291-0.532c0.156-0.281,0.316-0.56,0.481-0.834c0.102-0.172,0.205-0.345,0.309-0.515
		c0.176-0.285,0.359-0.567,0.542-0.846c0.099-0.151,0.197-0.304,0.299-0.453c0.23-0.337,0.467-0.667,0.709-0.996
		c0.063-0.085,0.123-0.173,0.187-0.259c0.307-0.411,0.625-0.813,0.95-1.209c0.09-0.108,0.185-0.214,0.275-0.321
		c0.24-0.284,0.482-0.568,0.731-0.844c0.127-0.141,0.258-0.277,0.386-0.416c0.222-0.238,0.445-0.475,0.673-0.707
		c0.142-0.145,0.286-0.286,0.431-0.428c0.225-0.221,0.454-0.44,0.685-0.654c0.149-0.139,0.298-0.276,0.449-0.412
		c0.241-0.216,0.488-0.428,0.736-0.638c0.145-0.123,0.289-0.247,0.436-0.367c0.291-0.238,0.588-0.469,0.887-0.698
		c0.108-0.082,0.215-0.169,0.324-0.25c0.411-0.307,0.828-0.604,1.253-0.892c0.096-0.065,0.196-0.126,0.292-0.191
		c0.332-0.22,0.666-0.437,1.006-0.646c0.157-0.096,0.318-0.189,0.478-0.283c0.286-0.169,0.573-0.336,0.864-0.497
		c0.177-0.098,0.356-0.193,0.535-0.288c0.282-0.149,0.566-0.295,0.852-0.437c0.185-0.091,0.369-0.181,0.555-0.27
		c0.294-0.139,0.591-0.273,0.89-0.403c0.179-0.079,0.359-0.159,0.54-0.234c0.336-0.14,0.675-0.272,1.015-0.401
		c0.147-0.057,0.293-0.116,0.441-0.17c0.49-0.178,0.984-0.347,1.485-0.503c0.073-0.022,0.148-0.042,0.222-0.064
		c0.428-0.131,0.86-0.254,1.295-0.368c0.175-0.047,0.353-0.086,0.529-0.13c0.339-0.082,0.677-0.163,1.02-0.235
		c0.201-0.043,0.404-0.081,0.606-0.12c0.324-0.064,0.651-0.122,0.978-0.175c0.209-0.034,0.419-0.067,0.629-0.097
		c0.332-0.048,0.664-0.089,0.999-0.128c0.205-0.022,0.411-0.048,0.616-0.067c0.365-0.034,0.732-0.061,1.1-0.084
		c0.175-0.011,0.351-0.025,0.527-0.034c0.545-0.025,1.094-0.042,1.645-0.042h187.924V133.196h11.109V400.402z"/>
	<rect x="58.256" y="137.723" style="fill:#311363;" width="164.965" height="15.208"/>
	<rect x="180.974" y="168.149" style="fill:#311363;" width="42.244" height="15.208"/>
	<rect x="58.256" y="168.149" style="fill:#311363;" width="102.441" height="15.208"/>
	<rect x="288.778" y="137.723" style="fill:#311363;" width="164.965" height="15.208"/>
	<rect x="288.778" y="168.149" style="fill:#311363;" width="164.965" height="15.208"/>
	<rect x="288.778" y="228.981" style="fill:#311363;" width="164.965" height="15.208"/>
	<rect x="288.778" y="198.565" style="fill:#311363;" width="117.202" height="15.208"/>
	<path style="fill:#311363;" d="M149.847,241.136h-1.506v-4.89c0-5.049,4.108-9.158,9.158-9.158h12.434V211.88h-12.434
		c-13.435,0-24.366,10.93-24.366,24.366v4.89h-1.506c-26.518,0-48.093,21.574-48.093,48.093c0,26.519,21.574,48.093,48.093,48.093
		h18.22c26.519,0,48.093-21.574,48.093-48.093C197.94,262.71,176.365,241.136,149.847,241.136z M149.847,322.112h-18.22
		c-18.132,0-32.885-14.752-32.885-32.885c0-18.133,14.752-32.885,32.885-32.885h1.506v15.43h15.208v-15.43h1.506
		c18.132,0,32.885,14.752,32.885,32.885C182.73,307.36,167.98,322.112,149.847,322.112z"/>
</g>
<g>
</g>
<g>
</g>
<g>
</g>
<g>
</g>
<g>
</g>
<g>
</g>
<g>
</g>
<g>
</g>
<g>
</g>
<g>
</g>
<g>
</g>
<g>
</g>
<g>
</g>
<g>
</g>
<g>
</g>
</svg>
