<?xml version="1.0" encoding="iso-8859-1"?>
<!-- Generator: Adobe Illustrator 19.0.0, SVG Export Plug-In . SVG Version: 6.00 Build 0)  -->
<svg version="1.1" id="Layer_1" xmlns="http://www.w3.org/2000/svg" xmlns:xlink="http://www.w3.org/1999/xlink" x="0px" y="0px"
	 viewBox="0 0 512 512" style="enable-background:new 0 0 512 512;" xml:space="preserve">
<polygon style="fill:#34B6D0;" points="229.977,466.82 282.023,466.82 504.396,425.25 504.396,91.351 282.023,132.921 
	229.977,132.921 7.604,91.351 7.604,425.25 "/>
<g>
	<polygon style="fill:#FFF6DD;" points="463.838,71.072 282.023,132.921 463.838,98.933 	"/>
	<polygon style="fill:#FFF6DD;" points="229.977,132.921 48.162,71.072 48.162,98.933 	"/>
	<polygon style="fill:#FFF6DD;" points="423.279,50.792 282.023,132.921 423.279,84.868 	"/>
	<polygon style="fill:#FFF6DD;" points="88.721,50.792 229.977,132.921 88.721,84.868 	"/>
</g>
<g>
	<polygon style="fill:#80D3CF;" points="38.02,399.994 38.02,127.98 199.561,158.178 199.561,430.192 	"/>
	<polygon style="fill:#80D3CF;" points="473.98,399.994 473.98,127.98 312.439,158.178 312.439,430.192 	"/>
</g>
<path style="fill:#FF6A5E;" d="M366.02,203.411c0-15.016,12.171-27.188,27.19-27.188l0,0c15.014,0.001,27.187,12.172,27.189,27.188
	l-0.001,29.711c0.001,15.015-12.172,27.188-27.188,27.189l0,0c-15.018-0.001-27.19-12.174-27.19-27.189L366.02,203.411z"/>
<g>
	<path style="fill:#311363;" d="M471.441,89.775V60.451l-40.559,13.798V37.576l-150.909,87.742h-47.948L81.117,37.576v36.673
		L40.559,60.451v29.324L0,82.194v349.371l141.305,26.416l2.795-14.948L15.208,418.936V100.508l207.165,38.727v318.428l-58.34-10.905
		l-2.794,14.948l68.033,12.718h53.455L512,431.564V82.194L471.441,89.775z M456.234,81.69v10.928l-71.315,13.331l45.964-15.636l0,0
		L456.234,81.69z M415.675,79.422l-42.5,14.459l-21.394,7.277l63.894-37.149L415.675,79.422L415.675,79.422z M96.325,79.422V64.009
		l63.894,37.149l-21.393-7.277L96.325,79.422z M55.766,81.69l25.351,8.624l0,0l45.964,15.636L55.766,92.618
		C55.766,92.618,55.766,81.69,55.766,81.69z M496.792,418.936l-207.165,38.726v-44.24h-15.208v45.794h-36.838V140.525h36.838
		v252.619h15.208V139.236l207.165-38.727V418.936z"/>
	<path style="fill:#311363;" d="M207.165,151.864L30.416,118.823v287.485l176.749,33.042V151.864z M191.957,421.034L45.624,393.679
		V137.137l146.334,27.354V421.034z"/>
	<path style="fill:#311363;" d="M481.584,406.307V118.823l-176.75,33.042V439.35L481.584,406.307z M320.043,164.492l146.334-27.355
		v256.542l-146.334,27.354V164.492z"/>
	<path style="fill:#311363;" d="M93.564,258.5c4.674,4.673,10.677,7.709,17.621,8.97v114.478h15.208V267.47
		c6.945-1.26,12.95-4.297,17.624-8.97c6.306-6.306,9.64-15.028,9.64-25.227l0.001-57.051H138.45l-0.001,57.051
		c0,6.076-1.794,11.081-5.185,14.472c-1.84,1.84-4.168,3.191-6.87,4.058v-75.579h-15.208v75.578
		c-2.701-0.868-5.028-2.218-6.867-4.057c-3.392-3.392-5.186-8.396-5.185-14.472v-57.05H83.926v57.05
		C83.924,243.471,87.257,252.194,93.564,258.5z"/>
	<path style="fill:#311363;" d="M393.209,168.619c-19.185,0-34.793,15.608-34.793,34.792v29.71c0,16.573,11.651,30.467,27.19,33.945
		v114.882h15.208V267.066c15.538-3.48,27.189-17.375,27.188-33.945l0.001-29.713C427.999,184.227,412.39,168.619,393.209,168.619z
		 M412.794,233.121c0,10.799-8.785,19.584-19.584,19.585c-10.8-0.001-19.586-8.787-19.586-19.585v-29.71
		c0-10.799,8.786-19.584,19.585-19.584c10.798,0,19.584,8.786,19.586,19.583L412.794,233.121z"/>
</g>
<g>
</g>
<g>
</g>
<g>
</g>
<g>
</g>
<g>
</g>
<g>
</g>
<g>
</g>
<g>
</g>
<g>
</g>
<g>
</g>
<g>
</g>
<g>
</g>
<g>
</g>
<g>
</g>
<g>
</g>
</svg>
