<?xml version="1.0" encoding="iso-8859-1"?>
<!-- Generator: Adobe Illustrator 19.0.0, SVG Export Plug-In . SVG Version: 6.00 Build 0)  -->
<svg version="1.1" id="Layer_1" xmlns="http://www.w3.org/2000/svg" xmlns:xlink="http://www.w3.org/1999/xlink" x="0px" y="0px"
	 viewBox="0 0 512.001 512.001" style="enable-background:new 0 0 512.001 512.001;" xml:space="preserve">
<rect x="184.618" y="31.722" transform="matrix(0.7071 0.7071 -0.7071 0.7071 256.0021 -106.0319)" style="fill:#FFF6DD;" width="142.751" height="448.568"/>
<g>
	<path style="fill:#BAB4A1;" d="M80.889,398.083l-66.445,66.448c-9.12,9.119-9.12,23.905,0.002,33.025
		c9.116,9.121,23.905,9.121,33.021,0.001l66.453-66.449L80.889,398.083z"/>
	<path style="fill:#BAB4A1;" d="M398.081,80.89l66.449-66.447c9.118-9.12,23.903-9.119,33.025,0.001
		c9.122,9.119,9.122,23.905,0,33.024l-66.447,66.449L398.081,80.89z"/>
</g>
<g>
	<path style="fill:#311363;" d="M512,30.956c0-8.269-3.222-16.043-9.069-21.889C497.083,3.22,489.308,0,481.04,0
		c-8.268,0-16.042,3.22-21.888,9.066l-61.072,61.071L364.125,36.18l-58.898,58.899l10.753,10.752l48.144-48.146l90.187,90.189
		L147.875,454.313l-10.755-10.755l77.247-77.248l-10.753-10.752l-77.247,77.247l-1.695-1.695l0.002-0.002l-19.809-19.805
		l-47.178-47.179l243.956-243.953l-10.754-10.752L36.181,364.123l33.957,33.958l-61.07,61.073c-5.848,5.847-9.067,13.62-9.067,21.89
		c0.001,8.268,3.222,16.043,9.067,21.888c5.846,5.849,13.619,9.069,21.889,9.069c0.001,0,0.001,0,0.001,0
		c8.268,0,16.042-3.221,21.886-9.066l61.076-61.072l33.957,33.958l327.94-327.945l-33.957-33.958l61.071-61.072
		C508.78,46.999,512,39.226,512,30.956z M42.091,492.182c-2.973,2.973-6.927,4.612-11.132,4.612c-4.207,0-8.161-1.638-11.135-4.615
		c-2.976-2.974-4.616-6.93-4.616-11.137s1.638-8.161,4.614-11.135l61.069-61.072l12.051,12.05l10.224,10.225L42.091,492.182z
		 M492.179,42.093l-61.07,61.072L408.834,80.89l61.073-61.071c2.974-2.974,6.927-4.612,11.133-4.612s8.163,1.638,11.139,4.615
		c2.976,2.974,4.615,6.928,4.615,11.134C496.794,35.162,495.154,39.117,492.179,42.093z"/>
	
		<rect x="214.052" y="316.572" transform="matrix(0.7071 -0.7071 0.7071 0.7071 -157.2444 268.7298)" style="fill:#311363;" width="63.422" height="15.207"/>
</g>
<g>
</g>
<g>
</g>
<g>
</g>
<g>
</g>
<g>
</g>
<g>
</g>
<g>
</g>
<g>
</g>
<g>
</g>
<g>
</g>
<g>
</g>
<g>
</g>
<g>
</g>
<g>
</g>
<g>
</g>
</svg>
