<?xml version="1.0" encoding="iso-8859-1"?>
<!-- Generator: Adobe Illustrator 19.0.0, SVG Export Plug-In . SVG Version: 6.00 Build 0)  -->
<svg version="1.1" id="Layer_1" xmlns="http://www.w3.org/2000/svg" xmlns:xlink="http://www.w3.org/1999/xlink" x="0px" y="0px"
	 viewBox="0 0 512.033 512.033" style="enable-background:new 0 0 512.033 512.033;" xml:space="preserve">
<path style="fill:#C9D6D6;" d="M294.534,7.607h-77.037c-40.319,0-73.003,32.684-73.003,73.003v40.104v43.34h223.042v-43.34V80.609
	C367.537,40.29,334.853,7.607,294.534,7.607z"/>
<polygon style="fill:#FF6A5E;" points="408.098,474.011 367.537,164.053 144.496,164.053 103.935,474.011 "/>
<rect x="259.182" y="279.953" transform="matrix(-0.1298 -0.9915 0.9915 -0.1298 113.7626 674.9537)" style="fill:#FFFFFF;" width="187.751" height="15.208"/>
<rect x="144.495" y="120.709" style="fill:#34B6D0;" width="223.043" height="43.34"/>
<g>
	<path style="fill:#311363;" d="M141.443,481.616v-15.209h-28.844l38.571-294.75h59.714l-8.898,194.782l15.193,0.695l8.93-195.476
		h59.802l12.858,294.75h-85.533l3.14-79.057l-15.197-0.604l-3.164,79.66h-36.292v15.209h255.04l-41.621-318.063v-50.446V80.607
		C375.141,36.161,338.982,0,294.534,0h-77.037C173.05,0,136.89,36.161,136.89,80.607v32.499v50.446l-41.62,318.064H141.443z
		 M313.99,466.407l-12.858-294.75h59.73l38.571,294.75H313.99z M152.1,80.609c0-36.06,29.338-65.398,65.398-65.398h77.037
		c36.06,0,65.398,29.338,65.398,65.398v32.499H205.658v15.209h154.275v28.131H152.1v-28.131h33.279v-15.209H152.1V80.609z"/>
	<rect x="201.437" y="33.572" style="fill:#311363;" width="15.209" height="20.617"/>
	<rect x="248.412" y="33.572" style="fill:#311363;" width="15.209" height="20.617"/>
	<rect x="295.387" y="33.572" style="fill:#311363;" width="15.209" height="20.617"/>
	<rect x="224.919" y="74.129" style="fill:#311363;" width="15.209" height="20.617"/>
	<rect x="271.904" y="74.129" style="fill:#311363;" width="15.209" height="20.617"/>
	<rect x="96.33" y="496.824" style="fill:#311363;" width="319.376" height="15.209"/>
</g>
<g>
</g>
<g>
</g>
<g>
</g>
<g>
</g>
<g>
</g>
<g>
</g>
<g>
</g>
<g>
</g>
<g>
</g>
<g>
</g>
<g>
</g>
<g>
</g>
<g>
</g>
<g>
</g>
<g>
</g>
</svg>
