<?xml version="1.0" encoding="iso-8859-1"?>
<!-- Generator: Adobe Illustrator 19.0.0, SVG Export Plug-In . SVG Version: 6.00 Build 0)  -->
<svg version="1.1" id="Layer_1" xmlns="http://www.w3.org/2000/svg" xmlns:xlink="http://www.w3.org/1999/xlink" x="0px" y="0px"
	 viewBox="0 0 512 512" style="enable-background:new 0 0 512 512;" xml:space="preserve">
<path style="fill:#587082;" d="M117.885,178.972l9.932,35.756c-37.63,19.729-63.308,59.163-63.308,104.596
	c0,65.189,52.843,118.032,118.031,118.032h146.919c65.188,0,118.034-52.842,118.034-118.032c0-45.432-25.675-84.865-63.307-104.595
	l9.933-35.757H117.885z"/>
<path style="fill:#FFFFFF;" d="M329.457,414.544v-15.208c44.12,0,80.014-35.893,80.014-80.012h15.208
	C424.679,371.829,381.963,414.544,329.457,414.544z"/>
<circle style="fill:#34B6D0;" cx="256" cy="96.388" r="21.746"/>
<g>
	<path style="fill:#80D3CF;" d="M453.824,231.559c-12.798,0-24.479,4.764-33.386,12.603c6.686,8.08,12.31,17.067,16.675,26.745
		c-0.009-0.02-0.017-0.04-0.025-0.06c3.628-5.349,9.756-8.872,16.693-8.872c11.114,0,20.157,9.042,20.157,20.156
		s-9.043,20.157-20.157,20.157c-2.747,0-5.363-0.557-7.752-1.554c0.961,6.062,1.462,12.277,1.462,18.609
		c0,4.347-0.242,8.638-0.7,12.863c2.3,0.32,4.644,0.498,7.033,0.498c27.931,0,50.572-22.642,50.572-50.572
		C504.396,254.201,481.755,231.559,453.824,231.559z"/>
	<path style="fill:#80D3CF;" d="M58.176,231.559c12.798,0,24.479,4.764,33.386,12.603c-6.686,8.08-12.31,17.067-16.675,26.745
		c0.009-0.02,0.017-0.04,0.025-0.06c-3.628-5.349-9.756-8.872-16.693-8.872c-11.114,0-20.157,9.042-20.157,20.156
		s9.043,20.157,20.157,20.157c2.747,0,5.363-0.557,7.752-1.554c-0.961,6.062-1.462,12.277-1.462,18.609
		c0,4.347,0.242,8.638,0.7,12.863c-2.3,0.32-4.645,0.498-7.033,0.498c-27.931,0-50.572-22.642-50.572-50.572
		C7.604,254.201,30.246,231.559,58.176,231.559z"/>
</g>
<path style="fill:#C9D6D6;" d="M339.157,118.138H172.843c-16.788,0-30.396,13.609-30.396,30.396h227.105
	C369.552,131.747,355.943,118.138,339.157,118.138z"/>
<g>
	<path style="fill:#311363;" d="M428.019,140.95h-51.624c-3.524-17.332-18.881-30.416-37.238-30.416h-57.448
		c2.319-4.197,3.642-9.018,3.642-14.142c0-16.183-13.166-29.35-29.35-29.35c-16.183,0-29.35,13.167-29.35,29.35
		c0,5.125,1.324,9.945,3.642,14.142h-57.448c-18.357,0-33.714,13.084-37.238,30.416H83.981v15.208h344.038L428.019,140.95
		L428.019,140.95z M241.858,96.391c0-7.798,6.345-14.142,14.142-14.142c7.798,0,14.142,6.345,14.142,14.142
		s-6.345,14.142-14.142,14.142C248.202,110.534,241.858,104.19,241.858,96.391z M172.843,125.742h166.314
		c9.903,0,18.351,6.348,21.488,15.188H151.355C154.493,132.089,162.941,125.742,172.843,125.742z"/>
	<path style="fill:#311363;" d="M453.824,223.955c-11.566,0-22.794,3.447-32.314,9.816c-8.197-8.805-17.722-16.505-28.396-22.777
		l11.006-39.625h-80.87v15.208h60.861l-8.899,32.035l5.439,2.852c12.281,6.439,22.989,14.956,31.806,24.985l2.12,2.561
		c6.296,7.608,11.546,16.028,15.602,25.023l0.017-0.008c4.061,9.042,6.914,18.667,8.424,28.653c0.14,0.927,0.269,1.857,0.385,2.789
		c0.058,0.457,0.115,0.914,0.166,1.374c0.107,0.952,0.199,1.907,0.282,2.863c0.037,0.428,0.078,0.856,0.111,1.285
		c0.078,1.036,0.135,2.073,0.184,3.112c0.016,0.354,0.042,0.707,0.055,1.06c0.053,1.392,0.082,2.783,0.082,4.174
		c0,0.071-0.003,0.143-0.003,0.214c-0.002,0.909-0.013,1.822-0.038,2.738c-0.004,0.149-0.012,0.297-0.017,0.445
		c-0.026,0.849-0.059,1.699-0.104,2.552c-0.007,0.13-0.017,0.259-0.024,0.388c-0.049,0.855-0.105,1.711-0.174,2.566
		c-0.016,0.207-0.038,0.412-0.055,0.616c-0.064,0.743-0.133,1.486-0.211,2.227c-5.89,55.381-52.884,98.668-109.803,98.668H182.538
		c-56.9,0-103.881-43.26-109.794-98.618c-0.085-0.803-0.16-1.606-0.228-2.41c-0.013-0.151-0.028-0.301-0.041-0.453
		c-0.074-0.913-0.135-1.826-0.186-2.738c-0.004-0.074-0.01-0.148-0.014-0.221c-0.05-0.92-0.086-1.838-0.113-2.753
		c-0.002-0.084-0.007-0.167-0.01-0.25c-0.027-0.993-0.041-1.982-0.041-2.967c0-1.398,0.029-2.797,0.082-4.196
		c0.012-0.326,0.035-0.651,0.051-0.976c0.05-1.068,0.108-2.134,0.189-3.2c0.03-0.409,0.07-0.816,0.105-1.224
		c0.084-0.978,0.178-1.955,0.288-2.929c0.05-0.441,0.104-0.88,0.159-1.319c0.12-0.954,0.25-1.904,0.394-2.852
		c1.512-9.973,4.363-19.589,8.419-28.62l0.018,0.008v-0.001c4.056-8.996,9.306-17.415,15.602-25.023l2.131-2.575
		c8.429-9.584,18.596-17.776,30.204-24.102h132.662v-15.208H133.595l-5.707-20.548h175.084v-15.208H107.881l11.005,39.624
		c-10.674,6.273-20.2,13.972-28.397,22.777c-9.519-6.367-20.747-9.815-32.313-9.815C26.098,223.955,0,250.052,0,282.13
		c0,32.079,26.098,58.176,58.176,58.176c0.162,0,0.326-0.007,0.489-0.009c10.013,59.326,61.744,104.662,123.874,104.662h146.919
		c62.131,0,113.865-45.336,123.878-104.662c0.162,0.001,0.327,0.009,0.489,0.009c32.079,0,58.176-26.098,58.176-58.176
		C512,250.052,485.902,223.955,453.824,223.955z M58.22,294.682c-6.922,0-12.553-5.631-12.553-12.553
		c0-6.921,5.631-12.552,12.553-12.552c2.862,0,5.582,0.999,7.774,2.738c-2.887,7.172-5.132,14.633-6.661,22.311
		C58.964,294.661,58.593,294.682,58.22,294.682z M57.038,325.084c-23.17-0.605-41.83-19.642-41.83-42.954
		c0-23.692,19.276-42.967,42.968-42.967c8.033,0,15.844,2.251,22.594,6.431c-2.975,4.103-5.695,8.382-8.148,12.811
		c-4.281-2.602-9.244-4.034-14.401-4.034c-15.307,0-27.761,12.453-27.761,27.76c0,14.986,11.935,27.236,26.8,27.744
		c-0.009,0.123-0.012,0.245-0.02,0.368c-0.084,1.176-0.147,2.357-0.199,3.54c-0.015,0.336-0.038,0.67-0.05,1.006
		c-0.054,1.508-0.086,3.019-0.086,4.536c0,0.09,0.003,0.18,0.003,0.271c0.002,0.909,0.012,1.822,0.034,2.737
		c0.013,0.541,0.036,1.08,0.056,1.62C57.012,324.33,57.021,324.706,57.038,325.084z M452.666,294.629
		c-1.529-7.678-3.774-15.139-6.661-22.311c2.193-1.74,4.912-2.738,7.775-2.738c6.922,0,12.553,5.631,12.553,12.552
		c0,6.922-5.631,12.553-12.553,12.553C453.406,294.682,453.036,294.661,452.666,294.629z M454.962,325.084
		c0.019-0.424,0.028-0.846,0.044-1.268c0.017-0.487,0.039-0.972,0.051-1.46c0.024-1.008,0.039-2.013,0.039-3.013
		c0-0.002,0-0.005,0-0.007c0-0.004,0-0.007,0-0.011c0-1.512-0.031-3.017-0.085-4.519c-0.013-0.366-0.038-0.731-0.054-1.097
		c-0.051-1.152-0.112-2.301-0.194-3.446c-0.009-0.129-0.012-0.259-0.021-0.387c14.864-0.508,26.8-12.758,26.8-27.744
		c0-15.306-12.453-27.76-27.761-27.76c-5.158,0-10.121,1.433-14.402,4.035c-2.455-4.43-5.174-8.708-8.149-12.811
		c6.749-4.181,14.562-6.432,22.595-6.432c23.693,0,42.968,19.276,42.968,42.967C496.792,305.442,478.132,324.479,454.962,325.084z"
		/>
</g>
<g>
</g>
<g>
</g>
<g>
</g>
<g>
</g>
<g>
</g>
<g>
</g>
<g>
</g>
<g>
</g>
<g>
</g>
<g>
</g>
<g>
</g>
<g>
</g>
<g>
</g>
<g>
</g>
<g>
</g>
</svg>
