<?xml version="1.0" encoding="iso-8859-1"?>
<!-- Generator: Adobe Illustrator 19.0.0, SVG Export Plug-In . SVG Version: 6.00 Build 0)  -->
<svg version="1.1" id="Layer_1" xmlns="http://www.w3.org/2000/svg" xmlns:xlink="http://www.w3.org/1999/xlink" x="0px" y="0px"
	 viewBox="0 0 512 512" style="enable-background:new 0 0 512 512;" xml:space="preserve">
<g>
	<polygon style="fill:#F59D40;" points="162.405,116.255 122.538,116.255 130.645,7.604 154.298,7.605 	"/>
	<polygon style="fill:#F59D40;" points="49.222,473.98 235.721,473.98 235.721,152.439 212.743,152.439 212.743,116.255 
		72.2,116.255 72.2,152.439 49.222,152.439 	"/>
</g>
<g>
	<polygon style="fill:#FF6A5E;" points="389.462,116.255 349.595,116.255 357.702,7.604 381.354,7.605 	"/>
	<polygon style="fill:#FF6A5E;" points="276.279,473.98 462.778,473.98 462.778,152.439 439.8,152.439 439.8,116.255 
		299.257,116.255 299.257,152.439 276.279,152.439 	"/>
	<rect x="49.222" y="443.564" style="fill:#FF6A5E;" width="186.5" height="30.416"/>
</g>
<rect x="276.277" y="443.564" style="fill:#80D3CF;" width="186.5" height="30.416"/>
<circle style="fill:#FF6A5E;" cx="142.468" cy="298.004" r="51.798"/>
<circle style="fill:#80D3CF;" cx="369.532" cy="298.004" r="51.798"/>
<g>
	<path style="fill:#311363;" d="M220.347,108.651h-50.884l-8.108-108.65L123.588,0l-8.107,108.651H64.596v36.183H41.618v237.899
		h15.208V160.042H72.2h7.604h24.793v-15.208H79.804v-20.975h34.541h56.252h34.541v20.975h-80.262v15.208h80.262h7.604h15.374v15.208
		h-72.825v15.208h72.825V435.96H56.826V403.01H41.618v32.951v45.624h201.707V435.96V144.834h-22.978V108.651z M130.73,108.651
		l6.973-93.444l9.535,0.001l6.973,93.443H130.73z M228.117,466.376H56.826v-15.208h171.291V466.376z"/>
	<path style="fill:#311363;" d="M447.404,144.834v-36.183H396.52l-8.109-108.65L350.645,0l-8.107,108.651h-50.884v36.183h-22.978
		v237.899h15.208V160.042h15.374h7.604h24.793v-15.208h-24.793v-20.975h34.541h56.252h34.541v20.975h-80.262v15.208h80.262h7.604
		h15.374v15.208H382.35v15.208h72.825V435.96H283.883V403.01h-15.208v32.951v45.624h201.707V435.96V144.834H447.404z
		 M357.788,108.651l6.972-93.444l9.535,0.001l6.973,93.443H357.788z M455.174,466.376H283.883v-15.208h171.291L455.174,466.376
		L455.174,466.376z"/>
	<rect x="41.619" y="496.792" style="fill:#311363;" width="201.708" height="15.208"/>
	<rect x="268.673" y="496.792" style="fill:#311363;" width="201.708" height="15.208"/>
	<path style="fill:#311363;" d="M201.878,298.002c0-32.758-26.649-59.407-59.406-59.407s-59.406,26.649-59.406,59.407
		c0,32.757,26.649,59.406,59.406,59.406C175.229,357.407,201.878,330.758,201.878,298.002z M98.274,298.002
		c0-24.371,19.827-44.199,44.198-44.199s44.198,19.828,44.198,44.199c0,24.371-19.827,44.198-44.198,44.198
		C118.101,342.2,98.274,322.373,98.274,298.002z"/>
	<path style="fill:#311363;" d="M428.934,298.002c0-32.758-26.649-59.407-59.406-59.407s-59.406,26.649-59.406,59.407
		c0,32.757,26.649,59.406,59.406,59.406C402.285,357.407,428.934,330.758,428.934,298.002z M325.33,298.002
		c0-24.371,19.827-44.199,44.198-44.199c24.371,0,44.198,19.828,44.198,44.199c0,24.371-19.827,44.198-44.198,44.198
		C345.157,342.2,325.33,322.373,325.33,298.002z"/>
</g>
<g>
	<path style="fill:#FFFFFF;" d="M171.462,298.002h-15.208c0-7.6-6.183-13.783-13.782-13.783v-15.208
		C158.457,269.011,171.462,282.016,171.462,298.002z"/>
	<path style="fill:#FFFFFF;" d="M398.518,298.002h-15.208c0-7.6-6.183-13.783-13.782-13.783v-15.208
		C385.514,269.011,398.518,282.016,398.518,298.002z"/>
</g>
<g>
</g>
<g>
</g>
<g>
</g>
<g>
</g>
<g>
</g>
<g>
</g>
<g>
</g>
<g>
</g>
<g>
</g>
<g>
</g>
<g>
</g>
<g>
</g>
<g>
</g>
<g>
</g>
<g>
</g>
</svg>
