<?xml version="1.0" encoding="iso-8859-1"?>
<!-- Generator: Adobe Illustrator 19.0.0, SVG Export Plug-In . SVG Version: 6.00 Build 0)  -->
<svg version="1.1" id="Layer_1" xmlns="http://www.w3.org/2000/svg" xmlns:xlink="http://www.w3.org/1999/xlink" x="0px" y="0px"
	 viewBox="0 0 512 512" style="enable-background:new 0 0 512 512;" xml:space="preserve">
<path style="fill:#C9D6D6;" d="M57.449,480.531c31.817,31.817,83.408,31.817,115.221,0.002l69.332-69.332
	c31.813-31.815,31.813-83.404-0.002-115.221l-26.002-26.004c-31.819-31.817-83.408-31.817-115.223,0l-69.332,69.328
	C-0.37,371.122-0.37,422.708,31.447,454.53L57.449,480.531z"/>
<path style="fill:#FFFFFF;" d="M156.541,464.402l-10.754-10.753l69.328-69.331c8.192-8.191,12.703-19.104,12.702-30.726
	c0-11.622-4.512-22.535-12.704-30.726l10.754-10.754c11.064,11.065,17.158,25.796,17.158,41.481
	c0.001,15.685-6.093,30.416-17.156,41.481L156.541,464.402z"/>
<path style="fill:#34B6D0;" d="M490.598,87.885c18.367-18.365,18.365-48.142,0-66.506c-18.365-18.367-48.14-18.367-66.506,0.002
	L219.485,225.982l66.506,66.51L490.598,87.885z M468.439,65.721c-6.127,6.125-16.056,6.125-22.183,0.002
	c-6.127-6.127-6.127-16.06-0.002-22.185c6.129-6.127,16.058-6.125,22.183,0C474.564,49.663,474.564,59.594,468.439,65.721z"/>
<g>
	<path style="fill:#311363;" d="M221.375,264.601c-16.826-16.825-39.195-26.089-62.989-26.089c-23.795,0-46.164,9.265-62.987,26.089
		L26.066,333.93c-34.727,34.731-34.725,91.244,0.004,125.979l26.002,26.002c16.825,16.824,39.195,26.089,62.99,26.09
		c0.002,0,0,0,0.001,0c23.793,0,46.163-9.266,62.985-26.088l69.332-69.333c34.728-34.73,34.727-91.242-0.002-125.974
		L221.375,264.601z M236.624,405.825l-69.332,69.333c-13.95,13.95-32.5,21.634-52.23,21.634
		c-19.734-0.001-38.285-7.684-52.236-21.637l-26.001-26.001c-28.8-28.804-28.802-75.67-0.005-104.471l69.333-69.329
		c13.951-13.951,32.501-21.635,52.233-21.635c19.732,0,38.283,7.683,52.235,21.635l26.002,26.003
		C265.422,330.16,265.423,377.025,236.624,405.825z"/>
	<path style="fill:#311363;" d="M495.976,16.002C485.657,5.682,471.939-0.001,457.345,0c-14.593,0-28.312,5.684-38.63,16.003
		L219.486,215.228l-38.793-38.794l-10.755,10.754l77.423,77.424l38.631,38.633l0.001-0.001l38.796,38.797l10.754-10.755
		l-38.796-38.797l42.541-42.542l-10.754-10.752l-42.539,42.541l-55.754-55.754L429.47,26.758
		c7.446-7.448,17.345-11.549,27.875-11.549c10.53,0,20.429,4.1,27.876,11.548c7.446,7.445,11.547,17.344,11.547,27.874
		c0,10.531-4.101,20.43-11.548,27.876L342.872,224.855l10.754,10.754L495.975,93.262c10.32-10.319,16.002-24.038,16.002-38.632
		C511.977,40.038,506.294,26.32,495.976,16.002z"/>
	<path style="fill:#311363;" d="M473.815,71.099L473.815,71.099c9.082-9.084,9.079-23.859-0.001-32.938
		c-9.082-9.08-23.856-9.08-32.938,0c-9.081,9.082-9.079,23.857,0.004,32.941c4.541,4.538,10.502,6.805,16.466,6.805
		S469.276,75.638,473.815,71.099z M449.265,54.63c0-2.16,0.84-4.188,2.365-5.714c1.577-1.576,3.646-2.362,5.715-2.362
		c2.07,0,4.14,0.787,5.715,2.362c1.527,1.527,2.367,3.556,2.367,5.714s-0.841,4.188-2.366,5.715
		c-3.151,3.148-8.279,3.15-11.428,0.001C450.105,58.82,449.265,56.79,449.265,54.63z"/>
</g>
<g>
</g>
<g>
</g>
<g>
</g>
<g>
</g>
<g>
</g>
<g>
</g>
<g>
</g>
<g>
</g>
<g>
</g>
<g>
</g>
<g>
</g>
<g>
</g>
<g>
</g>
<g>
</g>
<g>
</g>
</svg>
