<?xml version="1.0" encoding="iso-8859-1"?>
<!-- Generator: Adobe Illustrator 19.0.0, SVG Export Plug-In . SVG Version: 6.00 Build 0)  -->
<svg version="1.1" id="Layer_1" xmlns="http://www.w3.org/2000/svg" xmlns:xlink="http://www.w3.org/1999/xlink" x="0px" y="0px"
	 viewBox="0 0 512.001 512.001" style="enable-background:new 0 0 512.001 512.001;" xml:space="preserve">
<path style="fill:#C9D6D6;" d="M498.774,40.368c7.495-7.495,7.495-19.646,0-27.141c-7.495-7.497-19.643-7.495-27.139,0
	L200.63,284.233c-20.049-14.552-44.707-23.138-71.375-23.138c-67.187,0-121.652,54.467-121.651,121.652
	c-0.001,67.185,54.465,121.651,121.652,121.65c67.185,0.002,121.65-54.465,121.65-121.65c0-26.667-8.587-51.325-23.137-71.373
	L498.774,40.368z"/>
<g>
	<path style="fill:#311363;" d="M129.259,512c-0.002,0-0.001,0-0.004,0c-34.525,0.001-66.985-13.445-91.398-37.857
		C13.445,449.73,0,417.271,0,382.747c0-34.525,13.445-66.983,37.857-91.396c24.413-24.413,56.873-37.859,91.398-37.859
		c25.267,0,49.494,7.202,70.472,20.89L466.259,7.85c5.061-5.061,11.79-7.848,18.947-7.849c7.157,0,13.886,2.788,18.947,7.85
		c5.06,5.059,7.848,11.789,7.848,18.947s-2.788,13.886-7.848,18.947L302.196,247.702l-10.754-10.754L493.399,34.99
		c2.189-2.188,3.395-5.098,3.395-8.193s-1.205-6.005-3.394-8.193c-2.19-2.19-5.099-3.396-8.193-3.396s-6.003,1.205-8.192,3.395
		L201.417,294.2l-5.254-3.812c-19.55-14.189-42.687-21.689-66.909-21.689c-30.463,0-59.103,11.863-80.644,33.404
		c-21.541,21.542-33.403,50.181-33.403,80.644S27.07,441.85,48.611,463.39c21.541,21.541,50.181,33.403,80.644,33.403
		c30.463,0.001,59.102-11.862,80.643-33.402c21.541-21.541,33.404-50.181,33.404-80.644c0-24.222-7.499-47.357-21.687-66.906
		l-3.813-5.254l59.3-59.3l10.754,10.754l-50.237,50.236c13.688,20.977,20.889,45.203,20.889,70.469
		c0,34.525-13.445,66.984-37.858,91.397C196.241,498.555,163.781,512,129.259,512z"/>
	<rect x="94.085" y="308.584" style="fill:#311363;" width="23.902" height="15.208"/>
	<rect x="140.316" y="308.584" style="fill:#311363;" width="23.902" height="15.208"/>
	<rect x="47.853" y="353.021" style="fill:#311363;" width="23.902" height="15.208"/>
	<rect x="94.085" y="353.021" style="fill:#311363;" width="23.902" height="15.208"/>
	<rect x="140.316" y="353.021" style="fill:#311363;" width="23.902" height="15.208"/>
	<rect x="186.547" y="353.021" style="fill:#311363;" width="23.901" height="15.208"/>
	<rect x="47.853" y="397.468" style="fill:#311363;" width="23.902" height="15.208"/>
	<rect x="94.085" y="397.468" style="fill:#311363;" width="23.902" height="15.208"/>
	<rect x="140.316" y="397.468" style="fill:#311363;" width="23.902" height="15.208"/>
	<rect x="186.547" y="397.468" style="fill:#311363;" width="23.901" height="15.208"/>
	<rect x="94.085" y="441.904" style="fill:#311363;" width="23.902" height="15.208"/>
	<rect x="140.316" y="441.904" style="fill:#311363;" width="23.902" height="15.208"/>
</g>
<g>
</g>
<g>
</g>
<g>
</g>
<g>
</g>
<g>
</g>
<g>
</g>
<g>
</g>
<g>
</g>
<g>
</g>
<g>
</g>
<g>
</g>
<g>
</g>
<g>
</g>
<g>
</g>
<g>
</g>
</svg>
