<?xml version="1.0" encoding="iso-8859-1"?>
<!-- Generator: Adobe Illustrator 19.0.0, SVG Export Plug-In . SVG Version: 6.00 Build 0)  -->
<svg version="1.1" id="Layer_1" xmlns="http://www.w3.org/2000/svg" xmlns:xlink="http://www.w3.org/1999/xlink" x="0px" y="0px"
	 viewBox="0 0 512.001 512.001" style="enable-background:new 0 0 512.001 512.001;" xml:space="preserve">
<path style="fill:#34B6D0;" d="M298.822,104.254h-85.645c-32.567,0-58.968,26.401-58.968,58.968v315.902
	c0,13.957,11.315,25.272,25.273,25.272h153.036c13.958,0,25.272-11.315,25.272-25.272V163.223
	C357.79,130.655,331.389,104.254,298.822,104.254z"/>
<g>
	<rect x="213.174" y="66.073" style="fill:#80D3CF;" width="85.641" height="38.185"/>
	<path style="fill:#80D3CF;" d="M284.957,66.068V24.527c0-9.347-7.578-16.923-16.923-16.923h-24.068
		c-9.347,0-16.922,7.577-16.922,16.923v41.542h57.914V66.068z"/>
</g>
<rect x="154.208" y="194.154" style="fill:#FF6A5E;" width="147.415" height="220.343"/>
<path style="fill:#311363;" d="M306.425,97.096V58.464h-13.865V24.527C292.562,11.003,281.558,0,268.033,0h-24.068
	c-13.524,0-24.526,11.003-24.526,24.527v4.705h-72.833V54.58h15.208v-10.14h57.625v14.024h-13.866v38.633
	c-33.138,3.788-58.967,31.989-58.967,66.125v23.327v235.553v57.022c0,18.128,14.748,32.876,32.876,32.876h153.036
	c18.128,0,32.875-14.749,32.875-32.876V163.222C365.394,129.086,339.564,100.883,306.425,97.096z M220.781,73.672h70.437v22.977
	h-70.437V73.672z M234.646,44.441H256V29.233h-21.354v-4.705c0-5.138,4.18-9.319,9.318-9.319h24.068
	c5.139,0,9.319,4.181,9.319,9.319v33.937h-42.707V44.441H234.646z M350.186,479.124c0,9.742-7.925,17.669-17.668,17.669H179.482
	c-9.742,0-17.669-7.925-17.669-17.669v-57.022h147.414v-55.589H294.02v40.381H161.814V372.76h94.175v-15.208h-94.175v-25.347h94.175
	v-15.208h-94.175v-25.347h94.175v-15.208h-94.175v-25.347h94.175v-15.208h-94.175v-34.133H294.02v144.476h15.208V186.548H161.814
	v-23.327c0-28.323,23.042-51.364,51.364-51.364h85.645c28.322,0,51.363,23.042,51.363,51.364v315.902H350.186z"/>
<path style="fill:#FFFFFF;" d="M334.978,163.222H319.77c0-11.552-9.397-20.948-20.947-20.948h-85.645v-15.208h85.645
	C318.759,127.065,334.978,143.285,334.978,163.222z"/>
<g>
</g>
<g>
</g>
<g>
</g>
<g>
</g>
<g>
</g>
<g>
</g>
<g>
</g>
<g>
</g>
<g>
</g>
<g>
</g>
<g>
</g>
<g>
</g>
<g>
</g>
<g>
</g>
<g>
</g>
</svg>
