<?xml version="1.0" encoding="iso-8859-1"?>
<!-- Generator: Adobe Illustrator 19.0.0, SVG Export Plug-In . SVG Version: 6.00 Build 0)  -->
<svg version="1.1" id="Layer_1" xmlns="http://www.w3.org/2000/svg" xmlns:xlink="http://www.w3.org/1999/xlink" x="0px" y="0px"
	 viewBox="0 0 512.015 512.015" style="enable-background:new 0 0 512.015 512.015;" xml:space="preserve">
<path style="fill:#C9D6D6;" d="M383.008,263.088c-11.303,11.303-29.63,11.303-40.933,0l-93.154-93.157
	c-11.302-11.302-11.302-29.628,0-40.931L361.838,16.083c11.301-11.304,29.628-11.304,40.931-0.002l93.154,93.156
	c11.303,11.303,11.305,29.628,0.001,40.933L383.008,263.088z"/>
<path style="fill:#FF6A5E;" d="M16.092,454.89c-11.33,11.329-11.328,29.696-0.001,41.024c11.33,11.33,29.696,11.33,41.024,0
	l171.359-171.358l-41.023-41.023L16.092,454.89z"/>
<g>
	<path style="fill:#311363;" d="M501.3,103.861l-93.155-93.157C401.242,3.801,392.065,0,382.303,0
		c-9.763,0-18.941,3.802-25.843,10.706L243.543,123.623c-14.249,14.25-14.249,37.435,0,51.685l41.201,41.202l-55.27,55.27
		l-20.512-20.512l-10.754,10.754l51.779,51.779l10.755-10.754l-20.513-20.513l55.27-55.269l41.2,41.201
		c6.903,6.903,16.081,10.704,25.843,10.704s18.941-3.802,25.844-10.705l112.916-112.916c6.904-6.904,10.705-16.083,10.705-25.845
		C512.004,119.942,508.202,110.764,501.3,103.861z M490.546,144.794L377.631,257.71c-4.031,4.03-9.391,6.25-15.09,6.25
		c-5.7,0-11.059-2.219-15.089-6.25l-93.155-93.157c-8.319-8.32-8.319-21.857,0-30.176L367.214,21.46
		c4.03-4.03,9.389-6.251,15.088-6.251c5.699,0,11.058,2.219,15.088,6.25l93.155,93.157c4.03,4.03,6.251,9.389,6.251,15.089
		C496.796,135.405,494.577,140.763,490.546,144.794z"/>
	<path style="fill:#311363;" d="M136.533,323.696l10.754,10.754l40.164-40.164l30.27,30.27L51.74,490.537
		c-4.043,4.044-9.418,6.27-15.135,6.27s-11.092-2.227-15.135-6.269c-8.345-8.347-8.345-21.926,0-30.271l111.477-111.477
		l-10.754-10.754L10.715,449.513c-14.275,14.274-14.275,37.502,0,51.778c6.916,6.916,16.11,10.724,25.89,10.724
		c9.78,0,18.974-3.808,25.89-10.724l176.735-176.735l-51.777-51.778L136.533,323.696z"/>
	
		<rect x="259.056" y="98.461" transform="matrix(-0.7071 0.7071 -0.7071 -0.7071 653.5414 -58.5757)" style="fill:#311363;" width="159.691" height="15.209"/>
	
		<rect x="292.57" y="131.981" transform="matrix(-0.7071 0.7071 -0.7071 -0.7071 734.4553 -25.0507)" style="fill:#311363;" width="159.691" height="15.209"/>
	
		<rect x="398.359" y="93.271" transform="matrix(0.7071 0.7071 -0.7071 0.7071 241.3157 -236.3549)" style="fill:#311363;" width="15.209" height="159.691"/>
</g>
<g>
</g>
<g>
</g>
<g>
</g>
<g>
</g>
<g>
</g>
<g>
</g>
<g>
</g>
<g>
</g>
<g>
</g>
<g>
</g>
<g>
</g>
<g>
</g>
<g>
</g>
<g>
</g>
<g>
</g>
</svg>
