<?xml version="1.0" encoding="iso-8859-1"?>
<!-- Generator: Adobe Illustrator 19.0.0, SVG Export Plug-In . SVG Version: 6.00 Build 0)  -->
<svg version="1.1" id="Layer_1" xmlns="http://www.w3.org/2000/svg" xmlns:xlink="http://www.w3.org/1999/xlink" x="0px" y="0px"
	 viewBox="0 0 512 512" style="enable-background:new 0 0 512 512;" xml:space="preserve">
<rect x="7.604" y="7.604" style="fill:#C9D6D6;" width="496.792" height="496.792"/>
<g>
	<path style="fill:#587082;" d="M126.704,476.484c-50.281,0-91.189-40.907-91.189-91.189s40.907-91.19,91.189-91.19
		s91.19,40.908,91.19,91.19C217.894,435.577,176.986,476.484,126.704,476.484z"/>
	<path style="fill:#587082;" d="M385.295,217.894c-50.281,0-91.189-40.907-91.189-91.189s40.907-91.19,91.189-91.19
		s91.19,40.908,91.19,91.19C476.484,176.986,435.577,217.894,385.295,217.894z"/>
	<path style="fill:#587082;" d="M385.295,476.484c-50.281,0-91.189-40.907-91.189-91.189s40.907-91.19,91.189-91.19
		s91.19,40.908,91.19,91.19C476.484,435.577,435.577,476.484,385.295,476.484z"/>
	<path style="fill:#587082;" d="M126.704,217.894c-50.281,0-91.189-40.907-91.189-91.189s40.907-91.19,91.189-91.19
		s91.19,40.908,91.19,91.19C217.894,176.986,176.986,217.894,126.704,217.894z"/>
</g>
<path style="fill:#311363;" d="M0,0v512h223.17v-15.208h-88.861v-12.994c48.426-3.704,87.196-42.474,90.9-90.899h20.598v-15.208
	h-20.598c-3.704-48.426-42.474-87.196-90.9-90.9v-20.598h-15.208v20.598c-48.425,3.704-87.195,42.474-90.899,90.9H15.208V134.309
	h12.994c3.704,48.425,42.474,87.195,90.899,90.899v20.598h15.208v-20.598c48.426-3.704,87.196-42.474,90.9-90.899h20.598v-15.208
	h-20.598c-3.704-48.426-42.474-87.196-90.9-90.9V15.208h243.382v12.994c-48.425,3.704-87.195,42.474-90.899,90.9h-20.598v15.208
	h20.598c3.704,48.425,42.474,87.195,90.899,90.899v20.598h15.208v-20.598c48.426-3.704,87.196-42.474,90.9-90.899h12.994v243.382
	h-12.994c-3.704-48.426-42.474-87.196-90.9-90.9v-20.598h-15.208v20.598c-48.425,3.704-87.195,42.474-90.899,90.9h-20.598V392.9
	h20.598c3.704,48.425,42.474,87.195,90.899,90.899v12.994H243.447V512H512V0H0z M134.308,392.9h45.013
	c-3.344,23.242-21.771,41.669-45.013,45.012V392.9z M119.1,468.519c-40.03-3.629-71.99-35.59-75.619-75.619H119.1V468.519z
	 M134.308,468.519v-15.28c31.639-3.518,56.823-28.701,60.341-60.34h15.28C206.3,432.93,174.339,464.89,134.308,468.519z
	 M209.929,377.692h-75.62v-75.62C174.339,305.701,206.3,337.66,209.929,377.692z M119.1,302.071v75.62H43.481
	C47.11,337.66,79.07,305.701,119.1,302.071z M28.202,392.9c3.704,48.425,42.474,87.195,90.899,90.899v12.994H15.208V392.9H28.202z
	 M119.1,119.101H43.481c3.629-40.03,35.59-71.991,75.619-75.62V119.101z M43.481,134.309H119.1v75.619
	C79.071,206.3,47.11,174.339,43.481,134.309z M134.308,134.309h45.013c-3.344,23.242-21.771,41.669-45.013,45.012V134.309z
	 M134.308,209.928v-15.28c31.639-3.518,56.823-28.701,60.341-60.34h15.28C206.3,174.339,174.339,206.3,134.308,209.928z
	 M209.929,119.101h-75.62V43.48C174.339,47.11,206.3,79.07,209.929,119.101z M119.1,28.202c-48.425,3.704-87.195,42.474-90.899,90.9
	H15.208V15.208H119.1V28.202z M392.899,134.309h45.013c-3.344,23.242-21.771,41.669-45.013,45.012V134.309z M392.899,119.101V43.48
	c40.03,3.629,71.991,35.59,75.62,75.62h-75.62V119.101z M377.691,43.48v75.62h-75.619C305.701,79.07,337.661,47.11,377.691,43.48z
	 M302.072,134.309h75.619v75.619C337.661,206.3,305.701,174.339,302.072,134.309z M392.899,209.928v-15.28
	c31.639-3.518,56.823-28.701,60.341-60.34h15.28C464.89,174.339,432.93,206.3,392.899,209.928z M483.798,119.101
	c-3.704-48.426-42.474-87.196-90.9-90.9V15.208h103.893v103.893H483.798z M392.899,392.9h45.013
	c-3.344,23.242-21.771,41.669-45.013,45.012V392.9z M392.899,453.24c31.639-3.518,56.823-28.701,60.341-60.34h15.28
	c-3.629,40.03-35.59,71.99-75.62,75.619V453.24H392.899z M468.52,377.692H392.9v-75.62C432.93,305.701,464.89,337.66,468.52,377.692
	z M377.691,302.071v75.62h-75.619C305.701,337.66,337.661,305.701,377.691,302.071z M302.072,392.9h75.619v75.619
	C337.661,464.89,305.701,432.929,302.072,392.9z M392.899,496.792v-12.994c48.426-3.704,87.196-42.474,90.9-90.899h12.994v103.892
	H392.899z"/>
<g>
</g>
<g>
</g>
<g>
</g>
<g>
</g>
<g>
</g>
<g>
</g>
<g>
</g>
<g>
</g>
<g>
</g>
<g>
</g>
<g>
</g>
<g>
</g>
<g>
</g>
<g>
</g>
<g>
</g>
</svg>
