<?xml version="1.0" encoding="iso-8859-1"?>
<!-- Generator: Adobe Illustrator 19.0.0, SVG Export Plug-In . SVG Version: 6.00 Build 0)  -->
<svg version="1.1" id="Layer_1" xmlns="http://www.w3.org/2000/svg" xmlns:xlink="http://www.w3.org/1999/xlink" x="0px" y="0px"
	 viewBox="0 0 512 512" style="enable-background:new 0 0 512 512;" xml:space="preserve">
<path style="fill:#C9D6D6;" d="M52.754,121.804v38.694c0,112.247,90.997,203.243,203.246,203.243s203.246-90.995,203.246-203.243
	v-38.694C459.246,121.804,52.754,121.804,52.754,121.804z"/>
<g>
	<rect x="116.684" y="382.359" style="fill:#311363;" width="278.643" height="15.673"/>
	<rect x="228.655" y="197.506" style="fill:#311363;" width="18.64" height="15.673"/>
	<rect x="264.704" y="197.506" style="fill:#311363;" width="18.64" height="15.673"/>
	<rect x="192.606" y="232.165" style="fill:#311363;" width="18.64" height="15.673"/>
	<rect x="228.655" y="232.165" style="fill:#311363;" width="18.64" height="15.673"/>
	<rect x="264.704" y="232.165" style="fill:#311363;" width="18.64" height="15.673"/>
	<rect x="300.763" y="232.165" style="fill:#311363;" width="18.639" height="15.673"/>
	<rect x="192.606" y="266.814" style="fill:#311363;" width="18.64" height="15.673"/>
	<rect x="228.655" y="266.814" style="fill:#311363;" width="18.64" height="15.673"/>
	<rect x="264.704" y="266.814" style="fill:#311363;" width="18.64" height="15.673"/>
	<rect x="300.763" y="266.814" style="fill:#311363;" width="18.639" height="15.673"/>
	<rect x="228.655" y="301.473" style="fill:#311363;" width="18.64" height="15.673"/>
	<rect x="264.704" y="301.473" style="fill:#311363;" width="18.64" height="15.673"/>
	<path style="fill:#311363;" d="M512,185.714h-46.43c0.99-8.271,1.512-16.683,1.512-25.217v-46.53H44.917v46.53
		c0,8.534,0.522,16.945,1.512,25.217H0v15.673h48.906c19.097,96.886,104.69,170.19,207.094,170.19s187.997-73.304,207.094-170.19
		H512V185.714z M451.409,160.499c0,107.747-87.661,195.406-195.41,195.406S60.59,268.246,60.59,160.499v-30.857h390.818v30.857
		H451.409z"/>
</g>
<g>
	<rect x="84.104" y="152.659" style="fill:#FFFFFF;" width="282.028" height="15.673"/>
	<rect x="387.03" y="152.659" style="fill:#FFFFFF;" width="40.876" height="15.673"/>
</g>
<g>
</g>
<g>
</g>
<g>
</g>
<g>
</g>
<g>
</g>
<g>
</g>
<g>
</g>
<g>
</g>
<g>
</g>
<g>
</g>
<g>
</g>
<g>
</g>
<g>
</g>
<g>
</g>
<g>
</g>
</svg>
