<?xml version="1.0" encoding="iso-8859-1"?>
<!-- Generator: Adobe Illustrator 19.0.0, SVG Export Plug-In . SVG Version: 6.00 Build 0)  -->
<svg version="1.1" id="Layer_1" xmlns="http://www.w3.org/2000/svg" xmlns:xlink="http://www.w3.org/1999/xlink" x="0px" y="0px"
	 viewBox="0 0 512.001 512.001" style="enable-background:new 0 0 512.001 512.001;" xml:space="preserve">
<path style="fill:#80D3CF;" d="M7.604,157.24v31.59c0,91.641,74.291,165.931,165.933,165.931s165.932-74.29,165.932-165.931v-31.59
	H7.604z"/>
<path style="fill:#FF6A5E;" d="M488.601,157.24H339.468v31.59h149.133c8.723,0,15.795-7.072,15.795-15.795
	C504.396,164.311,497.324,157.24,488.601,157.24z"/>
<g>
	<rect x="42.057" y="211.644" style="fill:#311363;" width="18.086" height="15.208"/>
	<rect x="77.039" y="211.644" style="fill:#311363;" width="18.085" height="15.208"/>
	<rect x="112.022" y="211.644" style="fill:#311363;" width="18.086" height="15.208"/>
	<rect x="147" y="211.644" style="fill:#311363;" width="18.086" height="15.208"/>
	<rect x="181.988" y="211.644" style="fill:#311363;" width="18.086" height="15.208"/>
	<rect x="216.966" y="211.644" style="fill:#311363;" width="18.086" height="15.208"/>
	<rect x="251.945" y="211.644" style="fill:#311363;" width="18.086" height="15.208"/>
	<rect x="286.933" y="211.644" style="fill:#311363;" width="18.086" height="15.208"/>
	<rect x="59.547" y="244.088" style="fill:#311363;" width="18.086" height="15.208"/>
	<rect x="94.532" y="244.088" style="fill:#311363;" width="18.085" height="15.208"/>
	<rect x="129.511" y="244.088" style="fill:#311363;" width="18.086" height="15.208"/>
	<rect x="164.489" y="244.088" style="fill:#311363;" width="18.086" height="15.208"/>
	<rect x="199.477" y="244.088" style="fill:#311363;" width="18.086" height="15.208"/>
	<rect x="234.455" y="244.088" style="fill:#311363;" width="18.086" height="15.208"/>
	<rect x="269.434" y="244.088" style="fill:#311363;" width="18.086" height="15.208"/>
	<rect x="77.039" y="276.541" style="fill:#311363;" width="18.085" height="15.208"/>
	<rect x="112.022" y="276.541" style="fill:#311363;" width="18.086" height="15.208"/>
	<rect x="147" y="276.541" style="fill:#311363;" width="18.086" height="15.208"/>
	<rect x="181.988" y="276.541" style="fill:#311363;" width="18.086" height="15.208"/>
	<rect x="216.966" y="276.541" style="fill:#311363;" width="18.086" height="15.208"/>
	<rect x="251.945" y="276.541" style="fill:#311363;" width="18.086" height="15.208"/>
	<rect x="129.511" y="308.985" style="fill:#311363;" width="18.086" height="15.208"/>
	<rect x="164.489" y="308.985" style="fill:#311363;" width="18.086" height="15.208"/>
	<rect x="199.477" y="308.985" style="fill:#311363;" width="18.086" height="15.208"/>
	<path style="fill:#311363;" d="M488.601,149.636H347.072h-15.208H94.796v15.208h237.068v16.382h-48.14v15.208h47.954
		c-3.981,83.783-73.389,150.723-158.142,150.723S19.376,280.218,15.394,196.434h248.051v-15.208H15.208v-16.382h59.311v-15.208H0
		v39.194c0,95.687,77.848,173.535,173.537,173.535c93.139,0,169.365-73.758,173.36-165.931h141.705
		c12.902,0,23.399-10.497,23.399-23.399C512.001,160.133,501.504,149.636,488.601,149.636z M488.601,181.226H347.072v-16.382
		h141.529c4.517,0,8.191,3.674,8.191,8.191S493.117,181.226,488.601,181.226z"/>
</g>
<g>
</g>
<g>
</g>
<g>
</g>
<g>
</g>
<g>
</g>
<g>
</g>
<g>
</g>
<g>
</g>
<g>
</g>
<g>
</g>
<g>
</g>
<g>
</g>
<g>
</g>
<g>
</g>
<g>
</g>
</svg>
