<?xml version="1.0" encoding="iso-8859-1"?>
<!-- Generator: Adobe Illustrator 19.0.0, SVG Export Plug-In . SVG Version: 6.00 Build 0)  -->
<svg version="1.1" id="Layer_1" xmlns="http://www.w3.org/2000/svg" xmlns:xlink="http://www.w3.org/1999/xlink" x="0px" y="0px"
	 viewBox="0 0 512 512" style="enable-background:new 0 0 512 512;" xml:space="preserve">
<g>
	<rect x="48.158" y="166.02" style="fill:#FF6A5E;" width="30.416" height="217.98"/>
	<rect x="433.416" y="166.02" style="fill:#FF6A5E;" width="30.416" height="217.98"/>
</g>
<rect x="154.948" y="135.604" style="fill:#34B6D0;" width="202.093" height="145.489"/>
<g>
	<rect x="357.052" y="135.604" style="fill:#FF6A5E;" width="147.344" height="30.416"/>
	<rect x="7.604" y="135.604" style="fill:#FF6A5E;" width="147.344" height="30.416"/>
</g>
<path style="fill:#311363;" d="M512,128H364.651h-15.208H162.556h-15.208H0v45.627h40.559V384h15.208V173.627h15.211V384h15.208
	V173.627h61.163v115.071h217.303V173.627h61.163V384h15.208V173.627h15.211V384h15.208V173.627H512V128z M86.185,158.419H40.559
	H15.208v-15.211h132.141v15.211H86.185z M349.444,243.071h-138.39v15.208h138.39v15.211H162.556v-15.211h28.218v-15.208h-28.218
	v-69.444v-30.419h186.887v30.419L349.444,243.071L349.444,243.071z M496.792,158.419h-25.351h-45.627h-61.163v-15.211h132.141
	V158.419z"/>
<g>
</g>
<g>
</g>
<g>
</g>
<g>
</g>
<g>
</g>
<g>
</g>
<g>
</g>
<g>
</g>
<g>
</g>
<g>
</g>
<g>
</g>
<g>
</g>
<g>
</g>
<g>
</g>
<g>
</g>
</svg>
