<?xml version="1.0" encoding="iso-8859-1"?>
<!-- Generator: Adobe Illustrator 19.0.0, SVG Export Plug-In . SVG Version: 6.00 Build 0)  -->
<svg version="1.1" id="Layer_1" xmlns="http://www.w3.org/2000/svg" xmlns:xlink="http://www.w3.org/1999/xlink" x="0px" y="0px"
	 viewBox="0 0 512 512" style="enable-background:new 0 0 512 512;" xml:space="preserve">
<g>
	<rect x="433.416" y="213.418" style="fill:#FF6A5E;" width="30.416" height="217.98"/>
	<rect x="48.158" y="213.418" style="fill:#FF6A5E;" width="30.416" height="217.98"/>
</g>
<path style="fill:#34B6D0;" d="M340.082,285.716V115.448c0-15.046-12.197-27.241-27.243-27.241H199.162
	c-15.046,0-27.243,12.196-27.243,27.241v170.268H340.082z"/>
<g>
	<rect x="281.347" y="111.018" style="fill:#FFFFFF;" width="28.319" height="15.208"/>
	<polygon style="fill:#FFFFFF;" points="209.939,255.3 194.731,255.3 194.731,111.018 261.069,111.018 261.069,126.226 
		209.939,126.226 	"/>
</g>
<g>
	<rect x="340.08" y="183.002" style="fill:#FF6A5E;" width="164.317" height="30.416"/>
	<rect x="7.604" y="183.002" style="fill:#FF6A5E;" width="164.317" height="30.416"/>
</g>
<path style="fill:#311363;" d="M512,175.398H347.686v-59.951c0-19.214-15.632-34.845-34.847-34.845H199.162
	c-19.215,0-34.847,15.632-34.847,34.845v59.951H0v45.627h40.559v210.373h15.208V221.025h15.211v210.373h15.208V221.025h78.13v57.087
	h-17.247v15.208h17.247v138.078h15.208v-65.237h152.954v65.237h15.208V293.32h17.246v-15.208h-17.246v-57.088h78.129v210.373h15.208
	V221.025h15.211v210.373h15.208V221.025H512V175.398z M86.185,205.817H40.559H15.208v-15.211h149.108v15.211H86.185z
	 M332.478,350.953H179.523V293.32h152.954V350.953z M332.478,278.112H179.523v-57.088v-45.627v-59.951
	c0-10.829,8.809-19.637,19.64-19.637h113.676c10.829,0,19.64,8.808,19.64,19.637v59.951v45.627v57.088H332.478z M496.792,205.817
	h-25.351h-45.627h-78.129v-15.211h149.107V205.817z"/>
<g>
</g>
<g>
</g>
<g>
</g>
<g>
</g>
<g>
</g>
<g>
</g>
<g>
</g>
<g>
</g>
<g>
</g>
<g>
</g>
<g>
</g>
<g>
</g>
<g>
</g>
<g>
</g>
<g>
</g>
</svg>
