<?xml version="1.0" encoding="iso-8859-1"?>
<!-- Generator: Adobe Illustrator 19.0.0, SVG Export Plug-In . SVG Version: 6.00 Build 0)  -->
<svg version="1.1" id="Layer_1" xmlns="http://www.w3.org/2000/svg" xmlns:xlink="http://www.w3.org/1999/xlink" x="0px" y="0px"
	 viewBox="0 0 512 512" style="enable-background:new 0 0 512 512;" xml:space="preserve">
<polygon style="fill:#F59D40;" points="7.605,182.484 7.605,452.834 39.913,452.834 39.913,489.316 472.088,489.316 
	472.088,452.834 504.396,452.834 504.396,182.484 "/>
<rect x="7.604" y="146.129" style="fill:#FF6A5E;" width="496.791" height="36.354"/>
<rect x="219.643" y="109.772" style="fill:#80D3CF;" width="72.714" height="36.354"/>
<g>
	<polygon style="fill:#311363;" points="313.453,380.713 313.453,365.505 299.958,365.505 299.958,269.811 313.453,269.811 
		313.453,254.603 284.751,254.603 284.751,380.713 	"/>
	<polygon style="fill:#311363;" points="227.249,254.603 198.547,254.603 198.547,269.811 212.042,269.811 212.042,365.505 
		198.547,365.505 198.547,380.713 227.249,380.713 	"/>
	<path style="fill:#311363;" d="M299.958,138.525v-36.354h-36.354V56.018c0-14.187,11.542-25.729,25.729-25.729
		s25.729,11.542,25.729,25.729h15.208c0-22.573-18.364-40.937-40.937-40.937s-40.937,18.364-40.937,40.937v46.152h-36.355v36.354H0
		v51.562h0.001v270.35h32.308v36.483h447.384v-36.483H512V190.088V174.88v-36.355H299.958z M284.751,117.379v21.146h-21.146v-21.146
		H284.751z M227.249,117.379h21.147v21.146h-21.147V117.379z M47.517,481.712v-21.275h48.472V445.23H47.517h-7.604H15.209V190.088
		h233.188V445.23H116.267v15.208h348.217v21.275L47.517,481.712L47.517,481.712z M496.792,445.23h-24.704h-7.604h-200.88V190.088
		h233.188V445.23z M15.208,174.88v-21.147h196.834h87.918h196.834v21.146H15.208V174.88z"/>
</g>
<rect x="466.375" y="215.102" style="fill:#FFFFFF;" width="15.208" height="205.114"/>
<g>
</g>
<g>
</g>
<g>
</g>
<g>
</g>
<g>
</g>
<g>
</g>
<g>
</g>
<g>
</g>
<g>
</g>
<g>
</g>
<g>
</g>
<g>
</g>
<g>
</g>
<g>
</g>
<g>
</g>
</svg>
