<?xml version="1.0" encoding="iso-8859-1"?>
<!-- Generator: Adobe Illustrator 19.0.0, SVG Export Plug-In . SVG Version: 6.00 Build 0)  -->
<svg version="1.1" id="Layer_1" xmlns="http://www.w3.org/2000/svg" xmlns:xlink="http://www.w3.org/1999/xlink" x="0px" y="0px"
	 viewBox="0 0 512 512" style="enable-background:new 0 0 512 512;" xml:space="preserve">
<g>
	<path style="fill:#C9D6D6;" d="M224.708,133.326c0-69.433,56.288-125.722,125.723-125.722s125.723,56.289,125.723,125.722h-54.995
		c0-38.999-31.729-70.727-70.728-70.727s-70.728,31.728-70.728,70.727v371.07h-54.995V133.326z"/>
	<path style="fill:#C9D6D6;" d="M395.806,369.658h-67.827c-9.871,0-17.873,8.002-17.873,17.873v116.865h103.574V387.531
		C413.679,377.66,405.677,369.658,395.806,369.658z"/>
	<path style="fill:#C9D6D6;" d="M176.418,369.658h-67.827c-9.871,0-17.873,8.002-17.873,17.873v116.865h103.574V387.531
		C194.292,377.66,186.29,369.658,176.418,369.658z"/>
	<path style="fill:#C9D6D6;" d="M409.073,179.622c0,7.28,5.901,13.18,13.18,13.18h52.805c7.28,0,13.18-5.901,13.18-13.18v-33.116
		c0-7.28-5.901-13.18-13.18-13.18h-52.805c-7.28,0-13.18,5.901-13.18,13.18V179.622z"/>
</g>
<g>
	<path style="fill:#34B6D0;" d="M448.655,223.221c0,0-19.27,18.174-19.27,36.661c0,10.643,8.628,19.27,19.27,19.27
		c10.644,0,19.271-8.628,19.271-19.27C467.927,241.395,448.655,223.221,448.655,223.221z"/>
	<path style="fill:#34B6D0;" d="M448.655,309.568c0,0-19.27,18.174-19.27,36.661c0,10.643,8.628,19.27,19.27,19.27
		c10.644,0,19.271-8.628,19.271-19.27C467.927,327.743,448.655,309.568,448.655,309.568z"/>
</g>
<g>
	<rect x="117.639" y="434.784" style="fill:#FFFFFF;" width="15.208" height="45.725"/>
	<rect x="152.161" y="434.784" style="fill:#FFFFFF;" width="15.208" height="45.725"/>
	<rect x="337.028" y="434.784" style="fill:#FFFFFF;" width="15.208" height="45.725"/>
	<rect x="371.55" y="434.784" style="fill:#FFFFFF;" width="15.208" height="45.725"/>
</g>
<g>
	<path style="fill:#311363;" d="M483.627,127.592C480.611,56.727,422.025,0,350.431,0c-73.517,0-133.327,59.81-133.327,133.326
		v158.16h15.208v-158.16c0-65.13,52.987-118.118,118.119-118.118c62.575,0,113.942,48.916,117.877,110.514h-39.912
		c-3.835-39.637-37.339-70.727-77.965-70.727c-43.193,0-78.332,35.139-78.332,78.331v363.466h-39.787V311.765h-15.208v185.027
		h-15.208V387.531c0-14.048-11.429-25.477-25.477-25.477h-67.827c-14.048,0-25.477,11.429-25.477,25.477v109.261H16.158V512h66.955
		h118.782h15.208h70.203H302.5h118.782h66.955v-15.208h-66.955V387.531c0-14.048-11.429-25.477-25.477-25.477h-67.827
		c-14.048,0-25.477,11.429-25.477,25.477v109.261h-15.194V133.326c0-34.806,28.317-63.123,63.124-63.123
		c32.936,0,60.046,25.361,62.866,57.577c-6.982,3.354-11.828,10.476-11.828,18.726v33.116c0,11.461,9.323,20.784,20.784,20.784
		h52.805c11.461,0,20.784-9.323,20.784-20.784v-33.116C495.843,138.102,490.82,130.864,483.627,127.592z M108.591,377.262h67.827
		c5.662,0,10.269,4.607,10.269,10.269v15.774H98.322v-15.774C98.322,381.869,102.929,377.262,108.591,377.262z M98.322,496.792
		v-78.279h88.366v78.279H98.322z M327.979,377.262h67.827c5.662,0,10.269,4.607,10.269,10.269v15.774h-88.366v-15.774
		C317.709,381.869,322.316,377.262,327.979,377.262z M317.709,418.513h88.366v78.279h-88.366V418.513z M475.058,140.93
		c3.075,0,5.576,2.501,5.576,5.576v8.954h-63.957v-8.954c0-3.075,2.501-5.576,5.576-5.576H475.058z M475.058,185.198h-52.805
		c-3.075,0-5.576-2.501-5.576-5.576v-8.954h63.957v8.954C480.635,182.697,478.134,185.198,475.058,185.198z"/>
	<path style="fill:#311363;" d="M453.873,217.688l-5.217-4.92l-5.217,4.92c-0.884,0.833-21.657,20.673-21.657,42.193
		c0,14.819,12.056,26.874,26.874,26.874c14.82,0,26.875-12.056,26.875-26.874C475.531,238.362,454.757,218.523,453.873,217.688z
		 M448.655,271.549c-6.433,0-11.666-5.234-11.666-11.667c0-8.958,6.374-18.908,11.678-25.415c5.3,6.486,11.656,16.407,11.656,25.415
		C460.323,266.315,455.088,271.549,448.655,271.549z"/>
	<path style="fill:#311363;" d="M453.873,304.036l-5.217-4.92l-5.217,4.92c-0.884,0.833-21.657,20.673-21.657,42.193
		c0,14.819,12.056,26.874,26.874,26.874c14.82,0,26.875-12.056,26.875-26.874C475.531,324.709,454.757,304.87,453.873,304.036z
		 M448.655,357.896c-6.433,0-11.666-5.234-11.666-11.667c0-8.958,6.374-18.909,11.678-25.415c5.3,6.486,11.656,16.407,11.656,25.415
		C460.323,352.663,455.088,357.896,448.655,357.896z"/>
</g>
<g>
</g>
<g>
</g>
<g>
</g>
<g>
</g>
<g>
</g>
<g>
</g>
<g>
</g>
<g>
</g>
<g>
</g>
<g>
</g>
<g>
</g>
<g>
</g>
<g>
</g>
<g>
</g>
<g>
</g>
</svg>
