<?xml version="1.0" encoding="iso-8859-1"?>
<!-- Generator: Adobe Illustrator 19.0.0, SVG Export Plug-In . SVG Version: 6.00 Build 0)  -->
<svg version="1.1" id="Layer_1" xmlns="http://www.w3.org/2000/svg" xmlns:xlink="http://www.w3.org/1999/xlink" x="0px" y="0px"
	 viewBox="0 0 512.001 512.001" style="enable-background:new 0 0 512.001 512.001;" xml:space="preserve">
<path style="fill:#FF6A5E;" d="M7.604,38.595v357.827c0,42.516,34.467,76.985,76.984,76.985h202.721
	c42.516,0,76.985-34.467,76.985-76.985V38.595H7.604z"/>
<g>
	<path style="fill:#34B6D0;" d="M419.138,124.46h-54.847v40.554h54.847c24.65,0,44.703,20.053,44.703,44.703v92.565
		c0,24.65-20.053,44.703-44.703,44.703h-54.847v40.554h54.847c47.087,0,85.258-38.171,85.258-85.258v-92.564
		C504.396,162.631,466.226,124.46,419.138,124.46z"/>
	<path style="fill:#34B6D0;" d="M251.169,190.779c0,0-69.469-24.569-112.239,18.202c-42.772,42.771-18.203,112.238-18.203,112.238
		s69.469,24.569,112.24-18.202C275.738,260.247,251.169,190.779,251.169,190.779z"/>
</g>
<g>
	<path style="fill:#311363;" d="M45.624,396.421V159.683H30.416v236.739c0,29.87,24.301,54.173,54.172,54.173h65.971v-15.208H84.587
		C63.103,435.386,45.624,417.907,45.624,396.421z"/>
	<path style="fill:#311363;" d="M419.138,116.856h-47.243V30.991H104.934v15.208h251.755V61.41H15.208V46.199h69.446V30.991H0
		v365.431c0,46.642,37.946,84.589,84.587,84.589h202.721c46.642,0,84.589-37.946,84.589-84.589v-1.278h47.243
		c51.204,0,92.862-41.658,92.862-92.862v-92.565C512,158.513,470.342,116.856,419.138,116.856z M356.689,396.421
		c0,38.256-31.124,69.381-69.381,69.381H84.587c-38.256,0-69.38-31.124-69.38-69.381V76.618h341.481v40.238v55.762V339.38v55.762
		V396.421z M371.897,172.618h47.243c20.457,0,37.099,16.643,37.099,37.099v92.565c0,20.457-16.643,37.099-37.099,37.099h-47.243
		V172.618z M496.792,302.282c0,42.818-34.835,77.654-77.654,77.654h-47.243v-25.347h47.243c28.842,0,52.307-23.465,52.307-52.307
		v-92.564c0-28.842-23.465-52.307-52.307-52.307h-47.243v-25.347h47.243c42.817,0,77.654,34.835,77.654,77.654L496.792,302.282
		L496.792,302.282z"/>
	<path style="fill:#311363;" d="M265.707,230.594c-0.827-23.61-7.102-41.595-7.369-42.349l-1.211-3.423l-3.423-1.211
		c-0.862-0.304-21.389-7.458-47.41-7.458c-29.629,0-54.782,9.493-72.742,27.452c-19.018,19.017-28.479,45.92-27.362,77.801
		c0.826,23.61,7.101,41.595,7.368,42.349l1.211,3.423l3.424,1.211c0.861,0.304,21.388,7.457,47.409,7.458c0.002,0,0.003,0,0.004,0
		c29.627,0,54.779-9.493,72.738-27.452C257.362,289.376,266.824,262.474,265.707,230.594z M159.576,271.619l0.001-68.961
		c8.402-4.85,17.908-8.156,28.476-9.88l-0.001,50.365L159.576,271.619z M198.805,253.896h50.313
		c-1.578,9.595-4.609,19.356-9.848,28.477l-68.943-0.001L198.805,253.896z M214.014,238.688l33.223-33.223
		c1.796,8.312,3.604,20.158,3.281,33.223H214.014z M236.486,194.708l-33.226,33.226l0.001-36.516
		c1.008-0.024,2.01-0.058,3.034-0.058C218.127,191.361,228.808,193.044,236.486,194.708z M144.308,214.359
		c0.019-0.02,0.041-0.038,0.06-0.057l-0.001,72.525l-19.707,19.707C120.182,285.803,115.601,243.065,144.308,214.359z
		 M165.602,320.638c-11.832,0-22.514-1.683-30.191-3.348l19.709-19.709l72.527,0.001c-0.019,0.019-0.038,0.04-0.058,0.059
		C212.33,312.902,191.473,320.639,165.602,320.638z"/>
	<path style="fill:#311363;" d="M280.96,160.988l-17.117-6.053c-2.663-0.942-26.908-9.198-57.549-9.198v15.208
		c28.106,0,50.07,7.476,52.479,8.328l10.269,3.632l3.633,10.269c0.317,0.899,7.794,22.338,8.24,49.985
		c0.571,35.374-10.134,64.304-31.819,85.989l10.754,10.753c59.047-59.048,28.492-148.04,27.162-151.799L280.96,160.988z"/>
</g>
<g>
</g>
<g>
</g>
<g>
</g>
<g>
</g>
<g>
</g>
<g>
</g>
<g>
</g>
<g>
</g>
<g>
</g>
<g>
</g>
<g>
</g>
<g>
</g>
<g>
</g>
<g>
</g>
<g>
</g>
</svg>
