<?xml version="1.0" encoding="iso-8859-1"?>
<!-- Generator: Adobe Illustrator 19.0.0, SVG Export Plug-In . SVG Version: 6.00 Build 0)  -->
<svg version="1.1" id="Layer_1" xmlns="http://www.w3.org/2000/svg" xmlns:xlink="http://www.w3.org/1999/xlink" x="0px" y="0px"
	 viewBox="0 0 512.001 512.001" style="enable-background:new 0 0 512.001 512.001;" xml:space="preserve">
<path style="fill:#34B6D0;" d="M316.59,116.573V39.854c0-17.812-14.438-32.25-32.25-32.25H227.66
	c-17.811,0-32.25,14.437-32.25,32.25v76.719c-22.085,0-39.99,17.904-39.99,39.99v307.845c0,22.085,17.905,39.989,39.99,39.989
	h121.18c22.085,0,39.99-17.904,39.99-39.989v-86.785v-20.277V156.563C356.58,134.477,338.675,116.573,316.59,116.573z"/>
<path style="fill:#FFFFFF;" d="M333.768,326.573H318.56V164.987c0-7.718-1.527-9.993-1.854-10.391
	c-0.03-0.002-0.069-0.004-0.116-0.004h-34.23v-15.208h34.23c5.54,0,10.236,2.644,13.224,7.448c2.66,4.279,3.954,10.217,3.954,18.155
	V326.573z"/>
<path style="fill:#80D3CF;" d="M316.59,116.573V39.854c0-17.812-14.438-32.25-32.25-32.25H227.66
	c-17.811,0-32.25,14.437-32.25,32.25v76.719H316.59z"/>
<path style="fill:#311363;" d="M324.194,109.575V93.761h7.957c17.663,0,32.034-14.369,32.034-32.033s-14.37-32.033-32.034-32.033
	h-9.273C318.374,12.625,302.806,0,284.34,0H227.66c-21.975,0-39.854,17.878-39.854,39.854v69.722
	c-22.643,3.651-39.99,23.331-39.99,46.987v307.845c0,26.243,21.351,47.593,47.594,47.593h121.18
	c26.244,0,47.594-21.351,47.594-47.593V156.563C364.184,132.906,346.837,113.226,324.194,109.575z M348.976,61.728
	c0,9.277-7.547,16.825-16.826,16.825h-7.957v-33.65h7.957C341.429,44.903,348.976,52.45,348.976,61.728z M227.66,15.208h56.681
	c12.977,0,23.636,10.085,24.571,22.828l0.003,0.043c0.014,0.205,0.029,0.41,0.042,0.615c0.018,0.385,0.029,0.771,0.029,1.16v38.699
	H203.014V39.854C203.014,26.264,214.071,15.208,227.66,15.208z M348.976,464.407c0,15.238-10.583,28.044-24.782,31.475V480.57
	h-15.208v16.222h-15.087V480.57h-15.208v16.222h-15.087V480.57h-15.208v16.222h-15.087V480.57h-15.208v16.222h-15.087V480.57
	h-15.208v15.312c-14.199-3.431-24.782-16.237-24.782-31.475V156.563c0-17.857,14.529-32.386,32.386-32.386h7.604h30.088v-15.208
	h-30.088V93.761h105.972v15.208h-55.607v15.208h55.607h7.604c17.857,0,32.386,14.529,32.386,32.386L348.976,464.407L348.976,464.407
	z"/>
<g>
</g>
<g>
</g>
<g>
</g>
<g>
</g>
<g>
</g>
<g>
</g>
<g>
</g>
<g>
</g>
<g>
</g>
<g>
</g>
<g>
</g>
<g>
</g>
<g>
</g>
<g>
</g>
<g>
</g>
</svg>
