<?xml version="1.0" encoding="iso-8859-1"?>
<!-- Generator: Adobe Illustrator 19.0.0, SVG Export Plug-In . SVG Version: 6.00 Build 0)  -->
<svg version="1.1" id="Layer_1" xmlns="http://www.w3.org/2000/svg" xmlns:xlink="http://www.w3.org/1999/xlink" x="0px" y="0px"
	 viewBox="0 0 511.999 511.999" style="enable-background:new 0 0 511.999 511.999;" xml:space="preserve">
<path style="fill:#80D3CF;" d="M256.116,7.604c-103.648,0-187.687,155.854-187.687,325.914l0,0
	c0,66.017,33.003,131.229,82.849,170.878h209.678c49.846-39.649,82.618-104.862,82.618-170.878l0,0
	C443.571,163.458,359.775,7.604,256.116,7.604z"/>
<g>
	<path style="fill:#FFFFFF;" d="M392.276,221.394c-5.901-24.373-13.622-47.407-22.949-68.461l13.905-6.16
		c9.696,21.885,17.711,45.788,23.826,71.043L392.276,221.394z"/>
	<path style="fill:#FFFFFF;" d="M360.768,135.05c-1.684-3.259-3.427-6.491-5.183-9.609c-14.619-25.965-31.785-46.955-49.641-60.701
		c-16.478-12.684-33.243-19.116-49.829-19.116V30.416c20.02,0,39.906,7.494,59.106,22.274c19.463,14.982,38.003,37.56,53.616,65.291
		c1.844,3.275,3.675,6.669,5.441,10.088L360.768,135.05z"/>
</g>
<circle style="fill:#FF6A5E;" cx="256.112" cy="382.276" r="18.341"/>
<path style="fill:#FFFFFF;" d="M256.116,438.641c-31.078,0-56.362-25.284-56.362-56.362h15.208
	c0,22.692,18.461,41.154,41.154,41.154s41.154-18.461,41.154-41.154h15.208C312.478,413.357,287.195,438.641,256.116,438.641z"/>
<g>
	<rect x="101.609" y="286.416" style="fill:#311363;" width="15.208" height="19.724"/>
	<rect x="134.286" y="286.416" style="fill:#311363;" width="15.208" height="19.724"/>
	<rect x="166.953" y="286.416" style="fill:#311363;" width="15.208" height="19.724"/>
	<rect x="199.619" y="286.416" style="fill:#311363;" width="15.208" height="19.723"/>
	<rect x="232.296" y="286.416" style="fill:#311363;" width="15.208" height="19.725"/>
	<rect x="264.963" y="286.416" style="fill:#311363;" width="15.208" height="19.725"/>
	<rect x="297.629" y="286.416" style="fill:#311363;" width="15.208" height="19.723"/>
	<rect x="330.306" y="286.416" style="fill:#311363;" width="15.208" height="19.724"/>
	<rect x="362.973" y="286.416" style="fill:#311363;" width="15.208" height="19.723"/>
	<rect x="395.639" y="286.416" style="fill:#311363;" width="15.208" height="19.724"/>
	<path style="fill:#311363;" d="M256.116,356.333c-14.307,0-25.946,11.639-25.946,25.947c0,14.306,11.639,25.946,25.946,25.946
		s25.946-11.639,25.946-25.946C282.062,367.972,270.423,356.333,256.116,356.333z M256.116,393.017
		c-5.921,0-10.738-4.817-10.738-10.738c0-5.922,4.817-10.739,10.738-10.739c5.921,0,10.738,4.817,10.738,10.739
		C266.854,388.2,262.037,393.017,256.116,393.017z"/>
	<path style="fill:#311363;" d="M451.146,324.901h-0.048c-1.346-80.581-21.495-160.991-55.756-221.844
		c-17.854-31.711-38.569-56.766-61.567-74.469C309.132,9.619,283.004,0,256.116,0c-26.887,0-53.024,9.617-77.688,28.586
		c-23.023,17.705-43.763,42.76-61.647,74.466C82.444,163.93,62.251,244.344,60.902,324.9h-0.048l-0.03,8.618
		c0,12.566,1.155,25.157,3.379,37.6c9.271,51.846,37.122,101.12,77.442,135.211c1.613,1.364,3.245,2.703,4.898,4.017l2.078,1.654
		h214.988l2.078-1.654c52.731-41.942,85.488-109.699,85.488-176.828L451.146,324.901z M153.961,496.792
		c-1.478-1.208-2.937-2.439-4.381-3.69c-0.478-0.414-0.943-0.842-1.416-1.261c-0.958-0.847-1.918-1.69-2.86-2.556
		c-0.56-0.513-1.105-1.042-1.659-1.562c-0.839-0.788-1.682-1.571-2.507-2.373c-0.588-0.571-1.163-1.158-1.744-1.736
		c-0.774-0.77-1.551-1.536-2.313-2.318c-0.594-0.61-1.174-1.233-1.761-1.851c-0.731-0.77-1.465-1.536-2.185-2.318
		c-0.59-0.641-1.168-1.294-1.75-1.942c-0.697-0.776-1.396-1.548-2.081-2.334c-0.583-0.668-1.154-1.347-1.728-2.024
		c-0.665-0.783-1.333-1.564-1.987-2.357c-0.572-0.692-1.131-1.394-1.694-2.094c-0.639-0.794-1.277-1.587-1.904-2.389
		c-0.557-0.714-1.104-1.435-1.652-2.155c-0.612-0.805-1.225-1.61-1.827-2.424c-0.542-0.734-1.075-1.475-1.608-2.215
		c-0.587-0.815-1.173-1.632-1.749-2.456c-0.526-0.752-1.043-1.511-1.559-2.27c-0.563-0.827-1.123-1.656-1.675-2.491
		c-0.508-0.77-1.009-1.544-1.508-2.321c-0.538-0.838-1.074-1.68-1.601-2.526c-0.489-0.785-0.971-1.574-1.451-2.364
		c-0.515-0.851-1.026-1.704-1.53-2.562c-0.47-0.8-0.935-1.603-1.394-2.409c-0.491-0.861-0.976-1.725-1.456-2.591
		c-0.45-0.814-0.896-1.631-1.336-2.452c-0.467-0.872-0.929-1.748-1.385-2.626c-0.429-0.826-0.855-1.654-1.272-2.485
		c-0.445-0.884-0.882-1.772-1.315-2.661c-0.408-0.836-0.812-1.674-1.209-2.516c-0.422-0.894-0.833-1.793-1.242-2.692
		c-0.385-0.848-0.77-1.695-1.145-2.548c-0.398-0.906-0.786-1.817-1.172-2.727c-0.362-0.854-0.724-1.708-1.075-2.566
		c-0.376-0.92-0.739-1.843-1.102-2.767c-0.338-0.86-0.677-1.718-1.005-2.582c-0.353-0.932-0.691-1.87-1.032-2.806
		c-0.313-0.863-0.63-1.725-0.932-2.591c-0.331-0.948-0.645-1.9-0.962-2.852c-0.288-0.864-0.58-1.726-0.857-2.592
		c-0.308-0.964-0.598-1.933-0.893-2.901c-0.262-0.861-0.529-1.721-0.78-2.583c-0.286-0.986-0.554-1.977-0.825-2.968
		c-0.234-0.852-0.476-1.701-0.699-2.555c-0.266-1.017-0.511-2.04-0.762-3.061c-0.204-0.831-0.418-1.661-0.612-2.494
		c-0.248-1.068-0.474-2.139-0.706-3.21c-0.171-0.793-0.354-1.583-0.516-2.376c-0.24-1.178-0.456-2.36-0.676-3.541
		c-0.129-0.689-0.27-1.377-0.391-2.067c-0.298-1.694-0.57-3.392-0.824-5.092c-0.027-0.179-0.06-0.359-0.087-0.538
		c-0.277-1.879-0.526-3.759-0.75-5.642c-0.075-0.629-0.13-1.258-0.199-1.888c-0.138-1.258-0.279-2.517-0.392-3.778
		c-0.067-0.745-0.114-1.492-0.172-2.239c-0.09-1.146-0.186-2.292-0.257-3.439c-0.049-0.792-0.077-1.584-0.116-2.375
		c-0.048-0.961-0.096-1.922-0.13-2.884h55.592v-15.208H76.114c1.342-78.007,20.818-155.699,53.914-214.377
		c16.875-29.918,36.278-53.429,57.671-69.883c21.943-16.875,44.962-25.431,68.416-25.431c23.454,0,46.461,8.556,68.383,25.431
		c21.369,16.45,40.745,39.96,57.591,69.88c33.025,58.655,52.458,136.348,53.798,214.382h-283.86v15.208h283.817
		c-0.032,0.947-0.081,1.893-0.127,2.839c-0.04,0.815-0.068,1.629-0.118,2.443c-0.069,1.124-0.162,2.247-0.249,3.37
		c-0.06,0.771-0.108,1.542-0.177,2.314c-0.111,1.229-0.247,2.456-0.38,3.683c-0.02,0.188-0.039,0.374-0.059,0.561H334.184v15.208
		h98.274c-0.195,1.037-0.381,2.075-0.591,3.109c-0.166,0.816-0.353,1.627-0.528,2.441c-0.227,1.051-0.447,2.104-0.69,3.151
		c-0.197,0.85-0.414,1.694-0.621,2.542c-0.246,1.006-0.487,2.012-0.748,3.016c-0.226,0.867-0.47,1.731-0.708,2.595
		c-0.268,0.978-0.531,1.959-0.813,2.933c-0.251,0.871-0.52,1.737-0.784,2.605c-0.292,0.963-0.58,1.926-0.885,2.886
		c-0.278,0.873-0.571,1.741-0.86,2.611c-0.314,0.945-0.626,1.891-0.953,2.833c-0.304,0.874-0.621,1.744-0.937,2.614
		c-0.337,0.931-0.672,1.861-1.022,2.787c-0.328,0.87-0.669,1.736-1.009,2.602c-0.36,0.918-0.719,1.835-1.091,2.748
		c-0.352,0.864-0.715,1.723-1.078,2.582c-0.383,0.908-0.768,1.816-1.164,2.718c-0.374,0.854-0.758,1.703-1.143,2.552
		c-0.407,0.897-0.816,1.795-1.236,2.686c-0.397,0.845-0.803,1.687-1.211,2.527c-0.43,0.886-0.863,1.769-1.305,2.648
		c-0.42,0.835-0.846,1.668-1.275,2.497c-0.453,0.874-0.91,1.746-1.375,2.614c-0.441,0.823-0.887,1.643-1.337,2.461
		c-0.477,0.864-0.958,1.724-1.446,2.58c-0.46,0.809-0.926,1.616-1.396,2.419c-0.5,0.854-1.008,1.703-1.519,2.55
		c-0.48,0.794-0.963,1.586-1.453,2.373c-0.524,0.844-1.056,1.681-1.592,2.515c-0.499,0.779-1,1.555-1.508,2.327
		c-0.547,0.831-1.104,1.657-1.664,2.48c-0.517,0.761-1.034,1.523-1.56,2.278c-0.571,0.819-1.153,1.63-1.735,2.442
		c-0.534,0.744-1.069,1.489-1.613,2.226c-0.596,0.808-1.202,1.607-1.81,2.407c-0.549,0.724-1.098,1.45-1.657,2.167
		c-0.623,0.799-1.257,1.587-1.891,2.376c-0.564,0.702-1.124,1.405-1.696,2.1c-0.65,0.789-1.313,1.567-1.975,2.346
		c-0.575,0.677-1.147,1.359-1.73,2.029c-0.679,0.781-1.373,1.548-2.064,2.319c-0.584,0.651-1.163,1.307-1.755,1.95
		c-0.715,0.778-1.445,1.541-2.172,2.307c-0.586,0.618-1.167,1.242-1.761,1.853c-0.759,0.782-1.535,1.545-2.307,2.315
		c-0.579,0.577-1.152,1.161-1.738,1.732c-0.821,0.798-1.659,1.579-2.493,2.362c-0.555,0.521-1.101,1.051-1.662,1.566
		c-0.938,0.862-1.893,1.702-2.847,2.546c-0.473,0.419-0.938,0.847-1.414,1.261c-1.439,1.247-2.895,2.476-4.368,3.68L153.961,496.792
		L153.961,496.792z"/>
</g>
<g>
</g>
<g>
</g>
<g>
</g>
<g>
</g>
<g>
</g>
<g>
</g>
<g>
</g>
<g>
</g>
<g>
</g>
<g>
</g>
<g>
</g>
<g>
</g>
<g>
</g>
<g>
</g>
<g>
</g>
</svg>
