<?xml version="1.0" encoding="iso-8859-1"?>
<!-- Generator: Adobe Illustrator 19.0.0, SVG Export Plug-In . SVG Version: 6.00 Build 0)  -->
<svg version="1.1" id="Layer_1" xmlns="http://www.w3.org/2000/svg" xmlns:xlink="http://www.w3.org/1999/xlink" x="0px" y="0px"
	 viewBox="0 0 512 512" style="enable-background:new 0 0 512 512;" xml:space="preserve">
<path style="fill:#FF6A5E;" d="M73.354,87.821C32.555,132.095,7.604,191.189,7.604,256v248.396h496.791V256
	c0-136.967-111.428-248.396-248.395-248.396c-64.876,0-124.023,25.001-168.312,65.873L73.354,87.821z"/>
<path style="fill:#34B6D0;" d="M388.301,402.617c-35.049,31.658-81.464,50.958-132.301,50.958
	c-108.942,0-197.574-88.632-197.574-197.574S147.058,58.426,256.001,58.426S453.575,147.058,453.575,256
	c0,50.825-19.29,97.228-50.934,132.275L388.301,402.617z"/>
<circle style="fill:#80D3CF;" cx="255.999" cy="256" r="167.155"/>
<circle style="fill:#FF6A5E;" cx="255.999" cy="256" r="26.533"/>
<g>
	<path style="fill:#311363;" d="M256.001,0c-64.426,0-126.032,24.11-173.47,67.889l10.314,11.176
		c44.62-41.179,102.564-63.857,163.156-63.857c132.773,0,240.791,108.019,240.791,240.792v240.792H15.208V256
		c0-60.527,22.636-118.424,63.738-163.027L67.764,82.668C24.066,130.087,0.001,191.643,0.001,256v256H512V256
		C511.998,114.841,397.158,0,256.001,0z"/>
	<path style="fill:#311363;" d="M461.178,256c0-113.136-92.042-205.178-205.178-205.178S50.822,142.864,50.822,256
		s92.042,205.178,205.178,205.178c50.82,0,99.616-18.793,137.397-52.918l-10.194-11.285
		c-34.981,31.595-80.157,48.996-127.203,48.996c-104.749,0-189.97-85.221-189.97-189.97s85.22-189.97,189.97-189.97
		s189.97,85.221,189.97,189.97c0,47.036-17.393,92.202-48.975,127.179l11.287,10.192C442.393,355.594,461.178,306.808,461.178,256z"
		/>
	<path style="fill:#311363;" d="M256.001,81.238c-96.363,0-174.762,78.398-174.762,174.762s78.398,174.762,174.762,174.762
		S430.762,352.365,430.762,256S352.364,81.238,256.001,81.238z M256.001,415.554c-87.978,0-159.554-71.577-159.554-159.554
		S168.022,96.446,256.001,96.446S415.555,168.022,415.555,256S343.979,415.554,256.001,415.554z"/>
	<rect x="248.396" y="362.932" style="fill:#311363;" width="15.208" height="29.81"/>
	
		<rect x="194.465" y="135.837" transform="matrix(-0.3827 -0.9239 0.9239 -0.3827 156.9726 391.7669)" style="fill:#311363;" width="29.81" height="15.208"/>
	
		<rect x="287.72" y="360.94" transform="matrix(0.3827 0.9239 -0.9239 0.3827 527.3026 -52.0825)" style="fill:#311363;" width="29.81" height="15.207"/>
	
		<rect x="154.946" y="162.247" transform="matrix(0.7071 0.7071 -0.7071 0.7071 169.8507 -70.3547)" style="fill:#311363;" width="29.809" height="15.208"/>
	
		<rect x="327.241" y="334.553" transform="matrix(0.7071 0.7071 -0.7071 0.7071 342.1537 -141.7185)" style="fill:#311363;" width="29.81" height="15.208"/>
	
		<rect x="128.539" y="201.775" transform="matrix(-0.9239 -0.3827 0.3827 -0.9239 195.8402 457.7124)" style="fill:#311363;" width="29.809" height="15.207"/>
	
		<rect x="353.657" y="295.01" transform="matrix(0.9239 0.3827 -0.3827 0.9239 143.8634 -118.0095)" style="fill:#311363;" width="29.811" height="15.207"/>
	<rect x="119.26" y="248.396" style="fill:#311363;" width="29.809" height="15.208"/>
	<path style="fill:#311363;" d="M289.273,248.397c-2.908-12.728-12.942-22.763-25.67-25.67v-73.655v-29.812h-15.208v29.811v73.655
		c-15.174,3.466-26.534,17.063-26.534,33.273c0,18.823,15.313,34.138,34.138,34.138c16.209,0,29.806-11.359,33.273-26.533h73.656
		h29.811v-15.208h-29.811h-73.655V248.397z M256.001,274.93c-10.438,0-18.93-8.492-18.93-18.93c0-10.438,8.492-18.93,18.93-18.93
		c10.437,0,18.929,8.492,18.929,18.93C274.929,266.438,266.437,274.93,256.001,274.93z"/>
	
		<rect x="128.552" y="295.02" transform="matrix(-0.9239 0.3827 -0.3827 -0.9239 391.805 527.3118)" style="fill:#311363;" width="29.81" height="15.207"/>
	
		<rect x="353.644" y="201.785" transform="matrix(0.9239 -0.3827 0.3827 0.9239 -52.0757 156.9797)" style="fill:#311363;" width="29.811" height="15.207"/>
	
		<rect x="162.223" y="327.247" transform="matrix(0.7071 0.7071 -0.7071 0.7071 291.6788 -19.8717)" style="fill:#311363;" width="15.208" height="29.809"/>
	
		<rect x="334.526" y="154.951" transform="matrix(-0.707 -0.7072 0.7072 -0.707 463.8943 531.9021)" style="fill:#311363;" width="15.208" height="29.811"/>
	
		<rect x="201.774" y="353.645" transform="matrix(0.9239 0.3827 -0.3827 0.9239 156.9792 -52.0714)" style="fill:#311363;" width="15.207" height="29.81"/>
	
		<rect x="295.031" y="128.542" transform="matrix(-0.9239 -0.3827 0.3827 -0.9239 527.3349 391.7922)" style="fill:#311363;" width="15.207" height="29.812"/>
</g>
<g>
</g>
<g>
</g>
<g>
</g>
<g>
</g>
<g>
</g>
<g>
</g>
<g>
</g>
<g>
</g>
<g>
</g>
<g>
</g>
<g>
</g>
<g>
</g>
<g>
</g>
<g>
</g>
<g>
</g>
</svg>
