<?xml version="1.0" encoding="iso-8859-1"?>
<!-- Generator: Adobe Illustrator 19.0.0, SVG Export Plug-In . SVG Version: 6.00 Build 0)  -->
<svg version="1.1" id="Layer_1" xmlns="http://www.w3.org/2000/svg" xmlns:xlink="http://www.w3.org/1999/xlink" x="0px" y="0px"
	 viewBox="0 0 512 512" style="enable-background:new 0 0 512 512;" xml:space="preserve">
<path style="fill:#C9D6D6;" d="M459.578,422.27V184.462c0-16.657-13.503-30.159-30.159-30.159H82.582
	c-16.657,0-30.159,13.503-30.159,30.159V422.27H7.604v30.419h496.792V422.27H459.578z"/>
<g>
	
		<rect x="177.435" y="210.872" transform="matrix(-0.7071 -0.7071 0.7071 -0.7071 112.0363 622.9667)" style="fill:#FFFFFF;" width="15.208" height="154.815"/>
	
		<rect x="319.349" y="210.87" transform="matrix(-0.7071 -0.7071 0.7071 -0.7071 354.3004 723.3118)" style="fill:#FFFFFF;" width="15.208" height="154.815"/>
	
		<rect x="267.383" y="218.738" transform="matrix(-0.7071 -0.7071 0.7071 -0.7071 279.0085 654.166)" style="fill:#FFFFFF;" width="15.208" height="101.122"/>
	
		<rect x="206.928" y="310.941" transform="matrix(-0.7071 -0.7071 0.7071 -0.7071 133.0771 714.5775)" style="fill:#FFFFFF;" width="15.208" height="37.573"/>
</g>
<path style="fill:#F59D40;" d="M162.217,59.311c-12.878,0-23.319,10.44-23.319,23.319s10.441,23.319,23.319,23.319h1.016v48.354
	h185.535v-48.354h1.016c12.878,0,23.319-10.44,23.319-23.319s-10.441-23.319-23.319-23.319H162.217z"/>
<rect x="7.604" y="422.273" style="fill:#34B6D0;" width="496.792" height="30.416"/>
<g>
	<path style="fill:#311363;" d="M467.182,414.666V255.493h27.074v-15.208h-27.074v-15.208h27.074v-15.208h-27.074v-25.407
		c0-20.823-16.941-37.763-37.763-37.763h-73.048v-33.853c13.896-3.027,24.335-15.426,24.335-30.216
		c0-17.051-13.873-30.923-30.923-30.923h-132.31v15.208h132.31c8.665,0,15.715,7.049,15.715,15.715s-7.049,15.715-15.715,15.715
		h-8.62v48.354h-15.211v-40.75h-15.208v40.75H170.837V98.345h-8.62c-8.665,0-15.715-7.049-15.715-15.715s7.049-15.715,15.715-15.715
		h34.979V51.707h-34.979c-17.051,0-30.923,13.872-30.923,30.923c0,14.79,10.438,27.189,24.335,30.216v33.853H82.582
		c-20.824,0-37.764,16.941-37.764,37.763v25.407H17.744v15.208h27.075v15.208H17.744v15.208h27.075v159.173H0v45.627h512v-45.627
		H467.182z M496.792,445.085H15.208v-15.211h44.819h43.554v-15.208H60.027V184.462c0-12.437,10.118-22.555,22.556-22.555h73.047
		h200.743h73.048c12.437,0,22.555,10.118,22.555,22.555v230.204H123.86v15.208h328.114h44.818V445.085z"/>
	<rect x="82.579" y="177.111" style="fill:#311363;" width="346.842" height="15.208"/>
</g>
<g>
</g>
<g>
</g>
<g>
</g>
<g>
</g>
<g>
</g>
<g>
</g>
<g>
</g>
<g>
</g>
<g>
</g>
<g>
</g>
<g>
</g>
<g>
</g>
<g>
</g>
<g>
</g>
<g>
</g>
</svg>
