<?xml version="1.0" encoding="iso-8859-1"?>
<!-- Generator: Adobe Illustrator 19.0.0, SVG Export Plug-In . SVG Version: 6.00 Build 0)  -->
<svg version="1.1" id="Layer_1" xmlns="http://www.w3.org/2000/svg" xmlns:xlink="http://www.w3.org/1999/xlink" x="0px" y="0px"
	 viewBox="0 0 512.001 512.001" style="enable-background:new 0 0 512.001 512.001;" xml:space="preserve">
<path style="fill:#FF6A5E;" d="M54.611,320.249c-16.234-16.236-16.234-42.557,0-58.79L226.606,89.464
	c16.234-16.234,42.555-16.234,58.788,0l171.995,171.995c16.235,16.235,16.235,42.556,0,58.79L285.396,492.243
	c-16.235,16.235-42.556,16.235-58.79,0L54.611,320.249z"/>
<path style="fill:#311363;" d="M462.766,256.082L290.771,84.087c-2.517-2.517-5.245-4.694-8.121-6.55
	c7.522-12.7,11.878-28.685,11.878-39.009C294.528,17.284,277.244,0,255.999,0c-21.244,0-38.528,17.284-38.528,38.528
	c0,10.324,4.357,26.309,11.879,39.009c-2.876,1.856-5.604,4.033-8.12,6.55L49.235,256.082c-19.173,19.173-19.173,50.371,0,69.545
	l32.671,32.671l10.753-10.753l-10.532-10.533l35.403-35.403l35.404,35.404l-35.403,35.403l-10.531-10.531l-10.753,10.753
	L221.23,497.621c9.587,9.586,22.179,14.38,34.772,14.38c12.593,0,25.185-4.794,34.772-14.38l171.994-171.994
	C481.939,306.453,481.939,275.254,462.766,256.082z M220.597,383.168L256,347.765l35.404,35.403L256,418.571L220.597,383.168z
	 M245.246,429.325l-35.403,35.403l-35.404-35.404l35.403-35.403L245.246,429.325z M128.284,198.541l35.404-35.404l35.403,35.403
	l-35.404,35.404L128.284,198.541z M152.933,244.697L117.529,280.1l-35.403-35.402l35.403-35.403L152.933,244.697z M312.911,198.541
	l35.404-35.404l35.403,35.403l-35.404,35.403L312.911,198.541z M337.56,244.697L302.157,280.1l-35.403-35.403l35.403-35.403
	L337.56,244.697z M302.157,187.786l-35.404-35.404l35.404-35.403l35.404,35.404L302.157,187.786z M291.403,198.541L256,233.943
	l-35.404-35.404l35.403-35.403L291.403,198.541z M209.843,187.785l-35.403-35.403l35.403-35.403l35.403,35.403L209.843,187.785z
	 M209.843,209.293l35.404,35.404L209.844,280.1l-35.404-35.404L209.843,209.293z M256,255.451l35.403,35.403L256,326.257
	l-35.403-35.403L256,255.451z M302.157,301.608l35.403,35.403l-35.403,35.403l-35.404-35.403L302.157,301.608z M245.247,337.011
	l-35.404,35.404l-35.403-35.403l35.404-35.404L245.247,337.011z M302.157,393.922l35.403,35.403l-35.404,35.404l-35.403-35.403
	L302.157,393.922z M312.912,383.168l35.403-35.403l35.403,35.403l-35.403,35.403L312.912,383.168z M359.068,337.011l35.403-35.403
	l35.404,35.404l-35.403,35.403L359.068,337.011z M348.314,326.257l-35.403-35.403l35.403-35.403l35.403,35.403L348.314,326.257z
	 M359.068,244.697l35.404-35.403l35.403,35.403l-35.404,35.404L359.068,244.697z M243.361,71.328
	c-6.499-10.196-10.682-24.346-10.682-32.8c0-12.858,10.461-23.32,23.32-23.32s23.32,10.461,23.32,23.32
	c0,8.453-4.182,22.603-10.681,32.799c-0.283-0.075-0.572-0.127-0.856-0.197c-0.095-0.023-0.192-0.044-0.287-0.066
	c-2.117-0.507-4.268-0.87-6.439-1.091c-0.219-0.022-0.437-0.044-0.656-0.064c-0.652-0.058-1.304-0.108-1.959-0.14
	c-0.155-0.008-0.31-0.009-0.465-0.015c-1.321-0.053-2.642-0.053-3.963,0c-0.15,0.006-0.299,0.007-0.448,0.014
	c-0.658,0.031-1.315,0.083-1.971,0.141c-0.213,0.019-0.425,0.04-0.638,0.062c-2.182,0.222-4.344,0.587-6.471,1.097
	c-0.086,0.02-0.173,0.039-0.26,0.06C243.938,71.199,243.647,71.252,243.361,71.328z M231.983,94.842
	c13.244-13.243,34.791-13.243,48.035,0l11.385,11.385l-35.404,35.403l-35.403-35.403L231.983,94.842z M71.372,326.257
	l-11.384-11.384c-13.244-13.245-13.244-34.793,0-48.037l11.384-11.384l35.403,35.403L71.372,326.257z M128.283,290.854
	l35.404-35.404l35.404,35.404l-35.404,35.404L128.283,290.854z M163.686,347.766l35.403,35.403l-35.403,35.403l-35.403-35.403
	L163.686,347.766z M280.018,486.866c-13.243,13.245-34.792,13.244-48.036,0l-11.384-11.384L256,440.08l35.403,35.403
	L280.018,486.866z M452.013,314.872l-11.385,11.385l-35.404-35.404l35.404-35.404l11.385,11.385
	C465.255,280.079,465.255,301.629,452.013,314.872z"/>
<g>
</g>
<g>
</g>
<g>
</g>
<g>
</g>
<g>
</g>
<g>
</g>
<g>
</g>
<g>
</g>
<g>
</g>
<g>
</g>
<g>
</g>
<g>
</g>
<g>
</g>
<g>
</g>
<g>
</g>
</svg>
