<?xml version="1.0" encoding="iso-8859-1"?>
<!-- Generator: Adobe Illustrator 19.0.0, SVG Export Plug-In . SVG Version: 6.00 Build 0)  -->
<svg version="1.1" id="Layer_1" xmlns="http://www.w3.org/2000/svg" xmlns:xlink="http://www.w3.org/1999/xlink" x="0px" y="0px"
	 viewBox="0 0 512 512" style="enable-background:new 0 0 512 512;" xml:space="preserve">
<polygon style="fill:#F59D40;" points="416.19,505.41 446.609,164.944 416.19,8.618 95.81,8.618 65.391,164.944 95.81,505.41 "/>
<path style="fill:#587082;" d="M138.389,7.604v61.051c0,31.357,25.42,56.776,56.776,56.776h121.669
	c31.357,0,56.776-25.42,56.776-56.776V7.604H138.389z"/>
<g>
	<path style="fill:#311363;" d="M422.458,0h-41.243h-250.43H89.542L57.927,162.477l-0.205,1.056L88.856,512h79.952v-15.208h-66.044
		L73.705,171.534h364.591l-1.359,15.211h-142.4v15.208h141.041l-26.342,294.839H189.085V512h234.059l31.038-347.394l0.095-1.073
		L422.458,0z M366.007,15.208v53.447c0,27.114-22.059,49.172-49.172,49.172H195.165c-27.114,0-49.172-22.059-49.172-49.172V15.208
		H366.007z M102.078,15.208h28.707v53.447c0,35.499,28.881,64.38,64.38,64.38h121.669c35.499,0,64.38-28.881,64.38-64.38V15.208
		h28.707l27.46,141.118H74.617L102.078,15.208z"/>
	<path style="fill:#311363;" d="M350.799,68.655V38.02h-15.208v30.635c0,10.342-8.414,18.756-18.756,18.756H195.165v15.208h121.669
		C335.563,102.619,350.799,87.383,350.799,68.655z"/>
	<rect x="205.652" y="186.743" style="fill:#311363;" width="68.608" height="15.208"/>
</g>
<g>
</g>
<g>
</g>
<g>
</g>
<g>
</g>
<g>
</g>
<g>
</g>
<g>
</g>
<g>
</g>
<g>
</g>
<g>
</g>
<g>
</g>
<g>
</g>
<g>
</g>
<g>
</g>
<g>
</g>
</svg>
