<?xml version="1.0" encoding="iso-8859-1"?>
<!-- Generator: Adobe Illustrator 19.0.0, SVG Export Plug-In . SVG Version: 6.00 Build 0)  -->
<svg version="1.1" id="Layer_1" xmlns="http://www.w3.org/2000/svg" xmlns:xlink="http://www.w3.org/1999/xlink" x="0px" y="0px"
	 viewBox="0 0 512 512" style="enable-background:new 0 0 512 512;" xml:space="preserve">
<path style="fill:#C9D6D6;" d="M375.129,75.196H136.871c-27.251,0-49.342,22.091-49.342,49.341v0.001v30.077H98.85v333.559
	c0,8.959,7.263,16.222,16.222,16.222h281.855c8.958,0,16.222-7.262,16.222-16.222V154.615h11.321v-30.077v-0.001
	C424.47,97.287,402.379,75.196,375.129,75.196z"/>
<g>
	<path style="fill:#34B6D0;" d="M228.163,75.196V47.625c0-5.296,4.309-9.605,9.605-9.605h36.462c5.296,0,9.605,4.309,9.605,9.605
		v27.571h30.416V47.625c0-22.103-17.918-40.021-40.021-40.021h-36.463c-22.102,0-40.021,17.918-40.021,40.021v27.571H228.163z"/>
	<path style="fill:#34B6D0;" d="M152.633,212.237c0-8.586,6.96-15.547,15.547-15.547l0,0c8.585,0,15.546,6.96,15.546,15.547v234.538
		c0,8.586-6.96,15.547-15.546,15.547l0,0c-8.585,0-15.547-6.96-15.547-15.547V212.237z"/>
	<path style="fill:#34B6D0;" d="M271.546,446.774c0,8.586-6.96,15.547-15.546,15.547l0,0c-8.585,0-15.547-6.96-15.547-15.547
		V212.237c0-8.586,6.96-15.547,15.547-15.547l0,0c8.585,0,15.546,6.96,15.546,15.547V446.774z"/>
	<path style="fill:#34B6D0;" d="M359.367,446.774c0,8.586-6.96,15.547-15.546,15.547l0,0c-8.585,0-15.546-6.96-15.546-15.547
		V212.237c0-8.586,6.96-15.547,15.546-15.547l0,0c8.585,0,15.546,6.96,15.546,15.547V446.774z"/>
</g>
<path style="fill:#C9D6D6;" d="M215.783,154.615H424.47v-30.077v-0.001c0-27.25-22.091-49.341-49.341-49.341H136.871
	c-27.251,0-49.342,22.091-49.342,49.341v0.001v30.077h107.975"/>
<g>
	<path style="fill:#311363;" d="M168.179,189.086c-12.765,0-23.15,10.385-23.15,23.15v160.358h15.208V212.237
		c0-4.379,3.563-7.943,7.942-7.943c4.379,0,7.942,3.564,7.942,7.943v234.538c0,4.379-3.563,7.943-7.942,7.943
		c-4.379,0-7.942-3.564-7.942-7.943v-53.9H145.03v53.9c0,12.766,10.385,23.151,23.15,23.151s23.15-10.385,23.15-23.151V212.237
		C191.329,199.471,180.944,189.086,168.179,189.086z"/>
	<path style="fill:#311363;" d="M256,469.925c12.765,0,23.15-10.385,23.15-23.151V212.237c0-12.766-10.385-23.15-23.15-23.15
		c-12.764,0-23.149,10.385-23.149,23.15v234.538C232.851,459.54,243.236,469.925,256,469.925z M248.058,212.237
		c0-4.379,3.563-7.943,7.942-7.943c4.379,0,7.942,3.564,7.942,7.943v234.538c0,4.379-3.563,7.943-7.942,7.943
		c-4.379,0-7.942-3.564-7.942-7.943L248.058,212.237L248.058,212.237z"/>
	<path style="fill:#311363;" d="M343.821,469.925c12.765,0,23.15-10.385,23.15-23.151V212.237c0-12.766-10.385-23.15-23.15-23.15
		c-12.764,0-23.15,10.385-23.15,23.15v234.538C320.671,459.54,331.056,469.925,343.821,469.925z M335.879,212.237
		c0-4.379,3.563-7.943,7.942-7.943s7.942,3.564,7.942,7.943v234.538c0,4.379-3.563,7.943-7.942,7.943s-7.942-3.564-7.942-7.943
		V212.237z"/>
	<path style="fill:#311363;" d="M375.129,67.592h-53.272V47.625C321.856,21.364,300.491,0,274.231,0h-36.463
		c-26.26,0-47.625,21.364-47.625,47.625v19.967h-53.272c-31.399,0-56.946,25.545-56.946,56.946v37.681h11.321v325.955
		c0,13.138,10.688,23.826,23.826,23.826h281.855c13.138,0,23.826-10.688,23.826-23.826V162.219h11.321v-37.682
		C432.074,93.137,406.528,67.592,375.129,67.592z M205.352,47.625c0-17.874,14.542-32.417,32.417-32.417h36.462
		c17.874,0,32.417,14.543,32.417,32.417v19.967h-15.208V47.625c0-9.489-7.72-17.209-17.209-17.209h-36.463
		c-9.489,0-17.209,7.72-17.209,17.209v19.967h-15.208L205.352,47.625L205.352,47.625z M276.233,67.592h-40.464V47.625
		c0-1.103,0.897-2.001,2.001-2.001h36.463c1.103,0,2.001,0.898,2.001,2.001v19.967H276.233z M405.546,488.174
		c0,4.752-3.866,8.618-8.618,8.618H115.072c-4.752,0-8.618-3.866-8.618-8.618V162.219h89.052v-15.208h-89.052H95.134v-22.474
		c0-23.014,18.723-41.737,41.738-41.737h53.272h45.624h40.464h45.624h53.273c23.014,0,41.738,18.724,41.738,41.738v22.473h-11.321
		H215.783v15.208h189.762L405.546,488.174L405.546,488.174z"/>
</g>
<rect x="170.329" y="116.594" style="fill:#FFFFFF;" width="173.492" height="15.208"/>
<g>
</g>
<g>
</g>
<g>
</g>
<g>
</g>
<g>
</g>
<g>
</g>
<g>
</g>
<g>
</g>
<g>
</g>
<g>
</g>
<g>
</g>
<g>
</g>
<g>
</g>
<g>
</g>
<g>
</g>
</svg>
