<?xml version="1.0" encoding="iso-8859-1"?>
<!-- Generator: Adobe Illustrator 19.0.0, SVG Export Plug-In . SVG Version: 6.00 Build 0)  -->
<svg version="1.1" id="Layer_1" xmlns="http://www.w3.org/2000/svg" xmlns:xlink="http://www.w3.org/1999/xlink" x="0px" y="0px"
	 viewBox="0 0 512.031 512.031" style="enable-background:new 0 0 512.031 512.031;" xml:space="preserve">
<path style="fill:#FF6A5E;" d="M51.095,33.966c0-14.559,11.803-26.362,26.362-26.362h357.118c14.559,0,26.362,11.803,26.362,26.362
	v444.099c0,14.559-11.803,26.362-26.362,26.362H77.457c-14.559,0-26.362-11.803-26.362-26.362
	C51.095,478.065,51.095,33.966,51.095,33.966z"/>
<path style="fill:#C9D6D6;" d="M394.878,308.247c0,76.691-62.171,138.862-138.862,138.862s-138.862-62.171-138.862-138.862
	c0-76.694,62.171-138.863,138.862-138.863S394.878,231.553,394.878,308.247z"/>
<path style="fill:#80D3CF;" d="M256.016,415.663c-59.229,0-107.415-48.186-107.415-107.415s48.186-107.416,107.415-107.416
	s107.415,48.187,107.415,107.416C363.431,367.476,315.245,415.663,256.016,415.663z"/>
<g>
	
		<rect x="241.521" y="216.833" transform="matrix(-0.7071 -0.7071 0.7071 -0.7071 238.2527 627.6927)" style="fill:#FFFFFF;" width="15.209" height="95.338"/>
	
		<rect x="183.99" y="303.613" transform="matrix(-0.7071 -0.7071 0.7071 -0.7071 99.3615 685.2181)" style="fill:#FFFFFF;" width="15.209" height="36.835"/>
	
		<rect x="273.724" y="259.841" transform="matrix(-0.7071 -0.7071 0.7071 -0.7071 244.3934 768.3563)" style="fill:#FFFFFF;" width="15.209" height="147.443"/>
</g>
<rect x="266.003" y="50.208" style="fill:#34B6D0;" width="88.556" height="31.442"/>
<g>
	<path style="fill:#311363;" d="M434.575,0H77.457C58.727,0,43.49,15.237,43.49,33.966v146.005h15.209V33.966
		c0-10.343,8.415-18.758,18.758-18.758h357.118c10.343,0,18.758,8.415,18.758,18.758v444.099c0,10.343-8.415,18.758-18.758,18.758
		H77.457c-10.343,0-18.758-8.415-18.758-18.758V200.251H43.49v277.814c0,18.729,15.237,33.966,33.966,33.966h357.118
		c18.729,0,33.966-15.237,33.966-33.966V33.966C468.541,15.237,453.304,0,434.575,0z"/>
	<path style="fill:#311363;" d="M109.549,308.247c0,80.762,65.704,146.466,146.466,146.466s146.466-65.704,146.466-146.466
		s-65.704-146.466-146.466-146.466S109.549,227.485,109.549,308.247z M387.273,308.247c0,72.376-58.882,131.257-131.257,131.257
		s-131.257-58.882-131.257-131.257s58.882-131.257,131.257-131.257S387.273,235.871,387.273,308.247z"/>
	<path style="fill:#311363;" d="M140.996,308.247c0,63.422,51.598,115.019,115.02,115.019s115.02-51.598,115.02-115.02
		c0-63.423-51.598-115.021-115.02-115.021S140.996,244.824,140.996,308.247z M355.826,308.247c0,55.036-44.775,99.811-99.811,99.811
		s-99.811-44.775-99.811-99.811s44.775-99.812,99.811-99.812S355.826,253.211,355.826,308.247z"/>
	<polygon style="fill:#311363;" points="71.373,119.671 440.658,119.671 440.658,104.463 228.135,104.463 228.135,27.883 
		212.926,27.883 212.926,104.463 71.373,104.463 	"/>
	<path style="fill:#311363;" d="M258.394,42.604v46.647h103.767V42.604H258.394z M346.952,74.042h-73.349V57.813h73.349V74.042z"/>
	<rect x="109.677" y="44.632" style="fill:#311363;" width="18.249" height="15.209"/>
	<rect x="140.773" y="44.632" style="fill:#311363;" width="18.249" height="15.209"/>
	<rect x="171.86" y="44.632" style="fill:#311363;" width="18.249" height="15.209"/>
	<rect x="109.677" y="72.008" style="fill:#311363;" width="18.249" height="15.209"/>
	<rect x="140.773" y="72.008" style="fill:#311363;" width="18.249" height="15.209"/>
	<rect x="171.86" y="72.008" style="fill:#311363;" width="18.249" height="15.209"/>
</g>
<g>
</g>
<g>
</g>
<g>
</g>
<g>
</g>
<g>
</g>
<g>
</g>
<g>
</g>
<g>
</g>
<g>
</g>
<g>
</g>
<g>
</g>
<g>
</g>
<g>
</g>
<g>
</g>
<g>
</g>
</svg>
