<?xml version="1.0" encoding="iso-8859-1"?>
<!-- Generator: Adobe Illustrator 19.0.0, SVG Export Plug-In . SVG Version: 6.00 Build 0)  -->
<svg version="1.1" id="Layer_1" xmlns="http://www.w3.org/2000/svg" xmlns:xlink="http://www.w3.org/1999/xlink" x="0px" y="0px"
	 viewBox="0 0 512 512" style="enable-background:new 0 0 512 512;" xml:space="preserve">
<path style="fill:#FFF6DD;" d="M87.193,504.396c-13.439,0-24.333-10.894-24.333-24.333V347.545
	c0-13.439,10.894-24.333,24.333-24.333c-13.439,0-24.333-10.894-24.333-24.333V151.612c0-13.439,10.894-24.333,24.333-24.333
	c-13.439,0-24.333-10.894-24.333-24.333v-71.01c0-13.439,10.894-24.333,24.333-24.333h337.614c13.439,0,24.333,10.894,24.333,24.333
	v30.451c0,13.439-10.894,24.333-24.333,24.333c13.439,0,24.333,10.894,24.333,24.333v66.15c0,13.439-10.894,24.333-24.333,24.333
	c13.439,0,24.333,10.894,24.333,24.333v254.194c0,13.439-10.894,24.333-24.333,24.333H87.193z"/>
<g>
	<path style="fill:#F59D40;" d="M228.581,275.175h-27.419v27.418c0,15.143,12.276,27.419,27.419,27.419H256v-27.419
		C256,287.45,243.723,275.175,228.581,275.175z"/>
	<path style="fill:#F59D40;" d="M283.419,275.175h27.419v27.418c0,15.143-12.277,27.419-27.419,27.419H256v-27.419
		C256,287.45,268.277,275.175,283.419,275.175z"/>
	<path style="fill:#F59D40;" d="M256,302.593V256c0-15.143-12.277-27.419-27.419-27.419h-27.419v46.593h27.419
		C243.723,275.175,256,287.45,256,302.593z"/>
	<path style="fill:#F59D40;" d="M283.419,228.581C268.277,228.581,256,240.856,256,256v46.593c0-15.144,12.277-27.418,27.419-27.418
		h27.419v-46.593h-27.419V228.581z"/>
	<path style="fill:#F59D40;" d="M228.581,181.988h-27.419v46.593h27.419C243.722,228.581,256,240.856,256,256v-46.593
		C256,194.263,243.723,181.988,228.581,181.988z"/>
	<path style="fill:#F59D40;" d="M283.419,181.988c-15.142,0-27.419,12.275-27.419,27.419V256c0-15.143,12.277-27.419,27.419-27.419
		h27.419v-46.593H283.419z"/>
</g>
<g>
	<path style="fill:#311363;" d="M456.744,62.388V31.937C456.744,14.327,442.417,0,424.807,0H87.193
		c-17.61,0-31.937,14.327-31.937,31.937v71.01c0,9.737,4.38,18.471,11.273,24.333c-6.893,5.862-11.273,14.596-11.273,24.333v147.267
		c0,9.737,4.38,18.471,11.273,24.333c-6.893,5.862-11.273,14.596-11.273,24.333v132.519c0,17.61,14.327,31.937,31.937,31.937
		h337.614c17.61,0,31.937-14.327,31.937-31.937V225.869c0-9.737-4.38-18.471-11.273-24.333c6.893-5.862,11.273-14.596,11.273-24.333
		v-66.15c0-9.737-4.38-18.471-11.273-24.333C452.364,80.858,456.744,72.125,456.744,62.388z M441.536,62.388
		c0,9.225-7.505,16.729-16.729,16.729h-40.038v15.208h40.038c9.224,0,16.729,7.504,16.729,16.729v66.15
		c0,9.225-7.505,16.729-16.729,16.729H405.29v15.208h19.517c9.224,0,16.729,7.504,16.729,16.729v254.194
		c0,9.225-7.505,16.729-16.729,16.729H87.193c-9.224,0-16.729-7.504-16.729-16.729v-23.751h107.466v-15.208H70.464v-93.56
		c0-9.224,7.505-16.729,16.729-16.729v-15.208c-9.224,0-16.729-7.504-16.729-16.729V151.612c0-9.225,7.505-16.729,16.729-16.729
		h38.018v-15.208H87.193c-9.224,0-16.729-7.504-16.729-16.729v-71.01c0-9.225,7.505-16.729,16.729-16.729h337.614
		c9.224,0,16.729,7.504,16.729,16.729V62.388z"/>
	<rect x="330.022" y="79.112" style="fill:#311363;" width="34.471" height="15.208"/>
	<rect x="198.21" y="441.101" style="fill:#311363;" width="57.79" height="15.208"/>
	<path style="fill:#311363;" d="M256,187.655c-6.421-8.076-16.322-13.27-27.419-13.27h-35.023v46.593v15.208v31.386v15.208v19.814
		c0,19.312,15.711,35.023,35.023,35.023h19.815h15.208h19.815c19.312,0,35.023-15.711,35.023-35.023v-19.814v-15.208v-31.386
		v-15.208v-46.593h-35.023C272.322,174.384,262.421,179.578,256,187.655z M208.766,189.592h19.815
		c10.925,0,19.815,8.89,19.815,19.815v17.728c-0.028-0.02-0.059-0.036-0.087-0.056c-0.623-0.427-1.261-0.83-1.912-1.217
		c-0.144-0.085-0.289-0.167-0.434-0.25c-0.59-0.339-1.189-0.662-1.8-0.967c-0.095-0.047-0.188-0.098-0.282-0.145
		c-0.682-0.333-1.378-0.64-2.083-0.929c-0.165-0.067-0.332-0.131-0.498-0.197c-0.653-0.255-1.314-0.495-1.986-0.712
		c-0.08-0.026-0.158-0.056-0.238-0.081c-0.733-0.231-1.479-0.432-2.233-0.614c-0.182-0.044-0.366-0.085-0.55-0.127
		c-0.722-0.163-1.449-0.309-2.186-0.426c-0.052-0.008-0.101-0.019-0.153-0.027c-0.778-0.121-1.566-0.207-2.359-0.275
		c-0.194-0.016-0.388-0.031-0.584-0.045c-0.804-0.055-1.612-0.093-2.43-0.093h-19.815L208.766,189.592L208.766,189.592z
		 M208.766,236.185h19.815c10.925,0,19.815,8.89,19.815,19.815v17.728c-0.032-0.022-0.067-0.042-0.099-0.064
		c-0.614-0.42-1.244-0.818-1.885-1.199c-0.157-0.093-0.315-0.182-0.473-0.273c-0.571-0.327-1.151-0.64-1.742-0.936
		c-0.109-0.055-0.217-0.115-0.327-0.168c-0.674-0.328-1.362-0.631-2.058-0.917c-0.175-0.072-0.352-0.14-0.529-0.209
		c-0.639-0.249-1.286-0.484-1.942-0.696c-0.091-0.029-0.18-0.064-0.272-0.092c-0.729-0.229-1.469-0.428-2.217-0.61
		c-0.188-0.046-0.376-0.088-0.565-0.131c-0.716-0.161-1.439-0.306-2.171-0.423c-0.055-0.009-0.108-0.021-0.163-0.029
		c-0.777-0.121-1.564-0.207-2.357-0.275c-0.195-0.016-0.388-0.031-0.584-0.045c-0.804-0.055-1.612-0.093-2.43-0.093h-19.815V236.185
		z M248.396,322.408h-19.815c-10.925,0-19.815-8.89-19.815-19.815v-19.814h19.815c10.925,0,19.815,8.889,19.815,19.814V322.408z
		 M303.234,302.593c0,10.925-8.89,19.815-19.815,19.815h-19.815v-19.815c0-10.925,8.89-19.814,19.815-19.814h19.815V302.593z
		 M303.234,267.571h-19.815c-0.817,0-1.626,0.039-2.43,0.093c-0.195,0.013-0.389,0.028-0.584,0.045
		c-0.793,0.068-1.581,0.154-2.357,0.275c-0.055,0.008-0.108,0.02-0.163,0.029c-0.732,0.117-1.454,0.262-2.171,0.423
		c-0.189,0.043-0.377,0.085-0.565,0.131c-0.748,0.181-1.488,0.381-2.217,0.61c-0.091,0.028-0.18,0.063-0.272,0.092
		c-0.656,0.212-1.303,0.446-1.942,0.696c-0.177,0.069-0.354,0.137-0.529,0.209c-0.697,0.286-1.385,0.588-2.058,0.917
		c-0.111,0.054-0.218,0.114-0.327,0.168c-0.591,0.296-1.171,0.608-1.742,0.936c-0.158,0.09-0.317,0.179-0.473,0.273
		c-0.641,0.381-1.271,0.78-1.885,1.199c-0.032,0.022-0.067,0.042-0.099,0.064V256c0-10.925,8.89-19.815,19.815-19.815h19.815
		L303.234,267.571L303.234,267.571z M303.234,220.977h-19.815c-0.817,0-1.626,0.039-2.43,0.093
		c-0.195,0.013-0.389,0.028-0.584,0.045c-0.794,0.068-1.582,0.154-2.359,0.275c-0.052,0.008-0.101,0.019-0.153,0.027
		c-0.737,0.118-1.465,0.264-2.186,0.426c-0.184,0.042-0.367,0.083-0.549,0.127c-0.753,0.184-1.5,0.384-2.233,0.614
		c-0.08,0.025-0.158,0.055-0.238,0.081c-0.671,0.216-1.332,0.456-1.986,0.712c-0.166,0.065-0.333,0.129-0.498,0.197
		c-0.706,0.289-1.402,0.595-2.083,0.929c-0.095,0.047-0.188,0.097-0.282,0.145c-0.61,0.304-1.21,0.629-1.8,0.967
		c-0.145,0.083-0.291,0.165-0.434,0.25c-0.651,0.386-1.29,0.79-1.912,1.217c-0.028,0.019-0.059,0.035-0.087,0.056v-17.728
		c0-10.925,8.89-19.815,19.815-19.815h19.815L303.234,220.977L303.234,220.977z"/>
</g>
<g>
</g>
<g>
</g>
<g>
</g>
<g>
</g>
<g>
</g>
<g>
</g>
<g>
</g>
<g>
</g>
<g>
</g>
<g>
</g>
<g>
</g>
<g>
</g>
<g>
</g>
<g>
</g>
<g>
</g>
</svg>
