<?xml version="1.0" encoding="iso-8859-1"?>
<!-- Generator: Adobe Illustrator 19.0.0, SVG Export Plug-In . SVG Version: 6.00 Build 0)  -->
<svg xmlns="http://www.w3.org/2000/svg" xmlns:xlink="http://www.w3.org/1999/xlink" version="1.1" id="Layer_1" x="0px" y="0px" viewBox="0 0 496 496" style="enable-background:new 0 0 496 496;" xml:space="preserve">
<g>
	<path style="fill:#3F3A34;" d="M248,80c-35.288,0-64,28.712-64,64s28.712,64,64,64s64-28.712,64-64S283.288,80,248,80z M248,192   c-26.472,0-48-21.528-48-48s21.528-48,48-48s48,21.528,48,48S274.472,192,248,192z"/>
	<path style="fill:#3F3A34;" d="M293.736,254.408c18.096,9.376,41.016,6.496,56.088-8.584c15.08-15.08,17.96-38,8.584-56.088   C377.832,183.576,392,165.328,392,144s-14.168-39.576-33.592-45.736c9.376-18.088,6.496-41.008-8.584-56.088   c-15.08-15.072-38-17.952-56.088-8.584C287.576,14.168,269.328,0,248,0s-39.576,14.168-45.736,33.592   c-18.104-9.384-41.016-6.496-56.088,8.584c-15.08,15.08-17.96,38-8.584,56.088C118.168,104.424,104,122.672,104,144   s14.168,39.576,33.592,45.736c-9.376,18.088-6.496,41.008,8.584,56.088c15.088,15.08,38.008,17.96,56.088,8.584   C208.424,273.832,226.672,288,248,288S287.576,273.832,293.736,254.408z M279.952,240.368C279.752,257.808,265.416,272,248,272   s-31.752-14.192-31.952-31.632l-0.216-18.704l-13.376,13.072c-12.48,12.192-32.648,12.096-44.968-0.224   c-12.312-12.32-12.416-32.496-0.224-44.968l13.072-13.376l-18.704-0.216C134.192,175.752,120,161.416,120,144   s14.192-31.752,31.632-31.952l18.704-0.216l-13.072-13.376c-12.192-12.48-12.088-32.656,0.224-44.968   c12.32-12.312,32.488-12.408,44.968-0.224l13.376,13.072l0.216-18.704C216.248,30.192,230.584,16,248,16   s31.752,14.192,31.952,31.632l0.216,18.704l13.376-13.072c12.48-12.192,32.648-12.096,44.968,0.224   c12.312,12.32,12.416,32.496,0.224,44.968l-13.072,13.376l18.704,0.216C361.808,112.248,376,126.584,376,144   s-14.192,31.752-31.632,31.952l-18.704,0.216l13.072,13.376c12.192,12.48,12.088,32.656-0.224,44.968   c-12.312,12.32-32.488,12.416-44.968,0.224l-13.376-13.072L279.952,240.368z"/>
	<path style="fill:#3F3A34;" d="M376,408h-40v16h40c4.408,0,8,3.592,8,8v8c0,22.056-17.944,40-40,40s-40-17.944-40-40v-16h16v-16   H120c-13.232,0-24,10.768-24,24v8c0,30.88,25.12,56,56,56c20.384,0,38.2-10.984,48-27.304c9.8,16.32,27.616,27.304,48,27.304   s38.2-10.984,48-27.304c9.8,16.32,27.616,27.304,48,27.304c30.88,0,56-25.12,56-56v-8C400,418.768,389.232,408,376,408z M152,480   c-22.056,0-40-17.944-40-40v-8c0-4.408,3.592-8,8-8h72v16C192,462.056,174.056,480,152,480z M248,480c-22.056,0-40-17.944-40-40   v-16h80v16C288,462.056,270.056,480,248,480z"/>
	<path style="fill:#3F3A34;" d="M344,288c-20.384,0-38.2,10.984-48,27.304C286.2,298.984,268.384,288,248,288   s-38.2,10.984-48,27.304C190.2,298.984,172.384,288,152,288c-30.88,0-56,25.12-56,56v8c0,13.232,10.768,24,24,24h256   c13.232,0,24-10.768,24-24v-8C400,313.12,374.88,288,344,288z M112,352v-8c0-22.056,17.944-40,40-40s40,17.944,40,40v16h-72   C115.592,360,112,356.408,112,352z M208,344c0-22.056,17.944-40,40-40s40,17.944,40,40v16h-80V344z M384,352c0,4.408-3.592,8-8,8   h-72v-16c0-22.056,17.944-40,40-40s40,17.944,40,40V352z"/>
</g>
<path style="fill:#FFA64D;" d="M384,408H112c-8.84,0-16-7.16-16-16l0,0c0-8.84,7.16-16,16-16h272c8.84,0,16,7.16,16,16l0,0  C400,400.84,392.84,408,384,408z"/>
<g>
</g>
<g>
</g>
<g>
</g>
<g>
</g>
<g>
</g>
<g>
</g>
<g>
</g>
<g>
</g>
<g>
</g>
<g>
</g>
<g>
</g>
<g>
</g>
<g>
</g>
<g>
</g>
<g>
</g>
</svg>
