<?xml version="1.0" encoding="iso-8859-1"?>
<!-- Generator: Adobe Illustrator 19.0.0, SVG Export Plug-In . SVG Version: 6.00 Build 0)  -->
<svg xmlns="http://www.w3.org/2000/svg" xmlns:xlink="http://www.w3.org/1999/xlink" version="1.1" id="Layer_1" x="0px" y="0px" viewBox="0 0 496 496" style="enable-background:new 0 0 496 496;" xml:space="preserve">
<rect x="104" y="176" style="fill:#FFA64D;" width="288" height="144"/>
<g>
	<path style="fill:#3F3A34;" d="M416,0H80C57.944,0,40,17.944,40,40v368c0,19.312,13.768,35.472,32,39.192V464   c0,17.648,14.352,32,32,32s32-14.352,32-32v-16h216v16c0,17.648,14.352,32,32,32s32-14.352,32-32v-16c22.056,0,40-17.944,40-40V40   C456,17.944,438.056,0,416,0z M80,16h336c13.232,0,24,10.768,24,24v88H56V40C56,26.768,66.768,16,80,16z M440,144v208H56V144H440z    M120,464c0,8.824-7.176,16-16,16s-16-7.176-16-16v-16h32V464z M400,464c0,8.824-7.176,16-16,16s-16-7.176-16-16v-16h32V464z    M416,432h-64H136H80c-13.232,0-24-10.768-24-24v-40h384v40C440,421.232,429.232,432,416,432z"/>
	<path style="fill:#3F3A34;" d="M248,120c26.472,0,48-21.528,48-48s-21.528-48-48-48s-48,21.528-48,48S221.528,120,248,120z M280,72   c0,14.864-10.24,27.288-24,30.864V41.136C269.76,44.712,280,57.136,280,72z M240,41.136v61.728c-13.76-3.576-24-16-24-30.864   S226.24,44.712,240,41.136z"/>
	<path style="fill:#3F3A34;" d="M128,112c22.056,0,40-17.944,40-40s-17.944-40-40-40S88,49.944,88,72S105.944,112,128,112z M104,72   c0-3.696,0.904-7.152,2.408-10.28l31.88,31.88C135.152,95.096,131.696,96,128,96C114.768,96,104,85.232,104,72z M152,72   c0,3.696-0.904,7.152-2.408,10.28l-31.88-31.88c3.136-1.496,6.592-2.4,10.288-2.4C141.232,48,152,58.768,152,72z"/>
	<path style="fill:#3F3A34;" d="M368,112c22.056,0,40-17.944,40-40s-17.944-40-40-40s-40,17.944-40,40S345.944,112,368,112z M368,96   c-3.696,0-7.152-0.904-10.28-2.408l31.88-31.88c1.496,3.136,2.4,6.592,2.4,10.288C392,85.232,381.232,96,368,96z M368,48   c3.696,0,7.152,0.904,10.28,2.408l-31.88,31.88C344.904,79.152,344,75.696,344,72C344,58.768,354.768,48,368,48z"/>
	<rect x="160" y="392" style="fill:#3F3A34;" width="176" height="16"/>
	<rect x="128" y="272" style="fill:#3F3A34;" width="16" height="16"/>
	<rect x="160" y="272" style="fill:#3F3A34;" width="88" height="16"/>
</g>
<g>
</g>
<g>
</g>
<g>
</g>
<g>
</g>
<g>
</g>
<g>
</g>
<g>
</g>
<g>
</g>
<g>
</g>
<g>
</g>
<g>
</g>
<g>
</g>
<g>
</g>
<g>
</g>
<g>
</g>
</svg>
