<?xml version="1.0" encoding="iso-8859-1"?>
<!-- Generator: Adobe Illustrator 19.0.0, SVG Export Plug-In . SVG Version: 6.00 Build 0)  -->
<svg xmlns="http://www.w3.org/2000/svg" xmlns:xlink="http://www.w3.org/1999/xlink" version="1.1" id="Layer_1" x="0px" y="0px" viewBox="0 0 496 496" style="enable-background:new 0 0 496 496;" xml:space="preserve">
<path style="fill:#FFA64D;" d="M304,0c-81.168,0-153.92,51.384-181.016,127.848l4,4C147.208,124.216,169.104,120,192,120  c101.624,0,184,82.376,184,184c0,22.896-4.216,44.792-11.856,65.016l4,4C444.616,345.92,496,273.168,496,192  C496,86.136,409.864,0,304,0z"/>
<path style="fill:#3F3A34;" d="M464,192c0-7.736-2.232-15.248-6.472-21.712c-3.336-5.104-4.512-10.984-3.376-16.984  c1.44-7.592,0.632-15.384-2.336-22.536c-2.96-7.144-7.896-13.224-14.28-17.584c-3.696-2.52-8.312-6.792-9.328-12.832  c-1.376-8.184-5.2-15.616-11.072-21.488c-5.864-5.872-13.296-9.696-21.488-11.072c-6.04-1.016-10.32-5.632-12.84-9.336  c-4.352-6.376-10.44-11.32-17.584-14.28c-7.152-2.96-14.944-3.768-22.536-2.336c-5.992,1.12-11.872-0.04-16.984-3.384  c-12.928-8.464-30.488-8.464-43.424,0c-5.104,3.336-10.984,4.496-16.984,3.376c-7.592-1.448-15.384-0.632-22.536,2.336  c-7.144,2.96-13.224,7.896-17.584,14.28c-2.52,3.696-6.792,8.312-12.832,9.328c-8.184,1.376-15.616,5.2-21.488,11.072  c-5.872,5.864-9.696,13.296-11.072,21.488c-1.016,6.04-5.632,10.32-9.328,12.832l0.032,0.048C74.72,123.96,0,205.408,0,304  c0,105.864,86.136,192,192,192h4c1.36,0,2.68-0.136,4.016-0.2c1.224-0.048,2.448-0.112,3.664-0.184c0.032,0,0.064-0.008,0.096-0.008  c93.232-5.68,168.68-78.168,178.984-170.096l0.048,0.032c2.52-3.696,6.792-8.312,12.832-9.328c8.184-1.376,15.616-5.2,21.488-11.072  l-11.312-11.312c-3.504,3.504-7.936,5.784-12.824,6.608c-3.136,0.528-6.12,1.728-9.016,3.216  c-0.032-15.832-2.008-31.208-5.664-45.928c0.168-0.072,0.304-0.184,0.472-0.256c6.472-2.712,11.752-7.368,15.272-13.464  c3.736-6.48,5.08-14.104,3.792-21.472c-0.76-4.32,1.56-8.496,3.648-11.232c4.256-5.6,6.504-12.272,6.504-19.304  s-2.248-13.704-6.496-19.288c-2.088-2.744-4.408-6.92-3.648-11.24c1.296-7.368-0.048-14.992-3.792-21.472  c-3.512-6.088-8.8-10.744-15.264-13.456c-4.12-1.728-7.616-5.224-9.336-9.336c-2.712-6.472-7.368-11.752-13.464-15.272  c-6.472-3.736-14.088-5.08-21.472-3.792c-4.328,0.776-8.496-1.56-11.232-3.648c-11.176-8.496-27.408-8.496-38.584,0  c-2.744,2.088-6.904,4.432-11.24,3.648c-7.352-1.296-14.992,0.048-21.472,3.792c-6.088,3.512-10.744,8.8-13.456,15.264  c-0.072,0.168-0.2,0.304-0.28,0.472c-14.712-3.656-30.08-5.632-45.904-5.664c1.488-2.896,2.688-5.88,3.216-9.016  c0.824-4.88,3.104-9.32,6.608-12.824s7.936-5.784,12.824-6.608c9.056-1.52,17.368-7.24,23.4-16.088  c2.6-3.808,6.232-6.752,10.496-8.52c4.264-1.776,8.912-2.248,13.44-1.392c9.992,1.888,20.192-0.144,28.712-5.712  c7.712-5.048,18.2-5.04,25.904,0c8.512,5.568,18.712,7.6,28.712,5.712c4.52-0.848,9.176-0.376,13.44,1.392s7.896,4.712,10.496,8.512  c6.04,8.856,14.352,14.568,23.408,16.096c4.88,0.824,9.32,3.104,12.824,6.608s5.784,7.936,6.608,12.824  c1.52,9.056,7.24,17.368,16.088,23.4c3.808,2.6,6.752,6.232,8.52,10.496c1.768,4.264,2.248,8.912,1.392,13.44  c-1.888,10,0.144,20.2,5.712,28.712c2.504,3.864,3.84,8.344,3.84,12.96s-1.336,9.096-3.848,12.952  c-5.576,8.512-7.608,18.712-5.712,28.712c0.856,4.528,0.368,9.176-1.392,13.44c-1.768,4.264-4.712,7.896-8.512,10.496  c-8.856,6.04-14.568,14.352-16.096,23.408l15.784,2.648c1.016-6.04,5.632-10.32,9.336-12.84c6.376-4.352,11.32-10.44,14.28-17.584  c2.96-7.152,3.768-14.944,2.336-22.536c-1.136-6,0.04-11.872,3.384-16.984C461.768,207.248,464,199.736,464,192z M254.44,468.52  c7.48-8.992,12.872-19.752,15.576-31.528l0.8,0.544c2.52-3.696,6.792-8.312,12.832-9.328c8.184-1.376,15.616-5.2,21.488-11.072  c5.872-5.864,9.696-13.296,11.072-21.488c1.016-6.04,5.632-10.32,9.336-12.84c6.376-4.352,11.32-10.44,14.28-17.584  c2.96-7.152,3.768-14.944,2.336-22.536c-1.136-6,0.04-11.872,3.384-16.984C349.768,319.248,352,311.736,352,304  s-2.232-15.248-6.472-21.712c-3.336-5.104-4.512-10.984-3.376-16.984c1.44-7.592,0.632-15.384-2.336-22.536  c-2.96-7.144-7.896-13.224-14.28-17.584c-3.696-2.52-8.312-6.792-9.328-12.832c-1.376-8.184-5.2-15.616-11.072-21.488  c-5.864-5.872-13.296-9.696-21.488-11.072c-6.04-1.016-10.32-5.632-12.84-9.336c-4.352-6.376-10.44-11.32-17.584-14.28  c-7.152-2.96-14.936-3.768-22.536-2.336c-6,1.112-11.872-0.032-16.984-3.384c-12.928-8.464-30.488-8.464-43.424,0  c-5.104,3.336-10.976,4.496-16.984,3.376c-7.6-1.448-15.384-0.632-22.536,2.336c-7.144,2.96-13.224,7.896-17.584,14.28  c-2.52,3.696-6.792,8.312-12.832,9.328c-8.184,1.376-15.616,5.2-21.488,11.072c-5.872,5.864-9.696,13.296-11.072,21.488  c-1.016,6.04-5.632,10.32-9.336,12.84c-6.376,4.352-11.32,10.44-14.28,17.584c-2.96,7.152-3.768,14.944-2.336,22.536  c1.136,6-0.04,11.872-3.384,16.984C34.232,288.752,32,296.264,32,304s2.232,15.248,6.472,21.712  c3.336,5.104,4.512,10.984,3.376,16.984c-1.44,7.592-0.632,15.384,2.336,22.536c2.96,7.144,7.896,13.224,14.28,17.584  c3.696,2.52,8.312,6.792,9.328,12.832c1.376,8.184,5.2,15.616,11.072,21.488c5.864,5.872,13.296,9.696,21.488,11.072  c6.04,1.016,10.32,5.632,12.84,9.336c4.352,6.376,10.44,11.32,17.584,14.28c7.16,2.968,14.952,3.784,22.536,2.336  c5.992-1.128,11.864,0.04,16.984,3.384C176.752,461.768,184.264,464,192,464c13.928,0,26.64-7.152,34-19.12l-13.624-8.384  C207.944,443.696,200.328,448,192,448c-4.616,0-9.096-1.336-12.952-3.856c-8.512-5.568-18.712-7.608-28.712-5.712  c-4.536,0.84-9.176,0.368-13.44-1.392c-4.264-1.768-7.896-4.712-10.496-8.512c-6.04-8.856-14.352-14.568-23.408-16.096  c-4.88-0.824-9.32-3.104-12.824-6.608S84.384,397.888,83.56,393c-1.52-9.056-7.24-17.368-16.088-23.4  c-3.808-2.6-6.752-6.232-8.52-10.496s-2.248-8.912-1.392-13.44c1.888-10-0.144-20.2-5.712-28.712C49.336,313.096,48,308.616,48,304  s1.336-9.096,3.856-12.952c5.568-8.512,7.6-18.712,5.712-28.712c-0.856-4.528-0.368-9.176,1.392-13.44  c1.768-4.264,4.712-7.896,8.512-10.496c8.856-6.04,14.568-14.352,16.096-23.408c0.824-4.88,3.104-9.32,6.608-12.824  c3.504-3.504,7.936-5.784,12.824-6.608c9.056-1.52,17.368-7.24,23.4-16.088c2.6-3.808,6.232-6.752,10.496-8.52  s8.904-2.248,13.44-1.392c10,1.88,20.192-0.144,28.712-5.712c7.712-5.048,18.2-5.048,25.904,0  c8.512,5.568,18.704,7.592,28.712,5.712c4.52-0.848,9.176-0.376,13.44,1.392s7.896,4.712,10.496,8.512  c6.04,8.856,14.352,14.568,23.408,16.096c4.88,0.824,9.32,3.104,12.824,6.608s5.784,7.936,6.608,12.824  c1.52,9.056,7.24,17.368,16.088,23.4c3.808,2.6,6.752,6.232,8.52,10.496c1.768,4.264,2.248,8.912,1.392,13.44  c-1.888,10,0.144,20.2,5.712,28.712c2.512,3.864,3.848,8.344,3.848,12.96s-1.336,9.096-3.856,12.952  c-5.568,8.512-7.6,18.712-5.712,28.712c0.856,4.528,0.368,9.176-1.392,13.44c-1.768,4.264-4.712,7.896-8.512,10.496  c-8.856,6.04-14.568,14.352-16.096,23.408c-0.824,4.88-3.104,9.32-6.608,12.824s-7.936,5.784-12.824,6.608  c-3.208,0.544-6.264,1.776-9.216,3.328c-0.8-14.392-5.552-27.728-13.288-38.896c1.896-3.312,4.688-5.888,8.304-7.4  c6.472-2.712,11.752-7.368,15.272-13.464c3.736-6.48,5.08-14.104,3.792-21.472c-0.76-4.32,1.56-8.496,3.648-11.232  c4.24-5.6,6.488-12.272,6.488-19.304s-2.248-13.704-6.496-19.288c-2.088-2.744-4.408-6.92-3.648-11.24  c1.296-7.36-0.048-14.992-3.792-21.472c-3.512-6.088-8.8-10.744-15.264-13.456c-4.12-1.728-7.616-5.224-9.336-9.336  c-2.712-6.472-7.368-11.752-13.464-15.272c-6.472-3.736-14.088-5.072-21.472-3.792c-4.336,0.784-8.496-1.56-11.232-3.648  c-11.176-8.496-27.408-8.496-38.584,0c-2.744,2.088-6.912,4.408-11.24,3.648c-7.36-1.288-14.992,0.056-21.472,3.792  c-6.088,3.512-10.744,8.8-13.456,15.264c-1.728,4.12-5.224,7.616-9.336,9.336c-6.472,2.712-11.752,7.368-15.272,13.464  c-3.736,6.48-5.08,14.104-3.792,21.472c0.76,4.32-1.56,8.496-3.648,11.232C90.248,290.296,88,296.968,88,304  s2.248,13.704,6.496,19.288c2.088,2.744,4.408,6.92,3.648,11.24c-1.296,7.36,0.048,14.992,3.792,21.472  c3.512,6.088,8.8,10.744,15.264,13.456c4.304,1.808,7.536,5.04,9.336,9.336c2.72,6.48,7.368,11.76,13.464,15.272  c6.48,3.736,14.12,5.088,21.48,3.792c4.344-0.752,8.496,1.568,11.232,3.648C178.296,405.752,184.968,408,192,408  c12.6,0,24.064-7.464,29.208-19.008l-14.616-6.504C204.016,388.264,198.288,392,192,392c-3.504,0-6.832-1.12-9.608-3.232  c-7.464-5.664-15.856-8.016-23.68-6.664c-3.72,0.648-7.424,0-10.712-1.896c-3.032-1.752-5.352-4.376-6.704-7.6  c-3.416-8.128-9.768-14.488-17.904-17.904c-3.216-1.344-5.848-3.664-7.6-6.696c-1.888-3.28-2.544-6.984-1.888-10.704  c1.376-7.808-0.992-16.224-6.664-23.688c-2.12-2.784-3.24-6.112-3.24-9.616s1.12-6.832,3.232-9.608  c5.672-7.464,8.04-15.88,6.664-23.68c-0.656-3.728,0-7.432,1.888-10.704c1.752-3.032,4.384-5.352,7.608-6.704  c8.008-3.36,14.536-9.888,17.904-17.904c1.344-3.216,3.664-5.848,6.696-7.6c3.28-1.888,6.984-2.536,10.704-1.888  c7.816,1.352,16.224-1,23.688-6.664c5.552-4.224,13.656-4.232,19.216,0c7.464,5.664,15.88,8.032,23.68,6.664  c3.736-0.656,7.432,0,10.704,1.888c3.032,1.752,5.352,4.384,6.704,7.608c3.36,8.008,9.888,14.536,17.904,17.904  c3.216,1.344,5.848,3.664,7.6,6.696c1.888,3.28,2.544,6.984,1.888,10.704c-1.376,7.808,0.992,16.224,6.664,23.688  c2.136,2.768,3.256,6.096,3.256,9.6s-1.12,6.832-3.232,9.608c-5.672,7.464-8.04,15.88-6.664,23.68c0.656,3.728,0,7.432-1.888,10.704  c-1.752,3.032-4.384,5.352-7.608,6.704c-5.128,2.152-9.44,5.584-12.864,9.784c-6.752-6.304-14.624-11.4-23.312-14.928  C238.672,339.408,248,322.792,248,304c0-30.88-25.12-56-56-56s-56,25.12-56,56s25.12,56,56,56h4c33.088,0,60,26.912,60,60  c0,31.008-23.648,56.6-53.856,59.688c-0.024,0-0.056,0.008-0.08,0.008c-0.68,0.072-1.376,0.056-2.056,0.104  c-2.656,0.12-5.32,0.2-8.008,0.2c-97.048,0-176-78.952-176-176s78.952-176,176-176s176,78.952,176,176  C368,379.064,320.744,443.264,254.44,468.52z M192,344c-22.056,0-40-17.944-40-40s17.944-40,40-40s40,17.944,40,40  S214.056,344,192,344z M309.856,152.592c17.344,2.576,30.984,16.216,33.552,33.552C333.64,173.632,322.368,162.36,309.856,152.592z   M260,115.792c3.28-1.888,6.976-2.528,10.704-1.888c7.816,1.352,16.224-1,23.688-6.664c5.552-4.224,13.656-4.232,19.216,0  c7.464,5.672,15.88,8.032,23.68,6.664c3.736-0.656,7.432,0,10.704,1.888c3.032,1.752,5.352,4.384,6.704,7.608  c3.36,8.008,9.888,14.536,17.904,17.904c3.216,1.344,5.848,3.664,7.6,6.696c1.888,3.28,2.544,6.984,1.888,10.704  c-1.376,7.808,0.992,16.224,6.664,23.688C390.88,185.168,392,188.496,392,192s-1.12,6.832-3.232,9.608  c-5.672,7.464-8.04,15.88-6.664,23.68c0.656,3.728,0,7.432-1.888,10.704c-1.536,2.664-3.84,4.648-6.536,6.032  c-4.176-12.216-9.544-23.872-15.976-34.84C359.096,202.256,360,197.192,360,192c0-30.88-25.12-56-56-56  c-5.192,0-10.264,0.896-15.2,2.288c-10.968-6.432-22.624-11.792-34.832-15.968C255.352,119.624,257.336,117.32,260,115.792z"/>
<g>
</g>
<g>
</g>
<g>
</g>
<g>
</g>
<g>
</g>
<g>
</g>
<g>
</g>
<g>
</g>
<g>
</g>
<g>
</g>
<g>
</g>
<g>
</g>
<g>
</g>
<g>
</g>
<g>
</g>
</svg>
