<?xml version="1.0" encoding="iso-8859-1"?>
<!-- Generator: Adobe Illustrator 19.0.0, SVG Export Plug-In . SVG Version: 6.00 Build 0)  -->
<svg xmlns="http://www.w3.org/2000/svg" xmlns:xlink="http://www.w3.org/1999/xlink" version="1.1" id="Layer_1" x="0px" y="0px" viewBox="0 0 496 496" style="enable-background:new 0 0 496 496;" xml:space="preserve">
<path style="fill:#FFA64D;" d="M400,496c-52.936,0-96-43.064-96-96V96c0-52.936,43.064-96,96-96s96,43.064,96,96v304  C496,452.936,452.936,496,400,496z"/>
<g>
	<path style="fill:#3F3A34;" d="M360,136h80c13.232,0,24-10.768,24-24s-10.768-24-24-24h-80c-13.232,0-24,10.768-24,24   S346.768,136,360,136z M360,104h80c4.416,0,8,3.592,8,8s-3.584,8-8,8h-80c-4.416,0-8-3.592-8-8S355.584,104,360,104z"/>
	<path style="fill:#3F3A34;" d="M440,184h-80c-13.232,0-24,10.768-24,24s10.768,24,24,24h80c13.232,0,24-10.768,24-24   S453.232,184,440,184z M440,216h-80c-4.416,0-8-3.592-8-8s3.584-8,8-8h80c4.416,0,8,3.592,8,8S444.416,216,440,216z"/>
	<path style="fill:#3F3A34;" d="M440,280h-80c-13.232,0-24,10.768-24,24s10.768,24,24,24h80c13.232,0,24-10.768,24-24   S453.232,280,440,280z M440,312h-80c-4.416,0-8-3.592-8-8s3.584-8,8-8h80c4.416,0,8,3.592,8,8S444.416,312,440,312z"/>
	<path style="fill:#3F3A34;" d="M440,376h-80c-13.232,0-24,10.768-24,24s10.768,24,24,24h56v-16h-56c-4.416,0-8-3.592-8-8   s3.584-8,8-8h80c4.416,0,8,3.592,8,8s-3.584,8-8,8h-8v16h8c13.232,0,24-10.768,24-24S453.232,376,440,376z"/>
	<path style="fill:#3F3A34;" d="M288,61.912c0-15.456-10.304-28.872-25.064-32.648c-3.28-0.832-6.576-1.576-9.888-2.232   c-33.208-6.528-68.84-2.504-103.08,11.64l-15.864,6.552c-17.256-3.12-34.872,0.568-49.76,10.92   c-16.136,11.216-26.584,28.848-29,48.296c-3.376,1.696-6.688,3.584-9.824,5.856c-16.72,12.112-27.024,30.312-29.08,50.72   C6.512,168.76,0,180.688,0,194.216v107.56c0,13.528,6.512,25.456,16.432,33.184c2.056,20.408,12.36,38.608,29.08,50.72   c3.152,2.288,6.448,4.248,9.84,5.952c2.44,19.408,12.88,37,28.984,48.208c11.504,8,24.664,12.104,38.016,12.104   c3.976,0,7.968-0.368,11.936-1.104l15.672,6.472C173.536,467.064,197.784,472,221.44,472c10.696,0,21.272-1.008,31.608-3.04   c3.312-0.656,6.608-1.392,9.888-2.232c14.76-3.768,25.064-17.192,25.064-32.64c0-9.68-4.104-18.888-11.256-25.272l-51.784-46.248   c2.952-13.728,3.456-28.184,1.08-42.776c4.064-13.36,4.872-27.872,1.68-42.28C235.384,269.84,240,259.328,240,248   c0-11.32-4.616-21.84-12.288-29.512c3.192-14.408,2.384-28.92-1.68-42.28c2.384-14.592,1.88-29.048-1.08-42.776l51.784-46.248   C283.896,80.808,288,71.592,288,61.912z M16,194.216C16,179.76,27.76,168,42.216,168c2.936,0,5.832,0.488,8.616,1.456   l155.864,54.216C217.048,227.272,224,237.048,224,248s-6.952,20.728-17.296,24.328L50.832,326.544   C48.056,327.512,45.16,328,42.216,328C27.76,328,16,316.24,16,301.784V194.216z M266.088,420.752   c3.752,3.352,5.912,8.208,5.912,13.336c0,8.136-5.352,15.184-13.016,17.136c-3,0.768-6,1.448-9.032,2.04   c-29.608,5.816-61.472,2.28-92.296-10.144c29.376-11.872,51.376-35.264,62.272-63.6L266.088,420.752z M149.168,429.36l-8.96,3.328   c-15.792,5.864-32.824,3.688-46.728-5.984c-10.304-7.168-17.4-17.416-20.648-29.176c4.352,0.864,8.744,1.456,13.2,1.456   c7.24,0,14.552-1.16,21.712-3.504l65.904-21.624c15.28-5.016,28-14.24,37.488-25.952   C207.648,384.248,184.248,416.344,149.168,429.36z M168.656,358.648l-65.904,21.624c-16.368,5.384-33.808,2.632-47.84-7.544   c-10.2-7.384-17.264-17.744-20.632-29.536c2.576,0.496,5.216,0.808,7.936,0.808c4.736,0,9.4-0.792,13.864-2.344l155.864-54.216   c0.408-0.144,0.768-0.36,1.16-0.512C217.144,318.104,199.048,348.68,168.656,358.648z M211.952,208.56L56.088,154.344   C51.616,152.792,46.952,152,42.216,152c-2.72,0-5.368,0.312-7.944,0.8c3.368-11.792,10.432-22.144,20.632-29.536   c14.032-10.168,31.456-12.904,47.84-7.544l65.904,21.624c30.392,9.968,48.488,40.544,44.464,71.72   C212.72,208.92,212.36,208.696,211.952,208.56z M173.64,122.152l-65.904-21.624c-11.544-3.792-23.472-4.376-34.888-2.112   c3.256-11.736,10.344-21.96,20.632-29.12c13.896-9.672,30.92-11.84,46.728-5.984l8.96,3.328   c35.08,13.024,58.488,45.112,61.968,81.464C201.648,136.392,188.92,127.16,173.64,122.152z M266.088,75.256l-46.152,41.224   c-10.896-28.336-32.896-51.728-62.272-63.6c30.824-12.424,62.688-15.952,92.296-10.144c3.032,0.6,6.032,1.28,9.032,2.04   c7.656,1.952,13.008,9,13.008,17.136C272,67.04,269.84,71.896,266.088,75.256z"/>
	<rect x="32" y="288" style="fill:#3F3A34;" width="16" height="16"/>
	<rect x="32" y="192" style="fill:#3F3A34;" width="16" height="80"/>
</g>
<g>
</g>
<g>
</g>
<g>
</g>
<g>
</g>
<g>
</g>
<g>
</g>
<g>
</g>
<g>
</g>
<g>
</g>
<g>
</g>
<g>
</g>
<g>
</g>
<g>
</g>
<g>
</g>
<g>
</g>
</svg>
