<?xml version="1.0" encoding="iso-8859-1"?>
<!-- Generator: Adobe Illustrator 19.0.0, SVG Export Plug-In . SVG Version: 6.00 Build 0)  -->
<svg xmlns="http://www.w3.org/2000/svg" xmlns:xlink="http://www.w3.org/1999/xlink" version="1.1" id="Layer_1" x="0px" y="0px" viewBox="0 0 496 496" style="enable-background:new 0 0 496 496;" xml:space="preserve">
<g>
	<path style="fill:#FFA64D;" d="M160,248v8c35.344,0,64,28.656,64,64h240c17.672,0,32-14.328,32-32v-40H160z"/>
	<path style="fill:#FFA64D;" d="M496,152H160v-48C160,46.656,206.656,0,264,0h128c57.344,0,104,46.656,104,104V152z"/>
</g>
<g>
	<path style="fill:#3F3A34;" d="M336,416c0-39.696-32.296-72-72-72c-15.728,0-30.88,5.184-43.264,14.496   C227.968,347.08,232,333.776,232,320c0-39.696-32.296-72-72-72c-9.064,0-17.904,1.808-26.176,5.04l0.424-0.424   c12.976-12.984,12.976-34.104,0-47.088c-6.288-6.288-14.656-9.752-23.544-9.752c-0.936,0-1.832,0.192-2.76,0.272   c0.776-9.416-2.28-19.096-9.472-26.288c-12.984-12.984-34.112-12.992-47.096,0l-15.16,15.16l-3.256-3.264   C29.312,178.008,24.472,176,19.312,176C8.664,176,0,184.664,0,195.312V496h300.688c10.648,0,19.312-8.664,19.312-19.312   c0-4.048-1.36-8-3.704-11.272C328.864,452.104,336,434.456,336,416z M264,360c30.872,0,56,25.12,56,56   c0,14.096-5.336,27.616-14.792,37.896l-11.36-11.36c4.144-4.648,7.184-10.144,8.8-16.2l-15.456-4.128   c-0.888,3.32-2.488,6.376-4.664,9.008l-33.728-33.72c4.288-3.52,9.632-5.496,15.2-5.496c11.256,0,20.88,7.656,23.4,18.616   l15.592-3.584C298.8,388.76,282.76,376,264,376c-9.76,0-19.16,3.552-26.464,10l1.696,1.92l-13.136-13.136   C236.384,365.336,249.904,360,264,360z M216,320c0,12.176-3.992,23.912-11.168,33.52l-11.504-11.504   c4.28-6.48,6.672-14.104,6.672-22.016c0-22.056-17.944-40-40-40c-7.888,0-15.472,2.416-21.976,6.712l-11.544-11.544   C136.088,267.992,147.824,264,160,264C190.872,264,216,289.12,216,320z M181.616,330.312l-31.896-31.896   c3.2-1.52,6.68-2.416,10.28-2.416c13.232,0,24,10.768,24,24C184,323.616,183.144,327.12,181.616,330.312z M122.936,216.84   c6.744,6.744,6.744,17.72,0,24.464l-15.168,15.16L83.312,232l15.168-15.16C105.008,210.304,116.408,210.312,122.936,216.84z    M62.696,181.064c6.752-6.744,17.72-6.744,24.472,0c6.744,6.744,6.744,17.72,0,24.464L72,220.688l-24.464-24.464L62.696,181.064z    M300.688,480H16V195.312c0-2.704,3.736-4.256,5.656-2.344l281.368,281.368c0.624,0.624,0.976,1.48,0.976,2.352   C304,478.512,302.512,480,300.688,480z"/>
	<path style="fill:#3F3A34;" d="M496,152h-16v8c0,13.232-10.768,24-24,24s-24-10.768-24-24v-8h-16v8c0,13.232-10.768,24-24,24   s-24-10.768-24-24v-8h-16v8c0,13.232-10.768,24-24,24s-24-10.768-24-24v-8h-16v8c0,13.232-10.768,24-24,24s-24-10.768-24-24v-8h-16   v8c0,13.232-10.768,24-24,24s-24-10.768-24-24v-8h-16v8c0,8.992,3.088,17.208,8.112,23.888C162.904,190.784,160,199.224,160,208   c0,22.056,17.944,40,40,40h16v-16h-16c-13.232,0-24-10.768-24-24c0-4.848,1.536-9.504,4.216-13.448   C186.072,197.92,192.768,200,200,200c13.128,0,24.704-6.448,32-16.248c7.296,9.8,18.872,16.248,32,16.248s24.704-6.448,32-16.248   c7.296,9.8,18.872,16.248,32,16.248s24.704-6.448,32-16.248c7.296,9.8,18.872,16.248,32,16.248s24.704-6.448,32-16.248   c7.296,9.8,18.872,16.248,32,16.248c7.232,0,13.92-2.08,19.784-5.448c2.672,3.944,4.216,8.6,4.216,13.448c0,13.232-10.768,24-24,24   H232v16h85.248l75.856,59l50.576-59H456c22.056,0,40-17.944,40-40c0-8.776-2.904-17.216-8.112-24.112   C492.912,177.2,496,168.992,496,160V152z M390.888,285l-47.568-37h79.288L390.888,285z"/>
	<rect x="240" y="32" style="fill:#3F3A34;" width="16" height="16"/>
	<rect x="272" y="48" style="fill:#3F3A34;" width="16" height="16"/>
	<rect x="320" y="40" style="fill:#3F3A34;" width="16" height="16"/>
	<rect x="360" y="64" style="fill:#3F3A34;" width="16" height="16"/>
	<rect x="392" y="32" style="fill:#3F3A34;" width="16" height="16"/>
	<rect x="424" y="56" style="fill:#3F3A34;" width="16" height="16"/>
	<rect x="216" y="64" style="fill:#3F3A34;" width="16" height="16"/>
</g>
<g>
</g>
<g>
</g>
<g>
</g>
<g>
</g>
<g>
</g>
<g>
</g>
<g>
</g>
<g>
</g>
<g>
</g>
<g>
</g>
<g>
</g>
<g>
</g>
<g>
</g>
<g>
</g>
<g>
</g>
</svg>
