<?xml version="1.0" encoding="iso-8859-1"?>
<!-- Generator: Adobe Illustrator 19.0.0, SVG Export Plug-In . SVG Version: 6.00 Build 0)  -->
<svg xmlns="http://www.w3.org/2000/svg" xmlns:xlink="http://www.w3.org/1999/xlink" version="1.1" id="Layer_1" x="0px" y="0px" viewBox="0 0 496 496" style="enable-background:new 0 0 496 496;" xml:space="preserve">
<g>
	<path style="fill:#FFA64D;" d="M150.872,272c-3.568,13.776-15.976,24-30.872,24s-27.296-10.224-30.872-24H88v40   c0,17.672-14.328,32-32,32c-9.616,0-18.136-4.328-24-11.04V344c0,22.056,17.944,40,40,40h128c22.056,0,40-17.944,40-40v-72H150.872   z"/>
	<path style="fill:#FFA64D;" d="M440,344c-17.672,0-32-14.328-32-32v-40h-1.128c-3.568,13.776-15.976,24-30.872,24   s-27.296-10.224-30.872-24H256v72c0,22.056,17.944,40,40,40h128c22.056,0,40-17.944,40-40v-11.04   C458.136,339.672,449.616,344,440,344z"/>
	<path style="fill:#FFA64D;" d="M328,152c-17.672,0-32-14.328-32-32V80h-1.128c-3.568,13.776-15.976,24-30.872,24   s-27.296-10.224-30.872-24H144v72c0,22.056,17.944,40,40,40h128c22.056,0,40-17.944,40-40v-11.04   C346.136,147.672,337.616,152,328,152z"/>
</g>
<g>
	<path style="fill:#3F3A34;" d="M464,384H32c-17.648,0-32,14.352-32,32s14.352,32,32,32h32v48h368v-48h32c17.648,0,32-14.352,32-32   S481.648,384,464,384z M464,432h-64v16h16v32H80v-32h304v-16H32c-8.824,0-16-7.176-16-16s7.176-16,16-16h432   c8.824,0,16,7.176,16,16S472.824,432,464,432z"/>
	<path style="fill:#3F3A34;" d="M56,352c22.056,0,40-17.944,40-40v-16.208c6.704,5.08,14.96,8.208,24,8.208   c19.312,0,35.472-13.768,39.192-32H224h8h8v-40c0-22.056-17.944-40-40-40h-40h-8H56c-22.056,0-40,17.944-40,40v80   C16,334.056,33.944,352,56,352z M32,232c0-13.232,10.768-24,24-24h88v16h16v-16h40c13.232,0,24,10.768,24,24v24h-64v-16h-16v24   c0,13.232-10.768,24-24,24s-24-10.768-24-24v-32H80v32v48c0,13.232-10.768,24-24,24s-24-10.768-24-24V232z"/>
	<rect x="184" y="288" style="fill:#3F3A34;" width="16" height="16"/>
	<rect x="112" y="320" style="fill:#3F3A34;" width="16" height="16"/>
	<rect x="160" y="320" style="fill:#3F3A34;" width="16" height="16"/>
	<rect x="88" y="352" style="fill:#3F3A34;" width="16" height="16"/>
	<rect x="136" y="352" style="fill:#3F3A34;" width="16" height="16"/>
	<rect x="184" y="352" style="fill:#3F3A34;" width="16" height="16"/>
	<path style="fill:#3F3A34;" d="M336,192h-40c-22.056,0-40,17.944-40,40v40h8h8h32v-16h-32v-24c0-13.232,10.768-24,24-24h40v48h-16   v16h16.808c3.72,18.232,19.872,32,39.192,32c9,0,17.312-2.992,24-8.016V312c0,22.056,17.944,40,40,40s40-17.944,40-40v-80   c0-22.056-17.944-40-40-40h-96H336z M352,208h88c13.232,0,24,10.768,24,24v80c0,13.232-10.768,24-24,24s-24-10.768-24-24v-48v-32   h-16v32c0,13.232-10.768,24-24,24s-24-10.768-24-24V208z"/>
	<rect x="288" y="288" style="fill:#3F3A34;" width="16" height="16"/>
	<rect x="368" y="320" style="fill:#3F3A34;" width="16" height="16"/>
	<rect x="320" y="320" style="fill:#3F3A34;" width="16" height="16"/>
	<rect x="392" y="352" style="fill:#3F3A34;" width="16" height="16"/>
	<rect x="344" y="352" style="fill:#3F3A34;" width="16" height="16"/>
	<rect x="296" y="352" style="fill:#3F3A34;" width="16" height="16"/>
	<path style="fill:#3F3A34;" d="M160,80h64.808c3.72,18.232,19.872,32,39.192,32c9,0,17.312-2.992,24-8.016V120   c0,22.056,17.944,40,40,40s40-17.944,40-40V40c0-22.056-17.944-40-40-40h-96h-8h-40c-22.056,0-40,17.944-40,40v40h8H160z M240,16   h88c13.232,0,24,10.768,24,24v80c0,13.232-10.768,24-24,24s-24-10.768-24-24V72v-8h-16v8c0,13.232-10.768,24-24,24   s-24-10.768-24-24V16z M184,16h40v48h-64V40C160,26.768,170.768,16,184,16z"/>
	<rect x="184" y="96" style="fill:#3F3A34;" width="16" height="16"/>
	<rect x="256" y="128" style="fill:#3F3A34;" width="16" height="16"/>
	<rect x="208" y="128" style="fill:#3F3A34;" width="16" height="16"/>
	<rect x="280" y="160" style="fill:#3F3A34;" width="16" height="16"/>
	<rect x="232" y="160" style="fill:#3F3A34;" width="16" height="16"/>
	<rect x="184" y="160" style="fill:#3F3A34;" width="16" height="16"/>
	<rect x="288" y="32" style="fill:#3F3A34;" width="16" height="16"/>
</g>
<g>
</g>
<g>
</g>
<g>
</g>
<g>
</g>
<g>
</g>
<g>
</g>
<g>
</g>
<g>
</g>
<g>
</g>
<g>
</g>
<g>
</g>
<g>
</g>
<g>
</g>
<g>
</g>
<g>
</g>
</svg>
