<?xml version="1.0" encoding="iso-8859-1"?>
<!-- Generator: Adobe Illustrator 19.0.0, SVG Export Plug-In . SVG Version: 6.00 Build 0)  -->
<svg xmlns="http://www.w3.org/2000/svg" xmlns:xlink="http://www.w3.org/1999/xlink" version="1.1" id="Layer_1" x="0px" y="0px" viewBox="0 0 496 496" style="enable-background:new 0 0 496 496;" xml:space="preserve">
<path style="fill:#FFA64D;" d="M323.96,116.312l-5.976,2.208c1.264,2.912,2.016,6.104,2.016,9.48c0,13.256-10.744,24-24,24h-56v120  c0,17.672-14.328,32-32,32s-32-14.328-32-32v-56c0,17.672-14.328,32-32,32s-32-14.328-32-32v-21.376l-7.352,2.712  C98.912,213.584,96,230.632,96,248c0,83.816,68.184,152,152,152s152-68.184,152-152C400,193.88,370.864,143.424,323.96,116.312z"/>
<g>
	<path style="fill:#3F3A34;" d="M424,384H72c-17.648,0-32,14.352-32,32s14.352,32,32,32h24v48h304v-48h24c17.648,0,32-14.352,32-32   S441.648,384,424,384z M424,432h-56v16h16v32H112v-32h240v-16H72c-8.824,0-16-7.176-16-16s7.176-16,16-16h352   c8.824,0,16,7.176,16,16S432.824,432,424,432z"/>
	<path style="fill:#3F3A34;" d="M144,256c0.136,0,0.264-0.04,0.4-0.04C148.496,309.584,193.344,352,248,352   c18.288,0,36.272-4.816,52.008-13.92l-8.016-13.84C278.696,331.928,263.488,336,248,336c-47.008,0-85.416-37.08-87.776-83.512   c2.792-1.248,5.36-2.864,7.776-4.688V272c0,22.056,17.944,40,40,40c10.016,0,19.08-3.832,26.104-9.944   c4.536,1.16,9.16,1.944,13.896,1.944c30.872,0,56-25.128,56-56s-25.128-56-56-56v-32c48.52,0,88,39.48,88,88   c0,25.936-11.376,50.44-31.192,67.208l10.328,12.216c21.376-18.08,34.304-43.784,36.432-71.432H392v-16h-40.408   c-2.616-34.136-21.76-63.64-49.448-80.624C316.856,156.504,328,143.544,328,128c0-3.68-0.688-7.272-1.896-10.672   C337.008,108.528,344,95.072,344,80c0-20.264-12.64-37.6-30.44-44.624C322.32,23.64,336.264,16,352,16V0   c-23.64,0-44.28,12.92-55.36,32.032c-0.216,0-0.424-0.032-0.64-0.032c-6.344,0-12.392,1.264-17.936,3.512   c-4.552-15.744-16.44-26.984-22.248-31.64C252.72,1.376,248.776,0,244.712,0h-1.6c-9.744,0-17.576,7.712-17.832,17.544   c-0.192,7.52-3.952,12.248-11.808,14.864c-15.152,5.048-24.504,18.816-22.248,32.728c0.376,2.296,1.2,4.664,2.36,6.984   c-16.304,0.896-30.248,10.68-37.072,24.616l-14.216,4.744C119.392,109.104,104,130.456,104,154.592V216   C104,238.056,121.944,256,144,256z M208,296c-13.232,0-24-10.768-24-24v-56v-57.704c3.824,1.08,7.832,1.704,12,1.704h36v112   C232,285.232,221.232,296,208,296z M288,248c0,22.056-17.944,40-40,40c-1.096,0-2.16-0.184-3.24-0.272   c2.072-4.832,3.24-10.144,3.24-15.728v-64C270.056,208,288,225.944,288,248z M304,72v-8c0-4.944,0.752-9.712,2.144-14.2   C318.8,54.072,328,65.92,328,80c0,17.648-14.352,32-32,32s-32-14.352-32-32c0-15.576,11.192-28.552,25.952-31.392   C288.72,53.552,288,58.688,288,64v8H304z M196,88h44V72h-16c-9.68,0-16.032-3.52-16.984-9.424   c-0.848-5.256,2.832-12.096,11.512-14.984c14.28-4.768,22.36-15.28,22.744-29.624c0.024-1.128,0.824-1.968,1.84-1.968h1.6   c0.296,0,0.728,0.056,1.088,0.352c5.064,4.048,16.2,14.528,17.864,28.28C254.064,53.408,248,65.992,248,80   c0,26.472,21.528,48,48,48c5.52,0,10.808-0.984,15.752-2.712c0.152,0.896,0.248,1.8,0.248,2.712c0,8.824-7.176,16-16,16H196   c-15.44,0-28-12.56-28-28S180.56,88,196,88z M120,154.592c0-17.24,10.992-32.496,27.352-37.944l4.696-1.568   C152.04,115.392,152,115.688,152,116c0,13.632,6.232,25.832,16,33.912V216c0,13.232-10.768,24-24,24s-24-10.768-24-24V154.592z"/>
</g>
<g>
</g>
<g>
</g>
<g>
</g>
<g>
</g>
<g>
</g>
<g>
</g>
<g>
</g>
<g>
</g>
<g>
</g>
<g>
</g>
<g>
</g>
<g>
</g>
<g>
</g>
<g>
</g>
<g>
</g>
</svg>
