<?xml version="1.0" encoding="iso-8859-1"?>
<!-- Generator: Adobe Illustrator 19.0.0, SVG Export Plug-In . SVG Version: 6.00 Build 0)  -->
<svg xmlns="http://www.w3.org/2000/svg" xmlns:xlink="http://www.w3.org/1999/xlink" version="1.1" id="Layer_1" x="0px" y="0px" viewBox="0 0 496 496" style="enable-background:new 0 0 496 496;" xml:space="preserve">
<path style="fill:#FFA64D;" d="M348,104c-23.144,0-44.92,5.816-64,16.016V148c0,24.256,19.744,44,44,44s44-19.744,44-44  c0-6.616,5.384-12,12-12s12,5.384,12,12v92c0,26.472,21.528,48,48,48c14.448,0,27.4-6.448,36.208-16.584  C482.6,261.32,484,250.832,484,240C484,164.888,423.112,104,348,104z"/>
<g>
	<path style="fill:#3F3A34;" d="M492,240c0-79.4-64.6-144-144-144c-14.92,0-29.312,2.288-42.856,6.512   c4.736-18.64-0.152-39.104-14.352-53.312c-17.48-17.48-44.176-20.936-65.384-9.872C218.272,16.48,196.864,0,172,0   s-46.272,16.48-53.408,39.336c-21.2-11.064-47.904-7.6-65.384,9.872s-20.928,44.184-9.872,65.384C20.48,121.728,4,143.136,4,168   s16.48,46.272,39.336,53.408c-11.056,21.2-7.608,47.904,9.872,65.384c17.488,17.488,44.192,20.936,65.384,9.872   c3.736,11.944,11.424,22.072,21.408,29.088V496h64V325.808c6.88-4.832,12.632-11.152,16.776-18.536   c19.368,36.472,53.944,63.6,95.224,73.016V496h64V380.288C444.032,365.688,492,308.392,492,240z M156,480v-16h32v16H156z M188,448   h-32V333.528c5.096,1.536,10.44,2.472,16,2.472c5.544,0,10.92-0.824,16-2.352V448z M172,320c-20.944,0-38.456-16.376-39.856-37.288   l-1.08-16.072l-12.152,10.576c-15.784,13.736-39.672,12.984-54.392-1.728c-14.704-14.704-15.472-38.6-1.728-54.392l10.576-12.152   l-16.072-1.08C36.376,206.456,20,188.944,20,168s16.376-38.456,37.288-39.856l16.072-1.08l-10.576-12.152   C49.048,99.12,49.808,75.224,64.512,60.52c14.712-14.704,38.6-15.48,54.392-1.728l12.152,10.576l1.08-16.08   C133.544,32.376,151.056,16,172,16s38.456,16.376,39.856,37.288l1.08,16.08l12.152-10.576c15.8-13.744,39.688-12.976,54.392,1.728   c13.52,13.52,15.232,35.008,4.432,50.72c-16.688,8.344-31.512,19.8-43.744,33.656C230.456,116.232,203.312,96,172,96   c-39.696,0-72,32.304-72,72s32.304,72,72,72c11.352,0,22.416-2.712,32.392-7.736C204.256,234.84,204,237.384,204,240   c0,15.848,2.672,31.056,7.424,45.328C208.776,304.944,192.04,320,172,320z M206.808,211.8c-9.88,7.856-22.112,12.2-34.808,12.2   c-30.88,0-56-25.12-56-56s25.12-56,56-56c28.192,0,52.08,21.064,55.568,48.992l0.2-0.024   C217.736,176.16,210.496,193.336,206.808,211.8z M332,480v-16h32v16H332z M364,448h-32v-64.944c5.264,0.584,10.584,0.944,16,0.944   s10.736-0.36,16-0.944V448z M348,368c-70.576,0-128-57.424-128-128s57.424-128,128-128s128,57.424,128,128S418.576,368,348,368z"/>
	
		<rect x="316.017" y="125.579" transform="matrix(-0.8321 0.5547 -0.5547 -0.8321 671.2776 76.7708)" style="fill:#3F3A34;" width="16.001" height="28.849"/>
	
		<rect x="428.018" y="157.584" transform="matrix(-0.8321 0.5547 -0.5547 -0.8321 894.2242 73.281)" style="fill:#3F3A34;" width="16.001" height="28.849"/>
	
		<rect x="428.023" y="221.622" transform="matrix(-0.8321 0.5547 -0.5547 -0.8321 929.7536 190.6009)" style="fill:#3F3A34;" width="16.001" height="28.849"/>
	<path style="fill:#3F3A34;" d="M348,176c-35.288,0-64,28.712-64,64s28.712,64,64,64s64-28.712,64-64S383.288,176,348,176z M348,288   c-26.472,0-48-21.528-48-48s21.528-48,48-48s48,21.528,48,48S374.472,288,348,288z"/>
	<path style="fill:#3F3A34;" d="M252,240h-16c0,48.696,31.096,91.512,77.384,106.544l4.944-15.216   C278.656,318.448,252,281.744,252,240z"/>
	<path style="fill:#3F3A34;" d="M331.44,350.784C336.896,351.592,342.464,352,348,352v-16c-4.752,0-9.536-0.352-14.216-1.04   L331.44,350.784z"/>
</g>
<g>
</g>
<g>
</g>
<g>
</g>
<g>
</g>
<g>
</g>
<g>
</g>
<g>
</g>
<g>
</g>
<g>
</g>
<g>
</g>
<g>
</g>
<g>
</g>
<g>
</g>
<g>
</g>
<g>
</g>
</svg>
