<?xml version="1.0" encoding="iso-8859-1"?>
<!-- Generator: Adobe Illustrator 19.0.0, SVG Export Plug-In . SVG Version: 6.00 Build 0)  -->
<svg xmlns="http://www.w3.org/2000/svg" xmlns:xlink="http://www.w3.org/1999/xlink" version="1.1" id="Layer_1" x="0px" y="0px" viewBox="0 0 496 496" style="enable-background:new 0 0 496 496;" xml:space="preserve">
<path style="fill:#FFA64D;" d="M376,280c-17.672,0-32-14.328-32-32v56c0,17.672-14.328,32-32,32s-32-14.328-32-32v-56H112v96h288  v-75.04C394.136,275.672,385.616,280,376,280z"/>
<g>
	<path style="fill:#3F3A34;" d="M464,360h-48V248v-24v-56c0-22.056-17.944-40-40-40h-32.72c0.44-2.608,0.72-5.272,0.72-8   c0-21.136-13.744-39.08-32.752-45.472C321.936,54.04,343.344,40,368,40V24c-32.76,0-60.944,19.816-73.304,48.064   c-5.864,0.16-11.472,1.352-16.632,3.448c-4.552-15.744-16.44-26.984-22.248-31.64C252.72,41.376,248.776,40,244.712,40h-1.6   c-9.744,0-17.576,7.712-17.832,17.544c-0.192,7.52-3.952,12.248-11.808,14.864c-15.152,5.048-24.504,18.816-22.248,32.728   c0.376,2.296,1.2,4.664,2.36,6.984C170.448,113.392,152,132.56,152,156c0,9.752,3.232,18.752,8.624,26.056l-43.72,13.56   C104.408,199.504,96,210.904,96,224v136H32c-17.648,0-32,14.352-32,32s14.352,32,32,32h32v48h368v-48h32c17.648,0,32-14.352,32-32   S481.648,360,464,360z M337.504,144H376c13.232,0,24,10.768,24,24v56v24c0,13.232-10.768,24-24,24s-24-10.768-24-24v-40h-16v40v56   c0,13.232-10.768,24-24,24s-24-10.768-24-24V200h8c17.648,0,32-14.352,32-32c0-3.68-0.688-7.272-1.896-10.672   C330.68,153.632,334.536,149.112,337.504,144z M304,112v-8c0-4.936,0.616-9.72,1.68-14.344C318.576,93.784,328,105.744,328,120   c0,17.648-14.352,32-32,32s-32-14.352-32-32c0-15.424,10.968-28.328,25.512-31.336C288.544,93.632,288,98.752,288,104v8H304z    M196,128h36v-16h-8c-9.68,0-16.032-3.52-16.984-9.424c-0.848-5.256,2.832-12.096,11.512-14.984   c14.28-4.768,22.36-15.28,22.744-29.624c0.024-1.128,0.824-1.968,1.84-1.968h1.6c0.296,0,0.728,0.056,1.088,0.352   c5.064,4.048,16.2,14.528,17.864,28.28C254.064,93.408,248,105.992,248,120c0,26.472,21.528,48,48,48   c5.52,0,10.808-0.984,15.752-2.712c0.152,0.896,0.248,1.8,0.248,2.712c0,8.824-7.176,16-16,16H196c-15.44,0-28-12.56-28-28   S180.56,128,196,128z M121.648,210.896l53.016-16.448C180.992,197.976,188.256,200,196,200h76v16H114.584   C116.28,213.64,118.712,211.808,121.648,210.896z M112,232h160v72c0,22.056,17.944,40,40,40s40-17.944,40-40v-24.208   c6.704,5.08,14.96,8.208,24,8.208s17.296-3.128,24-8.208V360H112V232z M464,408h-64v16h16v32H80v-32h304v-16H32   c-8.824,0-16-7.176-16-16s7.176-16,16-16h64h320h48c8.824,0,16,7.176,16,16S472.824,408,464,408z"/>
	<rect x="336" y="176" style="fill:#3F3A34;" width="16" height="16"/>
	<rect x="128" y="288" style="fill:#3F3A34;" width="16" height="16"/>
	<rect x="176" y="288" style="fill:#3F3A34;" width="16" height="16"/>
	<rect x="224" y="288" style="fill:#3F3A34;" width="16" height="16"/>
</g>
<g>
</g>
<g>
</g>
<g>
</g>
<g>
</g>
<g>
</g>
<g>
</g>
<g>
</g>
<g>
</g>
<g>
</g>
<g>
</g>
<g>
</g>
<g>
</g>
<g>
</g>
<g>
</g>
<g>
</g>
</svg>
