<?xml version="1.0" encoding="iso-8859-1"?>
<!-- Generator: Adobe Illustrator 19.0.0, SVG Export Plug-In . SVG Version: 6.00 Build 0)  -->
<svg xmlns="http://www.w3.org/2000/svg" xmlns:xlink="http://www.w3.org/1999/xlink" version="1.1" id="Layer_1" x="0px" y="0px" viewBox="0 0 496 496" style="enable-background:new 0 0 496 496;" xml:space="preserve">
<polygon style="fill:#FFA64D;" points="347.985,408 139.985,408 131.985,288 355.985,288 "/>
<g>
	<rect x="163.985" y="368" style="fill:#3F3A34;" width="16" height="16"/>
	<rect x="195.985" y="368" style="fill:#3F3A34;" width="128" height="16"/>
	<path style="fill:#3F3A34;" d="M419.985,192c0-29.392-20.368-54.96-48.336-62.032c-1.896-17.624-12.032-32.776-26.432-41.64   l9.912-43.64c0.568-2.528,0.856-5.12,0.856-7.688v-2.264C355.985,15.576,340.409,0,321.249,0c-16.272,0-30.184,11.072-33.84,26.92   l-4.192,18.16c-7.208-3.288-15.072-5.08-23.232-5.08c-14.96,0-29.024,5.832-39.592,16.408c-1.656,1.656-3.16,3.432-4.576,5.248   C207.033,57.984,197.561,56,187.985,56c-39.704,0-72,32.296-72,72c0,4.128,0.48,8.216,1.176,12.264   c-8.176,3.112-15.856,7.904-22.432,14.48c-24.952,24.96-24.952,65.56,0,90.504c8.616,8.616,19.112,14.184,30.176,16.856   L140.497,496h206.968l16-240h16.52v-4.888C403.761,241.416,419.985,218.04,419.985,192z M303.001,30.512   C304.969,21.968,312.481,16,321.249,16c10.328,0,18.736,8.408,18.736,18.736V37c0,1.384-0.16,2.792-0.472,4.152l-9.264,40.768   c-4.56-1.216-9.328-1.92-14.264-1.92c-0.816,0-1.6,0.088-2.408,0.12c-2.632-8.92-7.328-17.048-14-23.712   c-0.68-0.68-1.408-1.28-2.112-1.912L303.001,30.512z M332.497,480H155.473l-14.408-216.096c10.336-0.176,20.64-2.768,29.912-7.904   h176.456L332.497,480z M363.985,240h-174.04c3.88-4.848,7.056-10.256,9.376-16h164.664V240z M379.985,233.392V208H187.689   l-1.704,5.728c-2.248,7.584-6.416,14.568-12.056,20.208c-9.072,9.072-21.12,14.064-33.944,14.064s-24.872-4.992-33.944-14.064   c-18.712-18.712-18.712-49.168,0-67.88c18.72-18.704,49.168-18.704,67.888,0l11.312-11.312   c-14.328-14.328-33.824-20.384-52.544-18.256c-0.424-2.808-0.712-5.632-0.712-8.488c0-30.872,25.128-56,56-56   c6.8,0,13.528,1.288,19.832,3.68c-2.488,6.392-3.832,13.248-3.832,20.32c0,14.96,5.832,29.024,16.408,39.592l11.312-11.312   c-7.552-7.552-11.72-17.6-11.72-28.28s4.168-20.728,11.72-28.28S249.305,56,259.985,56c10.68,0,20.728,4.168,28.28,11.72   c4.376,4.376,7.608,9.608,9.568,15.36c-21.984,7.568-37.848,28.4-37.848,52.92h16c0-22.056,17.944-40,40-40s40,17.944,40,40   c0,13.44-6.688,25.896-17.888,33.336l8.856,13.328c12.72-8.456,21.176-21.568,23.952-36.248c19.32,6.344,33.08,24.664,33.08,45.584   C403.985,209.248,394.465,224.92,379.985,233.392z"/>
	<rect x="211.985" y="144" style="fill:#3F3A34;" width="16" height="16"/>
	<rect x="259.985" y="160" style="fill:#3F3A34;" width="16" height="16"/>
	<rect x="131.985" y="184" style="fill:#3F3A34;" width="16" height="16"/>
	<rect x="155.985" y="208" style="fill:#3F3A34;" width="16" height="16"/>
</g>
<g>
</g>
<g>
</g>
<g>
</g>
<g>
</g>
<g>
</g>
<g>
</g>
<g>
</g>
<g>
</g>
<g>
</g>
<g>
</g>
<g>
</g>
<g>
</g>
<g>
</g>
<g>
</g>
<g>
</g>
</svg>
