<?xml version="1.0" encoding="iso-8859-1"?>
<!-- Generator: Adobe Illustrator 19.0.0, SVG Export Plug-In . SVG Version: 6.00 Build 0)  -->
<svg xmlns="http://www.w3.org/2000/svg" xmlns:xlink="http://www.w3.org/1999/xlink" version="1.1" id="Layer_1" x="0px" y="0px" viewBox="0 0 496.005 496.005" style="enable-background:new 0 0 496.005 496.005;" xml:space="preserve">
<path style="fill:#FFA64D;" d="M482.08,312.002c10.016-6.88,15.672-19.216,13.432-31.952c-2.24-12.728-11.768-22.376-23.52-25.432  c2.2-3.08,3.856-6.568,4.864-10.336c2.208-8.256,1.08-16.872-3.192-24.28c-4.272-7.4-11.168-12.696-19.432-14.904  c-3.768-1.008-7.632-1.304-11.368-0.96c1.008-3.648,1.368-7.48,1.024-11.36c-0.744-8.512-4.76-16.224-11.304-21.72  s-14.776-8.064-23.36-7.376c-3.88,0.344-7.592,1.36-11.008,2.984c-0.296-3.768-1.272-7.496-2.92-11.024  c-3.608-7.744-10.024-13.616-18.048-16.536c-8.032-2.928-16.72-2.56-24.48,1.064c-3.528,1.648-6.68,3.88-9.336,6.584  c-5.048-11.048-16.208-18.752-29.128-18.752c-7.312,0-13.976,2.56-19.368,6.704c-1.68,5.744-5.384,10.576-10.36,13.656  c-0.792,2.024-1.36,4.144-1.728,6.336c7.768,3.976,13.152,11.968,13.152,21.304c0,13.256-10.744,24-24,24c13.256,0,24,10.744,24,24  s-10.744,24-24,24c13.256,0,24,10.744,24,24s-10.744,24-24,24c13.256,0,24,10.744,24,24s-10.744,24-24,24c13.256,0,24,10.744,24,24  s-10.744,24-24,24s-24-10.744-24-24c0,13.256-10.744,24-24,24s-24-10.744-24-24c0,13.256-10.744,24-24,24  c-9.792,0-18.192-5.888-21.92-14.296l-2.96,4.952c-1.248,7.32,0.112,14.904,3.832,21.352c6.472,11.184,18.72,16.952,30.808,15.848  c-1.016,3.648-1.376,7.488-1.032,11.376c0.744,8.512,4.76,16.224,11.304,21.72c6.544,5.504,14.832,8.136,23.36,7.368  c3.888-0.336,7.608-1.36,11.024-2.992c0.968,12.112,8.824,23.168,20.952,27.576c8.04,2.928,16.72,2.552,24.48-1.064  c3.528-1.648,6.68-3.88,9.336-6.584c5.04,11.04,16.2,18.744,29.12,18.744s24.08-7.696,29.128-18.752  c2.656,2.704,5.808,4.936,9.336,6.584c7.76,3.616,16.456,3.992,24.472,1.064c8.032-2.92,14.448-8.8,18.056-16.536  c1.648-3.528,2.624-7.256,2.92-11.032c3.416,1.624,7.128,2.648,11.008,2.984c8.536,0.776,16.824-1.864,23.36-7.368  c6.544-5.496,10.56-13.2,11.304-21.72c0.344-3.88-0.016-7.72-1.024-11.36c3.776,0.36,7.6,0.056,11.368-0.96  c8.256-2.208,15.16-7.504,19.432-14.904c4.272-7.408,5.408-16.024,3.192-24.28c-1.016-3.776-2.664-7.256-4.864-10.344  c11.76-3.056,21.28-12.704,23.528-25.432C497.752,331.218,492.104,318.89,482.08,312.002z"/>
<g>
	<path style="fill:#3F3A34;" d="M272,0.002c-9.544,0-18.136,4.2-24,10.856c-5.864-6.656-14.456-10.856-24-10.856   s-18.136,4.2-24,10.856c-5.864-6.656-14.456-10.856-24-10.856s-18.136,4.2-24,10.856c-5.864-6.656-14.456-10.856-24-10.856   s-18.136,4.2-24,10.856C98.136,4.202,89.544,0.002,80,0.002s-18.136,4.2-24,10.856C50.136,4.202,41.544,0.002,32,0.002   c-17.648,0-32,14.352-32,32c0,9.544,4.2,18.136,10.856,24C4.2,61.866,0,70.458,0,80.002s4.2,18.136,10.856,24   C4.2,109.866,0,118.458,0,128.002s4.2,18.136,10.856,24C4.2,157.866,0,166.458,0,176.002s4.2,18.136,10.856,24   C4.2,205.866,0,214.458,0,224.002s4.2,18.136,10.856,24C4.2,253.866,0,262.458,0,272.002s4.2,18.136,10.856,24   C4.2,301.866,0,310.458,0,320.002s4.2,18.136,10.856,24C4.2,349.866,0,358.458,0,368.002c0,17.648,14.352,32,32,32   c9.544,0,18.136-4.2,24-10.856c5.864,6.656,14.456,10.856,24,10.856s18.136-4.2,24-10.856c5.864,6.656,14.456,10.856,24,10.856   s18.136-4.2,24-10.856c5.864,6.656,14.456,10.856,24,10.856s18.136-4.2,24-10.856c5.864,6.656,14.456,10.856,24,10.856   s18.136-4.2,24-10.856c5.864,6.656,14.456,10.856,24,10.856c17.648,0,32-14.352,32-32c0-9.544-4.2-18.136-10.856-24   c6.656-5.864,10.856-14.456,10.856-24s-4.2-18.136-10.856-24c6.656-5.864,10.856-14.456,10.856-24s-4.2-18.136-10.856-24   c6.656-5.864,10.856-14.456,10.856-24s-4.2-18.136-10.856-24c6.656-5.864,10.856-14.456,10.856-24s-4.2-18.136-10.856-24   c6.656-5.864,10.856-14.456,10.856-24s-4.2-18.136-10.856-24C299.8,98.138,304,89.546,304,80.002s-4.2-18.136-10.856-24   C299.8,50.138,304,41.546,304,32.002C304,14.354,289.648,0.002,272,0.002z M288,80.002c0,8.824-7.176,16-16,16v16   c8.824,0,16,7.176,16,16s-7.176,16-16,16v16c8.824,0,16,7.176,16,16s-7.176,16-16,16v16c8.824,0,16,7.176,16,16s-7.176,16-16,16v16   c8.824,0,16,7.176,16,16s-7.176,16-16,16v16c8.824,0,16,7.176,16,16s-7.176,16-16,16v16c8.824,0,16,7.176,16,16s-7.176,16-16,16   s-16-7.176-16-16h-16c0,8.824-7.176,16-16,16s-16-7.176-16-16h-16c0,8.824-7.176,16-16,16s-16-7.176-16-16h-16   c0,8.824-7.176,16-16,16s-16-7.176-16-16H96c0,8.824-7.176,16-16,16s-16-7.176-16-16H48c0,8.824-7.176,16-16,16s-16-7.176-16-16   s7.176-16,16-16v-16c-8.824,0-16-7.176-16-16s7.176-16,16-16v-16c-8.824,0-16-7.176-16-16s7.176-16,16-16v-16   c-8.824,0-16-7.176-16-16s7.176-16,16-16v-16c-8.824,0-16-7.176-16-16s7.176-16,16-16v-16c-8.824,0-16-7.176-16-16s7.176-16,16-16   v-16c-8.824,0-16-7.176-16-16s7.176-16,16-16v-16c-8.824,0-16-7.176-16-16s7.176-16,16-16s16,7.176,16,16h16   c0-8.824,7.176-16,16-16s16,7.176,16,16h16c0-8.824,7.176-16,16-16s16,7.176,16,16h16c0-8.824,7.176-16,16-16s16,7.176,16,16h16   c0-8.824,7.176-16,16-16s16,7.176,16,16h16c0-8.824,7.176-16,16-16s16,7.176,16,16s-7.176,16-16,16v16   C280.824,64.002,288,71.178,288,80.002z"/>
	<rect x="48" y="64.002" style="fill:#3F3A34;" width="16" height="16"/>
	<rect x="96" y="88.002" style="fill:#3F3A34;" width="16" height="16"/>
	<rect x="152" y="64.002" style="fill:#3F3A34;" width="16" height="16"/>
	<rect x="216" y="48.002" style="fill:#3F3A34;" width="16" height="16"/>
	<rect x="184" y="120.002" style="fill:#3F3A34;" width="16" height="16"/>
	<rect x="72" y="128.002" style="fill:#3F3A34;" width="16" height="16"/>
	<rect x="128" y="144.002" style="fill:#3F3A34;" width="16" height="16"/>
	<rect x="232" y="160.002" style="fill:#3F3A34;" width="16" height="16"/>
	<rect x="56" y="184.002" style="fill:#3F3A34;" width="16" height="16"/>
	<rect x="160" y="184.002" style="fill:#3F3A34;" width="16" height="16"/>
	<rect x="104" y="216.002" style="fill:#3F3A34;" width="16" height="16"/>
	<rect x="72" y="256.002" style="fill:#3F3A34;" width="16" height="16"/>
	<rect x="200" y="216.002" style="fill:#3F3A34;" width="16" height="16"/>
	<rect x="144" y="272.002" style="fill:#3F3A34;" width="16" height="16"/>
	<rect x="184" y="288.002" style="fill:#3F3A34;" width="16" height="16"/>
	<rect x="224" y="320.002" style="fill:#3F3A34;" width="16" height="16"/>
	<rect x="232" y="248.002" style="fill:#3F3A34;" width="16" height="16"/>
	<rect x="96" y="312.002" style="fill:#3F3A34;" width="16" height="16"/>
	<rect x="336" y="224.002" style="fill:#3F3A34;" width="16" height="16"/>
	<rect x="392" y="240.002" style="fill:#3F3A34;" width="16" height="16"/>
	<rect x="320" y="280.002" style="fill:#3F3A34;" width="16" height="16"/>
	<rect x="360" y="312.002" style="fill:#3F3A34;" width="16" height="16"/>
	<rect x="416" y="328.002" style="fill:#3F3A34;" width="16" height="16"/>
	<rect x="312" y="368.002" style="fill:#3F3A34;" width="16" height="16"/>
	<rect x="376" y="384.002" style="fill:#3F3A34;" width="16" height="16"/>
	<rect x="288" y="408.002" style="fill:#3F3A34;" width="16" height="16"/>
</g>
<g>
</g>
<g>
</g>
<g>
</g>
<g>
</g>
<g>
</g>
<g>
</g>
<g>
</g>
<g>
</g>
<g>
</g>
<g>
</g>
<g>
</g>
<g>
</g>
<g>
</g>
<g>
</g>
<g>
</g>
</svg>
