<?xml version="1.0" encoding="iso-8859-1"?>
<!-- Generator: Adobe Illustrator 19.0.0, SVG Export Plug-In . SVG Version: 6.00 Build 0)  -->
<svg xmlns="http://www.w3.org/2000/svg" xmlns:xlink="http://www.w3.org/1999/xlink" version="1.1" id="Layer_1" x="0px" y="0px" viewBox="0 0 496 496" style="enable-background:new 0 0 496 496;" xml:space="preserve">
<g>
	<path style="fill:#FFA64D;" d="M368,344v-28c0-6.624-5.376-12-12-12s-12,5.368-12,12v16c0,11.048-8.952,20-20,20s-20-8.952-20-20   v-54.536c-18.904,8.992-32,28.208-32,50.536c0,30.928,25.072,56,56,56c19.112,0,35.96-9.584,46.064-24.192   C370.336,355.576,368,350.08,368,344z"/>
	<path style="fill:#FFA64D;" d="M288,200v-28c0-6.624-5.376-12-12-12s-12,5.368-12,12v16c0,11.048-8.952,20-20,20s-20-8.952-20-20   v-54.536c-18.904,8.992-32,28.208-32,50.536c0,30.928,25.072,56,56,56c19.112,0,35.96-9.584,46.064-24.192   C290.336,211.576,288,206.08,288,200z"/>
	<path style="fill:#FFA64D;" d="M192,277.464V332c0,11.048-8.952,20-20,20s-20-8.952-20-20v-16c0-6.624-5.376-12-12-12   s-12,5.376-12,12v28c0,6.08-2.336,11.576-6.064,15.808C132.04,374.416,148.888,384,168,384c30.928,0,56-25.072,56-56   C224,305.672,210.904,286.456,192,277.464z"/>
</g>
<path style="fill:#3F3A34;" d="M424,384h-28.232c2.624-3.176,5.032-6.52,7.208-10.064C415.208,369.44,424,357.776,424,344v-2.264  c0-27.12-8.992-44.304-25.608-66.544C381.592,252.832,355.936,240,328,240c-4.504,0-8.888,0.448-13.216,1.104  c2.976-3.464,5.784-7.096,8.216-11.048c12.24-4.504,21-16.272,21-30.056v-2.264c0-27.12-8.992-44.304-25.608-66.544  c-6.352-8.448-13.968-15.528-22.488-21.072c-0.888-22.704-17.584-41.384-39.392-45.312C260.064,37.32,283.568,16,312,16h16V0h-16  c-37.224,0-67.944,28.392-71.632,64.664c-22.296,3.584-39.464,22.528-40.288,45.624C175.992,126,160,153.152,160,184  c0,21.784,8,41.712,21.168,57.096C176.856,240.448,172.488,240,168,240c-27.936,0-53.592,12.832-70.408,35.2  C80.992,297.432,72,314.616,72,341.736V344c0,13.776,8.792,25.44,21.024,29.936c2.168,3.536,4.584,6.888,7.2,10.064H72  c-17.648,0-32,14.352-32,32s14.352,32,32,32h24v48h304v-48h24c17.648,0,32-14.352,32-32S441.648,384,424,384z M282.904,384  C265.824,370.248,256,350.024,256,328c0-28.208,16.312-52.688,40-64.496V332c0,15.44,12.56,28,28,28s28-12.56,28-28v-16  c0-2.2,1.792-4,4-4s4,1.8,4,4v28c0,14.464,9.696,26.568,22.888,30.52c-2.928,3.456-6.2,6.616-9.76,9.48H282.904z M260.08,384h-24.16  c4.92-5.936,8.912-12.496,12.08-19.44C251.168,371.504,255.152,378.064,260.08,384z M248,291.552  c-3.432-7.504-7.864-14.448-13.168-20.648c4.312,0.648,8.68,1.096,13.168,1.096c4.456,0,8.84-0.44,13.168-1.104  C255.864,277.096,251.432,284.048,248,291.552z M385.592,284.784C400.456,304.68,408,318.96,408,341.736V344c0,8.824-7.176,16-16,16  s-16-7.176-16-16v-28c0-11.032-8.976-20-20-20s-20,8.968-20,20v16c0,6.616-5.384,12-12,12s-12-5.384-12-12v-74.208  c5.152-1.176,10.496-1.792,16-1.792C350.856,256,371.856,266.496,385.592,284.784z M305.592,140.784  C320.456,160.68,328,174.96,328,197.736V200c0,8.824-7.176,16-16,16s-16-7.176-16-16v-28c0-11.032-8.976-20-20-20s-20,8.968-20,20  v16c0,6.616-5.384,12-12,12s-12-5.384-12-12v-74.208c5.152-1.176,10.496-1.792,16-1.792  C270.856,112,291.856,122.496,305.592,140.784z M248,80c13.84,0,25.536,8.88,29.992,21.2C268.544,97.792,258.432,96,248,96  c-10.568,0-20.664,1.968-30.056,5.4C222.344,88.976,234.088,80,248,80z M216,119.504V188c0,15.44,12.56,28,28,28s28-12.56,28-28v-16  c0-2.2,1.792-4,4-4s4,1.8,4,4v28c0,14.464,9.64,26.712,22.832,30.664C289.272,246.528,269.224,256,248,256  c-39.696,0-72-32.296-72-72C176,155.792,192.312,131.312,216,119.504z M88,341.736c0-22.776,7.544-37.056,22.392-56.936  C124.144,266.496,145.144,256,168,256c5.504,0,10.848,0.616,16,1.792V332c0,6.616-5.384,12-12,12s-12-5.384-12-12v-16  c0-11.032-8.976-20-20-20s-20,8.968-20,20v28c0,8.824-7.176,16-16,16s-16-7.176-16-16V341.736z M113.112,374.52  C126.304,370.568,136,358.464,136,344v-28c0-2.2,1.792-4,4-4s4,1.8,4,4v16c0,15.44,12.56,28,28,28s28-12.56,28-28v-68.496  c23.688,11.808,40,36.28,40,64.496c0,22.024-9.824,42.256-26.904,56h-90.224C119.304,381.128,116.04,377.976,113.112,374.52z   M424,432h-56v16h16v32H112v-32h240v-16H72c-8.824,0-16-7.176-16-16s7.176-16,16-16h352c8.824,0,16,7.176,16,16S432.824,432,424,432  z"/>
<g>
</g>
<g>
</g>
<g>
</g>
<g>
</g>
<g>
</g>
<g>
</g>
<g>
</g>
<g>
</g>
<g>
</g>
<g>
</g>
<g>
</g>
<g>
</g>
<g>
</g>
<g>
</g>
<g>
</g>
</svg>
