<?xml version="1.0" encoding="iso-8859-1"?>
<!-- Generator: Adobe Illustrator 19.0.0, SVG Export Plug-In . SVG Version: 6.00 Build 0)  -->
<svg xmlns="http://www.w3.org/2000/svg" xmlns:xlink="http://www.w3.org/1999/xlink" version="1.1" id="Layer_1" x="0px" y="0px" viewBox="0 0 496 496" style="enable-background:new 0 0 496 496;" xml:space="preserve">
<path style="fill:#FFA64D;" d="M360.296,273.048C345.776,287.248,325.816,296,304,296h-93.4c-22.608,0-43.584-9.136-58.768-23.992  C68.096,272.104,0,340.248,0,424c0,39.704,32.296,72,72,72h352c39.704,0,72-32.296,72-72  C496,345.968,436.976,281.232,360.296,273.048z"/>
<g>
	<path style="fill:#3F3A34;" d="M392,216c0-0.432-0.056-0.856-0.064-1.288C391.56,132.544,356.184,60.168,289.384,5.296   C285.216,1.88,279.912,0,274.432,0c-8.72,0-16.736,4.536-20.912,11.84c-6.664,11.64-20.712,24.216-41.76,37.376   c-58.736,36.712-55.056,80.336-52.336,93.464c-0.024,0.016-0.048,0.04-0.072,0.056c-2.976,1.984-5.808,4.176-8.52,6.496   c-0.544,0.464-1.048,0.96-1.576,1.432c-2.176,1.96-4.248,4.016-6.224,6.184c-0.456,0.504-0.928,1-1.376,1.512   c-4.712,5.416-8.76,11.4-12.048,17.848c-0.128,0.256-0.24,0.512-0.368,0.768c-1.504,3.024-2.824,6.136-3.984,9.336   c-0.128,0.344-0.256,0.68-0.376,1.024c-2.336,6.752-3.888,13.848-4.512,21.224c-0.072,0.816-0.08,1.632-0.128,2.456   c-0.08,1.656-0.24,3.296-0.24,4.984h0.192c0,1.648-0.152,3.28-0.056,4.936C122.688,267.512,162.424,304,210.6,304H304   c48.28,0,87.752-38.8,88-86.488c0-0.512-0.032-1.008-0.032-1.512H392z M304,288h-29.808C287.528,276.264,296,259.12,296,240   c0-35.288-28.712-64-64-64v16c26.472,0,48,21.528,48,48s-21.528,48-48,48h-21.4c-39.68,0-72.4-29.84-74.488-67.936   c-0.184-3.312-0.088-6.592,0.176-9.848c0.024-0.272,0.016-0.552,0.04-0.816c0.312-3.288,0.856-6.536,1.6-9.712   c0.064-0.264,0.136-0.52,0.2-0.784c0.776-3.152,1.736-6.248,2.928-9.256c0.008-0.016,0.008-0.032,0.016-0.048   c2.448-6.168,5.76-11.968,9.784-17.24c0.168-0.224,0.328-0.448,0.504-0.672c1.992-2.552,4.16-4.984,6.488-7.256   c0.168-0.16,0.344-0.304,0.512-0.464c2.144-2.048,4.44-3.96,6.848-5.744c0.392-0.288,0.776-0.592,1.168-0.872   c2.624-1.872,5.376-3.592,8.28-5.112C184.64,147,195.968,144,208,144v-16c-11.888,0-23.224,2.4-33.584,6.688   c-1.208-13.368,1.632-44.288,45.816-71.912c23.312-14.568,39.184-29.032,47.168-43c2.128-3.72,8.32-4.992,11.824-2.12   c46.752,38.408,77.144,85.864,89.888,139.36C353.008,139.248,329.824,128,304,128v16c39.28,0,71.272,31.64,71.936,70.768   c0.008,0.896,0.064,1.776,0.064,2.672C375.8,256.344,343.504,288,304,288z"/>
	<rect x="160" y="320" style="fill:#3F3A34;" width="16" height="16"/>
	<rect x="192" y="344" style="fill:#3F3A34;" width="16" height="16"/>
	<rect x="240" y="312" style="fill:#3F3A34;" width="16" height="16"/>
	<rect x="264" y="344" style="fill:#3F3A34;" width="16" height="16"/>
	<rect x="312" y="328" style="fill:#3F3A34;" width="16" height="16"/>
	<rect x="136" y="352" style="fill:#3F3A34;" width="16" height="16"/>
	<rect x="344" y="352" style="fill:#3F3A34;" width="16" height="16"/>
</g>
<g>
</g>
<g>
</g>
<g>
</g>
<g>
</g>
<g>
</g>
<g>
</g>
<g>
</g>
<g>
</g>
<g>
</g>
<g>
</g>
<g>
</g>
<g>
</g>
<g>
</g>
<g>
</g>
<g>
</g>
</svg>
