<?xml version="1.0" encoding="iso-8859-1"?>
<!-- Generator: Adobe Illustrator 19.0.0, SVG Export Plug-In . SVG Version: 6.00 Build 0)  -->
<svg xmlns="http://www.w3.org/2000/svg" xmlns:xlink="http://www.w3.org/1999/xlink" version="1.1" id="Layer_1" x="0px" y="0px" viewBox="0 0 496 496" style="enable-background:new 0 0 496 496;" xml:space="preserve">
<path style="fill:#3F3A34;" d="M109.376,424.992l-15.872-1.984L86.376,480H24.32l19.872-63.624  c9.352-29.896,35.4-52.304,66.368-57.072l40.6-6.248c3.76,11.8,15.768,30.944,54.28,30.944s50.52-19.144,54.272-30.944l40.6,6.248  c4.952,0.768,9.832,1.976,14.52,3.6l5.248-15.112c-5.592-1.944-11.432-3.4-17.336-4.304l-41.304-6.352v-8.288  c26.92-15.624,46.784-42.072,53.488-73.4c19.44-2.712,34.512-19.272,34.512-39.448v-72c0-79.4-64.6-144-144-144s-144,64.6-144,144  v72c0,20.176,15.072,36.736,34.512,39.448c6.704,31.328,26.568,57.776,53.488,73.4v8.288l-41.312,6.352  c-36.952,5.688-68.048,32.424-79.192,68.12L2.56,496h394.88v-16H102.504L109.376,424.992z M317.104,238.632  c0.128-2.208,0.336-4.392,0.336-6.632v-38.528c9.288,3.312,16,12.112,16,22.528C333.44,226.536,326.568,235.416,317.104,238.632z   M205.44,16c70.576,0,128,57.424,128,128v40.208c-4.672-3.536-10.056-6.184-16-7.392V120h-8c-17.648,0-32-14.352-32-32h-16  c0,17.648-14.352,32-32,32h-64c-34.424,0-63.248,24.296-70.312,56.64c-6.584,1.056-12.584,3.704-17.688,7.568V144  C77.44,73.424,134.864,16,205.44,16z M77.44,216c0-10.416,6.712-19.216,16-22.528V232c0,2.24,0.208,4.424,0.336,6.632  C84.312,235.416,77.44,226.536,77.44,216z M109.44,232v-40c0-30.872,25.128-56,56-56h64c16.68,0,31.392-8.544,40-21.496  c7.2,10.832,18.68,18.576,32,20.832V232c0,52.936-43.064,96-96,96S109.44,284.936,109.44,232z M205.44,344  c14.104,0,27.56-2.728,40-7.512v7.408c-0.064,2.472-1.752,24.104-40,24.104s-39.936-21.632-40-24v-7.512  C177.88,341.272,191.336,344,205.44,344z"/>
<g>
	<path style="fill:#FFA64D;" d="M301.44,456v16c0,13.232,10.768,24,24,24h144c13.232,0,24-10.768,24-24v-16H301.44z"/>
	<path style="fill:#FFA64D;" d="M493.44,408h-192v-32c0-30.872,25.128-56,56-56h80c30.872,0,56,25.128,56,56V408z"/>
</g>
<g>
	<path style="fill:#3F3A34;" d="M173.44,188c0-11.032-8.968-20-20-20s-20,8.968-20,20s8.968,20,20,20S173.44,199.032,173.44,188z    M153.44,192c-2.2,0-4-1.8-4-4s1.8-4,4-4s4,1.8,4,4S155.64,192,153.44,192z"/>
	<path style="fill:#3F3A34;" d="M257.44,208c11.032,0,20-8.968,20-20s-8.968-20-20-20s-20,8.968-20,20S246.408,208,257.44,208z    M257.44,184c2.2,0,4,1.8,4,4s-1.8,4-4,4s-4-1.8-4-4S255.24,184,257.44,184z"/>
	<path style="fill:#3F3A34;" d="M245.44,263.976V256h-16v7.976c0,4.424-3.6,8.024-8.024,8.024h-31.952   c-4.424,0-8.024-3.6-8.024-8.024V256h-16v7.976c0,13.248,10.776,24.024,24.024,24.024h31.952   C234.664,288,245.44,277.224,245.44,263.976z"/>
	<path style="fill:#3F3A34;" d="M469.44,408h-144c-13.232,0-24,10.768-24,24s10.768,24,24,24h24v-16h-24c-4.416,0-8-3.584-8-8   s3.584-8,8-8h144c4.416,0,8,3.584,8,8s-3.584,8-8,8h-104v16h104c13.232,0,24-10.768,24-24S482.672,408,469.44,408z"/>
	<rect x="341.44" y="352" style="fill:#3F3A34;" width="16" height="16"/>
	<rect x="373.44" y="368" style="fill:#3F3A34;" width="16" height="16"/>
	<rect x="405.44" y="344" style="fill:#3F3A34;" width="16" height="16"/>
	<rect x="437.44" y="360" style="fill:#3F3A34;" width="16" height="16"/>
</g>
<g>
</g>
<g>
</g>
<g>
</g>
<g>
</g>
<g>
</g>
<g>
</g>
<g>
</g>
<g>
</g>
<g>
</g>
<g>
</g>
<g>
</g>
<g>
</g>
<g>
</g>
<g>
</g>
<g>
</g>
</svg>
