<?xml version="1.0" encoding="iso-8859-1"?>
<!-- Generator: Adobe Illustrator 19.0.0, SVG Export Plug-In . SVG Version: 6.00 Build 0)  -->
<svg xmlns="http://www.w3.org/2000/svg" xmlns:xlink="http://www.w3.org/1999/xlink" version="1.1" id="Layer_1" x="0px" y="0px" viewBox="0 0 496 496" style="enable-background:new 0 0 496 496;" xml:space="preserve">
<polygon style="fill:#FFA64D;" points="136,488 136,352 168,352 168,440 328,440 328,352 360,352 360,488 "/>
<g>
	<path style="fill:#3F3A34;" d="M424.504,411.608c-11.152-35.696-42.24-62.432-79.192-68.12L304,337.136v-8.288   c8.096-4.704,15.584-10.336,22.232-16.848H392V144C392,64.6,327.4,0,248,0S104,64.6,104,144v168h65.768   c6.656,6.504,14.136,12.144,22.232,16.848v8.288l-41.312,6.352c-36.952,5.688-68.048,32.424-79.192,68.12L45.12,496h405.76   L424.504,411.608z M288,342.832C286.624,347,278.216,368,248,368c-30.208,0-38.6-20.904-40-25.168v-6.344   c12.44,4.784,25.896,7.512,40,7.512s27.56-2.728,40-7.512V342.832z M234.64,382.648c-8.68,13.032-17.064,19.76-24.296,19.016   c-13.464-1.488-26.416-27.048-32.84-46.112l17.264-2.656C200.064,364.216,212.472,378.416,234.64,382.648z M301.232,352.896   l17.264,2.656c-6.424,19.064-19.376,44.624-32.84,46.112c-7.2,0.808-15.6-5.96-24.288-19.016   C283.528,378.416,295.936,364.216,301.232,352.896z M339.784,296c8.408-12.024,14.536-25.736,17.704-40.552   c6.904-0.96,13.2-3.632,18.512-7.648V296H339.784z M360,193.472c9.288,3.312,16,12.112,16,22.528   c0,10.536-6.872,19.416-16.336,22.632C359.792,236.424,360,234.24,360,232V193.472z M248,16c70.576,0,128,57.424,128,128v40.208   c-4.672-3.536-10.056-6.184-16-7.392V176v-16v-16h-16v16H152v-16h-16v16v16v0.808c-5.944,1.216-11.328,3.856-16,7.392V144   C120,73.424,177.424,16,248,16z M136.336,238.632C126.872,235.416,120,226.536,120,216c0-10.416,6.712-19.216,16-22.528V232   C136,234.24,136.208,236.424,136.336,238.632z M120,247.792c5.312,4.024,11.608,6.688,18.512,7.648   c3.168,14.816,9.296,28.536,17.704,40.552H120V247.792z M152,232v-56h192v56c0,52.936-43.064,96-96,96S152,284.936,152,232z    M86.76,416.376c0.696-2.224,1.664-4.312,2.536-6.448C105.704,413.784,136,424.112,136,448v-33.608   c-11.688-10.208-27.456-15.96-39.136-19.072c12.728-19.032,33.112-32.456,56.256-36.016l8.352-1.288   c4.448,13.888,20.232,56.56,47.104,59.544c1.056,0.12,2.104,0.176,3.144,0.176c12.664,0,24.616-8.76,36.28-26.328   c11.664,17.576,23.616,26.328,36.28,26.328c1.04,0,2.088-0.064,3.144-0.176c26.864-2.984,42.648-45.656,47.104-59.544l8.352,1.288   c23.144,3.56,43.528,16.984,56.256,36.016c-11.68,3.112-27.44,8.864-39.136,19.072V448c0-23.8,30.304-34.176,46.712-38.056   c0.872,2.128,1.84,4.216,2.528,6.432L429.12,480H66.88L86.76,416.376z"/>
	<path style="fill:#3F3A34;" d="M312,232h-16c0,26.472-21.528,48-48,48s-48-21.528-48-48h-16c0,35.288,28.712,64,64,64   S312,267.288,312,232z"/>
	<rect x="296" y="192" style="fill:#3F3A34;" width="16" height="16"/>
	<rect x="184" y="192" style="fill:#3F3A34;" width="16" height="16"/>
	<path style="fill:#3F3A34;" d="M140.104,134.864C140.488,134.64,179.408,112,248,112s107.512,22.64,107.88,22.856l8.232-13.72   c-0.28-0.168-1.736-1.008-4.12-2.216V104c0-26.472-21.528-48-48-48c-7.08,0-13.976,1.648-20.256,4.584   C284.184,43.576,267.288,32,248,32s-36.184,11.576-43.744,28.584C197.976,57.648,191.096,56,184,56c-26.472,0-48,21.528-48,48   v14.928c-2.384,1.208-3.832,2.048-4.12,2.216L140.104,134.864z M152,104c0-17.648,14.352-32,32-32   c10.256,0,19.976,4.976,25.984,13.32l12.984-9.36c-1.576-2.184-3.376-4.152-5.264-6.016C221.984,57.032,234.064,48,248,48   s26.016,9.032,30.296,21.944c-1.824,1.8-3.56,3.696-5.088,5.792l12.92,9.44C292.144,76.92,301.816,72,312,72   c17.648,0,32,14.352,32,32v8.008C324.824,104.808,292.376,96,248,96s-76.824,8.808-96,16.008V104z"/>
	<rect x="240" y="56" style="fill:#3F3A34;" width="16" height="16"/>
	<rect x="312" y="80" style="fill:#3F3A34;" width="16" height="16"/>
	<rect x="168" y="80" style="fill:#3F3A34;" width="16" height="16"/>
</g>
<g>
</g>
<g>
</g>
<g>
</g>
<g>
</g>
<g>
</g>
<g>
</g>
<g>
</g>
<g>
</g>
<g>
</g>
<g>
</g>
<g>
</g>
<g>
</g>
<g>
</g>
<g>
</g>
<g>
</g>
</svg>
