<?xml version="1.0" encoding="iso-8859-1"?>
<!-- Generator: Adobe Illustrator 19.0.0, SVG Export Plug-In . SVG Version: 6.00 Build 0)  -->
<svg xmlns="http://www.w3.org/2000/svg" xmlns:xlink="http://www.w3.org/1999/xlink" version="1.1" id="Layer_1" x="0px" y="0px" viewBox="0 0 496 496" style="enable-background:new 0 0 496 496;" xml:space="preserve">
<polygon style="fill:#FFA64D;" points="136,488 136,352 168,352 168,400 328,400 328,352 360,352 360,488 "/>
<g>
	<path style="fill:#3F3A34;" d="M424.504,411.608c-11.152-35.696-42.24-62.432-79.192-68.12L304,337.136v-8.288   c26.92-15.624,46.784-42.072,53.488-73.4C376.928,252.736,392,236.176,392,216v-98.84c10.344-12.808,16-28.72,16-45.16   c0-39.704-32.296-72-72-72c-16.04,0-31.416,5.304-44,15.072C279.416,5.304,264.04,0,248,0s-31.416,5.304-44,15.072   C191.416,5.304,176.04,0,160,0c-39.704,0-72,32.296-72,72c0,16.44,5.656,32.352,16,45.16V216c0,20.176,15.072,36.736,34.512,39.448   c6.704,31.328,26.568,57.776,53.488,73.4v8.288l-41.312,6.352c-36.952,5.688-68.048,32.424-79.192,68.12L45.12,496h405.76   L424.504,411.608z M208,336.488c12.44,4.784,25.896,7.512,40,7.512s27.56-2.728,40-7.512v6.344C286.624,347,278.216,368,248,368   c-30.208,0-38.6-20.904-40-25.168V336.488z M359.664,238.632C359.792,236.424,360,234.24,360,232v-38.528   c9.288,3.312,16,12.112,16,22.528C376,226.536,369.128,235.416,359.664,238.632z M160,16c14.344,0,28.016,5.472,38.496,15.408   L204,36.624l5.504-5.216C219.984,21.472,233.656,16,248,16s28.016,5.472,38.496,15.408L292,36.624l5.504-5.216   C307.984,21.472,321.656,16,336,16c30.872,0,56,25.128,56,56c0,13.568-4.976,26.696-14,36.944l-2,2.264V120h-16.008v16H376v48.208   c-4.992-3.784-10.84-6.424-17.264-7.52C355.624,167.04,346.664,160,336,160H160c-10.664,0-19.624,7.04-22.736,16.68   C130.84,177.784,125,180.424,120,184.2V136h224v-16h-40V56h-16v64h-80V88h-16v32h-72v-8.792l-2-2.264   C108.976,98.696,104,85.568,104,72C104,41.128,129.128,16,160,16z M120,216c0-10.416,6.712-19.216,16-22.528V232   c0,2.24,0.208,4.424,0.336,6.632C126.872,235.416,120,226.536,120,216z M152,232v-48c0-4.416,3.584-8,8-8h176c4.416,0,8,3.584,8,8   v48c0,52.936-43.064,96-96,96S152,284.936,152,232z M86.76,416.376c9.352-29.896,35.4-52.304,66.368-57.072l41.64-6.408   C201.056,366.336,217.184,384,248,384s46.944-17.664,53.232-31.104l41.64,6.408c30.968,4.768,57.016,27.168,66.368,57.072   L429.12,480H66.88L86.76,416.376z"/>
	<path style="fill:#3F3A34;" d="M312,232h-16c0,26.472-21.528,48-48,48s-48-21.528-48-48h-16c0,35.288,28.712,64,64,64   S312,267.288,312,232z"/>
	<rect x="296" y="192" style="fill:#3F3A34;" width="16" height="16"/>
	<rect x="184" y="192" style="fill:#3F3A34;" width="16" height="16"/>
	<rect x="192" y="56" style="fill:#3F3A34;" width="16" height="16"/>
	<path style="fill:#3F3A34;" d="M176,416c-13.232,0-24,10.768-24,24s10.768,24,24,24s24-10.768,24-24S189.232,416,176,416z M176,448   c-4.416,0-8-3.584-8-8s3.584-8,8-8s8,3.584,8,8S180.416,448,176,448z"/>
	<path style="fill:#3F3A34;" d="M320,416c-13.232,0-24,10.768-24,24s10.768,24,24,24s24-10.768,24-24S333.232,416,320,416z M320,448   c-4.416,0-8-3.584-8-8s3.584-8,8-8s8,3.584,8,8S324.416,448,320,448z"/>
</g>
<g>
</g>
<g>
</g>
<g>
</g>
<g>
</g>
<g>
</g>
<g>
</g>
<g>
</g>
<g>
</g>
<g>
</g>
<g>
</g>
<g>
</g>
<g>
</g>
<g>
</g>
<g>
</g>
<g>
</g>
</svg>
