<?xml version="1.0" encoding="iso-8859-1"?>
<!-- Generator: Adobe Illustrator 19.0.0, SVG Export Plug-In . SVG Version: 6.00 Build 0)  -->
<svg xmlns="http://www.w3.org/2000/svg" xmlns:xlink="http://www.w3.org/1999/xlink" version="1.1" id="Layer_1" x="0px" y="0px" viewBox="0 0 496 496" style="enable-background:new 0 0 496 496;" xml:space="preserve">
<path style="fill:#FFA64D;" d="M440.72,320h-1.44c-3.816,22.696-23.504,40-47.28,40s-43.464-17.304-47.28-40h-1.44  c-3.816,22.696-23.504,40-47.28,40s-43.464-17.304-47.28-40h-1.44c-3.816,22.696-23.504,40-47.28,40s-43.464-17.304-47.28-40h-1.44  c-3.816,22.696-23.504,40-47.28,40s-43.464-17.304-47.28-40h-1.44c-2.856,17-14.624,30.928-30.352,36.872l25.48,108.288  C54.68,483.32,70.688,496,89.344,496h317.312c18.656,0,34.664-12.68,38.936-30.84l25.472-108.288  C455.336,350.928,443.576,336.992,440.72,320z"/>
<g>
	<rect x="432" y="384" style="fill:#3F3A34;" width="24" height="16"/>
	<rect x="40" y="384" style="fill:#3F3A34;" width="376" height="16"/>
	<path style="fill:#3F3A34;" d="M495.632,272c-1.792-26.512-12.456-49.504-31.976-68.384   c-34.312-33.192-89.624-48.032-135.712-54.608C332.896,143.368,336,136.072,336,128c0-3.68-0.688-7.264-1.896-10.672   C345.008,108.528,352,95.072,352,80c0-26.472-21.528-48-48-48c-6.344,0-12.392,1.264-17.936,3.512   c-4.552-15.736-16.432-26.984-22.248-31.648C260.712,1.376,256.768,0,252.712,0h-1.608c-9.744,0-17.584,7.712-17.832,17.544   c-0.2,7.52-3.952,12.248-11.808,14.864c-15.152,5.048-24.504,18.816-22.248,32.728c0.376,2.296,1.2,4.664,2.36,6.984   C178.448,73.392,160,92.56,160,116c0,12.712,5.448,24.144,14.096,32.184c-47.208,6.128-105.928,20.776-141.752,55.432   C12.832,222.496,2.16,245.488,0.368,272H0v96h8c20.384,0,38.2-10.984,48-27.304C65.8,357.016,83.616,368,104,368   s38.2-10.984,48-27.304c9.8,16.32,27.616,27.304,48,27.304s38.2-10.984,48-27.304c9.8,16.32,27.616,27.304,48,27.304   s38.2-10.984,48-27.304c9.8,16.32,27.616,27.304,48,27.304s38.2-10.984,48-27.304c9.8,16.32,27.616,27.304,48,27.304h8v-96H495.632   z M479.632,272H448l-0.072-1.056c-0.176-1.328-4.632-32.736-31.88-64.184c-8.544-9.856-20.088-20.352-35.272-29.896   c27.216,8.192,53.192,20.304,71.752,38.256C468.808,230.856,477.872,249.984,479.632,272z M349.944,254.68l-15.784,2.64   c0.8,4.768,1.336,9.672,1.616,14.68H256V160.656c11.864,5.208,58.832,28.776,74.632,81.44l15.328-4.592   c-10.976-36.568-34.536-60.32-54.432-74.712C412.072,179.008,430.072,261.336,431.896,272H351.8   C351.504,266.104,350.888,260.304,349.944,254.68z M64.104,272c1.832-10.664,19.56-91.048,136.224-108.576   c-3.144,2.272-6.344,4.752-9.552,7.52c-20.304,17.544-44.28,49.12-46.544,101.056H64.104z M240,160.368V272h-79.792   C164.088,189.52,227.36,164.544,240,160.368z M336,80c0,17.648-14.352,32-32,32s-32-14.352-32-32s14.352-32,32-32   S336,62.352,336,80z M204,144c-15.44,0-28-12.56-28-28s12.56-28,28-28h44V72h-16c-9.68,0-16.024-3.52-16.984-9.424   c-0.856-5.256,2.832-12.096,11.512-14.984c14.288-4.768,22.36-15.28,22.736-29.624c0.032-1.128,0.824-1.968,1.848-1.968h1.608   c0.296,0,0.728,0.056,1.08,0.344c5.064,4.056,16.2,14.552,17.864,28.288C262.064,53.408,256,65.992,256,80   c0,26.472,21.528,48,48,48c5.52,0,10.808-0.984,15.752-2.712c0.152,0.896,0.248,1.8,0.248,2.712c0,8.824-7.176,16-16,16h-37.24   c-10.352-0.232-17.136-0.064-18.768,0c-1.64-0.056-8.312-0.224-18.504,0H204z M43.448,215.136   c18.688-18.08,44.92-30.24,72.368-38.44c-59.152,37.328-67.632,93.4-67.744,94.256L48.064,272H48H16.368   C18.128,249.992,27.184,230.872,43.448,215.136z M16,351.192V288h32v24C48,331.32,34.232,347.48,16,351.192z M104,352   c-22.056,0-40-17.944-40-40v-24h80v24C144,334.056,126.056,352,104,352z M200,352c-22.056,0-40-17.944-40-40v-24h80v24   C240,334.056,222.056,352,200,352z M296,352c-22.056,0-40-17.944-40-40v-24h80v24C336,334.056,318.056,352,296,352z M392,352   c-22.056,0-40-17.944-40-40v-24h80v24C432,334.056,414.056,352,392,352z M480,351.192c-18.232-3.72-32-19.872-32-39.192v-24h32   V351.192z"/>
</g>
<g>
</g>
<g>
</g>
<g>
</g>
<g>
</g>
<g>
</g>
<g>
</g>
<g>
</g>
<g>
</g>
<g>
</g>
<g>
</g>
<g>
</g>
<g>
</g>
<g>
</g>
<g>
</g>
<g>
</g>
</svg>
