<?xml version="1.0" encoding="iso-8859-1"?>
<!-- Generator: Adobe Illustrator 19.0.0, SVG Export Plug-In . SVG Version: 6.00 Build 0)  -->
<svg xmlns="http://www.w3.org/2000/svg" xmlns:xlink="http://www.w3.org/1999/xlink" version="1.1" id="Layer_1" x="0px" y="0px" viewBox="0 0 496 496" style="enable-background:new 0 0 496 496;" xml:space="preserve">
<path style="fill:#FFA64D;" d="M344,437.12c-28.6,0-52.256-21.544-55.592-49.256C278.2,398.488,263.856,405.12,248,405.12  s-30.2-6.632-40.408-17.256C204.256,415.576,180.6,437.12,152,437.12s-52.256-21.544-55.592-49.256  C86.2,398.488,71.856,405.12,56,405.12c-30.872,0-56-25.128-56-56v-64c0-13.232,10.768-24,24-24h448c13.232,0,24,10.768,24,24v64  c0,30.872-25.128,56-56,56c-15.856,0-30.2-6.632-40.408-17.256C396.256,415.576,372.6,437.12,344,437.12z"/>
<g>
	<path style="fill:#3F3A34;" d="M472,261.12h-56v-56c0-22.056-17.944-40-40-40h-0.208c5.08-6.704,8.208-14.96,8.208-24   c0-22.056-17.944-40-40-40c-13.128,0-24.704,6.448-32,16.248c-6.656-8.944-16.912-14.912-28.632-15.904   C291.184,92.92,296,81.584,296,69.12c0-17.696-7.928-34.184-21.744-45.24L248,2.88l-26.256,21C207.928,34.936,200,51.424,200,69.12   c0,12.464,4.816,23.8,12.632,32.344c-11.72,1-21.976,6.968-28.632,15.904c-7.296-9.8-18.872-16.248-32-16.248   c-22.056,0-40,17.944-40,40c0,9.04,3.128,17.296,8.208,24H120c-22.056,0-40,17.944-40,40v56H24c-13.232,0-24,10.768-24,24v184   c0,13.232,10.768,24,24,24h448c13.232,0,24-10.768,24-24v-184C496,271.888,485.232,261.12,472,261.12z M344,117.12   c13.232,0,24,10.768,24,24s-10.768,24-24,24s-24-10.768-24-24S330.768,117.12,344,117.12z M312.208,165.12H311.8   c0.064-0.088,0.144-0.16,0.208-0.248C312.064,164.96,312.136,165.032,312.208,165.12z M304,141.12c0,13.232-10.768,24-24,24   s-24-10.768-24-24s10.768-24,24-24S304,127.888,304,141.12z M248.208,165.12H247.8c0.064-0.088,0.144-0.16,0.208-0.248   C248.064,164.96,248.136,165.032,248.208,165.12z M248,117.368c-0.064-0.088-0.144-0.168-0.216-0.256   c0.072,0,0.144,0.008,0.216,0.008c0.072,0,0.144-0.008,0.216-0.008C248.144,117.2,248.064,117.28,248,117.368z M231.736,36.376   L240,29.768V53.12h16V29.768l8.264,6.616c10,7.992,15.736,19.92,15.736,32.736c0,17.648-14.352,32-32,32s-32-14.352-32-32   C216,56.304,221.736,44.376,231.736,36.376z M216,117.12c13.232,0,24,10.768,24,24s-10.768,24-24,24s-24-10.768-24-24   S202.768,117.12,216,117.12z M184.208,165.12H183.8c0.064-0.088,0.144-0.16,0.208-0.248   C184.064,164.96,184.136,165.032,184.208,165.12z M128,141.12c0-13.232,10.768-24,24-24s24,10.768,24,24s-10.768,24-24,24   S128,154.352,128,141.12z M120,181.12h256c13.232,0,24,10.768,24,24v8H96v-8C96,191.888,106.768,181.12,120,181.12z M96,229.12h304   v32H96V229.12z M480,469.12c0,4.416-3.592,8-8,8H24c-4.408,0-8-3.584-8-8v-184c0-4.416,3.592-8,8-8h448c4.408,0,8,3.584,8,8V469.12   z"/>
	<rect x="448" y="293.12" style="fill:#3F3A34;" width="16" height="16"/>
	<rect x="416" y="309.12" style="fill:#3F3A34;" width="16" height="16"/>
	<rect x="384" y="293.12" style="fill:#3F3A34;" width="16" height="16"/>
	<rect x="352" y="309.12" style="fill:#3F3A34;" width="16" height="16"/>
	<rect x="320" y="293.12" style="fill:#3F3A34;" width="16" height="16"/>
	<rect x="288" y="309.12" style="fill:#3F3A34;" width="16" height="16"/>
	<rect x="256" y="293.12" style="fill:#3F3A34;" width="16" height="16"/>
	<rect x="224" y="309.12" style="fill:#3F3A34;" width="16" height="16"/>
	<rect x="192" y="293.12" style="fill:#3F3A34;" width="16" height="16"/>
	<rect x="160" y="309.12" style="fill:#3F3A34;" width="16" height="16"/>
	<rect x="128" y="293.12" style="fill:#3F3A34;" width="16" height="16"/>
	<rect x="96" y="309.12" style="fill:#3F3A34;" width="16" height="16"/>
	<rect x="64" y="293.12" style="fill:#3F3A34;" width="16" height="16"/>
	<rect x="32" y="309.12" style="fill:#3F3A34;" width="16" height="16"/>
</g>
<g>
</g>
<g>
</g>
<g>
</g>
<g>
</g>
<g>
</g>
<g>
</g>
<g>
</g>
<g>
</g>
<g>
</g>
<g>
</g>
<g>
</g>
<g>
</g>
<g>
</g>
<g>
</g>
<g>
</g>
</svg>
