<?xml version="1.0" encoding="iso-8859-1"?>
<!-- Generator: Adobe Illustrator 19.0.0, SVG Export Plug-In . SVG Version: 6.00 Build 0)  -->
<svg xmlns="http://www.w3.org/2000/svg" xmlns:xlink="http://www.w3.org/1999/xlink" version="1.1" id="Layer_1" x="0px" y="0px" viewBox="0 0 496 496" style="enable-background:new 0 0 496 496;" xml:space="preserve">
<path style="fill:#FFA64D;" d="M143.994,232c19.848,0,36-16.152,36-36v-56c0-2.2,1.8-4,4-4s4,1.8,4,4v16c0,19.848,16.152,36,36,36  s36-16.152,36-36V94.112c-12.728-3.92-26.152-6.112-40-6.112c-45.664,0-87.104,22.76-112,58.776V196  C107.994,215.848,124.146,232,143.994,232z"/>
<g>
	<path style="fill:#3F3A34;" d="M442.938,23.424c-2.192-8.184-7.504-15.016-14.952-19.24c-15.192-8.608-34.688-3.448-43.48,11.48   l-62.76,106.624c-20.424-20.36-46.728-34.48-75.696-39.832c3.712-5.224,5.944-11.568,5.944-18.456   c0-13.664-8.648-25.264-20.72-29.84C236.458,23.456,247.33,16,259.994,16V0c-21.056,0-38.944,13.648-45.4,32.544   c-15.072,2.584-26.6,15.664-26.6,31.456c0,6.888,2.232,13.232,5.952,18.456c-53.64,9.912-98.304,49.776-113.032,103.776   l-20.288,74.384c-5.424,7.776-8.632,17.208-8.632,27.384c0,12.304,4.688,23.496,12.32,32h-12.32v40   c0,49.072,34.208,90.216,80,101.096V496h176v-34.904c45.792-10.88,80-52.016,80-101.096v-40h-12.32   c7.632-8.504,12.32-19.696,12.32-32c0-10.176-3.208-19.608-8.632-27.384l-20.288-74.384c-0.128-0.456-0.296-0.888-0.424-1.336   l81.032-137.672C443.946,39.976,445.106,31.52,442.938,23.424z M203.994,64c0-5.896,3.24-11,8-13.776V56h16v-5.776   c4.76,2.776,8,7.88,8,13.776c0,8.824-7.176,16-16,16S203.994,72.824,203.994,64z M219.994,96c57.64,0,108.48,38.832,123.648,94.44   l14.496,53.144C352.53,241.288,346.41,240,339.994,240c-16.688,0-31.392,8.568-40,21.52c-8.608-12.96-23.312-21.52-40-21.52   s-31.392,8.568-40,21.52c-8.608-12.96-23.312-21.52-40-21.52s-31.392,8.568-40,21.52c-8.608-12.96-23.312-21.52-40-21.52   c-6.416,0-12.536,1.288-18.136,3.584l14.496-53.144C111.514,134.832,162.354,96,219.994,96z M299.994,314.48   c1.296,1.952,2.76,3.784,4.32,5.52h-8.64C297.234,318.256,298.698,316.432,299.994,314.48z M259.994,320c-17.648,0-32-14.352-32-32   s14.352-32,32-32s32,14.352,32,32S277.642,320,259.994,320z M147.994,288c0-17.648,14.352-32,32-32s32,14.352,32,32   s-14.352,32-32,32S147.994,305.648,147.994,288z M144.314,320h-8.64c1.56-1.744,3.024-3.568,4.32-5.52   C141.29,316.432,142.754,318.256,144.314,320z M219.994,314.48c1.296,1.952,2.76,3.784,4.32,5.52h-8.64   C217.234,318.256,218.698,316.432,219.994,314.48z M67.994,288c0-17.648,14.352-32,32-32s32,14.352,32,32s-14.352,32-32,32   S67.994,305.648,67.994,288z M283.994,448h-8v16h8c2.704,0,5.352-0.2,8-0.408V480h-144v-16.408c2.648,0.208,5.296,0.408,8,0.408   h104v-16h-104c-45.824,0-83.536-35.216-87.592-80h271.592v-16h-272v-16h304v16h-16v16h15.6C367.53,412.784,329.818,448,283.994,448   z M307.994,288c0-17.648,14.352-32,32-32s32,14.352,32,32s-14.352,32-32,32S307.994,305.648,307.994,288z M425.89,39.104   l-74.336,126.288c-4.952-11.064-11.208-21.336-18.592-30.64l65.32-110.976c4.384-7.456,14.168-10.008,21.808-5.672   c3.68,2.088,6.304,5.448,7.376,9.456C428.53,31.488,427.97,35.584,425.89,39.104z"/>
	<rect x="331.994" y="280" style="fill:#3F3A34;" width="16" height="16"/>
	<rect x="251.994" y="280" style="fill:#3F3A34;" width="16" height="16"/>
	<rect x="171.994" y="280" style="fill:#3F3A34;" width="16" height="16"/>
	<rect x="91.994" y="280" style="fill:#3F3A34;" width="16" height="16"/>
</g>
<g>
</g>
<g>
</g>
<g>
</g>
<g>
</g>
<g>
</g>
<g>
</g>
<g>
</g>
<g>
</g>
<g>
</g>
<g>
</g>
<g>
</g>
<g>
</g>
<g>
</g>
<g>
</g>
<g>
</g>
</svg>
