<?xml version="1.0" encoding="iso-8859-1"?>
<!-- Generator: Adobe Illustrator 19.0.0, SVG Export Plug-In . SVG Version: 6.00 Build 0)  -->
<svg xmlns="http://www.w3.org/2000/svg" xmlns:xlink="http://www.w3.org/1999/xlink" version="1.1" id="Layer_1" x="0px" y="0px" viewBox="0 0 496 496" style="enable-background:new 0 0 496 496;" xml:space="preserve">
<g>
	<path style="fill:#3F3A34;" d="M153.44,208c11.024,0,20-8.968,20-20s-8.976-20-20-20s-20,8.968-20,20S142.416,208,153.44,208z    M153.44,184c2.208,0,4,1.8,4,4s-1.792,4-4,4s-4-1.8-4-4S151.232,184,153.44,184z"/>
	<path style="fill:#3F3A34;" d="M257.44,208c11.024,0,20-8.968,20-20s-8.976-20-20-20s-20,8.968-20,20S246.416,208,257.44,208z    M257.44,184c2.208,0,4,1.8,4,4s-1.792,4-4,4s-4-1.8-4-4S255.232,184,257.44,184z"/>
	<path style="fill:#3F3A34;" d="M165.44,256v7.976c0,13.248,10.776,24.024,24.024,24.024h31.944   c13.256,0,24.032-10.776,24.032-24.024V256h-16v7.976c0,4.424-3.6,8.024-8.024,8.024h-31.944c-4.432,0-8.032-3.6-8.032-8.024V256   H165.44z"/>
	<path style="fill:#3F3A34;" d="M349.44,364.112c-9.456-7.592-20.208-13.36-31.8-17.04c34.848-9.12,51.312-19.8,52.232-20.416   l3.568-2.376V168c0-92.632-75.36-168-168-168s-168,75.368-168,168v156.28l3.56,2.376c0.92,0.616,17.376,11.288,52.192,20.408   c-30.224,9.72-54.656,33.784-64.264,64.544L2.56,496h394.88v-16H102.504l6.872-55.008l-15.872-1.984L86.376,480H24.32l19.88-63.624   c9.336-29.896,35.392-52.304,66.36-57.072l9.632-1.48l-0.112,0.12l85.36,76.824l85.352-76.824l-0.112-0.12l9.632,1.48   c19.08,2.936,36.344,12.448,49.128,26.808V408h16v-40h40v-16h-56L349.44,364.112L349.44,364.112z M53.44,168   c0-83.816,68.184-152,152-152s152,68.184,152,152v147.384c-9.064,4.856-35.616,17.104-82.232,23.872l-13.768-2.12v-8.288   c26.92-15.624,46.784-42.072,53.488-73.4c19.44-2.712,34.512-19.272,34.512-39.448c0-19.312-13.768-35.472-32-39.192V112h-16v26.52   c-7.288-5.2-17.016-14.44-24.84-30.096L274.384,104h-17.48l-2.328,3.88c-16.592,27.664-103.904,35.152-145.136,36.024V112h-16   v64.808c-18.232,3.72-32,19.88-32,39.192c0,20.176,15.072,36.736,34.512,39.448c6.704,31.328,26.568,57.776,53.488,73.4v8.288   l-13.768,2.12c-46.64-6.768-73.184-19.024-82.232-23.872V168z M109.44,159.912c30.504-0.6,127.384-5.184,155.584-39.192   c12.44,21.96,28.224,32.28,36.416,36.456V232c0,52.936-43.064,96-96,96s-96-43.064-96-96V159.912z M317.44,193.472   c9.288,3.312,16,12.112,16,22.528c0,10.536-6.872,19.416-16.336,22.632c0.128-2.208,0.336-4.392,0.336-6.632V193.472z    M165.44,336.488c12.44,4.784,25.896,7.512,40,7.512s27.56-2.728,40-7.512v3.76l-40,33.336l-40-33.336V336.488z M93.776,238.632   C84.312,235.416,77.44,226.536,77.44,216c0-10.416,6.712-19.216,16-22.528V232C93.44,234.24,93.648,236.424,93.776,238.632z    M140.576,354.864l0.024-0.184l14.48-2.232l50.36,41.968l50.352-41.96l14.48,2.232l0.024,0.184l-64.856,58.36L140.576,354.864z"/>
	<path style="fill:#3F3A34;" d="M409.152,299.72c-7.552,7.552-11.712,17.592-11.712,28.28s4.16,20.728,11.712,28.28l11.312-11.312   c-4.528-4.528-7.024-10.552-7.024-16.968s2.496-12.44,7.024-16.968c9.36-9.36,24.584-9.36,33.944,0l11.312-11.312   C450.136,284.136,424.752,284.12,409.152,299.72z"/>
	<path style="fill:#3F3A34;" d="M342.416,423.032l11.312-11.312c-15.592-15.584-40.976-15.6-56.568,0   c-7.56,7.552-11.72,17.592-11.72,28.28s4.16,20.728,11.712,28.28l11.312-11.312c-4.528-4.528-7.024-10.552-7.024-16.968   s2.496-12.44,7.024-16.968C317.824,413.672,333.056,413.672,342.416,423.032z"/>
</g>
<path style="fill:#FFA64D;" d="M493.44,496H304.752c-10.648,0-19.312-8.664-19.312-19.312c0-5.152,2.008-9.992,5.648-13.648  l169.384-169.384c3.664-3.648,8.504-5.656,13.656-5.656c10.648,0,19.312,8.664,19.312,19.312V496z"/>
<g>
</g>
<g>
</g>
<g>
</g>
<g>
</g>
<g>
</g>
<g>
</g>
<g>
</g>
<g>
</g>
<g>
</g>
<g>
</g>
<g>
</g>
<g>
</g>
<g>
</g>
<g>
</g>
<g>
</g>
</svg>
