<?xml version="1.0" encoding="iso-8859-1"?>
<!-- Generator: Adobe Illustrator 19.0.0, SVG Export Plug-In . SVG Version: 6.00 Build 0)  -->
<svg xmlns="http://www.w3.org/2000/svg" xmlns:xlink="http://www.w3.org/1999/xlink" version="1.1" id="Layer_1" x="0px" y="0px" viewBox="0 0 496 496" style="enable-background:new 0 0 496 496;" xml:space="preserve">
<path style="fill:#FFA64D;" d="M432,296v40c0,17.672-14.328,32-32,32s-32-14.328-32-32v-56c0,17.672-14.328,32-32,32  s-32-14.328-32-32v-8H56v112h384v-88H432z"/>
<path style="fill:#3F3A34;" d="M464,384H328v-64.808c2.584,0.528,5.264,0.808,8,0.808c9,0,17.312-2.984,24-8.016V336  c0,22.056,17.944,40,40,40s40-17.944,40-40v-40v-64c0-26.712-18.816-49.08-43.872-54.64c10.92-7.44,20.136-17.4,26.864-29.48  l3.776-6.776l-144.8-86.664L265.52,10.568C263.136,4.248,257,0,250.24,0c-4.456,0-8.768,1.848-11.832,5.072  c-3.048,3.2-4.664,7.576-4.44,11.984c0.304,6.104-2.264,11.92-7.632,17.296c-6.16,6.16-22.76,22.904-10.424,45.656H204  c-15.44,0-28,12.56-28,28c0,4.36,1.088,8.432,2.872,12.112C159.552,120.728,144,136.536,144,156c0,7.4,2.256,14.272,6.096,20H112  c-30.872,0-56,25.12-56,56v40h8h8h48v80h16v-80h48v112h-48v-16h-16v16H32c-17.648,0-32,14.352-32,32s14.352,32,32,32h32v48h368v-48  h32c17.648,0,32-14.352,32-32S481.648,384,464,384z M374.28,147.312l-5.8-22.432l29.376,17.584  C391.4,144.488,383.256,146.448,374.28,147.312z M323.336,133.936c-5.88-4.704-10.736-10.28-14.72-16.224l28.104-7.808  L323.336,133.936z M350.296,118.424l7.496,29.008c-6.92-0.648-13.952-2.232-20.76-5.2L350.296,118.424z M300.76,103.288  c-3.776-8.464-6.224-16.752-7.776-23.6l29.392,17.592L300.76,103.288z M280.544,95.208c6.064,19.36,17.968,43.208,41.368,57.208  c14.304,8.56,29.544,11.464,43.64,11.464c9.432,0,18.328-1.312,26.104-3.08c-7.376,5.984-15.904,10.408-25.256,12.912  c-17.592,4.696-35.952,2.12-51.704-7.312C289.872,151.544,277.28,123.056,280.544,95.208z M424,232v64v40c0,13.232-10.768,24-24,24  s-24-10.768-24-24v-56v-48h-16v48c0,13.232-10.768,24-24,24s-24-10.768-24-24v-88h36.76c0.096,0,0.192,0.016,0.288,0.016  s0.2-0.016,0.296-0.016H384C406.056,192,424,209.944,424,232z M160,156c0-11.024,8.968-20,20-20h24h12v-16h-12  c-6.616,0-12-5.384-12-12s5.384-12,12-12h44V80h-12.528c-15.208-16.864-5.632-26.528,2.184-34.344  c10.832-10.832,12.672-21.968,12.872-29.456l20.168,53.792c-15.368,37.872-3.16,82.28,29.624,106.008H240h-60  C168.968,176,160,167.024,160,156z M72,232c0-22.056,17.944-40,40-40h68h60h56v64H72V232z M200,272h48v16h16v-16h32v8  c0,13.016,6.344,24.488,16,31.792V384h-48v-80h-16v80h-48V272z M464,432h-64v16h16v32H80v-32h304v-16H32c-8.824,0-16-7.176-16-16  s7.176-16,16-16h432c8.824,0,16,7.176,16,16S472.824,432,464,432z"/>
<g>
</g>
<g>
</g>
<g>
</g>
<g>
</g>
<g>
</g>
<g>
</g>
<g>
</g>
<g>
</g>
<g>
</g>
<g>
</g>
<g>
</g>
<g>
</g>
<g>
</g>
<g>
</g>
<g>
</g>
</svg>
