<?xml version="1.0" encoding="iso-8859-1"?>
<!-- Generator: Adobe Illustrator 19.0.0, SVG Export Plug-In . SVG Version: 6.00 Build 0)  -->
<svg xmlns="http://www.w3.org/2000/svg" xmlns:xlink="http://www.w3.org/1999/xlink" version="1.1" id="Layer_1" x="0px" y="0px" viewBox="0 0 496 496" style="enable-background:new 0 0 496 496;" xml:space="preserve">
<g>
	<path style="fill:#FFA64D;" d="M168,324v-8c0-44.184-35.816-80-80-80S8,271.816,8,316v8H168z"/>
	<path style="fill:#FFA64D;" d="M328,324v-8c0-44.184-35.816-80-80-80s-80,35.816-80,80v8H328z"/>
	<path style="fill:#FFA64D;" d="M488,324v-8c0-44.184-35.816-80-80-80s-80,35.816-80,80v8H488z"/>
	<path style="fill:#FFA64D;" d="M248,236v-8c0-44.184-35.816-80-80-80s-80,35.816-80,80v8H248z"/>
	<path style="fill:#FFA64D;" d="M408,236v-8c0-44.184-35.816-80-80-80s-80,35.816-80,80v8H408z"/>
	<path style="fill:#FFA64D;" d="M328,148v-8c0-44.184-35.816-80-80-80s-80,35.816-80,80v8H328z"/>
</g>
<g>
	<path style="fill:#3F3A34;" d="M464,324H32c-17.648,0-32,14.352-32,32s14.352,32,32,32h35.72l32,48h296.56l32-48H464   c17.648,0,32-14.352,32-32S481.648,324,464,324z M464,372h-72v16h17.056l-21.336,32H108.28l-21.336-32H376v-16H32   c-8.824,0-16-7.176-16-16s7.176-16,16-16h432c8.824,0,16,7.176,16,16S472.824,372,464,372z"/>
	<rect x="80" y="260" style="fill:#3F3A34;" width="16" height="16"/>
	<rect x="120" y="284" style="fill:#3F3A34;" width="16" height="16"/>
	<rect x="40" y="284" style="fill:#3F3A34;" width="16" height="16"/>
	<rect x="240" y="260" style="fill:#3F3A34;" width="16" height="16"/>
	<rect x="280" y="284" style="fill:#3F3A34;" width="16" height="16"/>
	<rect x="200" y="284" style="fill:#3F3A34;" width="16" height="16"/>
	<rect x="400" y="260" style="fill:#3F3A34;" width="16" height="16"/>
	<rect x="440" y="284" style="fill:#3F3A34;" width="16" height="16"/>
	<rect x="360" y="284" style="fill:#3F3A34;" width="16" height="16"/>
	<rect x="160" y="172" style="fill:#3F3A34;" width="16" height="16"/>
	<rect x="200" y="196" style="fill:#3F3A34;" width="16" height="16"/>
	<rect x="120" y="196" style="fill:#3F3A34;" width="16" height="16"/>
	<rect x="320" y="172" style="fill:#3F3A34;" width="16" height="16"/>
	<rect x="360" y="196" style="fill:#3F3A34;" width="16" height="16"/>
	<rect x="280" y="196" style="fill:#3F3A34;" width="16" height="16"/>
	<rect x="240" y="84" style="fill:#3F3A34;" width="16" height="16"/>
	<rect x="280" y="108" style="fill:#3F3A34;" width="16" height="16"/>
	<rect x="200" y="108" style="fill:#3F3A34;" width="16" height="16"/>
</g>
<g>
</g>
<g>
</g>
<g>
</g>
<g>
</g>
<g>
</g>
<g>
</g>
<g>
</g>
<g>
</g>
<g>
</g>
<g>
</g>
<g>
</g>
<g>
</g>
<g>
</g>
<g>
</g>
<g>
</g>
</svg>
