<?xml version="1.0" encoding="iso-8859-1"?>
<!-- Generator: Adobe Illustrator 19.0.0, SVG Export Plug-In . SVG Version: 6.00 Build 0)  -->
<svg xmlns="http://www.w3.org/2000/svg" xmlns:xlink="http://www.w3.org/1999/xlink" version="1.1" id="Layer_1" x="0px" y="0px" viewBox="0 0 496 496" style="enable-background:new 0 0 496 496;" xml:space="preserve">
<path style="fill:#FFA64D;" d="M392,288H104c-22.056,0-40-17.944-40-40V72c0-22.056,17.944-40,40-40h288c22.056,0,40,17.944,40,40  v176C432,270.056,414.056,288,392,288z"/>
<g>
	<path style="fill:#3F3A34;" d="M458.792,18.176C456.12,7.48,446.536,0,435.504,0H60.496c-11.032,0-20.608,7.48-23.28,18.176   L0.24,166.064L0,496h496V168L458.792,18.176z M320,336H176v-16h144V336z M176,352h144v128H176V352z M336,480V304H160v176H16V256h48   v-16H16v-16h16v-16H16v-16h48v-16H16v-7.008L52.728,22.064C53.624,18.496,56.816,16,60.496,16h375.016   c3.68,0,6.864,2.496,7.768,6.064L480,168.992V176h-48v16h48v16h-16v16h16v16h-48v16h48v224H336z"/>
	<rect x="432" y="208" style="fill:#3F3A34;" width="16" height="16"/>
	<rect x="48" y="208" style="fill:#3F3A34;" width="16" height="16"/>
	<path style="fill:#3F3A34;" d="M40,400h96v-96H40V400z M120,384H96v-64h24V384z M56,320h24v64H56V320z"/>
	<path style="fill:#3F3A34;" d="M360,400h96v-96h-96V400z M440,384h-24v-64h24V384z M376,320h24v64h-24V320z"/>
	<rect x="208" y="192" style="fill:#3F3A34;" width="16" height="16"/>
	<rect x="240" y="208" style="fill:#3F3A34;" width="16" height="16"/>
	<rect x="272" y="192" style="fill:#3F3A34;" width="16" height="16"/>
	<path style="fill:#3F3A34;" d="M368,144c0-26.472-21.528-48-48-48c-5.176,0-10.272,0.864-15.216,2.592   C293.896,77.6,272.04,64,248,64s-45.896,13.6-56.784,34.592C186.272,96.864,181.176,96,176,96c-26.472,0-48,21.528-48,48   c0,19.704,11.944,36.664,28.968,44.048l8.776,48.248c2.072,11.416,12,19.704,23.608,19.704h117.296   c11.608,0,21.536-8.288,23.616-19.704l8.768-48.248C356.056,180.664,368,163.704,368,144z M144,144c0-17.648,14.352-32,32-32   c5.264,0,10.456,1.4,15.424,4.168l8.248,4.584l3.168-8.88C209.664,92.808,227.808,80,248,80c18.096,0,34.472,10.328,42.6,26.184   C279.08,115.144,272,128.976,272,144h16c0-10.728,5.4-20.544,14.072-26.44l2.504-1.392C309.544,113.4,314.736,112,320,112   c17.648,0,32,14.352,32,32s-14.352,32-32,32c-10.264,0-19.672-4.832-25.808-13.256l-5.528-7.592l-6.616,6.664   C272.968,170.968,260.872,176,248,176c-10.776,0-20.976-3.568-29.344-10.08C222.048,159.336,224,151.896,224,144h-16   c0,6.408-1.936,12.36-5.192,17.368l-1,1.376c-1.408,1.936-3.032,3.632-4.76,5.168c-0.368,0.328-0.752,0.632-1.136,0.944   c-1.376,1.12-2.856,2.088-4.384,2.952c-0.624,0.352-1.24,0.72-1.888,1.024c-1.472,0.704-3.016,1.232-4.584,1.704   c-0.688,0.2-1.336,0.48-2.04,0.632C180.736,175.68,178.4,176,176,176C158.352,176,144,161.648,144,144z M314.52,233.432   c-0.688,3.808-4.008,6.568-7.872,6.568H189.352c-3.864,0-7.176-2.76-7.864-6.568l-7.544-41.536c0.68,0.032,1.36,0.104,2.056,0.104   c1.56,0,3.12-0.08,4.664-0.232c1.44-0.136,2.856-0.36,4.256-0.624c0.064-0.008,0.128-0.016,0.184-0.032   c9.168-1.768,17.392-6.16,23.912-12.352C220.144,187.344,233.712,192,248,192c14.304,0,27.888-4.664,39.024-13.272   C295.88,187.152,307.704,192,320,192c0.696,0,1.376-0.072,2.064-0.104L314.52,233.432z"/>
	<rect x="344" y="240" style="fill:#3F3A34;" width="16" height="16"/>
	<rect x="376" y="240" style="fill:#3F3A34;" width="16" height="16"/>
	<rect x="104" y="240" style="fill:#3F3A34;" width="16" height="16"/>
	<rect x="136" y="240" style="fill:#3F3A34;" width="16" height="16"/>
</g>
<g>
</g>
<g>
</g>
<g>
</g>
<g>
</g>
<g>
</g>
<g>
</g>
<g>
</g>
<g>
</g>
<g>
</g>
<g>
</g>
<g>
</g>
<g>
</g>
<g>
</g>
<g>
</g>
<g>
</g>
</svg>
