<?xml version="1.0" encoding="iso-8859-1"?>
<!-- Generator: Adobe Illustrator 19.0.0, SVG Export Plug-In . SVG Version: 6.00 Build 0)  -->
<svg xmlns="http://www.w3.org/2000/svg" xmlns:xlink="http://www.w3.org/1999/xlink" version="1.1" id="Layer_1" x="0px" y="0px" viewBox="0 0 496 496" style="enable-background:new 0 0 496 496;" xml:space="preserve">
<g>
	<path style="fill:#3F3A34;" d="M464,348h-26.848C453.504,334.792,464,314.608,464,292v-8h-48v16h31.432   c-3.896,27.104-27.264,48-55.432,48h-64c-28.168,0-51.536-20.896-55.432-48H400v-16H256v8c0,22.608,10.496,42.792,26.848,56H213.16   c16.344-13.208,26.84-33.392,26.84-56v-8H32v8c0,22.608,10.496,42.792,26.848,56H32c-17.648,0-32,14.352-32,32s14.352,32,32,32h32   v48h368v-48h32c17.648,0,32-14.352,32-32S481.648,348,464,348z M48.568,300h174.856c-3.896,27.104-27.264,48-55.432,48h-64   C75.832,348,52.464,327.104,48.568,300z M464,396h-64v16h16v32H80v-32h304v-16H32c-8.824,0-16-7.176-16-16s7.176-16,16-16h72h64   h160h64h72c8.824,0,16,7.176,16,16S472.824,396,464,396z"/>
	<path style="fill:#3F3A34;" d="M240,260c0-18.448-7.032-35.248-18.488-48h52.976C263.032,224.752,256,241.552,256,260v8h208v-8   c0-39.704-32.304-72-72-72h-58.488C344.968,175.248,352,158.448,352,140v-8h-48v16h31.432c-3.896,27.104-27.264,48-55.432,48h-64   c-28.168,0-51.536-20.896-55.432-48H288v-16H144v8c0,18.448,7.032,35.248,18.488,48H104c-39.696,0-72,32.296-72,72v8h208V260z    M447.432,252H272.568c3.896-27.104,27.264-48,55.432-48h64C420.168,204,443.536,224.896,447.432,252z M48.568,252   c3.896-27.104,27.264-48,55.432-48h64c28.168,0,51.536,20.896,55.432,48H48.568z"/>
	<path style="fill:#3F3A34;" d="M352,108c0-39.696-32.304-72-72-72h-64c-39.696,0-72,32.304-72,72v8h208V108z M160.568,100   c3.896-27.104,27.264-48,55.432-48h64c28.168,0,51.536,20.896,55.432,48H160.568z"/>
</g>
<g>
	<rect x="160" y="116" style="fill:#FFA64D;" width="176" height="16"/>
	<rect x="272" y="268" style="fill:#FFA64D;" width="176" height="16"/>
	<rect x="48" y="268" style="fill:#FFA64D;" width="176" height="16"/>
</g>
<g>
</g>
<g>
</g>
<g>
</g>
<g>
</g>
<g>
</g>
<g>
</g>
<g>
</g>
<g>
</g>
<g>
</g>
<g>
</g>
<g>
</g>
<g>
</g>
<g>
</g>
<g>
</g>
<g>
</g>
</svg>
