<?xml version="1.0" encoding="iso-8859-1"?>
<!-- Generator: Adobe Illustrator 19.0.0, SVG Export Plug-In . SVG Version: 6.00 Build 0)  -->
<svg xmlns="http://www.w3.org/2000/svg" xmlns:xlink="http://www.w3.org/1999/xlink" version="1.1" id="Layer_1" x="0px" y="0px" viewBox="0 0 496 496" style="enable-background:new 0 0 496 496;" xml:space="preserve">
<path style="fill:#FFA64D;" d="M256,264c-75.408,0-97.888-17.584-102.792-22.624C162.264,293.528,177.92,344.68,200,392h112  c22.08-47.32,37.736-98.472,46.792-150.624C353.888,246.416,331.408,264,256,264z"/>
<g>
	<rect x="176" y="224" style="fill:#3F3A34;" width="16" height="16"/>
	<path style="fill:#3F3A34;" d="M406.248,325.768c1.16-2.672,1.752-5.528,1.752-8.472c0-11.744-9.552-21.296-21.296-21.296h-31.768   c4.464-16.856,8.384-33.904,11.44-51.184c0.096-0.128,0.224-0.296,0.28-0.384l-0.2-0.136c5.4-30.712,8.584-61.944,9.36-93.264   c0.152-6.056-2.112-11.8-6.368-16.168c-4.264-4.36-10.192-6.864-16.312-6.864c-0.52,0-1.008,0.168-1.52,0.208   c-1.48-13.904-10.792-25.392-23.528-29.968C332.968,92.096,336,84.432,336,76c0-19.848-16.152-36-36-36h-4.728   c-3.32-18.128-17.088-31.024-23.464-36.144C268.704,1.368,264.76,0,260.712,0h-1.608c-9.744,0-17.584,7.704-17.832,17.544   c-0.2,7.528-3.952,12.248-11.808,14.864c-15.152,5.048-24.504,18.816-22.248,32.728c0.376,2.256,1.184,4.584,2.312,6.864H208   c-6.728,0-12.96,2.112-18.12,5.672l-39.408-65.64c-6.856-11.44-22.056-15.408-33.88-8.84c-5.888,3.272-10.072,8.584-11.784,14.976   c-1.672,6.272-0.752,12.808,2.608,18.392l55.208,91.952c-1.256-0.216-2.496-0.512-3.784-0.512c-6.096,0-12.024,2.504-16.28,6.864   c-4.264,4.368-6.52,10.104-6.368,16.168c0.672,27.16,3.312,54.224,7.48,80.968H112c-13.232,0-24,10.768-24,24   c0,1.232,1.12,119.336,93.528,149.288L148.44,454.92c-2.904,4.352-4.44,9.424-4.44,14.656C144,484.152,155.848,496,170.424,496   h171.16C356.152,496,368,484.152,368,469.576c0-5.232-1.536-10.304-4.44-14.656l-32.216-48.32   C371.744,397.64,398.528,343.448,406.248,325.768z M306.752,384H205.248c-2.832-6.224-5.568-12.504-8.184-18.856   c4.24-1.904,7.92-4.744,10.936-8.208c5.872,6.728,14.4,11.064,24,11.064s18.128-4.336,24-11.056c5.872,6.72,14.4,11.056,24,11.056   s18.128-4.336,24-11.056c3.024,3.456,6.704,6.296,10.936,8.208C312.32,371.496,309.592,377.776,306.752,384z M343.088,277.344   C340.832,283.72,334.768,288,328,288c-8.824,0-16-7.176-16-16v-4.128c15.864-2.688,27.256-6.344,35.44-10   c-1.336,6.528-2.672,13.048-4.208,19.52L343.088,277.344z M192,302.864c6.32-1.64,11.832-5.144,16-9.92   c4.168,4.776,9.68,8.28,16,9.92V304c0,8.824-7.176,16-16,16s-16-7.176-16-16V302.864z M256,292.944c4.168,4.776,9.68,8.28,16,9.92   V304c0,8.824-7.176,16-16,16s-16-7.176-16-16v-1.136C246.32,301.224,251.832,297.72,256,292.944z M216,334.864   c6.32-1.64,11.832-5.144,16-9.92c4.168,4.776,9.68,8.28,16,9.92V336c0,8.824-7.176,16-16,16s-16-7.176-16-16V334.864z M264,334.864   c6.32-1.64,11.832-5.144,16-9.92c4.168,4.776,9.68,8.28,16,9.92V336c0,8.824-7.176,16-16,16s-16-7.176-16-16V334.864z M304,320   c-8.824,0-16-7.176-16-16v-1.136c6.32-1.64,11.832-5.144,16-9.92c4.168,4.776,9.68,8.28,16,9.92V304   C320,312.824,312.824,320,304,320z M296,272c0,8.824-7.176,16-16,16s-16-7.176-16-16v-0.136c11.952-0.208,22.608-0.848,32-1.84V272   z M248,272c0,8.824-7.176,16-16,16s-16-7.176-16-16v-1.984c9.392,0.992,20.048,1.632,32,1.84V272z M200,272c0,8.824-7.176,16-16,16   c-6.768,0-12.832-4.28-15.088-10.656l-0.144,0.048c-1.544-6.464-2.88-12.992-4.208-19.52c8.184,3.656,19.576,7.312,35.44,10V272z    M176,302.888V304c0,0.496,0.12,0.952,0.144,1.44c-0.264-0.912-0.568-1.8-0.824-2.712C175.544,302.792,175.776,302.832,176,302.888   z M200,334.864V336c0,6.208-3.592,11.536-8.768,14.192c-3.632-9.56-7.016-19.24-10.152-29.04   C185.376,327.872,192.088,332.808,200,334.864z M320.768,350.192C315.592,347.536,312,342.208,312,336v-1.136   c6.328-1.648,11.84-5.16,16.016-9.944c0.416,0.48,0.832,0.96,1.28,1.416C326.632,334.376,323.76,342.312,320.768,350.192z    M336.08,304.728c-0.016-0.248-0.08-0.48-0.08-0.728v-1.112c0.224-0.056,0.456-0.096,0.68-0.16   C336.488,303.4,336.272,304.056,336.08,304.728z M208,88h48V72h-16c-9.68,0-16.024-3.52-16.984-9.424   c-0.856-5.256,2.832-12.096,11.512-14.992c14.288-4.76,22.36-15.288,22.736-29.632c0.032-1.112,0.824-1.952,1.848-1.952h1.608   c0.304,0,0.728,0.056,1.08,0.336C267.272,20.728,280,32.608,280,48v8h20c11.024,0,20,8.976,20,20s-8.976,20-20,20h-4h-16v16h16h4   h16c11.024,0,20,8.976,20,20c0,1.744-0.272,3.448-0.712,5.104c-0.608,0.792-1.312,1.488-1.824,2.368   C325.504,153.112,304.856,176,256,176c-44.8,0-65.84-19.224-75.168-32.936C184.584,138.688,190.096,136,196,136h36v-16h-24   c-8.824,0-16-7.176-16-16S199.176,88,208,88z M120.264,22.304c0.576-2.16,2.032-3.984,4.088-5.12   c4.36-2.408,9.928-1.032,12.4,3.088l42.256,70.384C177.128,94.728,176,99.224,176,104c0,7.024,2.272,13.52,6.128,18.808   c-1.128,0.472-2.16,1.128-3.24,1.712l-57.752-96.192C120.024,26.48,119.72,24.344,120.264,22.304z M154.008,146.04   c2.92-3,8.408-2.448,10.704,1.496C172.512,160.904,197.024,192,256,192s83.488-31.096,91.288-44.472   c2.272-3.904,7.736-4.536,10.704-1.496c1.224,1.256,1.872,2.88,1.832,4.592c0,0.04-0.008,0.088-0.008,0.128   c-1.848,4.04-7.84,15.696-20.296,27.416l10.968,11.648c2.92-2.744,5.432-5.464,7.776-8.152   c-1.416,18.672-3.808,37.232-6.912,55.624C344.768,242.48,321.32,256,256,256c-65.68,0-89-13.656-95.336-18.64   c-3.096-18.344-5.48-36.856-6.896-55.48C170.656,201.304,201.88,224,256,224c32.2,0,59.912-8.144,82.36-24.208l-9.312-13.016   C309.368,200.856,284.792,208,256,208c-74.624,0-99.608-47.768-103.808-57.184c0-0.064-0.008-0.12-0.008-0.184   C152.136,148.92,152.792,147.296,154.008,146.04z M134.504,352H152v-16h-27.488c-2.816-5.304-5.248-10.664-7.344-16H136v-16   h-24.272c-1.608-5.6-2.888-10.984-3.896-16H128v-16h-22.752c-1.168-9.568-1.248-15.744-1.248-16c0-4.408,3.592-8,8-8h34.216   c9.08,49.856,24.16,98.208,44.712,143.184l-0.104,0.152C165.28,384.16,147.224,369.344,134.504,352z M352,469.576   c0,5.752-4.672,10.424-10.424,10.424h-8.936l-29.696-51.968l-13.888,7.936L314.216,480H264v-48h-16v48h-50.216l25.16-44.032   l-13.888-7.936L179.36,480h-8.936c-5.752,0-10.424-4.672-10.424-10.424c0-2.064,0.608-4.064,1.752-5.784L204.28,400h103.44   l42.528,63.8C351.392,465.512,352,467.512,352,469.576z M321.512,391.848l-0.44-0.656c11.616-25.424,21.472-51.928,29.488-79.184   h36.144c2.92-0.008,5.296,2.368,5.296,5.288c0,0.752-0.144,1.432-0.424,2.088C388.376,326.712,359.536,390.168,321.512,391.848z"/>
</g>
<g>
</g>
<g>
</g>
<g>
</g>
<g>
</g>
<g>
</g>
<g>
</g>
<g>
</g>
<g>
</g>
<g>
</g>
<g>
</g>
<g>
</g>
<g>
</g>
<g>
</g>
<g>
</g>
<g>
</g>
</svg>
