<?xml version="1.0" encoding="iso-8859-1"?>
<!-- Generator: Adobe Illustrator 19.0.0, SVG Export Plug-In . SVG Version: 6.00 Build 0)  -->
<svg xmlns="http://www.w3.org/2000/svg" xmlns:xlink="http://www.w3.org/1999/xlink" version="1.1" id="Layer_1" x="0px" y="0px" viewBox="0 0 496 496" style="enable-background:new 0 0 496 496;" xml:space="preserve">
<path style="fill:#FFA64D;" d="M440,48H296c-30.872,0-56,25.128-56,56v96h32c13.256,0,24,10.744,24,24s-10.744,24-24,24  c13.256,0,24,10.744,24,24s-10.744,24-24,24c13.256,0,24,10.744,24,24c0,6.176-2.4,11.744-6.232,16H440c30.872,0,56-25.128,56-56  V104C496,73.128,470.872,48,440,48z"/>
<path style="fill:#3F3A34;" d="M464,336H299.552c2.752-4.728,4.448-10.144,4.448-16s-1.696-11.272-4.448-16H440  c13.232,0,24-10.768,24-24V104c0-13.232-10.768-24-24-24H296c-13.232,0-24,10.768-24,24v88h-26.808  c1.744-3.648,2.808-7.688,2.808-12c0-15.44-12.56-28-28-28h-4.44c1.984-4.32,2.928-8.68,2.824-13.072  c-0.336-14-11.264-23.92-17.792-29.848c-1.104-1-2.112-1.912-2.936-2.736c-7.568-7.568-8.192-17.784-7.392-25.024  c0.496-4.448-0.928-8.896-3.888-12.2c-2.904-3.256-7.072-5.12-12.024-5.12c-7,0-13,4.656-14.92,11.584  c-3.04,10.952-16.256,25.92-21.088,30.76c-6.16,6.16-22.888,22.888-10.528,45.656H116c-15.44,0-28,12.56-28,28  c0,4.312,1.064,8.352,2.808,12H56c-17.648,0-32,14.352-32,32v70.64c0,8.584,3.144,16.384,8.256,22.312  C32.16,317.968,32,318.968,32,320c0,5.856,1.696,11.272,4.448,16H32c-17.648,0-32,14.352-32,32s14.352,32,32,32h32v48h368v-48h32  c17.648,0,32-14.352,32-32S481.648,336,464,336z M292.944,248c2.624-2.288,4.84-4.976,6.608-8H360v48h-60.448  c2.752-4.728,4.448-10.144,4.448-16C304,262.392,299.664,253.872,292.944,248z M440,288h-64v-48h40v-16h-40v-56h72v56h-16v16h16v40  C448,284.416,444.408,288,440,288z M448,104v48h-72V96h64C444.408,96,448,99.592,448,104z M296,96h64v56h-72v-48  C288,99.592,291.592,96,296,96z M288,168h72v56h-56c0-11.792-6.48-22-16-27.552V168z M288,224c0,8.824-7.176,16-16,16H136v-32h72h12  h52C280.824,208,288,215.176,288,224z M104,180c0-6.616,5.384-12,12-12h47.312l-13.656-13.656c-18.344-18.344-8.168-28.512,0-36.688  c2.08-2.08,20.472-20.824,24.704-38.104c-1.688,15.16,2.568,28.688,11.984,38.104c0.976,0.976,2.168,2.072,3.488,3.264  c5.224,4.744,12.384,11.248,12.56,18.392c0.104,4.52-2.6,9.576-8.048,15.024L180.688,168H220c6.616,0,12,5.384,12,12  s-5.384,12-12,12h-12h-72h-8l0,0h-12C109.384,192,104,186.616,104,180z M40,224c0-8.824,7.176-16,16-16h60h4v38.64  c0,9.128-6.784,16.896-15.128,17.336c-4.392,0.288-8.672-1.312-11.888-4.376C89.768,256.552,88,252.432,88,248v-16H72v16v8v40  c0,4.432-1.768,8.552-4.992,11.6c-3.216,3.064-7.496,4.608-11.88,4.376C46.784,311.536,40,303.768,40,294.64V224z M49.832,327.272  c1.472,0.296,2.936,0.608,4.472,0.696c0.568,0.016,1.144,0.032,1.712,0.032c8.24,0,16-3.088,22.008-8.792  c4.36-4.136,7.32-9.464,8.816-15.208H240v-16H88v-12.264c5.304,3.08,11.376,4.504,17.704,4.224  c13.872-0.728,25.144-10.672,28.872-23.96H272c8.824,0,16,7.176,16,16s-7.176,16-16,16h-16v16h16c8.824,0,16,7.176,16,16  s-7.176,16-16,16H64C57.808,336,52.488,332.424,49.832,327.272z M464,384h-64v16h16v32H80v-32h304v-16H32c-8.824,0-16-7.176-16-16  s7.176-16,16-16h32h208h192c8.824,0,16,7.176,16,16S472.824,384,464,384z"/>
<g>
</g>
<g>
</g>
<g>
</g>
<g>
</g>
<g>
</g>
<g>
</g>
<g>
</g>
<g>
</g>
<g>
</g>
<g>
</g>
<g>
</g>
<g>
</g>
<g>
</g>
<g>
</g>
<g>
</g>
</svg>
