<?xml version="1.0" encoding="iso-8859-1"?>
<!-- Generator: Adobe Illustrator 19.0.0, SVG Export Plug-In . SVG Version: 6.00 Build 0)  -->
<svg xmlns="http://www.w3.org/2000/svg" xmlns:xlink="http://www.w3.org/1999/xlink" version="1.1" id="Layer_1" x="0px" y="0px" viewBox="0 0 480 480" style="enable-background:new 0 0 480 480;" xml:space="preserve">
<path style="fill:#FFA64D;" d="M376.952,115.504c-7.184-22.12-28.992-36.088-52.088-33.384l-30.912,3.624l-6.104-30.52  C283.28,32.416,263.256,16,240,16s-43.28,16.416-47.848,39.224l-6.104,30.52l-30.912-3.624  c-23.104-2.712-44.904,11.264-52.088,33.384s2.24,46.24,22.52,57.624l27.144,15.24l-13,28.28  c-9.712,21.136-3.168,46.184,15.656,59.856s44.664,12.16,61.76-3.608L240,251.784l22.88,21.104  c17.096,15.768,42.944,17.28,61.76,3.608s25.368-38.72,15.656-59.856l-13-28.28l27.144-15.24  C374.712,161.736,384.136,137.624,376.952,115.504z M240,192c-17.672,0-32-14.328-32-32s14.328-32,32-32s32,14.328,32,32  S257.672,192,240,192z"/>
<g>
	<path style="fill:#3F3A34;" d="M240,120c-22.056,0-40,17.944-40,40s17.944,40,40,40s40-17.944,40-40S262.056,120,240,120z M240,184   c-13.232,0-24-10.768-24-24s10.768-24,24-24s24,10.768,24,24S253.232,184,240,184z"/>
	<path style="fill:#3F3A34;" d="M400,352c0-26.032-20.84-47.24-46.704-47.936V304c-0.144,0-0.288,0.04-0.432,0.04   c-0.288,0-0.576-0.04-0.864-0.04h-42.72C362.856,278.112,400,223.384,400,160C400,71.776,328.224,0,240,0S80,71.776,80,160   c0,63.384,37.144,118.112,90.72,144H128c-26.472,0-48,21.528-48,48c0,16.688,8.568,31.392,21.52,40   C88.56,400.608,80,415.312,80,432c0,26.472,21.528,48,48,48h224c26.472,0,48-21.528,48-48c0-16.688-8.568-31.392-21.52-40   C391.432,383.392,400,368.688,400,352z M318.096,320h18.032c-0.032,0.432-0.128,0.856-0.128,1.296V352c0,4.408-3.584,8-8,8   s-8-3.592-8-8v-22.416C320,326.192,319.304,322.968,318.096,320z M96,160c0-79.4,64.6-144,144-144s144,64.6,144,144   s-64.6,144-144,144S96,239.4,96,160z M270.728,320c-0.592,1.464-1.08,2.984-1.4,4.568l-2.664,13.336   c-0.712,3.536-3.832,6.096-7.44,6.096c-3.264,0-6.152-2.08-7.184-5.184l-1.832-5.504C247.552,325.344,240.144,320,231.752,320   c-8,0-15.088,4.8-18.056,12.224L203.392,358c-1.024,2.536-5.28,2.304-6.016-0.304L186.608,320h45.144H270.728z M129.168,400H147.2   c-1.208,2.968-1.904,6.192-1.904,9.584V432c0,4.408-3.584,8-8,8s-8-3.592-8-8v-30.704C129.296,400.856,129.2,400.432,129.168,400z    M384,432c0,17.648-14.352,32-32,32H128c-17.648,0-32-14.352-32-32c0-12.32,7.072-22.904,17.296-28.256V432   c0,13.232,10.768,24,24,24s24-10.768,24-24v-22.416c0-5.288,4.296-9.584,9.584-9.584c4.552,0,8.504,3.24,9.4,7.704l2.672,13.336   c2.184,10.984,11.912,18.96,23.12,18.96c10.168,0,19.152-6.48,22.376-16.128l1.832-5.504c0.936-2.768,5.416-2.872,6.48-0.2   l10.312,25.784c2.92,7.32,9.912,12.048,17.792,12.048c8.512,0,16.096-5.72,18.448-13.912L295.336,400H352   C369.648,400,384,414.352,384,432z M194.576,400h38.968h45.144l-10.76,37.688c-0.76,2.616-5.016,2.832-6.016,0.32L251.6,412.224   C248.624,404.8,241.536,400,233.544,400c-8.376,0-15.792,5.344-18.456,13.304l-1.832,5.504c-1.032,3.104-3.92,5.192-7.184,5.192   c-3.6,0-6.728-2.56-7.432-6.096l-2.672-13.336C195.648,402.984,195.168,401.464,194.576,400z M352,384H128   c-17.648,0-32-14.352-32-32s14.352-32,32-32h41.96l12.032,42.096c2.344,8.184,9.92,13.904,18.44,13.904   c7.88,0,14.872-4.728,17.816-12.056l10.312-25.784c1.08-2.696,5.536-2.568,6.472,0.2l1.832,5.512   c3.208,9.648,12.2,16.128,22.36,16.128c11.192,0,20.92-7.968,23.128-18.96l2.664-13.336c0.896-4.464,4.848-7.704,9.4-7.704   c5.288,0,9.584,4.304,9.584,9.584V352c0,13.232,10.768,24,24,24s24-10.768,24-24v-30.704c0-0.616,0.464-1.064,1.04-1.192   C370.2,320.672,384,334.712,384,352C384,369.648,369.648,384,352,384z"/>
	<rect x="120" y="336" style="fill:#3F3A34;" width="16" height="16"/>
	<rect x="152" y="352" style="fill:#3F3A34;" width="16" height="16"/>
	<rect x="304" y="416" style="fill:#3F3A34;" width="16" height="16"/>
	<rect x="336" y="432" style="fill:#3F3A34;" width="16" height="16"/>
</g>
<g>
</g>
<g>
</g>
<g>
</g>
<g>
</g>
<g>
</g>
<g>
</g>
<g>
</g>
<g>
</g>
<g>
</g>
<g>
</g>
<g>
</g>
<g>
</g>
<g>
</g>
<g>
</g>
<g>
</g>
</svg>
