<?xml version="1.0" encoding="iso-8859-1"?>
<!-- Generator: Adobe Illustrator 19.0.0, SVG Export Plug-In . SVG Version: 6.00 Build 0)  -->
<svg xmlns="http://www.w3.org/2000/svg" xmlns:xlink="http://www.w3.org/1999/xlink" version="1.1" id="Layer_1" x="0px" y="0px" viewBox="0 0 496 496" style="enable-background:new 0 0 496 496;" xml:space="preserve">
<path style="fill:#3F3A34;" d="M464,384H359.112C369.52,373.824,376,359.664,376,344v-32c0-30.88-25.128-56-56-56h-8.888  C321.52,245.824,328,231.664,328,216v-32c0-15.664-6.48-29.824-16.888-40H320c30.872,0,56-25.12,56-56V56c0-30.88-25.128-56-56-56  H176c-30.872,0-56,25.12-56,56v32c0,15.664,6.48,29.824,16.888,40H128c-30.872,0-56,25.12-56,56v32c0,30.88,25.128,56,56,56h8.888  C126.48,282.176,120,296.336,120,312v32c0,15.664,6.48,29.824,16.888,40H32c-17.648,0-32,14.352-32,32s14.352,32,32,32h32v48h368  v-48h32c17.648,0,32-14.352,32-32S481.648,384,464,384z M312,192v16H88v-16H312z M176,16h144c19.312,0,35.472,13.768,39.192,32  H136.808C140.528,29.768,156.688,16,176,16z M136.808,96H168V80h-32V64h224v16H184v16h175.192c-3.72,18.232-19.872,32-39.192,32h-48  h-96C156.688,128,140.528,114.232,136.808,96z M128,144h48h96c19.312,0,35.472,13.768,39.192,32H88.808  C92.528,157.768,108.688,144,128,144z M128,256c-19.312,0-35.472-13.768-39.192-32h222.384c-3.72,18.232-19.872,32-39.192,32h-96  H128z M272,272h48c19.312,0,35.472,13.768,39.192,32H136.808c3.72-18.232,19.872-32,39.192-32H272z M136.808,352H312v-16H136v-16  h224v16h-32v16h31.192c-3.72,18.232-19.872,32-39.192,32H176C156.688,384,140.528,370.232,136.808,352z M464,432h-64v16h16v32H80  v-32h304v-16H32c-8.824,0-16-7.176-16-16s7.176-16,16-16h144h144h144c8.824,0,16,7.176,16,16S472.824,432,464,432z"/>
<g>
	<rect x="136" y="64" style="fill:#FFA64D;" width="224" height="16"/>
	<rect x="136" y="320" style="fill:#FFA64D;" width="224" height="16"/>
	<rect x="88" y="192" style="fill:#FFA64D;" width="224" height="16"/>
</g>
<g>
</g>
<g>
</g>
<g>
</g>
<g>
</g>
<g>
</g>
<g>
</g>
<g>
</g>
<g>
</g>
<g>
</g>
<g>
</g>
<g>
</g>
<g>
</g>
<g>
</g>
<g>
</g>
<g>
</g>
</svg>
