<?xml version="1.0" encoding="iso-8859-1"?>
<!-- Generator: Adobe Illustrator 19.0.0, SVG Export Plug-In . SVG Version: 6.00 Build 0)  -->
<svg xmlns="http://www.w3.org/2000/svg" xmlns:xlink="http://www.w3.org/1999/xlink" version="1.1" id="Layer_1" x="0px" y="0px" viewBox="0 0 488 488" style="enable-background:new 0 0 488 488;" xml:space="preserve">
<path style="fill:#3F3A34;" d="M385.544,296l-22.056-58.808l-14.984,5.616L368.456,296h-62.208L302,279l-15.52,3.88l3.272,13.12  h-91.504l21.512-86.056l-15.52-3.88L181.752,296h-62.208l19.944-53.192l-14.984-5.616L102.456,296H76v40c0,30.88,25.12,56,56,56h80  v48h-56c-13.232,0-24,10.768-24,24v24h224v-24c0-13.232-10.768-24-24-24h-56v-48h80c30.88,0,56-25.12,56-56v-40H385.544z M340,464v8  H148v-8c0-4.408,3.592-8,8-8h176C336.408,456,340,459.592,340,464z M260,440h-32v-48h32V440z M396,336c0,22.056-17.944,40-40,40h-80  h-64h-80c-22.056,0-40-17.944-40-40v-24h304V336z"/>
<path style="fill:#FFA64D;" d="M244,264c-21.864,0-39.688-17.64-39.992-39.432l-18.352,18.344c-15.584,15.584-40.968,15.6-56.568,0  c-15.584-15.592-15.584-40.976,0-56.568l45.256-45.256c10.872-10.872,27.152-14.32,41.432-9.336  C223.224,124.304,233.384,120,244,120s20.776,4.304,28.224,11.752c14.288-4.992,30.552-1.536,41.432,9.336l45.256,45.256  c15.584,15.592,15.584,40.976,0,56.568c-15.592,15.592-40.976,15.592-56.568,0l-18.352-18.344C283.688,246.36,265.864,264,244,264z"/>
<g>
	<path style="fill:#3F3A34;" d="M244,136c22.056,0,40-17.944,40-40c0-17.856-11.848-32.848-28.032-37.968   C264.96,33.552,288.44,16,316,16V0c-35.92,0-66.376,23.8-76.456,56.448C219.608,58.696,204,75.472,204,96   C204,118.056,221.944,136,244,136z M236.336,73.368C236.152,75.56,236,77.76,236,80v8h16v-8c0-2.168,0.112-4.312,0.328-6.424   C261.448,76.976,268,85.704,268,96c0,13.232-10.768,24-24,24s-24-10.768-24-24C220,85.464,226.872,76.584,236.336,73.368z"/>
	
		<rect x="275.139" y="207.119" transform="matrix(-0.9701 0.2425 -0.2425 -0.9701 615.2158 397.5698)" style="fill:#3F3A34;" width="15.999" height="59.061"/>
	<rect x="108" y="328" style="fill:#3F3A34;" width="16" height="16"/>
	<rect x="140" y="328" style="fill:#3F3A34;" width="136" height="16"/>
</g>
<g>
</g>
<g>
</g>
<g>
</g>
<g>
</g>
<g>
</g>
<g>
</g>
<g>
</g>
<g>
</g>
<g>
</g>
<g>
</g>
<g>
</g>
<g>
</g>
<g>
</g>
<g>
</g>
<g>
</g>
</svg>
